%TF.GenerationSoftware,KiCad,Pcbnew,9.0.0*%
%TF.CreationDate,2025-02-27T14:05:11-05:00*%
%TF.ProjectId,Detector_de_Incendios,44657465-6374-46f7-925f-64655f496e63,rev?*%
%TF.SameCoordinates,Original*%
%TF.FileFunction,Copper,L2,Bot*%
%TF.FilePolarity,Positive*%
%FSLAX46Y46*%
G04 Gerber Fmt 4.6, Leading zero omitted, Abs format (unit mm)*
G04 Created by KiCad (PCBNEW 9.0.0) date 2025-02-27 14:05:11*
%MOMM*%
%LPD*%
G01*
G04 APERTURE LIST*
%ADD10C,0.100000*%
%ADD11C,0.150000*%
%ADD12C,0.300000*%
%ADD13C,0.400000*%
%TA.AperFunction,ComponentPad*%
%ADD14C,1.600000*%
%TD*%
%TA.AperFunction,ComponentPad*%
%ADD15O,1.600000X1.600000*%
%TD*%
%TA.AperFunction,ComponentPad*%
%ADD16R,1.700000X1.700000*%
%TD*%
%TA.AperFunction,ComponentPad*%
%ADD17O,1.700000X1.700000*%
%TD*%
%TA.AperFunction,ComponentPad*%
%ADD18O,5.000000X2.500000*%
%TD*%
%TA.AperFunction,ComponentPad*%
%ADD19O,4.500000X2.250000*%
%TD*%
%TA.AperFunction,ComponentPad*%
%ADD20O,2.250000X4.500000*%
%TD*%
%TA.AperFunction,ComponentPad*%
%ADD21C,1.408000*%
%TD*%
%TA.AperFunction,ComponentPad*%
%ADD22C,1.524000*%
%TD*%
%TA.AperFunction,ComponentPad*%
%ADD23O,1.800000X1.800000*%
%TD*%
%TA.AperFunction,ComponentPad*%
%ADD24R,1.800000X1.800000*%
%TD*%
%TA.AperFunction,ComponentPad*%
%ADD25R,1.300000X1.300000*%
%TD*%
%TA.AperFunction,ComponentPad*%
%ADD26C,1.300000*%
%TD*%
%TA.AperFunction,ComponentPad*%
%ADD27O,4.140000X2.070000*%
%TD*%
%TA.AperFunction,Conductor*%
%ADD28C,1.000000*%
%TD*%
%TA.AperFunction,Conductor*%
%ADD29C,0.600000*%
%TD*%
%TA.AperFunction,Conductor*%
%ADD30C,0.200000*%
%TD*%
G04 APERTURE END LIST*
D10*
D11*
X177002200Y-166007200D02*
X285002200Y-166007200D01*
X285002200Y-198007200D01*
X177002200Y-198007200D01*
X177002200Y-166007200D01*
D10*
D11*
X10000000Y-10000000D02*
X287002200Y-10000000D01*
X287002200Y-200007200D01*
X10000000Y-200007200D01*
X10000000Y-10000000D01*
D10*
D11*
X12000000Y-12000000D02*
X285002200Y-12000000D01*
X285002200Y-198007200D01*
X12000000Y-198007200D01*
X12000000Y-12000000D01*
D10*
D11*
X60000000Y-12000000D02*
X60000000Y-10000000D01*
D10*
D11*
X110000000Y-12000000D02*
X110000000Y-10000000D01*
D10*
D11*
X160000000Y-12000000D02*
X160000000Y-10000000D01*
D10*
D11*
X210000000Y-12000000D02*
X210000000Y-10000000D01*
D10*
D11*
X260000000Y-12000000D02*
X260000000Y-10000000D01*
D10*
D11*
X36089160Y-11593604D02*
X35346303Y-11593604D01*
X35717731Y-11593604D02*
X35717731Y-10293604D01*
X35717731Y-10293604D02*
X35593922Y-10479319D01*
X35593922Y-10479319D02*
X35470112Y-10603128D01*
X35470112Y-10603128D02*
X35346303Y-10665033D01*
D10*
D11*
X85346303Y-10417414D02*
X85408207Y-10355509D01*
X85408207Y-10355509D02*
X85532017Y-10293604D01*
X85532017Y-10293604D02*
X85841541Y-10293604D01*
X85841541Y-10293604D02*
X85965350Y-10355509D01*
X85965350Y-10355509D02*
X86027255Y-10417414D01*
X86027255Y-10417414D02*
X86089160Y-10541223D01*
X86089160Y-10541223D02*
X86089160Y-10665033D01*
X86089160Y-10665033D02*
X86027255Y-10850747D01*
X86027255Y-10850747D02*
X85284398Y-11593604D01*
X85284398Y-11593604D02*
X86089160Y-11593604D01*
D10*
D11*
X135284398Y-10293604D02*
X136089160Y-10293604D01*
X136089160Y-10293604D02*
X135655826Y-10788842D01*
X135655826Y-10788842D02*
X135841541Y-10788842D01*
X135841541Y-10788842D02*
X135965350Y-10850747D01*
X135965350Y-10850747D02*
X136027255Y-10912652D01*
X136027255Y-10912652D02*
X136089160Y-11036461D01*
X136089160Y-11036461D02*
X136089160Y-11345985D01*
X136089160Y-11345985D02*
X136027255Y-11469795D01*
X136027255Y-11469795D02*
X135965350Y-11531700D01*
X135965350Y-11531700D02*
X135841541Y-11593604D01*
X135841541Y-11593604D02*
X135470112Y-11593604D01*
X135470112Y-11593604D02*
X135346303Y-11531700D01*
X135346303Y-11531700D02*
X135284398Y-11469795D01*
D10*
D11*
X185965350Y-10726938D02*
X185965350Y-11593604D01*
X185655826Y-10231700D02*
X185346303Y-11160271D01*
X185346303Y-11160271D02*
X186151064Y-11160271D01*
D10*
D11*
X236027255Y-10293604D02*
X235408207Y-10293604D01*
X235408207Y-10293604D02*
X235346303Y-10912652D01*
X235346303Y-10912652D02*
X235408207Y-10850747D01*
X235408207Y-10850747D02*
X235532017Y-10788842D01*
X235532017Y-10788842D02*
X235841541Y-10788842D01*
X235841541Y-10788842D02*
X235965350Y-10850747D01*
X235965350Y-10850747D02*
X236027255Y-10912652D01*
X236027255Y-10912652D02*
X236089160Y-11036461D01*
X236089160Y-11036461D02*
X236089160Y-11345985D01*
X236089160Y-11345985D02*
X236027255Y-11469795D01*
X236027255Y-11469795D02*
X235965350Y-11531700D01*
X235965350Y-11531700D02*
X235841541Y-11593604D01*
X235841541Y-11593604D02*
X235532017Y-11593604D01*
X235532017Y-11593604D02*
X235408207Y-11531700D01*
X235408207Y-11531700D02*
X235346303Y-11469795D01*
D10*
D11*
X285965350Y-10293604D02*
X285717731Y-10293604D01*
X285717731Y-10293604D02*
X285593922Y-10355509D01*
X285593922Y-10355509D02*
X285532017Y-10417414D01*
X285532017Y-10417414D02*
X285408207Y-10603128D01*
X285408207Y-10603128D02*
X285346303Y-10850747D01*
X285346303Y-10850747D02*
X285346303Y-11345985D01*
X285346303Y-11345985D02*
X285408207Y-11469795D01*
X285408207Y-11469795D02*
X285470112Y-11531700D01*
X285470112Y-11531700D02*
X285593922Y-11593604D01*
X285593922Y-11593604D02*
X285841541Y-11593604D01*
X285841541Y-11593604D02*
X285965350Y-11531700D01*
X285965350Y-11531700D02*
X286027255Y-11469795D01*
X286027255Y-11469795D02*
X286089160Y-11345985D01*
X286089160Y-11345985D02*
X286089160Y-11036461D01*
X286089160Y-11036461D02*
X286027255Y-10912652D01*
X286027255Y-10912652D02*
X285965350Y-10850747D01*
X285965350Y-10850747D02*
X285841541Y-10788842D01*
X285841541Y-10788842D02*
X285593922Y-10788842D01*
X285593922Y-10788842D02*
X285470112Y-10850747D01*
X285470112Y-10850747D02*
X285408207Y-10912652D01*
X285408207Y-10912652D02*
X285346303Y-11036461D01*
D10*
D11*
X60000000Y-198007200D02*
X60000000Y-200007200D01*
D10*
D11*
X110000000Y-198007200D02*
X110000000Y-200007200D01*
D10*
D11*
X160000000Y-198007200D02*
X160000000Y-200007200D01*
D10*
D11*
X210000000Y-198007200D02*
X210000000Y-200007200D01*
D10*
D11*
X260000000Y-198007200D02*
X260000000Y-200007200D01*
D10*
D11*
X36089160Y-199600804D02*
X35346303Y-199600804D01*
X35717731Y-199600804D02*
X35717731Y-198300804D01*
X35717731Y-198300804D02*
X35593922Y-198486519D01*
X35593922Y-198486519D02*
X35470112Y-198610328D01*
X35470112Y-198610328D02*
X35346303Y-198672233D01*
D10*
D11*
X85346303Y-198424614D02*
X85408207Y-198362709D01*
X85408207Y-198362709D02*
X85532017Y-198300804D01*
X85532017Y-198300804D02*
X85841541Y-198300804D01*
X85841541Y-198300804D02*
X85965350Y-198362709D01*
X85965350Y-198362709D02*
X86027255Y-198424614D01*
X86027255Y-198424614D02*
X86089160Y-198548423D01*
X86089160Y-198548423D02*
X86089160Y-198672233D01*
X86089160Y-198672233D02*
X86027255Y-198857947D01*
X86027255Y-198857947D02*
X85284398Y-199600804D01*
X85284398Y-199600804D02*
X86089160Y-199600804D01*
D10*
D11*
X135284398Y-198300804D02*
X136089160Y-198300804D01*
X136089160Y-198300804D02*
X135655826Y-198796042D01*
X135655826Y-198796042D02*
X135841541Y-198796042D01*
X135841541Y-198796042D02*
X135965350Y-198857947D01*
X135965350Y-198857947D02*
X136027255Y-198919852D01*
X136027255Y-198919852D02*
X136089160Y-199043661D01*
X136089160Y-199043661D02*
X136089160Y-199353185D01*
X136089160Y-199353185D02*
X136027255Y-199476995D01*
X136027255Y-199476995D02*
X135965350Y-199538900D01*
X135965350Y-199538900D02*
X135841541Y-199600804D01*
X135841541Y-199600804D02*
X135470112Y-199600804D01*
X135470112Y-199600804D02*
X135346303Y-199538900D01*
X135346303Y-199538900D02*
X135284398Y-199476995D01*
D10*
D11*
X185965350Y-198734138D02*
X185965350Y-199600804D01*
X185655826Y-198238900D02*
X185346303Y-199167471D01*
X185346303Y-199167471D02*
X186151064Y-199167471D01*
D10*
D11*
X236027255Y-198300804D02*
X235408207Y-198300804D01*
X235408207Y-198300804D02*
X235346303Y-198919852D01*
X235346303Y-198919852D02*
X235408207Y-198857947D01*
X235408207Y-198857947D02*
X235532017Y-198796042D01*
X235532017Y-198796042D02*
X235841541Y-198796042D01*
X235841541Y-198796042D02*
X235965350Y-198857947D01*
X235965350Y-198857947D02*
X236027255Y-198919852D01*
X236027255Y-198919852D02*
X236089160Y-199043661D01*
X236089160Y-199043661D02*
X236089160Y-199353185D01*
X236089160Y-199353185D02*
X236027255Y-199476995D01*
X236027255Y-199476995D02*
X235965350Y-199538900D01*
X235965350Y-199538900D02*
X235841541Y-199600804D01*
X235841541Y-199600804D02*
X235532017Y-199600804D01*
X235532017Y-199600804D02*
X235408207Y-199538900D01*
X235408207Y-199538900D02*
X235346303Y-199476995D01*
D10*
D11*
X285965350Y-198300804D02*
X285717731Y-198300804D01*
X285717731Y-198300804D02*
X285593922Y-198362709D01*
X285593922Y-198362709D02*
X285532017Y-198424614D01*
X285532017Y-198424614D02*
X285408207Y-198610328D01*
X285408207Y-198610328D02*
X285346303Y-198857947D01*
X285346303Y-198857947D02*
X285346303Y-199353185D01*
X285346303Y-199353185D02*
X285408207Y-199476995D01*
X285408207Y-199476995D02*
X285470112Y-199538900D01*
X285470112Y-199538900D02*
X285593922Y-199600804D01*
X285593922Y-199600804D02*
X285841541Y-199600804D01*
X285841541Y-199600804D02*
X285965350Y-199538900D01*
X285965350Y-199538900D02*
X286027255Y-199476995D01*
X286027255Y-199476995D02*
X286089160Y-199353185D01*
X286089160Y-199353185D02*
X286089160Y-199043661D01*
X286089160Y-199043661D02*
X286027255Y-198919852D01*
X286027255Y-198919852D02*
X285965350Y-198857947D01*
X285965350Y-198857947D02*
X285841541Y-198796042D01*
X285841541Y-198796042D02*
X285593922Y-198796042D01*
X285593922Y-198796042D02*
X285470112Y-198857947D01*
X285470112Y-198857947D02*
X285408207Y-198919852D01*
X285408207Y-198919852D02*
X285346303Y-199043661D01*
D10*
D11*
X10000000Y-60000000D02*
X12000000Y-60000000D01*
D10*
D11*
X10000000Y-110000000D02*
X12000000Y-110000000D01*
D10*
D11*
X10000000Y-160000000D02*
X12000000Y-160000000D01*
D10*
D11*
X10690476Y-35222176D02*
X11309523Y-35222176D01*
X10566666Y-35593604D02*
X10999999Y-34293604D01*
X10999999Y-34293604D02*
X11433333Y-35593604D01*
D10*
D11*
X11092857Y-84912652D02*
X11278571Y-84974557D01*
X11278571Y-84974557D02*
X11340476Y-85036461D01*
X11340476Y-85036461D02*
X11402380Y-85160271D01*
X11402380Y-85160271D02*
X11402380Y-85345985D01*
X11402380Y-85345985D02*
X11340476Y-85469795D01*
X11340476Y-85469795D02*
X11278571Y-85531700D01*
X11278571Y-85531700D02*
X11154761Y-85593604D01*
X11154761Y-85593604D02*
X10659523Y-85593604D01*
X10659523Y-85593604D02*
X10659523Y-84293604D01*
X10659523Y-84293604D02*
X11092857Y-84293604D01*
X11092857Y-84293604D02*
X11216666Y-84355509D01*
X11216666Y-84355509D02*
X11278571Y-84417414D01*
X11278571Y-84417414D02*
X11340476Y-84541223D01*
X11340476Y-84541223D02*
X11340476Y-84665033D01*
X11340476Y-84665033D02*
X11278571Y-84788842D01*
X11278571Y-84788842D02*
X11216666Y-84850747D01*
X11216666Y-84850747D02*
X11092857Y-84912652D01*
X11092857Y-84912652D02*
X10659523Y-84912652D01*
D10*
D11*
X11402380Y-135469795D02*
X11340476Y-135531700D01*
X11340476Y-135531700D02*
X11154761Y-135593604D01*
X11154761Y-135593604D02*
X11030952Y-135593604D01*
X11030952Y-135593604D02*
X10845238Y-135531700D01*
X10845238Y-135531700D02*
X10721428Y-135407890D01*
X10721428Y-135407890D02*
X10659523Y-135284080D01*
X10659523Y-135284080D02*
X10597619Y-135036461D01*
X10597619Y-135036461D02*
X10597619Y-134850747D01*
X10597619Y-134850747D02*
X10659523Y-134603128D01*
X10659523Y-134603128D02*
X10721428Y-134479319D01*
X10721428Y-134479319D02*
X10845238Y-134355509D01*
X10845238Y-134355509D02*
X11030952Y-134293604D01*
X11030952Y-134293604D02*
X11154761Y-134293604D01*
X11154761Y-134293604D02*
X11340476Y-134355509D01*
X11340476Y-134355509D02*
X11402380Y-134417414D01*
D10*
D11*
X10659523Y-185593604D02*
X10659523Y-184293604D01*
X10659523Y-184293604D02*
X10969047Y-184293604D01*
X10969047Y-184293604D02*
X11154761Y-184355509D01*
X11154761Y-184355509D02*
X11278571Y-184479319D01*
X11278571Y-184479319D02*
X11340476Y-184603128D01*
X11340476Y-184603128D02*
X11402380Y-184850747D01*
X11402380Y-184850747D02*
X11402380Y-185036461D01*
X11402380Y-185036461D02*
X11340476Y-185284080D01*
X11340476Y-185284080D02*
X11278571Y-185407890D01*
X11278571Y-185407890D02*
X11154761Y-185531700D01*
X11154761Y-185531700D02*
X10969047Y-185593604D01*
X10969047Y-185593604D02*
X10659523Y-185593604D01*
D10*
D11*
X287002200Y-60000000D02*
X285002200Y-60000000D01*
D10*
D11*
X287002200Y-110000000D02*
X285002200Y-110000000D01*
D10*
D11*
X287002200Y-160000000D02*
X285002200Y-160000000D01*
D10*
D11*
X285692676Y-35222176D02*
X286311723Y-35222176D01*
X285568866Y-35593604D02*
X286002199Y-34293604D01*
X286002199Y-34293604D02*
X286435533Y-35593604D01*
D10*
D11*
X286095057Y-84912652D02*
X286280771Y-84974557D01*
X286280771Y-84974557D02*
X286342676Y-85036461D01*
X286342676Y-85036461D02*
X286404580Y-85160271D01*
X286404580Y-85160271D02*
X286404580Y-85345985D01*
X286404580Y-85345985D02*
X286342676Y-85469795D01*
X286342676Y-85469795D02*
X286280771Y-85531700D01*
X286280771Y-85531700D02*
X286156961Y-85593604D01*
X286156961Y-85593604D02*
X285661723Y-85593604D01*
X285661723Y-85593604D02*
X285661723Y-84293604D01*
X285661723Y-84293604D02*
X286095057Y-84293604D01*
X286095057Y-84293604D02*
X286218866Y-84355509D01*
X286218866Y-84355509D02*
X286280771Y-84417414D01*
X286280771Y-84417414D02*
X286342676Y-84541223D01*
X286342676Y-84541223D02*
X286342676Y-84665033D01*
X286342676Y-84665033D02*
X286280771Y-84788842D01*
X286280771Y-84788842D02*
X286218866Y-84850747D01*
X286218866Y-84850747D02*
X286095057Y-84912652D01*
X286095057Y-84912652D02*
X285661723Y-84912652D01*
D10*
D11*
X286404580Y-135469795D02*
X286342676Y-135531700D01*
X286342676Y-135531700D02*
X286156961Y-135593604D01*
X286156961Y-135593604D02*
X286033152Y-135593604D01*
X286033152Y-135593604D02*
X285847438Y-135531700D01*
X285847438Y-135531700D02*
X285723628Y-135407890D01*
X285723628Y-135407890D02*
X285661723Y-135284080D01*
X285661723Y-135284080D02*
X285599819Y-135036461D01*
X285599819Y-135036461D02*
X285599819Y-134850747D01*
X285599819Y-134850747D02*
X285661723Y-134603128D01*
X285661723Y-134603128D02*
X285723628Y-134479319D01*
X285723628Y-134479319D02*
X285847438Y-134355509D01*
X285847438Y-134355509D02*
X286033152Y-134293604D01*
X286033152Y-134293604D02*
X286156961Y-134293604D01*
X286156961Y-134293604D02*
X286342676Y-134355509D01*
X286342676Y-134355509D02*
X286404580Y-134417414D01*
D10*
D11*
X285661723Y-185593604D02*
X285661723Y-184293604D01*
X285661723Y-184293604D02*
X285971247Y-184293604D01*
X285971247Y-184293604D02*
X286156961Y-184355509D01*
X286156961Y-184355509D02*
X286280771Y-184479319D01*
X286280771Y-184479319D02*
X286342676Y-184603128D01*
X286342676Y-184603128D02*
X286404580Y-184850747D01*
X286404580Y-184850747D02*
X286404580Y-185036461D01*
X286404580Y-185036461D02*
X286342676Y-185284080D01*
X286342676Y-185284080D02*
X286280771Y-185407890D01*
X286280771Y-185407890D02*
X286156961Y-185531700D01*
X286156961Y-185531700D02*
X285971247Y-185593604D01*
X285971247Y-185593604D02*
X285661723Y-185593604D01*
D10*
D11*
X200458026Y-193793328D02*
X200458026Y-192293328D01*
X200458026Y-192293328D02*
X200815169Y-192293328D01*
X200815169Y-192293328D02*
X201029455Y-192364757D01*
X201029455Y-192364757D02*
X201172312Y-192507614D01*
X201172312Y-192507614D02*
X201243741Y-192650471D01*
X201243741Y-192650471D02*
X201315169Y-192936185D01*
X201315169Y-192936185D02*
X201315169Y-193150471D01*
X201315169Y-193150471D02*
X201243741Y-193436185D01*
X201243741Y-193436185D02*
X201172312Y-193579042D01*
X201172312Y-193579042D02*
X201029455Y-193721900D01*
X201029455Y-193721900D02*
X200815169Y-193793328D01*
X200815169Y-193793328D02*
X200458026Y-193793328D01*
X202600884Y-193793328D02*
X202600884Y-193007614D01*
X202600884Y-193007614D02*
X202529455Y-192864757D01*
X202529455Y-192864757D02*
X202386598Y-192793328D01*
X202386598Y-192793328D02*
X202100884Y-192793328D01*
X202100884Y-192793328D02*
X201958026Y-192864757D01*
X202600884Y-193721900D02*
X202458026Y-193793328D01*
X202458026Y-193793328D02*
X202100884Y-193793328D01*
X202100884Y-193793328D02*
X201958026Y-193721900D01*
X201958026Y-193721900D02*
X201886598Y-193579042D01*
X201886598Y-193579042D02*
X201886598Y-193436185D01*
X201886598Y-193436185D02*
X201958026Y-193293328D01*
X201958026Y-193293328D02*
X202100884Y-193221900D01*
X202100884Y-193221900D02*
X202458026Y-193221900D01*
X202458026Y-193221900D02*
X202600884Y-193150471D01*
X203100884Y-192793328D02*
X203672312Y-192793328D01*
X203315169Y-192293328D02*
X203315169Y-193579042D01*
X203315169Y-193579042D02*
X203386598Y-193721900D01*
X203386598Y-193721900D02*
X203529455Y-193793328D01*
X203529455Y-193793328D02*
X203672312Y-193793328D01*
X204743741Y-193721900D02*
X204600884Y-193793328D01*
X204600884Y-193793328D02*
X204315170Y-193793328D01*
X204315170Y-193793328D02*
X204172312Y-193721900D01*
X204172312Y-193721900D02*
X204100884Y-193579042D01*
X204100884Y-193579042D02*
X204100884Y-193007614D01*
X204100884Y-193007614D02*
X204172312Y-192864757D01*
X204172312Y-192864757D02*
X204315170Y-192793328D01*
X204315170Y-192793328D02*
X204600884Y-192793328D01*
X204600884Y-192793328D02*
X204743741Y-192864757D01*
X204743741Y-192864757D02*
X204815170Y-193007614D01*
X204815170Y-193007614D02*
X204815170Y-193150471D01*
X204815170Y-193150471D02*
X204100884Y-193293328D01*
X205458026Y-193650471D02*
X205529455Y-193721900D01*
X205529455Y-193721900D02*
X205458026Y-193793328D01*
X205458026Y-193793328D02*
X205386598Y-193721900D01*
X205386598Y-193721900D02*
X205458026Y-193650471D01*
X205458026Y-193650471D02*
X205458026Y-193793328D01*
X205458026Y-192864757D02*
X205529455Y-192936185D01*
X205529455Y-192936185D02*
X205458026Y-193007614D01*
X205458026Y-193007614D02*
X205386598Y-192936185D01*
X205386598Y-192936185D02*
X205458026Y-192864757D01*
X205458026Y-192864757D02*
X205458026Y-193007614D01*
D10*
D11*
X177002200Y-194507200D02*
X285002200Y-194507200D01*
D10*
D11*
X178458026Y-196593328D02*
X178458026Y-195093328D01*
X179315169Y-196593328D02*
X178672312Y-195736185D01*
X179315169Y-195093328D02*
X178458026Y-195950471D01*
X179958026Y-196593328D02*
X179958026Y-195593328D01*
X179958026Y-195093328D02*
X179886598Y-195164757D01*
X179886598Y-195164757D02*
X179958026Y-195236185D01*
X179958026Y-195236185D02*
X180029455Y-195164757D01*
X180029455Y-195164757D02*
X179958026Y-195093328D01*
X179958026Y-195093328D02*
X179958026Y-195236185D01*
X181529455Y-196450471D02*
X181458027Y-196521900D01*
X181458027Y-196521900D02*
X181243741Y-196593328D01*
X181243741Y-196593328D02*
X181100884Y-196593328D01*
X181100884Y-196593328D02*
X180886598Y-196521900D01*
X180886598Y-196521900D02*
X180743741Y-196379042D01*
X180743741Y-196379042D02*
X180672312Y-196236185D01*
X180672312Y-196236185D02*
X180600884Y-195950471D01*
X180600884Y-195950471D02*
X180600884Y-195736185D01*
X180600884Y-195736185D02*
X180672312Y-195450471D01*
X180672312Y-195450471D02*
X180743741Y-195307614D01*
X180743741Y-195307614D02*
X180886598Y-195164757D01*
X180886598Y-195164757D02*
X181100884Y-195093328D01*
X181100884Y-195093328D02*
X181243741Y-195093328D01*
X181243741Y-195093328D02*
X181458027Y-195164757D01*
X181458027Y-195164757D02*
X181529455Y-195236185D01*
X182815170Y-196593328D02*
X182815170Y-195807614D01*
X182815170Y-195807614D02*
X182743741Y-195664757D01*
X182743741Y-195664757D02*
X182600884Y-195593328D01*
X182600884Y-195593328D02*
X182315170Y-195593328D01*
X182315170Y-195593328D02*
X182172312Y-195664757D01*
X182815170Y-196521900D02*
X182672312Y-196593328D01*
X182672312Y-196593328D02*
X182315170Y-196593328D01*
X182315170Y-196593328D02*
X182172312Y-196521900D01*
X182172312Y-196521900D02*
X182100884Y-196379042D01*
X182100884Y-196379042D02*
X182100884Y-196236185D01*
X182100884Y-196236185D02*
X182172312Y-196093328D01*
X182172312Y-196093328D02*
X182315170Y-196021900D01*
X182315170Y-196021900D02*
X182672312Y-196021900D01*
X182672312Y-196021900D02*
X182815170Y-195950471D01*
X184172313Y-196593328D02*
X184172313Y-195093328D01*
X184172313Y-196521900D02*
X184029455Y-196593328D01*
X184029455Y-196593328D02*
X183743741Y-196593328D01*
X183743741Y-196593328D02*
X183600884Y-196521900D01*
X183600884Y-196521900D02*
X183529455Y-196450471D01*
X183529455Y-196450471D02*
X183458027Y-196307614D01*
X183458027Y-196307614D02*
X183458027Y-195879042D01*
X183458027Y-195879042D02*
X183529455Y-195736185D01*
X183529455Y-195736185D02*
X183600884Y-195664757D01*
X183600884Y-195664757D02*
X183743741Y-195593328D01*
X183743741Y-195593328D02*
X184029455Y-195593328D01*
X184029455Y-195593328D02*
X184172313Y-195664757D01*
X186029455Y-195807614D02*
X186529455Y-195807614D01*
X186743741Y-196593328D02*
X186029455Y-196593328D01*
X186029455Y-196593328D02*
X186029455Y-195093328D01*
X186029455Y-195093328D02*
X186743741Y-195093328D01*
X187386598Y-196450471D02*
X187458027Y-196521900D01*
X187458027Y-196521900D02*
X187386598Y-196593328D01*
X187386598Y-196593328D02*
X187315170Y-196521900D01*
X187315170Y-196521900D02*
X187386598Y-196450471D01*
X187386598Y-196450471D02*
X187386598Y-196593328D01*
X188100884Y-196593328D02*
X188100884Y-195093328D01*
X188100884Y-195093328D02*
X188458027Y-195093328D01*
X188458027Y-195093328D02*
X188672313Y-195164757D01*
X188672313Y-195164757D02*
X188815170Y-195307614D01*
X188815170Y-195307614D02*
X188886599Y-195450471D01*
X188886599Y-195450471D02*
X188958027Y-195736185D01*
X188958027Y-195736185D02*
X188958027Y-195950471D01*
X188958027Y-195950471D02*
X188886599Y-196236185D01*
X188886599Y-196236185D02*
X188815170Y-196379042D01*
X188815170Y-196379042D02*
X188672313Y-196521900D01*
X188672313Y-196521900D02*
X188458027Y-196593328D01*
X188458027Y-196593328D02*
X188100884Y-196593328D01*
X189600884Y-196450471D02*
X189672313Y-196521900D01*
X189672313Y-196521900D02*
X189600884Y-196593328D01*
X189600884Y-196593328D02*
X189529456Y-196521900D01*
X189529456Y-196521900D02*
X189600884Y-196450471D01*
X189600884Y-196450471D02*
X189600884Y-196593328D01*
X190243742Y-196164757D02*
X190958028Y-196164757D01*
X190100885Y-196593328D02*
X190600885Y-195093328D01*
X190600885Y-195093328D02*
X191100885Y-196593328D01*
X191600884Y-196450471D02*
X191672313Y-196521900D01*
X191672313Y-196521900D02*
X191600884Y-196593328D01*
X191600884Y-196593328D02*
X191529456Y-196521900D01*
X191529456Y-196521900D02*
X191600884Y-196450471D01*
X191600884Y-196450471D02*
X191600884Y-196593328D01*
X193529456Y-196593328D02*
X193815170Y-196593328D01*
X193815170Y-196593328D02*
X193958027Y-196521900D01*
X193958027Y-196521900D02*
X194029456Y-196450471D01*
X194029456Y-196450471D02*
X194172313Y-196236185D01*
X194172313Y-196236185D02*
X194243742Y-195950471D01*
X194243742Y-195950471D02*
X194243742Y-195379042D01*
X194243742Y-195379042D02*
X194172313Y-195236185D01*
X194172313Y-195236185D02*
X194100885Y-195164757D01*
X194100885Y-195164757D02*
X193958027Y-195093328D01*
X193958027Y-195093328D02*
X193672313Y-195093328D01*
X193672313Y-195093328D02*
X193529456Y-195164757D01*
X193529456Y-195164757D02*
X193458027Y-195236185D01*
X193458027Y-195236185D02*
X193386599Y-195379042D01*
X193386599Y-195379042D02*
X193386599Y-195736185D01*
X193386599Y-195736185D02*
X193458027Y-195879042D01*
X193458027Y-195879042D02*
X193529456Y-195950471D01*
X193529456Y-195950471D02*
X193672313Y-196021900D01*
X193672313Y-196021900D02*
X193958027Y-196021900D01*
X193958027Y-196021900D02*
X194100885Y-195950471D01*
X194100885Y-195950471D02*
X194172313Y-195879042D01*
X194172313Y-195879042D02*
X194243742Y-195736185D01*
X194886598Y-196450471D02*
X194958027Y-196521900D01*
X194958027Y-196521900D02*
X194886598Y-196593328D01*
X194886598Y-196593328D02*
X194815170Y-196521900D01*
X194815170Y-196521900D02*
X194886598Y-196450471D01*
X194886598Y-196450471D02*
X194886598Y-196593328D01*
X195886599Y-195093328D02*
X196029456Y-195093328D01*
X196029456Y-195093328D02*
X196172313Y-195164757D01*
X196172313Y-195164757D02*
X196243742Y-195236185D01*
X196243742Y-195236185D02*
X196315170Y-195379042D01*
X196315170Y-195379042D02*
X196386599Y-195664757D01*
X196386599Y-195664757D02*
X196386599Y-196021900D01*
X196386599Y-196021900D02*
X196315170Y-196307614D01*
X196315170Y-196307614D02*
X196243742Y-196450471D01*
X196243742Y-196450471D02*
X196172313Y-196521900D01*
X196172313Y-196521900D02*
X196029456Y-196593328D01*
X196029456Y-196593328D02*
X195886599Y-196593328D01*
X195886599Y-196593328D02*
X195743742Y-196521900D01*
X195743742Y-196521900D02*
X195672313Y-196450471D01*
X195672313Y-196450471D02*
X195600884Y-196307614D01*
X195600884Y-196307614D02*
X195529456Y-196021900D01*
X195529456Y-196021900D02*
X195529456Y-195664757D01*
X195529456Y-195664757D02*
X195600884Y-195379042D01*
X195600884Y-195379042D02*
X195672313Y-195236185D01*
X195672313Y-195236185D02*
X195743742Y-195164757D01*
X195743742Y-195164757D02*
X195886599Y-195093328D01*
X197029455Y-196450471D02*
X197100884Y-196521900D01*
X197100884Y-196521900D02*
X197029455Y-196593328D01*
X197029455Y-196593328D02*
X196958027Y-196521900D01*
X196958027Y-196521900D02*
X197029455Y-196450471D01*
X197029455Y-196450471D02*
X197029455Y-196593328D01*
X198029456Y-195093328D02*
X198172313Y-195093328D01*
X198172313Y-195093328D02*
X198315170Y-195164757D01*
X198315170Y-195164757D02*
X198386599Y-195236185D01*
X198386599Y-195236185D02*
X198458027Y-195379042D01*
X198458027Y-195379042D02*
X198529456Y-195664757D01*
X198529456Y-195664757D02*
X198529456Y-196021900D01*
X198529456Y-196021900D02*
X198458027Y-196307614D01*
X198458027Y-196307614D02*
X198386599Y-196450471D01*
X198386599Y-196450471D02*
X198315170Y-196521900D01*
X198315170Y-196521900D02*
X198172313Y-196593328D01*
X198172313Y-196593328D02*
X198029456Y-196593328D01*
X198029456Y-196593328D02*
X197886599Y-196521900D01*
X197886599Y-196521900D02*
X197815170Y-196450471D01*
X197815170Y-196450471D02*
X197743741Y-196307614D01*
X197743741Y-196307614D02*
X197672313Y-196021900D01*
X197672313Y-196021900D02*
X197672313Y-195664757D01*
X197672313Y-195664757D02*
X197743741Y-195379042D01*
X197743741Y-195379042D02*
X197815170Y-195236185D01*
X197815170Y-195236185D02*
X197886599Y-195164757D01*
X197886599Y-195164757D02*
X198029456Y-195093328D01*
D10*
D11*
X177002200Y-191507200D02*
X285002200Y-191507200D01*
D10*
D12*
X264413853Y-193785528D02*
X263913853Y-193071242D01*
X263556710Y-193785528D02*
X263556710Y-192285528D01*
X263556710Y-192285528D02*
X264128139Y-192285528D01*
X264128139Y-192285528D02*
X264270996Y-192356957D01*
X264270996Y-192356957D02*
X264342425Y-192428385D01*
X264342425Y-192428385D02*
X264413853Y-192571242D01*
X264413853Y-192571242D02*
X264413853Y-192785528D01*
X264413853Y-192785528D02*
X264342425Y-192928385D01*
X264342425Y-192928385D02*
X264270996Y-192999814D01*
X264270996Y-192999814D02*
X264128139Y-193071242D01*
X264128139Y-193071242D02*
X263556710Y-193071242D01*
X265628139Y-193714100D02*
X265485282Y-193785528D01*
X265485282Y-193785528D02*
X265199568Y-193785528D01*
X265199568Y-193785528D02*
X265056710Y-193714100D01*
X265056710Y-193714100D02*
X264985282Y-193571242D01*
X264985282Y-193571242D02*
X264985282Y-192999814D01*
X264985282Y-192999814D02*
X265056710Y-192856957D01*
X265056710Y-192856957D02*
X265199568Y-192785528D01*
X265199568Y-192785528D02*
X265485282Y-192785528D01*
X265485282Y-192785528D02*
X265628139Y-192856957D01*
X265628139Y-192856957D02*
X265699568Y-192999814D01*
X265699568Y-192999814D02*
X265699568Y-193142671D01*
X265699568Y-193142671D02*
X264985282Y-193285528D01*
X266199567Y-192785528D02*
X266556710Y-193785528D01*
X266556710Y-193785528D02*
X266913853Y-192785528D01*
X267485281Y-193642671D02*
X267556710Y-193714100D01*
X267556710Y-193714100D02*
X267485281Y-193785528D01*
X267485281Y-193785528D02*
X267413853Y-193714100D01*
X267413853Y-193714100D02*
X267485281Y-193642671D01*
X267485281Y-193642671D02*
X267485281Y-193785528D01*
X267485281Y-192856957D02*
X267556710Y-192928385D01*
X267556710Y-192928385D02*
X267485281Y-192999814D01*
X267485281Y-192999814D02*
X267413853Y-192928385D01*
X267413853Y-192928385D02*
X267485281Y-192856957D01*
X267485281Y-192856957D02*
X267485281Y-192999814D01*
D10*
D11*
X178386598Y-193721900D02*
X178600884Y-193793328D01*
X178600884Y-193793328D02*
X178958026Y-193793328D01*
X178958026Y-193793328D02*
X179100884Y-193721900D01*
X179100884Y-193721900D02*
X179172312Y-193650471D01*
X179172312Y-193650471D02*
X179243741Y-193507614D01*
X179243741Y-193507614D02*
X179243741Y-193364757D01*
X179243741Y-193364757D02*
X179172312Y-193221900D01*
X179172312Y-193221900D02*
X179100884Y-193150471D01*
X179100884Y-193150471D02*
X178958026Y-193079042D01*
X178958026Y-193079042D02*
X178672312Y-193007614D01*
X178672312Y-193007614D02*
X178529455Y-192936185D01*
X178529455Y-192936185D02*
X178458026Y-192864757D01*
X178458026Y-192864757D02*
X178386598Y-192721900D01*
X178386598Y-192721900D02*
X178386598Y-192579042D01*
X178386598Y-192579042D02*
X178458026Y-192436185D01*
X178458026Y-192436185D02*
X178529455Y-192364757D01*
X178529455Y-192364757D02*
X178672312Y-192293328D01*
X178672312Y-192293328D02*
X179029455Y-192293328D01*
X179029455Y-192293328D02*
X179243741Y-192364757D01*
X179886597Y-193793328D02*
X179886597Y-192793328D01*
X179886597Y-192293328D02*
X179815169Y-192364757D01*
X179815169Y-192364757D02*
X179886597Y-192436185D01*
X179886597Y-192436185D02*
X179958026Y-192364757D01*
X179958026Y-192364757D02*
X179886597Y-192293328D01*
X179886597Y-192293328D02*
X179886597Y-192436185D01*
X180458026Y-192793328D02*
X181243741Y-192793328D01*
X181243741Y-192793328D02*
X180458026Y-193793328D01*
X180458026Y-193793328D02*
X181243741Y-193793328D01*
X182386598Y-193721900D02*
X182243741Y-193793328D01*
X182243741Y-193793328D02*
X181958027Y-193793328D01*
X181958027Y-193793328D02*
X181815169Y-193721900D01*
X181815169Y-193721900D02*
X181743741Y-193579042D01*
X181743741Y-193579042D02*
X181743741Y-193007614D01*
X181743741Y-193007614D02*
X181815169Y-192864757D01*
X181815169Y-192864757D02*
X181958027Y-192793328D01*
X181958027Y-192793328D02*
X182243741Y-192793328D01*
X182243741Y-192793328D02*
X182386598Y-192864757D01*
X182386598Y-192864757D02*
X182458027Y-193007614D01*
X182458027Y-193007614D02*
X182458027Y-193150471D01*
X182458027Y-193150471D02*
X181743741Y-193293328D01*
X183100883Y-193650471D02*
X183172312Y-193721900D01*
X183172312Y-193721900D02*
X183100883Y-193793328D01*
X183100883Y-193793328D02*
X183029455Y-193721900D01*
X183029455Y-193721900D02*
X183100883Y-193650471D01*
X183100883Y-193650471D02*
X183100883Y-193793328D01*
X183100883Y-192864757D02*
X183172312Y-192936185D01*
X183172312Y-192936185D02*
X183100883Y-193007614D01*
X183100883Y-193007614D02*
X183029455Y-192936185D01*
X183029455Y-192936185D02*
X183100883Y-192864757D01*
X183100883Y-192864757D02*
X183100883Y-193007614D01*
X184886598Y-193364757D02*
X185600884Y-193364757D01*
X184743741Y-193793328D02*
X185243741Y-192293328D01*
X185243741Y-192293328D02*
X185743741Y-193793328D01*
X186886598Y-192793328D02*
X186886598Y-193793328D01*
X186529455Y-192221900D02*
X186172312Y-193293328D01*
X186172312Y-193293328D02*
X187100883Y-193293328D01*
D10*
D11*
X263458026Y-196593328D02*
X263458026Y-195093328D01*
X264815170Y-196593328D02*
X264815170Y-195093328D01*
X264815170Y-196521900D02*
X264672312Y-196593328D01*
X264672312Y-196593328D02*
X264386598Y-196593328D01*
X264386598Y-196593328D02*
X264243741Y-196521900D01*
X264243741Y-196521900D02*
X264172312Y-196450471D01*
X264172312Y-196450471D02*
X264100884Y-196307614D01*
X264100884Y-196307614D02*
X264100884Y-195879042D01*
X264100884Y-195879042D02*
X264172312Y-195736185D01*
X264172312Y-195736185D02*
X264243741Y-195664757D01*
X264243741Y-195664757D02*
X264386598Y-195593328D01*
X264386598Y-195593328D02*
X264672312Y-195593328D01*
X264672312Y-195593328D02*
X264815170Y-195664757D01*
X265529455Y-196450471D02*
X265600884Y-196521900D01*
X265600884Y-196521900D02*
X265529455Y-196593328D01*
X265529455Y-196593328D02*
X265458027Y-196521900D01*
X265458027Y-196521900D02*
X265529455Y-196450471D01*
X265529455Y-196450471D02*
X265529455Y-196593328D01*
X265529455Y-195664757D02*
X265600884Y-195736185D01*
X265600884Y-195736185D02*
X265529455Y-195807614D01*
X265529455Y-195807614D02*
X265458027Y-195736185D01*
X265458027Y-195736185D02*
X265529455Y-195664757D01*
X265529455Y-195664757D02*
X265529455Y-195807614D01*
X268172313Y-196593328D02*
X267315170Y-196593328D01*
X267743741Y-196593328D02*
X267743741Y-195093328D01*
X267743741Y-195093328D02*
X267600884Y-195307614D01*
X267600884Y-195307614D02*
X267458027Y-195450471D01*
X267458027Y-195450471D02*
X267315170Y-195521900D01*
X269886598Y-195021900D02*
X268600884Y-196950471D01*
X270600884Y-195736185D02*
X270458027Y-195664757D01*
X270458027Y-195664757D02*
X270386598Y-195593328D01*
X270386598Y-195593328D02*
X270315170Y-195450471D01*
X270315170Y-195450471D02*
X270315170Y-195379042D01*
X270315170Y-195379042D02*
X270386598Y-195236185D01*
X270386598Y-195236185D02*
X270458027Y-195164757D01*
X270458027Y-195164757D02*
X270600884Y-195093328D01*
X270600884Y-195093328D02*
X270886598Y-195093328D01*
X270886598Y-195093328D02*
X271029456Y-195164757D01*
X271029456Y-195164757D02*
X271100884Y-195236185D01*
X271100884Y-195236185D02*
X271172313Y-195379042D01*
X271172313Y-195379042D02*
X271172313Y-195450471D01*
X271172313Y-195450471D02*
X271100884Y-195593328D01*
X271100884Y-195593328D02*
X271029456Y-195664757D01*
X271029456Y-195664757D02*
X270886598Y-195736185D01*
X270886598Y-195736185D02*
X270600884Y-195736185D01*
X270600884Y-195736185D02*
X270458027Y-195807614D01*
X270458027Y-195807614D02*
X270386598Y-195879042D01*
X270386598Y-195879042D02*
X270315170Y-196021900D01*
X270315170Y-196021900D02*
X270315170Y-196307614D01*
X270315170Y-196307614D02*
X270386598Y-196450471D01*
X270386598Y-196450471D02*
X270458027Y-196521900D01*
X270458027Y-196521900D02*
X270600884Y-196593328D01*
X270600884Y-196593328D02*
X270886598Y-196593328D01*
X270886598Y-196593328D02*
X271029456Y-196521900D01*
X271029456Y-196521900D02*
X271100884Y-196450471D01*
X271100884Y-196450471D02*
X271172313Y-196307614D01*
X271172313Y-196307614D02*
X271172313Y-196021900D01*
X271172313Y-196021900D02*
X271100884Y-195879042D01*
X271100884Y-195879042D02*
X271029456Y-195807614D01*
X271029456Y-195807614D02*
X270886598Y-195736185D01*
D10*
D11*
X177002200Y-187507200D02*
X285002200Y-187507200D01*
D10*
D13*
X178693928Y-188211638D02*
X179836785Y-188211638D01*
X179015357Y-190211638D02*
X179265357Y-188211638D01*
X180253452Y-190211638D02*
X180420119Y-188878304D01*
X180503452Y-188211638D02*
X180396309Y-188306876D01*
X180396309Y-188306876D02*
X180479643Y-188402114D01*
X180479643Y-188402114D02*
X180586786Y-188306876D01*
X180586786Y-188306876D02*
X180503452Y-188211638D01*
X180503452Y-188211638D02*
X180479643Y-188402114D01*
X181086786Y-188878304D02*
X181848690Y-188878304D01*
X181455833Y-188211638D02*
X181241548Y-189925923D01*
X181241548Y-189925923D02*
X181312976Y-190116400D01*
X181312976Y-190116400D02*
X181491548Y-190211638D01*
X181491548Y-190211638D02*
X181682024Y-190211638D01*
X182634405Y-190211638D02*
X182455833Y-190116400D01*
X182455833Y-190116400D02*
X182384405Y-189925923D01*
X182384405Y-189925923D02*
X182598690Y-188211638D01*
X184170119Y-190116400D02*
X183967738Y-190211638D01*
X183967738Y-190211638D02*
X183586785Y-190211638D01*
X183586785Y-190211638D02*
X183408214Y-190116400D01*
X183408214Y-190116400D02*
X183336785Y-189925923D01*
X183336785Y-189925923D02*
X183432024Y-189164019D01*
X183432024Y-189164019D02*
X183551071Y-188973542D01*
X183551071Y-188973542D02*
X183753452Y-188878304D01*
X183753452Y-188878304D02*
X184134404Y-188878304D01*
X184134404Y-188878304D02*
X184312976Y-188973542D01*
X184312976Y-188973542D02*
X184384404Y-189164019D01*
X184384404Y-189164019D02*
X184360595Y-189354495D01*
X184360595Y-189354495D02*
X183384404Y-189544971D01*
X185134405Y-190021161D02*
X185217738Y-190116400D01*
X185217738Y-190116400D02*
X185110595Y-190211638D01*
X185110595Y-190211638D02*
X185027262Y-190116400D01*
X185027262Y-190116400D02*
X185134405Y-190021161D01*
X185134405Y-190021161D02*
X185110595Y-190211638D01*
X185265357Y-188973542D02*
X185348690Y-189068780D01*
X185348690Y-189068780D02*
X185241548Y-189164019D01*
X185241548Y-189164019D02*
X185158214Y-189068780D01*
X185158214Y-189068780D02*
X185265357Y-188973542D01*
X185265357Y-188973542D02*
X185241548Y-189164019D01*
D10*
D11*
X178958026Y-185607614D02*
X178458026Y-185607614D01*
X178458026Y-186393328D02*
X178458026Y-184893328D01*
X178458026Y-184893328D02*
X179172312Y-184893328D01*
X179743740Y-186393328D02*
X179743740Y-185393328D01*
X179743740Y-184893328D02*
X179672312Y-184964757D01*
X179672312Y-184964757D02*
X179743740Y-185036185D01*
X179743740Y-185036185D02*
X179815169Y-184964757D01*
X179815169Y-184964757D02*
X179743740Y-184893328D01*
X179743740Y-184893328D02*
X179743740Y-185036185D01*
X180672312Y-186393328D02*
X180529455Y-186321900D01*
X180529455Y-186321900D02*
X180458026Y-186179042D01*
X180458026Y-186179042D02*
X180458026Y-184893328D01*
X181815169Y-186321900D02*
X181672312Y-186393328D01*
X181672312Y-186393328D02*
X181386598Y-186393328D01*
X181386598Y-186393328D02*
X181243740Y-186321900D01*
X181243740Y-186321900D02*
X181172312Y-186179042D01*
X181172312Y-186179042D02*
X181172312Y-185607614D01*
X181172312Y-185607614D02*
X181243740Y-185464757D01*
X181243740Y-185464757D02*
X181386598Y-185393328D01*
X181386598Y-185393328D02*
X181672312Y-185393328D01*
X181672312Y-185393328D02*
X181815169Y-185464757D01*
X181815169Y-185464757D02*
X181886598Y-185607614D01*
X181886598Y-185607614D02*
X181886598Y-185750471D01*
X181886598Y-185750471D02*
X181172312Y-185893328D01*
X182529454Y-186250471D02*
X182600883Y-186321900D01*
X182600883Y-186321900D02*
X182529454Y-186393328D01*
X182529454Y-186393328D02*
X182458026Y-186321900D01*
X182458026Y-186321900D02*
X182529454Y-186250471D01*
X182529454Y-186250471D02*
X182529454Y-186393328D01*
X182529454Y-185464757D02*
X182600883Y-185536185D01*
X182600883Y-185536185D02*
X182529454Y-185607614D01*
X182529454Y-185607614D02*
X182458026Y-185536185D01*
X182458026Y-185536185D02*
X182529454Y-185464757D01*
X182529454Y-185464757D02*
X182529454Y-185607614D01*
X184386597Y-186393328D02*
X184386597Y-184893328D01*
X184386597Y-184893328D02*
X184743740Y-184893328D01*
X184743740Y-184893328D02*
X184958026Y-184964757D01*
X184958026Y-184964757D02*
X185100883Y-185107614D01*
X185100883Y-185107614D02*
X185172312Y-185250471D01*
X185172312Y-185250471D02*
X185243740Y-185536185D01*
X185243740Y-185536185D02*
X185243740Y-185750471D01*
X185243740Y-185750471D02*
X185172312Y-186036185D01*
X185172312Y-186036185D02*
X185100883Y-186179042D01*
X185100883Y-186179042D02*
X184958026Y-186321900D01*
X184958026Y-186321900D02*
X184743740Y-186393328D01*
X184743740Y-186393328D02*
X184386597Y-186393328D01*
X186458026Y-186321900D02*
X186315169Y-186393328D01*
X186315169Y-186393328D02*
X186029455Y-186393328D01*
X186029455Y-186393328D02*
X185886597Y-186321900D01*
X185886597Y-186321900D02*
X185815169Y-186179042D01*
X185815169Y-186179042D02*
X185815169Y-185607614D01*
X185815169Y-185607614D02*
X185886597Y-185464757D01*
X185886597Y-185464757D02*
X186029455Y-185393328D01*
X186029455Y-185393328D02*
X186315169Y-185393328D01*
X186315169Y-185393328D02*
X186458026Y-185464757D01*
X186458026Y-185464757D02*
X186529455Y-185607614D01*
X186529455Y-185607614D02*
X186529455Y-185750471D01*
X186529455Y-185750471D02*
X185815169Y-185893328D01*
X186958026Y-185393328D02*
X187529454Y-185393328D01*
X187172311Y-184893328D02*
X187172311Y-186179042D01*
X187172311Y-186179042D02*
X187243740Y-186321900D01*
X187243740Y-186321900D02*
X187386597Y-186393328D01*
X187386597Y-186393328D02*
X187529454Y-186393328D01*
X188600883Y-186321900D02*
X188458026Y-186393328D01*
X188458026Y-186393328D02*
X188172312Y-186393328D01*
X188172312Y-186393328D02*
X188029454Y-186321900D01*
X188029454Y-186321900D02*
X187958026Y-186179042D01*
X187958026Y-186179042D02*
X187958026Y-185607614D01*
X187958026Y-185607614D02*
X188029454Y-185464757D01*
X188029454Y-185464757D02*
X188172312Y-185393328D01*
X188172312Y-185393328D02*
X188458026Y-185393328D01*
X188458026Y-185393328D02*
X188600883Y-185464757D01*
X188600883Y-185464757D02*
X188672312Y-185607614D01*
X188672312Y-185607614D02*
X188672312Y-185750471D01*
X188672312Y-185750471D02*
X187958026Y-185893328D01*
X189958026Y-186321900D02*
X189815168Y-186393328D01*
X189815168Y-186393328D02*
X189529454Y-186393328D01*
X189529454Y-186393328D02*
X189386597Y-186321900D01*
X189386597Y-186321900D02*
X189315168Y-186250471D01*
X189315168Y-186250471D02*
X189243740Y-186107614D01*
X189243740Y-186107614D02*
X189243740Y-185679042D01*
X189243740Y-185679042D02*
X189315168Y-185536185D01*
X189315168Y-185536185D02*
X189386597Y-185464757D01*
X189386597Y-185464757D02*
X189529454Y-185393328D01*
X189529454Y-185393328D02*
X189815168Y-185393328D01*
X189815168Y-185393328D02*
X189958026Y-185464757D01*
X190386597Y-185393328D02*
X190958025Y-185393328D01*
X190600882Y-184893328D02*
X190600882Y-186179042D01*
X190600882Y-186179042D02*
X190672311Y-186321900D01*
X190672311Y-186321900D02*
X190815168Y-186393328D01*
X190815168Y-186393328D02*
X190958025Y-186393328D01*
X191672311Y-186393328D02*
X191529454Y-186321900D01*
X191529454Y-186321900D02*
X191458025Y-186250471D01*
X191458025Y-186250471D02*
X191386597Y-186107614D01*
X191386597Y-186107614D02*
X191386597Y-185679042D01*
X191386597Y-185679042D02*
X191458025Y-185536185D01*
X191458025Y-185536185D02*
X191529454Y-185464757D01*
X191529454Y-185464757D02*
X191672311Y-185393328D01*
X191672311Y-185393328D02*
X191886597Y-185393328D01*
X191886597Y-185393328D02*
X192029454Y-185464757D01*
X192029454Y-185464757D02*
X192100883Y-185536185D01*
X192100883Y-185536185D02*
X192172311Y-185679042D01*
X192172311Y-185679042D02*
X192172311Y-186107614D01*
X192172311Y-186107614D02*
X192100883Y-186250471D01*
X192100883Y-186250471D02*
X192029454Y-186321900D01*
X192029454Y-186321900D02*
X191886597Y-186393328D01*
X191886597Y-186393328D02*
X191672311Y-186393328D01*
X192815168Y-186393328D02*
X192815168Y-185393328D01*
X192815168Y-185679042D02*
X192886597Y-185536185D01*
X192886597Y-185536185D02*
X192958026Y-185464757D01*
X192958026Y-185464757D02*
X193100883Y-185393328D01*
X193100883Y-185393328D02*
X193243740Y-185393328D01*
X193386597Y-186536185D02*
X194529454Y-186536185D01*
X195529454Y-186393328D02*
X195529454Y-184893328D01*
X195529454Y-186321900D02*
X195386596Y-186393328D01*
X195386596Y-186393328D02*
X195100882Y-186393328D01*
X195100882Y-186393328D02*
X194958025Y-186321900D01*
X194958025Y-186321900D02*
X194886596Y-186250471D01*
X194886596Y-186250471D02*
X194815168Y-186107614D01*
X194815168Y-186107614D02*
X194815168Y-185679042D01*
X194815168Y-185679042D02*
X194886596Y-185536185D01*
X194886596Y-185536185D02*
X194958025Y-185464757D01*
X194958025Y-185464757D02*
X195100882Y-185393328D01*
X195100882Y-185393328D02*
X195386596Y-185393328D01*
X195386596Y-185393328D02*
X195529454Y-185464757D01*
X196815168Y-186321900D02*
X196672311Y-186393328D01*
X196672311Y-186393328D02*
X196386597Y-186393328D01*
X196386597Y-186393328D02*
X196243739Y-186321900D01*
X196243739Y-186321900D02*
X196172311Y-186179042D01*
X196172311Y-186179042D02*
X196172311Y-185607614D01*
X196172311Y-185607614D02*
X196243739Y-185464757D01*
X196243739Y-185464757D02*
X196386597Y-185393328D01*
X196386597Y-185393328D02*
X196672311Y-185393328D01*
X196672311Y-185393328D02*
X196815168Y-185464757D01*
X196815168Y-185464757D02*
X196886597Y-185607614D01*
X196886597Y-185607614D02*
X196886597Y-185750471D01*
X196886597Y-185750471D02*
X196172311Y-185893328D01*
X197172311Y-186536185D02*
X198315168Y-186536185D01*
X198672310Y-186393328D02*
X198672310Y-184893328D01*
X199386596Y-185393328D02*
X199386596Y-186393328D01*
X199386596Y-185536185D02*
X199458025Y-185464757D01*
X199458025Y-185464757D02*
X199600882Y-185393328D01*
X199600882Y-185393328D02*
X199815168Y-185393328D01*
X199815168Y-185393328D02*
X199958025Y-185464757D01*
X199958025Y-185464757D02*
X200029454Y-185607614D01*
X200029454Y-185607614D02*
X200029454Y-186393328D01*
X201386597Y-186321900D02*
X201243739Y-186393328D01*
X201243739Y-186393328D02*
X200958025Y-186393328D01*
X200958025Y-186393328D02*
X200815168Y-186321900D01*
X200815168Y-186321900D02*
X200743739Y-186250471D01*
X200743739Y-186250471D02*
X200672311Y-186107614D01*
X200672311Y-186107614D02*
X200672311Y-185679042D01*
X200672311Y-185679042D02*
X200743739Y-185536185D01*
X200743739Y-185536185D02*
X200815168Y-185464757D01*
X200815168Y-185464757D02*
X200958025Y-185393328D01*
X200958025Y-185393328D02*
X201243739Y-185393328D01*
X201243739Y-185393328D02*
X201386597Y-185464757D01*
X202600882Y-186321900D02*
X202458025Y-186393328D01*
X202458025Y-186393328D02*
X202172311Y-186393328D01*
X202172311Y-186393328D02*
X202029453Y-186321900D01*
X202029453Y-186321900D02*
X201958025Y-186179042D01*
X201958025Y-186179042D02*
X201958025Y-185607614D01*
X201958025Y-185607614D02*
X202029453Y-185464757D01*
X202029453Y-185464757D02*
X202172311Y-185393328D01*
X202172311Y-185393328D02*
X202458025Y-185393328D01*
X202458025Y-185393328D02*
X202600882Y-185464757D01*
X202600882Y-185464757D02*
X202672311Y-185607614D01*
X202672311Y-185607614D02*
X202672311Y-185750471D01*
X202672311Y-185750471D02*
X201958025Y-185893328D01*
X203315167Y-185393328D02*
X203315167Y-186393328D01*
X203315167Y-185536185D02*
X203386596Y-185464757D01*
X203386596Y-185464757D02*
X203529453Y-185393328D01*
X203529453Y-185393328D02*
X203743739Y-185393328D01*
X203743739Y-185393328D02*
X203886596Y-185464757D01*
X203886596Y-185464757D02*
X203958025Y-185607614D01*
X203958025Y-185607614D02*
X203958025Y-186393328D01*
X205315168Y-186393328D02*
X205315168Y-184893328D01*
X205315168Y-186321900D02*
X205172310Y-186393328D01*
X205172310Y-186393328D02*
X204886596Y-186393328D01*
X204886596Y-186393328D02*
X204743739Y-186321900D01*
X204743739Y-186321900D02*
X204672310Y-186250471D01*
X204672310Y-186250471D02*
X204600882Y-186107614D01*
X204600882Y-186107614D02*
X204600882Y-185679042D01*
X204600882Y-185679042D02*
X204672310Y-185536185D01*
X204672310Y-185536185D02*
X204743739Y-185464757D01*
X204743739Y-185464757D02*
X204886596Y-185393328D01*
X204886596Y-185393328D02*
X205172310Y-185393328D01*
X205172310Y-185393328D02*
X205315168Y-185464757D01*
X206029453Y-186393328D02*
X206029453Y-185393328D01*
X206029453Y-184893328D02*
X205958025Y-184964757D01*
X205958025Y-184964757D02*
X206029453Y-185036185D01*
X206029453Y-185036185D02*
X206100882Y-184964757D01*
X206100882Y-184964757D02*
X206029453Y-184893328D01*
X206029453Y-184893328D02*
X206029453Y-185036185D01*
X206958025Y-186393328D02*
X206815168Y-186321900D01*
X206815168Y-186321900D02*
X206743739Y-186250471D01*
X206743739Y-186250471D02*
X206672311Y-186107614D01*
X206672311Y-186107614D02*
X206672311Y-185679042D01*
X206672311Y-185679042D02*
X206743739Y-185536185D01*
X206743739Y-185536185D02*
X206815168Y-185464757D01*
X206815168Y-185464757D02*
X206958025Y-185393328D01*
X206958025Y-185393328D02*
X207172311Y-185393328D01*
X207172311Y-185393328D02*
X207315168Y-185464757D01*
X207315168Y-185464757D02*
X207386597Y-185536185D01*
X207386597Y-185536185D02*
X207458025Y-185679042D01*
X207458025Y-185679042D02*
X207458025Y-186107614D01*
X207458025Y-186107614D02*
X207386597Y-186250471D01*
X207386597Y-186250471D02*
X207315168Y-186321900D01*
X207315168Y-186321900D02*
X207172311Y-186393328D01*
X207172311Y-186393328D02*
X206958025Y-186393328D01*
X208029454Y-186321900D02*
X208172311Y-186393328D01*
X208172311Y-186393328D02*
X208458025Y-186393328D01*
X208458025Y-186393328D02*
X208600882Y-186321900D01*
X208600882Y-186321900D02*
X208672311Y-186179042D01*
X208672311Y-186179042D02*
X208672311Y-186107614D01*
X208672311Y-186107614D02*
X208600882Y-185964757D01*
X208600882Y-185964757D02*
X208458025Y-185893328D01*
X208458025Y-185893328D02*
X208243740Y-185893328D01*
X208243740Y-185893328D02*
X208100882Y-185821900D01*
X208100882Y-185821900D02*
X208029454Y-185679042D01*
X208029454Y-185679042D02*
X208029454Y-185607614D01*
X208029454Y-185607614D02*
X208100882Y-185464757D01*
X208100882Y-185464757D02*
X208243740Y-185393328D01*
X208243740Y-185393328D02*
X208458025Y-185393328D01*
X208458025Y-185393328D02*
X208600882Y-185464757D01*
X209315168Y-186250471D02*
X209386597Y-186321900D01*
X209386597Y-186321900D02*
X209315168Y-186393328D01*
X209315168Y-186393328D02*
X209243740Y-186321900D01*
X209243740Y-186321900D02*
X209315168Y-186250471D01*
X209315168Y-186250471D02*
X209315168Y-186393328D01*
X210029454Y-186393328D02*
X210029454Y-184893328D01*
X210172312Y-185821900D02*
X210600883Y-186393328D01*
X210600883Y-185393328D02*
X210029454Y-185964757D01*
X211243740Y-186393328D02*
X211243740Y-185393328D01*
X211243740Y-184893328D02*
X211172312Y-184964757D01*
X211172312Y-184964757D02*
X211243740Y-185036185D01*
X211243740Y-185036185D02*
X211315169Y-184964757D01*
X211315169Y-184964757D02*
X211243740Y-184893328D01*
X211243740Y-184893328D02*
X211243740Y-185036185D01*
X212600884Y-186321900D02*
X212458026Y-186393328D01*
X212458026Y-186393328D02*
X212172312Y-186393328D01*
X212172312Y-186393328D02*
X212029455Y-186321900D01*
X212029455Y-186321900D02*
X211958026Y-186250471D01*
X211958026Y-186250471D02*
X211886598Y-186107614D01*
X211886598Y-186107614D02*
X211886598Y-185679042D01*
X211886598Y-185679042D02*
X211958026Y-185536185D01*
X211958026Y-185536185D02*
X212029455Y-185464757D01*
X212029455Y-185464757D02*
X212172312Y-185393328D01*
X212172312Y-185393328D02*
X212458026Y-185393328D01*
X212458026Y-185393328D02*
X212600884Y-185464757D01*
X213886598Y-186393328D02*
X213886598Y-185607614D01*
X213886598Y-185607614D02*
X213815169Y-185464757D01*
X213815169Y-185464757D02*
X213672312Y-185393328D01*
X213672312Y-185393328D02*
X213386598Y-185393328D01*
X213386598Y-185393328D02*
X213243740Y-185464757D01*
X213886598Y-186321900D02*
X213743740Y-186393328D01*
X213743740Y-186393328D02*
X213386598Y-186393328D01*
X213386598Y-186393328D02*
X213243740Y-186321900D01*
X213243740Y-186321900D02*
X213172312Y-186179042D01*
X213172312Y-186179042D02*
X213172312Y-186036185D01*
X213172312Y-186036185D02*
X213243740Y-185893328D01*
X213243740Y-185893328D02*
X213386598Y-185821900D01*
X213386598Y-185821900D02*
X213743740Y-185821900D01*
X213743740Y-185821900D02*
X213886598Y-185750471D01*
X215243741Y-186393328D02*
X215243741Y-184893328D01*
X215243741Y-186321900D02*
X215100883Y-186393328D01*
X215100883Y-186393328D02*
X214815169Y-186393328D01*
X214815169Y-186393328D02*
X214672312Y-186321900D01*
X214672312Y-186321900D02*
X214600883Y-186250471D01*
X214600883Y-186250471D02*
X214529455Y-186107614D01*
X214529455Y-186107614D02*
X214529455Y-185679042D01*
X214529455Y-185679042D02*
X214600883Y-185536185D01*
X214600883Y-185536185D02*
X214672312Y-185464757D01*
X214672312Y-185464757D02*
X214815169Y-185393328D01*
X214815169Y-185393328D02*
X215100883Y-185393328D01*
X215100883Y-185393328D02*
X215243741Y-185464757D01*
X215600884Y-186536185D02*
X216743741Y-186536185D01*
X217100883Y-185393328D02*
X217100883Y-186893328D01*
X217100883Y-185464757D02*
X217243741Y-185393328D01*
X217243741Y-185393328D02*
X217529455Y-185393328D01*
X217529455Y-185393328D02*
X217672312Y-185464757D01*
X217672312Y-185464757D02*
X217743741Y-185536185D01*
X217743741Y-185536185D02*
X217815169Y-185679042D01*
X217815169Y-185679042D02*
X217815169Y-186107614D01*
X217815169Y-186107614D02*
X217743741Y-186250471D01*
X217743741Y-186250471D02*
X217672312Y-186321900D01*
X217672312Y-186321900D02*
X217529455Y-186393328D01*
X217529455Y-186393328D02*
X217243741Y-186393328D01*
X217243741Y-186393328D02*
X217100883Y-186321900D01*
X219100884Y-186321900D02*
X218958026Y-186393328D01*
X218958026Y-186393328D02*
X218672312Y-186393328D01*
X218672312Y-186393328D02*
X218529455Y-186321900D01*
X218529455Y-186321900D02*
X218458026Y-186250471D01*
X218458026Y-186250471D02*
X218386598Y-186107614D01*
X218386598Y-186107614D02*
X218386598Y-185679042D01*
X218386598Y-185679042D02*
X218458026Y-185536185D01*
X218458026Y-185536185D02*
X218529455Y-185464757D01*
X218529455Y-185464757D02*
X218672312Y-185393328D01*
X218672312Y-185393328D02*
X218958026Y-185393328D01*
X218958026Y-185393328D02*
X219100884Y-185464757D01*
X219743740Y-186393328D02*
X219743740Y-184893328D01*
X219743740Y-185464757D02*
X219886598Y-185393328D01*
X219886598Y-185393328D02*
X220172312Y-185393328D01*
X220172312Y-185393328D02*
X220315169Y-185464757D01*
X220315169Y-185464757D02*
X220386598Y-185536185D01*
X220386598Y-185536185D02*
X220458026Y-185679042D01*
X220458026Y-185679042D02*
X220458026Y-186107614D01*
X220458026Y-186107614D02*
X220386598Y-186250471D01*
X220386598Y-186250471D02*
X220315169Y-186321900D01*
X220315169Y-186321900D02*
X220172312Y-186393328D01*
X220172312Y-186393328D02*
X219886598Y-186393328D01*
X219886598Y-186393328D02*
X219743740Y-186321900D01*
D10*
D11*
X177002200Y-181507200D02*
X285002200Y-181507200D01*
D10*
D11*
X178386598Y-183621900D02*
X178600884Y-183693328D01*
X178600884Y-183693328D02*
X178958026Y-183693328D01*
X178958026Y-183693328D02*
X179100884Y-183621900D01*
X179100884Y-183621900D02*
X179172312Y-183550471D01*
X179172312Y-183550471D02*
X179243741Y-183407614D01*
X179243741Y-183407614D02*
X179243741Y-183264757D01*
X179243741Y-183264757D02*
X179172312Y-183121900D01*
X179172312Y-183121900D02*
X179100884Y-183050471D01*
X179100884Y-183050471D02*
X178958026Y-182979042D01*
X178958026Y-182979042D02*
X178672312Y-182907614D01*
X178672312Y-182907614D02*
X178529455Y-182836185D01*
X178529455Y-182836185D02*
X178458026Y-182764757D01*
X178458026Y-182764757D02*
X178386598Y-182621900D01*
X178386598Y-182621900D02*
X178386598Y-182479042D01*
X178386598Y-182479042D02*
X178458026Y-182336185D01*
X178458026Y-182336185D02*
X178529455Y-182264757D01*
X178529455Y-182264757D02*
X178672312Y-182193328D01*
X178672312Y-182193328D02*
X179029455Y-182193328D01*
X179029455Y-182193328D02*
X179243741Y-182264757D01*
X179886597Y-183693328D02*
X179886597Y-182193328D01*
X180529455Y-183693328D02*
X180529455Y-182907614D01*
X180529455Y-182907614D02*
X180458026Y-182764757D01*
X180458026Y-182764757D02*
X180315169Y-182693328D01*
X180315169Y-182693328D02*
X180100883Y-182693328D01*
X180100883Y-182693328D02*
X179958026Y-182764757D01*
X179958026Y-182764757D02*
X179886597Y-182836185D01*
X181815169Y-183621900D02*
X181672312Y-183693328D01*
X181672312Y-183693328D02*
X181386598Y-183693328D01*
X181386598Y-183693328D02*
X181243740Y-183621900D01*
X181243740Y-183621900D02*
X181172312Y-183479042D01*
X181172312Y-183479042D02*
X181172312Y-182907614D01*
X181172312Y-182907614D02*
X181243740Y-182764757D01*
X181243740Y-182764757D02*
X181386598Y-182693328D01*
X181386598Y-182693328D02*
X181672312Y-182693328D01*
X181672312Y-182693328D02*
X181815169Y-182764757D01*
X181815169Y-182764757D02*
X181886598Y-182907614D01*
X181886598Y-182907614D02*
X181886598Y-183050471D01*
X181886598Y-183050471D02*
X181172312Y-183193328D01*
X183100883Y-183621900D02*
X182958026Y-183693328D01*
X182958026Y-183693328D02*
X182672312Y-183693328D01*
X182672312Y-183693328D02*
X182529454Y-183621900D01*
X182529454Y-183621900D02*
X182458026Y-183479042D01*
X182458026Y-183479042D02*
X182458026Y-182907614D01*
X182458026Y-182907614D02*
X182529454Y-182764757D01*
X182529454Y-182764757D02*
X182672312Y-182693328D01*
X182672312Y-182693328D02*
X182958026Y-182693328D01*
X182958026Y-182693328D02*
X183100883Y-182764757D01*
X183100883Y-182764757D02*
X183172312Y-182907614D01*
X183172312Y-182907614D02*
X183172312Y-183050471D01*
X183172312Y-183050471D02*
X182458026Y-183193328D01*
X183600883Y-182693328D02*
X184172311Y-182693328D01*
X183815168Y-182193328D02*
X183815168Y-183479042D01*
X183815168Y-183479042D02*
X183886597Y-183621900D01*
X183886597Y-183621900D02*
X184029454Y-183693328D01*
X184029454Y-183693328D02*
X184172311Y-183693328D01*
X184672311Y-183550471D02*
X184743740Y-183621900D01*
X184743740Y-183621900D02*
X184672311Y-183693328D01*
X184672311Y-183693328D02*
X184600883Y-183621900D01*
X184600883Y-183621900D02*
X184672311Y-183550471D01*
X184672311Y-183550471D02*
X184672311Y-183693328D01*
X184672311Y-182764757D02*
X184743740Y-182836185D01*
X184743740Y-182836185D02*
X184672311Y-182907614D01*
X184672311Y-182907614D02*
X184600883Y-182836185D01*
X184600883Y-182836185D02*
X184672311Y-182764757D01*
X184672311Y-182764757D02*
X184672311Y-182907614D01*
D10*
D11*
X197002200Y-191507200D02*
X197002200Y-194507200D01*
D10*
D11*
X261002200Y-191507200D02*
X261002200Y-198007200D01*
D14*
%TO.P,R1,1*%
%TO.N,Net-(Q2-B)*%
X155970000Y-140042500D03*
D15*
%TO.P,R1,2*%
%TO.N,/a_9*%
X143270000Y-140042500D03*
%TD*%
D16*
%TO.P,Sensor_de_Llama1,1,Pin_1*%
%TO.N,/a_10*%
X147540000Y-116542500D03*
D17*
%TO.P,Sensor_de_Llama1,2,Pin_2*%
%TO.N,GND*%
X150080000Y-116542500D03*
%TO.P,Sensor_de_Llama1,3,Pin_3*%
%TO.N,+5V*%
X152620000Y-116542500D03*
%TD*%
%TO.P,J4,8,Pin_8*%
%TO.N,unconnected-(J4-Pin_8-Pad8)*%
X149780000Y-107542500D03*
%TO.P,J4,9,Pin_9*%
%TO.N,unconnected-(J4-Pin_9-Pad9)*%
X152320000Y-107542500D03*
D16*
%TO.P,J4,1,Pin_1*%
%TO.N,/ANA*%
X132000000Y-107542500D03*
D17*
%TO.P,J4,2,Pin_2*%
%TO.N,/a_8*%
X134540000Y-107542500D03*
%TO.P,J4,3,Pin_3*%
%TO.N,/a_9*%
X137080000Y-107542500D03*
%TO.P,J4,4,Pin_4*%
%TO.N,/a_10*%
X139620000Y-107542500D03*
%TO.P,J4,5,Pin_5*%
%TO.N,/a_11*%
X142160000Y-107542500D03*
%TO.P,J4,6,Pin_6*%
%TO.N,/a_12*%
X144700000Y-107542500D03*
%TO.P,J4,7,Pin_7*%
%TO.N,/ADC*%
X147240000Y-107542500D03*
%TD*%
D18*
%TO.P,JackDC1,1*%
%TO.N,VDC*%
X111620000Y-123542500D03*
D19*
%TO.P,JackDC1,2*%
%TO.N,GND*%
X111620000Y-117542500D03*
D20*
%TO.P,JackDC1,3*%
X106920000Y-120542500D03*
%TD*%
D16*
%TO.P,J1,1,Pin_1*%
%TO.N,+5V*%
X152160000Y-92542500D03*
D17*
%TO.P,J1,2,Pin_2*%
%TO.N,GND*%
X149620000Y-92542500D03*
%TO.P,J1,3,Pin_3*%
%TO.N,unconnected-(J1-Pin_3-Pad3)*%
X147080000Y-92542500D03*
%TO.P,J1,4,Pin_4*%
%TO.N,unconnected-(J1-Pin_4-Pad4)*%
X144540000Y-92542500D03*
%TO.P,J1,5,Pin_5*%
%TO.N,/a_2*%
X142000000Y-92542500D03*
%TO.P,J1,6,Pin_6*%
%TO.N,unconnected-(J1-Pin_6-Pad6)*%
X139460000Y-92542500D03*
%TO.P,J1,7,Pin_7*%
%TO.N,unconnected-(J1-Pin_7-Pad7)*%
X136920000Y-92542500D03*
%TO.P,J1,8,Pin_8*%
%TO.N,unconnected-(J1-Pin_8-Pad8)*%
X134380000Y-92542500D03*
%TO.P,J1,9,Pin_9*%
%TO.N,unconnected-(J1-Pin_9-Pad9)*%
X131840000Y-92542500D03*
%TD*%
%TO.P,Led-RGB1,4,Pin_4*%
%TO.N,/a_2*%
X154620000Y-82542500D03*
%TO.P,Led-RGB1,3,Pin_3*%
%TO.N,+5V*%
X157160000Y-82542500D03*
%TO.P,Led-RGB1,2,Pin_2*%
%TO.N,GND*%
X159700000Y-82542500D03*
D16*
%TO.P,Led-RGB1,1,Pin_1*%
%TO.N,unconnected-(Led-RGB1-Pin_1-Pad1)*%
X162240000Y-82542500D03*
%TD*%
%TO.P,Pruebas1,1,Pin_1*%
%TO.N,/a_8*%
X139160000Y-116542500D03*
D17*
%TO.P,Pruebas1,2,Pin_2*%
%TO.N,/ANA*%
X136620000Y-116542500D03*
%TO.P,Pruebas1,3,Pin_3*%
%TO.N,unconnected-(Pruebas1-Pin_3-Pad3)*%
X134080000Y-116542500D03*
%TO.P,Pruebas1,4,Pin_4*%
%TO.N,GND*%
X131540000Y-116542500D03*
%TO.P,Pruebas1,5,Pin_5*%
%TO.N,+5V*%
X129000000Y-116542500D03*
%TD*%
D21*
%TO.P,LS1,N*%
%TO.N,Net-(D1-A)*%
X171620000Y-133042500D03*
%TO.P,LS1,P*%
%TO.N,+5V*%
X171620000Y-139542500D03*
%TD*%
D16*
%TO.P,Sensor_de_Humo1,1,Pin_1*%
%TO.N,+5V*%
X162620000Y-115342500D03*
D17*
%TO.P,Sensor_de_Humo1,2,Pin_2*%
%TO.N,GND*%
X162620000Y-112802500D03*
%TO.P,Sensor_de_Humo1,3,Pin_3*%
%TO.N,/a_12*%
X162620000Y-110262500D03*
%TO.P,Sensor_de_Humo1,4,Pin_4*%
%TO.N,/ADC*%
X162620000Y-107722500D03*
%TD*%
D16*
%TO.P,Sensor_Temperatura1,1,Pin_1*%
%TO.N,+5V*%
X165000000Y-89542500D03*
D17*
%TO.P,Sensor_Temperatura1,2,Pin_2*%
%TO.N,GND*%
X165000000Y-92082500D03*
%TO.P,Sensor_Temperatura1,3,Pin_3*%
%TO.N,/a_11*%
X165000000Y-94622500D03*
%TO.P,Sensor_Temperatura1,4,Pin_4*%
%TO.N,unconnected-(Sensor_Temperatura1-Pin_4-Pad4)*%
X165000000Y-97162500D03*
%TO.P,Sensor_Temperatura1,5,Pin_5*%
%TO.N,unconnected-(Sensor_Temperatura1-Pin_5-Pad5)*%
X165000000Y-99702500D03*
%TD*%
D22*
%TO.P,U1,6,OUT-5V*%
%TO.N,+5V*%
X107190000Y-141892500D03*
%TO.P,U1,5,GND*%
%TO.N,GND*%
X107190000Y-139352500D03*
%TO.P,U1,4,BAT*%
%TO.N,+BATT*%
X107190000Y-136812500D03*
%TO.P,U1,3,GND*%
%TO.N,GND*%
X107190000Y-134272500D03*
%TO.P,U1,2,GND*%
X107190000Y-131732500D03*
%TO.P,U1,1,VIN*%
%TO.N,VDC*%
X107190000Y-129192500D03*
%TD*%
D23*
%TO.P,D1,2,A*%
%TO.N,Net-(D1-A)*%
X164190000Y-126000000D03*
D24*
%TO.P,D1,1,K*%
%TO.N,+5V*%
X171810000Y-126000000D03*
%TD*%
D25*
%TO.P,Q2,1,E*%
%TO.N,GND*%
X160350000Y-141812500D03*
D26*
%TO.P,Q2,2,B*%
%TO.N,Net-(Q2-B)*%
X161620000Y-140542500D03*
%TO.P,Q2,3,C*%
%TO.N,Net-(D1-A)*%
X162890000Y-141812500D03*
%TD*%
D27*
%TO.P,BT2,-*%
%TO.N,GND*%
X117620000Y-32942500D03*
%TO.P,BT2,+*%
%TO.N,+BATT*%
X117620000Y-105842500D03*
%TD*%
D28*
%TO.N,+5V*%
X127000000Y-81000000D02*
X128000000Y-80000000D01*
X127000000Y-116000000D02*
X127000000Y-81000000D01*
X127542500Y-116542500D02*
X127000000Y-116000000D01*
X128000000Y-80000000D02*
X157000000Y-80000000D01*
X129000000Y-116542500D02*
X127542500Y-116542500D01*
%TO.N,GND*%
X160350000Y-141812500D02*
X160215000Y-141677500D01*
D29*
%TO.N,Net-(D1-A)*%
X164190000Y-128190000D02*
X169042500Y-133042500D01*
X164190000Y-126000000D02*
X164190000Y-128190000D01*
X169042500Y-133042500D02*
X171620000Y-133042500D01*
D28*
%TO.N,+5V*%
X144825000Y-140686603D02*
X143619103Y-141892500D01*
X144825000Y-132557500D02*
X144825000Y-140686603D01*
X144810000Y-132542500D02*
X144825000Y-132557500D01*
X144810000Y-121000000D02*
X144810000Y-132542500D01*
X152000000Y-121000000D02*
X144810000Y-121000000D01*
X152620000Y-120380000D02*
X152000000Y-121000000D01*
X152620000Y-116542500D02*
X152620000Y-120380000D01*
X143619103Y-141892500D02*
X107190000Y-141892500D01*
%TO.N,/a_12*%
X145737500Y-110262500D02*
X162620000Y-110262500D01*
X145000000Y-111000000D02*
X145737500Y-110262500D01*
X144700000Y-110700000D02*
X145000000Y-111000000D01*
X144700000Y-107542500D02*
X144700000Y-110700000D01*
%TO.N,+BATT*%
X117620000Y-108542500D02*
X117620000Y-105842500D01*
X119620000Y-110542500D02*
X117620000Y-108542500D01*
X116620000Y-124542500D02*
X119620000Y-121542500D01*
X116620000Y-129380000D02*
X116620000Y-124542500D01*
X109187500Y-136812500D02*
X116620000Y-129380000D01*
X107190000Y-136812500D02*
X109187500Y-136812500D01*
X119620000Y-121542500D02*
X119620000Y-110542500D01*
%TO.N,+5V*%
X110000000Y-139082500D02*
X129000000Y-120082500D01*
X110000000Y-141892500D02*
X110000000Y-139082500D01*
X110000000Y-141892500D02*
X138892500Y-141892500D01*
%TO.N,/a_10*%
X139620000Y-108620000D02*
X139620000Y-107542500D01*
X140057338Y-108745000D02*
X139745000Y-108745000D01*
X139745000Y-108745000D02*
X139620000Y-108620000D01*
X147540000Y-116227662D02*
X140057338Y-108745000D01*
X147540000Y-116542500D02*
X147540000Y-116227662D01*
%TO.N,/a_9*%
X137000000Y-110000000D02*
X139000000Y-110000000D01*
X143155000Y-139927500D02*
X143270000Y-140042500D01*
X137080000Y-109920000D02*
X137000000Y-110000000D01*
X139000000Y-110000000D02*
X143155000Y-114155000D01*
X137080000Y-107542500D02*
X137080000Y-109920000D01*
X143155000Y-114155000D02*
X143155000Y-139927500D01*
%TO.N,/a_8*%
X139160000Y-112162500D02*
X139160000Y-116542500D01*
X134540000Y-109540000D02*
X137162500Y-112162500D01*
X134540000Y-107542500D02*
X134540000Y-109540000D01*
X137162500Y-112162500D02*
X139160000Y-112162500D01*
%TO.N,+5V*%
X157000000Y-80000000D02*
X165000000Y-80000000D01*
X157160000Y-82542500D02*
X157160000Y-80160000D01*
X157160000Y-80160000D02*
X157000000Y-80000000D01*
X165000000Y-80000000D02*
X165000000Y-89542500D01*
X171810000Y-126000000D02*
X173620000Y-126000000D01*
X173620000Y-126000000D02*
X173620000Y-137542500D01*
%TO.N,/a_11*%
X142162500Y-101000000D02*
X158622500Y-101000000D01*
X142160000Y-101002500D02*
X142162500Y-101000000D01*
X142160000Y-107542500D02*
X142160000Y-101002500D01*
X158622500Y-101000000D02*
X165000000Y-94622500D01*
%TO.N,+5V*%
X160620000Y-92380000D02*
X163457500Y-89542500D01*
X163457500Y-89542500D02*
X165000000Y-89542500D01*
X160620000Y-92542500D02*
X160620000Y-92380000D01*
X152160000Y-92542500D02*
X160620000Y-92542500D01*
X173620000Y-137542500D02*
X171620000Y-139542500D01*
X169342500Y-115342500D02*
X173620000Y-119620000D01*
X173620000Y-119620000D02*
X173620000Y-126000000D01*
X162620000Y-115342500D02*
X169342500Y-115342500D01*
X166162500Y-145000000D02*
X171620000Y-139542500D01*
X138892500Y-141892500D02*
X142000000Y-145000000D01*
X142000000Y-145000000D02*
X166162500Y-145000000D01*
X107190000Y-141892500D02*
X110000000Y-141892500D01*
D30*
X152160000Y-93002500D02*
X152160000Y-92542500D01*
D29*
%TO.N,Net-(Q2-B)*%
X158945000Y-143017500D02*
X161555000Y-143017500D01*
X161555000Y-143017500D02*
X161620000Y-142952500D01*
X155970000Y-140042500D02*
X158945000Y-143017500D01*
X161620000Y-142952500D02*
X161620000Y-140542500D01*
%TO.N,Net-(D1-A)*%
X162850000Y-141812500D02*
X171620000Y-133042500D01*
D30*
%TO.N,+5V*%
X129000000Y-116542500D02*
X128469000Y-116011500D01*
D28*
%TO.N,/ANA*%
X132000000Y-107542500D02*
X132000000Y-111922500D01*
%TO.N,/a_2*%
X152000000Y-82542500D02*
X154620000Y-82542500D01*
X142000000Y-92542500D02*
X152000000Y-82542500D01*
%TO.N,/ANA*%
X132000000Y-111922500D02*
X136620000Y-116542500D01*
%TO.N,+5V*%
X129000000Y-120082500D02*
X129000000Y-116542500D01*
%TO.N,/ADC*%
X148845000Y-105937500D02*
X160835000Y-105937500D01*
X147240000Y-107542500D02*
X148845000Y-105937500D01*
X160835000Y-105937500D02*
X162620000Y-107722500D01*
%TO.N,VDC*%
X111620000Y-124762500D02*
X107190000Y-129192500D01*
X111620000Y-123542500D02*
X111620000Y-124762500D01*
%TO.N,GND*%
X111620000Y-117542500D02*
X109920000Y-117542500D01*
D29*
%TO.N,Net-(D1-A)*%
X171620000Y-133542500D02*
X171620000Y-133042500D01*
%TD*%
%TA.AperFunction,Conductor*%
%TO.N,GND*%
G36*
X188442539Y-27520185D02*
G01*
X188488294Y-27572989D01*
X188499500Y-27624500D01*
X188499500Y-148375500D01*
X188479815Y-148442539D01*
X188427011Y-148488294D01*
X188375500Y-148499500D01*
X103624500Y-148499500D01*
X103557461Y-148479815D01*
X103511706Y-148427011D01*
X103500500Y-148375500D01*
X103500500Y-145878711D01*
X107149500Y-145878711D01*
X107149500Y-146121288D01*
X107181161Y-146361785D01*
X107243947Y-146596104D01*
X107336773Y-146820205D01*
X107336776Y-146820212D01*
X107458064Y-147030289D01*
X107458066Y-147030292D01*
X107458067Y-147030293D01*
X107605733Y-147222736D01*
X107605739Y-147222743D01*
X107777256Y-147394260D01*
X107777262Y-147394265D01*
X107969711Y-147541936D01*
X108179788Y-147663224D01*
X108403900Y-147756054D01*
X108638211Y-147818838D01*
X108818586Y-147842584D01*
X108878711Y-147850500D01*
X108878712Y-147850500D01*
X109121289Y-147850500D01*
X109169388Y-147844167D01*
X109361789Y-147818838D01*
X109596100Y-147756054D01*
X109820212Y-147663224D01*
X110030289Y-147541936D01*
X110222738Y-147394265D01*
X110394265Y-147222738D01*
X110541936Y-147030289D01*
X110663224Y-146820212D01*
X110756054Y-146596100D01*
X110818838Y-146361789D01*
X110850500Y-146121288D01*
X110850500Y-145878712D01*
X110818838Y-145638211D01*
X110756054Y-145403900D01*
X110663224Y-145179788D01*
X110541936Y-144969711D01*
X110394265Y-144777262D01*
X110394260Y-144777256D01*
X110222743Y-144605739D01*
X110222736Y-144605733D01*
X110030293Y-144458067D01*
X110030292Y-144458066D01*
X110030289Y-144458064D01*
X109820212Y-144336776D01*
X109820205Y-144336773D01*
X109596104Y-144243947D01*
X109361785Y-144181161D01*
X109121289Y-144149500D01*
X109121288Y-144149500D01*
X108878712Y-144149500D01*
X108878711Y-144149500D01*
X108638214Y-144181161D01*
X108403895Y-144243947D01*
X108179794Y-144336773D01*
X108179785Y-144336777D01*
X107969706Y-144458067D01*
X107777263Y-144605733D01*
X107777256Y-144605739D01*
X107605739Y-144777256D01*
X107605733Y-144777263D01*
X107458067Y-144969706D01*
X107336777Y-145179785D01*
X107336773Y-145179794D01*
X107243947Y-145403895D01*
X107181161Y-145638214D01*
X107149500Y-145878711D01*
X103500500Y-145878711D01*
X103500500Y-129076986D01*
X105427500Y-129076986D01*
X105427500Y-129308013D01*
X105427501Y-129308029D01*
X105457655Y-129537074D01*
X105457656Y-129537079D01*
X105457657Y-129537085D01*
X105457658Y-129537087D01*
X105517454Y-129760253D01*
X105605864Y-129973695D01*
X105605871Y-129973710D01*
X105721389Y-130173793D01*
X105862037Y-130357089D01*
X105862043Y-130357096D01*
X106025403Y-130520456D01*
X106025410Y-130520462D01*
X106208706Y-130661110D01*
X106408789Y-130776628D01*
X106408804Y-130776635D01*
X106500787Y-130814735D01*
X106622247Y-130865046D01*
X106845415Y-130924843D01*
X107074480Y-130955000D01*
X107074487Y-130955000D01*
X107305513Y-130955000D01*
X107305520Y-130955000D01*
X107534585Y-130924843D01*
X107757753Y-130865046D01*
X107971207Y-130776630D01*
X108171294Y-130661110D01*
X108354591Y-130520461D01*
X108517961Y-130357091D01*
X108658610Y-130173794D01*
X108774130Y-129973707D01*
X108862546Y-129760253D01*
X108897236Y-129630782D01*
X108929327Y-129575198D01*
X112675208Y-125829319D01*
X112736531Y-125795834D01*
X112762889Y-125793000D01*
X113017499Y-125793000D01*
X113017506Y-125793000D01*
X113309993Y-125754493D01*
X113594952Y-125678139D01*
X113867507Y-125565243D01*
X114122994Y-125417738D01*
X114357042Y-125238146D01*
X114565646Y-125029542D01*
X114745238Y-124795494D01*
X114888113Y-124548025D01*
X114938680Y-124499811D01*
X115007287Y-124486587D01*
X115072151Y-124512555D01*
X115112680Y-124569469D01*
X115119500Y-124610026D01*
X115119500Y-128707111D01*
X115099815Y-128774150D01*
X115083181Y-128794792D01*
X108602292Y-135275681D01*
X108540969Y-135309166D01*
X108514611Y-135312000D01*
X108149284Y-135312000D01*
X108087284Y-135295387D01*
X107971209Y-135228371D01*
X107971195Y-135228364D01*
X107757753Y-135139954D01*
X107534585Y-135080157D01*
X107534579Y-135080156D01*
X107534574Y-135080155D01*
X107305529Y-135050001D01*
X107305526Y-135050000D01*
X107305520Y-135050000D01*
X107074480Y-135050000D01*
X107074474Y-135050000D01*
X107074470Y-135050001D01*
X106845425Y-135080155D01*
X106845418Y-135080156D01*
X106845415Y-135080157D01*
X106751087Y-135105431D01*
X106622246Y-135139954D01*
X106408804Y-135228364D01*
X106408789Y-135228371D01*
X106208706Y-135343889D01*
X106025410Y-135484537D01*
X106025403Y-135484543D01*
X105862043Y-135647903D01*
X105862037Y-135647910D01*
X105721389Y-135831206D01*
X105605871Y-136031289D01*
X105605864Y-136031304D01*
X105517454Y-136244746D01*
X105457658Y-136467912D01*
X105457655Y-136467925D01*
X105427501Y-136696970D01*
X105427500Y-136696986D01*
X105427500Y-136928013D01*
X105427501Y-136928029D01*
X105457655Y-137157074D01*
X105457656Y-137157079D01*
X105457657Y-137157085D01*
X105457658Y-137157087D01*
X105517454Y-137380253D01*
X105605864Y-137593695D01*
X105605871Y-137593710D01*
X105721389Y-137793793D01*
X105862037Y-137977089D01*
X105862043Y-137977096D01*
X106025403Y-138140456D01*
X106025410Y-138140462D01*
X106208706Y-138281110D01*
X106408789Y-138396628D01*
X106408804Y-138396635D01*
X106475386Y-138424214D01*
X106622247Y-138485046D01*
X106845415Y-138544843D01*
X107074480Y-138575000D01*
X107074487Y-138575000D01*
X107305513Y-138575000D01*
X107305520Y-138575000D01*
X107534585Y-138544843D01*
X107757753Y-138485046D01*
X107971207Y-138396630D01*
X108087284Y-138329612D01*
X108149284Y-138313000D01*
X108505679Y-138313000D01*
X108572718Y-138332685D01*
X108618473Y-138385489D01*
X108628417Y-138454647D01*
X108616164Y-138493294D01*
X108609434Y-138506500D01*
X108536446Y-138731131D01*
X108499500Y-138964402D01*
X108499500Y-140268000D01*
X108496949Y-140276685D01*
X108498238Y-140285647D01*
X108487259Y-140309687D01*
X108479815Y-140335039D01*
X108472974Y-140340966D01*
X108469213Y-140349203D01*
X108446978Y-140363492D01*
X108427011Y-140380794D01*
X108416496Y-140383081D01*
X108410435Y-140386977D01*
X108375500Y-140392000D01*
X108149284Y-140392000D01*
X108087284Y-140375387D01*
X107971209Y-140308371D01*
X107971195Y-140308364D01*
X107757753Y-140219954D01*
X107534585Y-140160157D01*
X107534579Y-140160156D01*
X107534574Y-140160155D01*
X107305529Y-140130001D01*
X107305526Y-140130000D01*
X107305520Y-140130000D01*
X107074480Y-140130000D01*
X107074474Y-140130000D01*
X107074470Y-140130001D01*
X106845425Y-140160155D01*
X106845418Y-140160156D01*
X106845415Y-140160157D01*
X106844057Y-140160521D01*
X106622246Y-140219954D01*
X106408804Y-140308364D01*
X106408789Y-140308371D01*
X106208706Y-140423889D01*
X106025410Y-140564537D01*
X106025403Y-140564543D01*
X105862043Y-140727903D01*
X105862037Y-140727910D01*
X105721389Y-140911206D01*
X105605871Y-141111289D01*
X105605864Y-141111304D01*
X105517454Y-141324746D01*
X105457658Y-141547912D01*
X105457655Y-141547925D01*
X105427501Y-141776970D01*
X105427500Y-141776986D01*
X105427500Y-142008013D01*
X105427501Y-142008029D01*
X105457655Y-142237074D01*
X105457656Y-142237079D01*
X105457657Y-142237085D01*
X105457658Y-142237087D01*
X105517454Y-142460253D01*
X105605864Y-142673695D01*
X105605871Y-142673710D01*
X105721389Y-142873793D01*
X105862037Y-143057089D01*
X105862043Y-143057096D01*
X106025403Y-143220456D01*
X106025410Y-143220462D01*
X106208706Y-143361110D01*
X106408789Y-143476628D01*
X106408804Y-143476635D01*
X106500787Y-143514735D01*
X106622247Y-143565046D01*
X106845415Y-143624843D01*
X107074480Y-143655000D01*
X107074487Y-143655000D01*
X107305513Y-143655000D01*
X107305520Y-143655000D01*
X107534585Y-143624843D01*
X107757753Y-143565046D01*
X107971207Y-143476630D01*
X108087284Y-143409612D01*
X108149284Y-143393000D01*
X109881908Y-143393000D01*
X138219611Y-143393000D01*
X138286650Y-143412685D01*
X138307291Y-143429318D01*
X139847678Y-144969706D01*
X141022491Y-146144519D01*
X141022496Y-146144523D01*
X141189155Y-146265606D01*
X141213567Y-146283343D01*
X141347659Y-146351666D01*
X141424003Y-146390566D01*
X141424005Y-146390566D01*
X141424008Y-146390568D01*
X141544412Y-146429689D01*
X141648631Y-146463553D01*
X141881903Y-146500500D01*
X141881908Y-146500500D01*
X166280597Y-146500500D01*
X166513868Y-146463553D01*
X166738492Y-146390568D01*
X166948934Y-146283343D01*
X167140010Y-146144517D01*
X167405816Y-145878711D01*
X182149500Y-145878711D01*
X182149500Y-146121288D01*
X182181161Y-146361785D01*
X182243947Y-146596104D01*
X182336773Y-146820205D01*
X182336776Y-146820212D01*
X182458064Y-147030289D01*
X182458066Y-147030292D01*
X182458067Y-147030293D01*
X182605733Y-147222736D01*
X182605739Y-147222743D01*
X182777256Y-147394260D01*
X182777262Y-147394265D01*
X182969711Y-147541936D01*
X183179788Y-147663224D01*
X183403900Y-147756054D01*
X183638211Y-147818838D01*
X183818586Y-147842584D01*
X183878711Y-147850500D01*
X183878712Y-147850500D01*
X184121289Y-147850500D01*
X184169388Y-147844167D01*
X184361789Y-147818838D01*
X184596100Y-147756054D01*
X184820212Y-147663224D01*
X185030289Y-147541936D01*
X185222738Y-147394265D01*
X185394265Y-147222738D01*
X185541936Y-147030289D01*
X185663224Y-146820212D01*
X185756054Y-146596100D01*
X185818838Y-146361789D01*
X185850500Y-146121288D01*
X185850500Y-145878712D01*
X185818838Y-145638211D01*
X185756054Y-145403900D01*
X185663224Y-145179788D01*
X185541936Y-144969711D01*
X185394265Y-144777262D01*
X185394260Y-144777256D01*
X185222743Y-144605739D01*
X185222736Y-144605733D01*
X185030293Y-144458067D01*
X185030292Y-144458066D01*
X185030289Y-144458064D01*
X184820212Y-144336776D01*
X184820205Y-144336773D01*
X184596104Y-144243947D01*
X184361785Y-144181161D01*
X184121289Y-144149500D01*
X184121288Y-144149500D01*
X183878712Y-144149500D01*
X183878711Y-144149500D01*
X183638214Y-144181161D01*
X183403895Y-144243947D01*
X183179794Y-144336773D01*
X183179785Y-144336777D01*
X182969706Y-144458067D01*
X182777263Y-144605733D01*
X182777256Y-144605739D01*
X182605739Y-144777256D01*
X182605733Y-144777263D01*
X182458067Y-144969706D01*
X182336777Y-145179785D01*
X182336773Y-145179794D01*
X182243947Y-145403895D01*
X182181161Y-145638214D01*
X182149500Y-145878711D01*
X167405816Y-145878711D01*
X172084724Y-141199802D01*
X172140309Y-141167711D01*
X172169069Y-141160005D01*
X172375499Y-141074499D01*
X172569001Y-140962781D01*
X172746266Y-140826760D01*
X172746270Y-140826755D01*
X172746275Y-140826752D01*
X172904252Y-140668775D01*
X172904255Y-140668770D01*
X172904260Y-140668766D01*
X173040281Y-140491501D01*
X173151999Y-140297999D01*
X173237505Y-140091569D01*
X173245211Y-140062806D01*
X173277302Y-140007223D01*
X174764517Y-138520010D01*
X174903343Y-138328934D01*
X175010568Y-138118492D01*
X175083553Y-137893869D01*
X175099973Y-137790190D01*
X175120500Y-137660597D01*
X175120500Y-119501902D01*
X175083553Y-119268631D01*
X175010566Y-119044003D01*
X174956006Y-118936924D01*
X174903343Y-118833567D01*
X174878343Y-118799157D01*
X174764518Y-118642490D01*
X170320010Y-114197983D01*
X170128934Y-114059157D01*
X169918496Y-113951933D01*
X169693868Y-113878946D01*
X169460597Y-113842000D01*
X169460592Y-113842000D01*
X164289417Y-113842000D01*
X164222378Y-113822315D01*
X164193315Y-113796361D01*
X164181109Y-113781391D01*
X164023407Y-113652802D01*
X163843049Y-113558591D01*
X163843048Y-113558590D01*
X163843045Y-113558589D01*
X163725829Y-113525050D01*
X163647418Y-113502614D01*
X163647415Y-113502613D01*
X163647413Y-113502613D01*
X163581102Y-113496717D01*
X163528037Y-113492000D01*
X163528032Y-113492000D01*
X161711971Y-113492000D01*
X161711965Y-113492000D01*
X161711964Y-113492001D01*
X161700316Y-113493036D01*
X161592584Y-113502613D01*
X161396954Y-113558589D01*
X161306772Y-113605696D01*
X161216593Y-113652802D01*
X161216591Y-113652803D01*
X161216590Y-113652804D01*
X161058890Y-113781390D01*
X160930304Y-113939090D01*
X160930302Y-113939093D01*
X160890730Y-114014850D01*
X160836089Y-114119454D01*
X160780114Y-114315083D01*
X160780113Y-114315086D01*
X160769500Y-114434466D01*
X160769500Y-116250528D01*
X160769501Y-116250534D01*
X160780113Y-116369915D01*
X160836089Y-116565545D01*
X160836090Y-116565548D01*
X160836091Y-116565549D01*
X160930302Y-116745907D01*
X160930304Y-116745909D01*
X161058890Y-116903609D01*
X161149523Y-116977510D01*
X161216593Y-117032198D01*
X161396951Y-117126409D01*
X161592582Y-117182386D01*
X161711963Y-117193000D01*
X163528036Y-117192999D01*
X163647418Y-117182386D01*
X163843049Y-117126409D01*
X164023407Y-117032198D01*
X164181109Y-116903609D01*
X164193315Y-116888638D01*
X164250937Y-116849122D01*
X164289417Y-116843000D01*
X168669611Y-116843000D01*
X168736650Y-116862685D01*
X168757292Y-116879319D01*
X172083181Y-120205208D01*
X172116666Y-120266531D01*
X172119500Y-120292889D01*
X172119500Y-123975500D01*
X172099815Y-124042539D01*
X172047011Y-124088294D01*
X171995500Y-124099500D01*
X170851971Y-124099500D01*
X170851965Y-124099500D01*
X170851964Y-124099501D01*
X170840316Y-124100536D01*
X170732584Y-124110113D01*
X170536954Y-124166089D01*
X170446772Y-124213196D01*
X170356593Y-124260302D01*
X170356591Y-124260303D01*
X170356590Y-124260304D01*
X170198890Y-124388890D01*
X170070304Y-124546590D01*
X170070302Y-124546593D01*
X170023196Y-124636772D01*
X169976089Y-124726954D01*
X169920114Y-124922583D01*
X169920113Y-124922586D01*
X169912607Y-125007016D01*
X169910605Y-125029542D01*
X169909500Y-125041966D01*
X169909500Y-126958028D01*
X169909501Y-126958034D01*
X169920113Y-127077415D01*
X169976089Y-127273045D01*
X169976090Y-127273048D01*
X169976091Y-127273049D01*
X170070302Y-127453407D01*
X170070304Y-127453409D01*
X170198890Y-127611109D01*
X170259717Y-127660706D01*
X170356593Y-127739698D01*
X170536951Y-127833909D01*
X170732582Y-127889886D01*
X170851963Y-127900500D01*
X171995500Y-127900499D01*
X172062539Y-127920184D01*
X172108294Y-127972987D01*
X172119500Y-128024499D01*
X172119500Y-131250112D01*
X172099815Y-131317151D01*
X172047011Y-131362906D01*
X171977853Y-131372850D01*
X171963411Y-131369888D01*
X171953258Y-131367167D01*
X171953246Y-131367165D01*
X171953245Y-131367165D01*
X171904017Y-131360683D01*
X171731726Y-131338000D01*
X171731719Y-131338000D01*
X171508281Y-131338000D01*
X171508273Y-131338000D01*
X171311369Y-131363924D01*
X171286755Y-131367165D01*
X171232799Y-131381622D01*
X171070928Y-131424995D01*
X170864507Y-131510498D01*
X170864497Y-131510502D01*
X170670999Y-131622218D01*
X170548291Y-131716376D01*
X170483122Y-131741570D01*
X170472805Y-131742000D01*
X169632547Y-131742000D01*
X169565508Y-131722315D01*
X169544866Y-131705681D01*
X165526819Y-127687634D01*
X165512115Y-127660706D01*
X165495523Y-127634888D01*
X165494631Y-127628687D01*
X165493334Y-127626311D01*
X165490500Y-127599953D01*
X165490500Y-127438576D01*
X165510185Y-127371537D01*
X165526814Y-127350899D01*
X165621938Y-127255776D01*
X165773599Y-127058127D01*
X165898164Y-126842373D01*
X165993502Y-126612207D01*
X166057982Y-126371565D01*
X166090500Y-126124565D01*
X166090500Y-125875435D01*
X166057982Y-125628435D01*
X165993502Y-125387793D01*
X165931514Y-125238141D01*
X165898169Y-125157638D01*
X165898162Y-125157623D01*
X165773599Y-124941873D01*
X165621939Y-124744225D01*
X165621933Y-124744218D01*
X165445781Y-124568066D01*
X165445774Y-124568060D01*
X165248126Y-124416400D01*
X165032376Y-124291837D01*
X165032361Y-124291830D01*
X164802207Y-124196498D01*
X164561561Y-124132017D01*
X164314575Y-124099501D01*
X164314570Y-124099500D01*
X164314565Y-124099500D01*
X164065435Y-124099500D01*
X164065429Y-124099500D01*
X164065424Y-124099501D01*
X163818438Y-124132017D01*
X163577792Y-124196498D01*
X163347638Y-124291830D01*
X163347623Y-124291837D01*
X163131873Y-124416400D01*
X162934225Y-124568060D01*
X162934218Y-124568066D01*
X162758066Y-124744218D01*
X162758060Y-124744225D01*
X162606400Y-124941873D01*
X162481837Y-125157623D01*
X162481830Y-125157638D01*
X162386498Y-125387792D01*
X162322017Y-125628438D01*
X162289501Y-125875424D01*
X162289500Y-125875441D01*
X162289500Y-126124558D01*
X162289501Y-126124575D01*
X162322017Y-126371561D01*
X162386498Y-126612207D01*
X162481830Y-126842361D01*
X162481837Y-126842376D01*
X162606400Y-127058126D01*
X162758059Y-127255773D01*
X162758061Y-127255775D01*
X162758062Y-127255776D01*
X162853182Y-127350896D01*
X162886666Y-127412217D01*
X162889500Y-127438576D01*
X162889500Y-128292351D01*
X162921522Y-128494534D01*
X162984781Y-128689223D01*
X163028054Y-128774150D01*
X163031246Y-128780414D01*
X163077713Y-128871611D01*
X163198034Y-129037219D01*
X168195281Y-134034466D01*
X168360889Y-134154787D01*
X168388325Y-134168766D01*
X168412620Y-134181144D01*
X168436225Y-134203439D01*
X168463412Y-134229114D01*
X168463412Y-134229116D01*
X168463414Y-134229118D01*
X168471819Y-134263060D01*
X168480209Y-134296935D01*
X168480208Y-134296936D01*
X168480209Y-134296939D01*
X168469969Y-134326985D01*
X168457674Y-134363070D01*
X168444004Y-134379309D01*
X163182364Y-139640949D01*
X163121041Y-139674434D01*
X163051349Y-139669450D01*
X162995416Y-139627578D01*
X162994365Y-139626153D01*
X162878933Y-139467274D01*
X162878928Y-139467268D01*
X162695231Y-139283571D01*
X162695225Y-139283566D01*
X162485054Y-139130868D01*
X162485053Y-139130867D01*
X162485051Y-139130866D01*
X162380855Y-139077775D01*
X162253576Y-139012922D01*
X162006493Y-138932640D01*
X161749902Y-138892000D01*
X161749897Y-138892000D01*
X161490103Y-138892000D01*
X161490098Y-138892000D01*
X161233506Y-138932640D01*
X160986423Y-139012922D01*
X160754945Y-139130868D01*
X160544774Y-139283566D01*
X160544768Y-139283571D01*
X160361071Y-139467268D01*
X160361066Y-139467274D01*
X160208368Y-139677445D01*
X160090422Y-139908923D01*
X160010140Y-140156006D01*
X159969500Y-140412597D01*
X159969500Y-140672402D01*
X160010140Y-140928993D01*
X160090422Y-141176076D01*
X160166175Y-141324747D01*
X160204056Y-141399093D01*
X160208368Y-141407554D01*
X160290148Y-141520115D01*
X160313628Y-141585921D01*
X160297803Y-141653975D01*
X160247697Y-141702670D01*
X160189830Y-141717000D01*
X159535047Y-141717000D01*
X159468008Y-141697315D01*
X159447366Y-141680681D01*
X157806819Y-140040134D01*
X157773334Y-139978811D01*
X157770500Y-139952453D01*
X157770500Y-139924495D01*
X157770500Y-139924489D01*
X157739693Y-139690486D01*
X157678606Y-139462507D01*
X157588284Y-139244451D01*
X157588282Y-139244448D01*
X157588280Y-139244443D01*
X157546118Y-139171418D01*
X157470273Y-139040050D01*
X157387855Y-138932640D01*
X157326593Y-138852802D01*
X157326587Y-138852795D01*
X157159704Y-138685912D01*
X157159697Y-138685906D01*
X156972454Y-138542230D01*
X156972453Y-138542229D01*
X156972450Y-138542227D01*
X156873408Y-138485045D01*
X156768056Y-138424219D01*
X156768045Y-138424214D01*
X156549993Y-138333894D01*
X156322010Y-138272806D01*
X156088020Y-138242001D01*
X156088017Y-138242000D01*
X156088011Y-138242000D01*
X155851989Y-138242000D01*
X155851983Y-138242000D01*
X155851979Y-138242001D01*
X155617989Y-138272806D01*
X155390006Y-138333894D01*
X155171954Y-138424214D01*
X155171943Y-138424219D01*
X154967545Y-138542230D01*
X154780302Y-138685906D01*
X154780295Y-138685912D01*
X154613412Y-138852795D01*
X154613406Y-138852802D01*
X154469730Y-139040045D01*
X154351719Y-139244443D01*
X154351714Y-139244454D01*
X154261394Y-139462506D01*
X154200306Y-139690489D01*
X154169501Y-139924479D01*
X154169500Y-139924495D01*
X154169500Y-140160504D01*
X154169501Y-140160520D01*
X154200306Y-140394510D01*
X154261394Y-140622493D01*
X154351714Y-140840545D01*
X154351719Y-140840556D01*
X154402779Y-140928993D01*
X154469727Y-141044950D01*
X154469729Y-141044953D01*
X154469730Y-141044954D01*
X154613406Y-141232197D01*
X154613412Y-141232204D01*
X154780295Y-141399087D01*
X154780301Y-141399092D01*
X154967550Y-141542773D01*
X155042285Y-141585921D01*
X155171943Y-141660780D01*
X155171948Y-141660782D01*
X155171951Y-141660784D01*
X155390007Y-141751106D01*
X155617986Y-141812193D01*
X155851989Y-141843000D01*
X155879953Y-141843000D01*
X155946992Y-141862685D01*
X155967634Y-141879319D01*
X157376134Y-143287819D01*
X157409619Y-143349142D01*
X157404635Y-143418834D01*
X157362763Y-143474767D01*
X157297299Y-143499184D01*
X157288453Y-143499500D01*
X144286821Y-143499500D01*
X144219782Y-143479815D01*
X144174027Y-143427011D01*
X144164083Y-143357853D01*
X144193108Y-143294297D01*
X144230526Y-143265015D01*
X144405537Y-143175843D01*
X144596613Y-143037017D01*
X145969517Y-141664113D01*
X146108343Y-141473036D01*
X146215568Y-141262595D01*
X146288553Y-141037971D01*
X146300462Y-140962781D01*
X146325500Y-140804700D01*
X146325500Y-132439402D01*
X146312027Y-132354340D01*
X146310500Y-132334942D01*
X146310500Y-122624500D01*
X146330185Y-122557461D01*
X146382989Y-122511706D01*
X146434500Y-122500500D01*
X152118097Y-122500500D01*
X152351368Y-122463553D01*
X152575992Y-122390568D01*
X152786434Y-122283343D01*
X152977510Y-122144517D01*
X153764517Y-121357510D01*
X153903343Y-121166434D01*
X154010568Y-120955993D01*
X154038855Y-120868933D01*
X154083553Y-120731368D01*
X154099973Y-120627689D01*
X154120500Y-120498097D01*
X154120500Y-117668881D01*
X154140185Y-117601842D01*
X154146126Y-117593393D01*
X154148441Y-117590375D01*
X154161936Y-117572789D01*
X154283224Y-117362712D01*
X154376054Y-117138600D01*
X154438838Y-116904289D01*
X154470500Y-116663788D01*
X154470500Y-116421212D01*
X154438838Y-116180711D01*
X154376054Y-115946400D01*
X154283224Y-115722288D01*
X154161936Y-115512211D01*
X154014265Y-115319762D01*
X154014260Y-115319756D01*
X153842743Y-115148239D01*
X153842736Y-115148233D01*
X153650293Y-115000567D01*
X153650292Y-115000566D01*
X153650289Y-115000564D01*
X153440212Y-114879276D01*
X153440205Y-114879273D01*
X153216104Y-114786447D01*
X152981785Y-114723661D01*
X152741289Y-114692000D01*
X152741288Y-114692000D01*
X152498712Y-114692000D01*
X152498711Y-114692000D01*
X152258214Y-114723661D01*
X152023895Y-114786447D01*
X151799794Y-114879273D01*
X151799785Y-114879277D01*
X151589706Y-115000567D01*
X151397263Y-115148233D01*
X151397256Y-115148239D01*
X151225739Y-115319756D01*
X151225733Y-115319763D01*
X151078067Y-115512206D01*
X151078064Y-115512210D01*
X151078064Y-115512211D01*
X151076405Y-115515084D01*
X150956777Y-115722285D01*
X150956773Y-115722294D01*
X150863947Y-115946395D01*
X150801161Y-116180714D01*
X150769500Y-116421211D01*
X150769500Y-116663788D01*
X150801161Y-116904285D01*
X150863947Y-117138604D01*
X150886479Y-117193000D01*
X150956776Y-117362712D01*
X151078064Y-117572789D01*
X151078071Y-117572798D01*
X151078073Y-117572801D01*
X151093874Y-117593393D01*
X151119070Y-117658562D01*
X151119500Y-117668881D01*
X151119500Y-119375500D01*
X151099815Y-119442539D01*
X151047011Y-119488294D01*
X150995500Y-119499500D01*
X144779500Y-119499500D01*
X144712461Y-119479815D01*
X144666706Y-119427011D01*
X144655500Y-119375500D01*
X144655500Y-115764551D01*
X144675185Y-115697512D01*
X144727989Y-115651757D01*
X144797147Y-115641813D01*
X144860703Y-115670838D01*
X144867181Y-115676870D01*
X145653181Y-116462870D01*
X145686666Y-116524193D01*
X145689500Y-116550551D01*
X145689500Y-117450528D01*
X145689501Y-117450534D01*
X145700113Y-117569915D01*
X145756089Y-117765545D01*
X145756090Y-117765548D01*
X145756091Y-117765549D01*
X145850302Y-117945907D01*
X145850304Y-117945909D01*
X145978890Y-118103609D01*
X146049029Y-118160799D01*
X146136593Y-118232198D01*
X146316951Y-118326409D01*
X146512582Y-118382386D01*
X146631963Y-118393000D01*
X148448036Y-118392999D01*
X148567418Y-118382386D01*
X148763049Y-118326409D01*
X148943407Y-118232198D01*
X149101109Y-118103609D01*
X149229698Y-117945907D01*
X149323909Y-117765549D01*
X149379886Y-117569918D01*
X149390500Y-117450537D01*
X149390499Y-115634464D01*
X149379886Y-115515082D01*
X149323909Y-115319451D01*
X149229698Y-115139093D01*
X149149905Y-115041234D01*
X149101109Y-114981390D01*
X148943409Y-114852804D01*
X148943410Y-114852804D01*
X148943407Y-114852802D01*
X148763049Y-114758591D01*
X148763048Y-114758590D01*
X148763045Y-114758589D01*
X148645829Y-114725050D01*
X148567418Y-114702614D01*
X148567415Y-114702613D01*
X148567413Y-114702613D01*
X148494631Y-114696142D01*
X148448037Y-114692000D01*
X148448033Y-114692000D01*
X148177727Y-114692000D01*
X148110688Y-114672315D01*
X148090046Y-114655681D01*
X145849289Y-112414924D01*
X145815804Y-112353601D01*
X145820788Y-112283909D01*
X145862660Y-112227976D01*
X145864014Y-112226976D01*
X145977510Y-112144517D01*
X146144517Y-111977510D01*
X146203067Y-111918960D01*
X146203075Y-111918950D01*
X146322709Y-111799317D01*
X146384032Y-111765834D01*
X146410389Y-111763000D01*
X161493618Y-111763000D01*
X161560657Y-111782685D01*
X161569104Y-111788624D01*
X161589711Y-111804436D01*
X161799784Y-111925722D01*
X161799785Y-111925722D01*
X161799788Y-111925724D01*
X162023900Y-112018554D01*
X162258211Y-112081338D01*
X162438586Y-112105084D01*
X162498711Y-112113000D01*
X162498712Y-112113000D01*
X162741289Y-112113000D01*
X162789388Y-112106667D01*
X162981789Y-112081338D01*
X163216100Y-112018554D01*
X163440212Y-111925724D01*
X163650289Y-111804436D01*
X163842738Y-111656765D01*
X164014265Y-111485238D01*
X164161936Y-111292789D01*
X164283224Y-111082712D01*
X164376054Y-110858600D01*
X164438838Y-110624289D01*
X164470500Y-110383788D01*
X164470500Y-110141212D01*
X164438838Y-109900711D01*
X164376054Y-109666400D01*
X164283224Y-109442288D01*
X164161936Y-109232211D01*
X164035922Y-109067986D01*
X164010728Y-109002817D01*
X164024766Y-108934372D01*
X164035922Y-108917014D01*
X164037099Y-108915479D01*
X164161936Y-108752789D01*
X164283224Y-108542712D01*
X164376054Y-108318600D01*
X164438838Y-108084289D01*
X164470500Y-107843788D01*
X164470500Y-107601212D01*
X164438838Y-107360711D01*
X164376054Y-107126400D01*
X164283224Y-106902288D01*
X164161936Y-106692211D01*
X164101018Y-106612821D01*
X164014266Y-106499763D01*
X164014260Y-106499756D01*
X163842743Y-106328239D01*
X163842736Y-106328233D01*
X163650293Y-106180567D01*
X163650292Y-106180566D01*
X163650289Y-106180564D01*
X163440212Y-106059276D01*
X163440205Y-106059273D01*
X163216104Y-105966447D01*
X163065513Y-105926096D01*
X162981789Y-105903662D01*
X162981784Y-105903661D01*
X162981782Y-105903661D01*
X162956034Y-105900271D01*
X162892138Y-105872003D01*
X162884540Y-105865013D01*
X161812511Y-104792984D01*
X161812508Y-104792982D01*
X161621434Y-104654157D01*
X161410996Y-104546933D01*
X161186368Y-104473946D01*
X160953097Y-104437000D01*
X160953092Y-104437000D01*
X148963092Y-104437000D01*
X148726908Y-104437000D01*
X148726903Y-104437000D01*
X148493631Y-104473946D01*
X148269003Y-104546933D01*
X148058563Y-104654159D01*
X147867496Y-104792976D01*
X147867491Y-104792980D01*
X146975457Y-105685013D01*
X146914134Y-105718498D01*
X146903965Y-105720271D01*
X146878214Y-105723661D01*
X146878211Y-105723662D01*
X146643895Y-105786447D01*
X146419794Y-105879273D01*
X146419785Y-105879277D01*
X146209706Y-106000567D01*
X146045486Y-106126577D01*
X145980317Y-106151771D01*
X145911872Y-106137732D01*
X145894514Y-106126577D01*
X145730293Y-106000567D01*
X145730292Y-106000566D01*
X145730289Y-106000564D01*
X145520212Y-105879276D01*
X145520205Y-105879273D01*
X145296104Y-105786447D01*
X145061785Y-105723661D01*
X144821289Y-105692000D01*
X144821288Y-105692000D01*
X144578712Y-105692000D01*
X144578711Y-105692000D01*
X144338214Y-105723661D01*
X144103895Y-105786447D01*
X143879794Y-105879273D01*
X143879782Y-105879279D01*
X143846498Y-105898495D01*
X143778598Y-105914966D01*
X143712571Y-105892113D01*
X143669382Y-105837191D01*
X143660500Y-105791107D01*
X143660500Y-102624500D01*
X143680185Y-102557461D01*
X143732989Y-102511706D01*
X143784500Y-102500500D01*
X158740597Y-102500500D01*
X158973868Y-102463553D01*
X159198492Y-102390568D01*
X159408934Y-102283343D01*
X159600010Y-102144517D01*
X163392460Y-98352065D01*
X163453781Y-98318582D01*
X163523473Y-98323566D01*
X163579406Y-98365438D01*
X163603823Y-98430902D01*
X163588971Y-98499175D01*
X163578515Y-98515234D01*
X163458067Y-98672206D01*
X163336777Y-98882285D01*
X163336773Y-98882294D01*
X163243947Y-99106395D01*
X163181161Y-99340714D01*
X163149500Y-99581211D01*
X163149500Y-99823788D01*
X163181161Y-100064285D01*
X163243947Y-100298604D01*
X163296925Y-100426503D01*
X163336776Y-100522712D01*
X163458064Y-100732789D01*
X163458066Y-100732792D01*
X163458067Y-100732793D01*
X163605733Y-100925236D01*
X163605739Y-100925243D01*
X163777256Y-101096760D01*
X163777262Y-101096765D01*
X163969711Y-101244436D01*
X164179788Y-101365724D01*
X164403900Y-101458554D01*
X164638211Y-101521338D01*
X164818586Y-101545084D01*
X164878711Y-101553000D01*
X164878712Y-101553000D01*
X165121289Y-101553000D01*
X165169388Y-101546667D01*
X165361789Y-101521338D01*
X165596100Y-101458554D01*
X165820212Y-101365724D01*
X166030289Y-101244436D01*
X166222738Y-101096765D01*
X166394265Y-100925238D01*
X166541936Y-100732789D01*
X166663224Y-100522712D01*
X166756054Y-100298600D01*
X166818838Y-100064289D01*
X166850500Y-99823788D01*
X166850500Y-99581212D01*
X166818838Y-99340711D01*
X166756054Y-99106400D01*
X166663224Y-98882288D01*
X166541936Y-98672211D01*
X166415922Y-98507986D01*
X166390728Y-98442817D01*
X166404766Y-98374372D01*
X166415922Y-98357014D01*
X166501265Y-98245792D01*
X166541936Y-98192789D01*
X166663224Y-97982712D01*
X166756054Y-97758600D01*
X166818838Y-97524289D01*
X166850500Y-97283788D01*
X166850500Y-97041212D01*
X166818838Y-96800711D01*
X166756054Y-96566400D01*
X166663224Y-96342288D01*
X166541936Y-96132211D01*
X166415922Y-95967986D01*
X166390728Y-95902817D01*
X166404766Y-95834372D01*
X166415922Y-95817014D01*
X166517774Y-95684277D01*
X166541936Y-95652789D01*
X166663224Y-95442712D01*
X166756054Y-95218600D01*
X166818838Y-94984289D01*
X166850500Y-94743788D01*
X166850500Y-94501212D01*
X166818838Y-94260711D01*
X166756054Y-94026400D01*
X166663224Y-93802288D01*
X166541936Y-93592211D01*
X166394265Y-93399762D01*
X166394260Y-93399756D01*
X166222743Y-93228239D01*
X166222736Y-93228233D01*
X166030293Y-93080567D01*
X166030292Y-93080566D01*
X166030289Y-93080564D01*
X165858661Y-92981474D01*
X165820214Y-92959277D01*
X165820205Y-92959273D01*
X165596104Y-92866447D01*
X165361785Y-92803661D01*
X165121289Y-92772000D01*
X165121288Y-92772000D01*
X164878712Y-92772000D01*
X164878711Y-92772000D01*
X164638214Y-92803661D01*
X164403895Y-92866447D01*
X164179794Y-92959273D01*
X164179785Y-92959277D01*
X163969706Y-93080567D01*
X163777263Y-93228233D01*
X163777256Y-93228239D01*
X163605739Y-93399756D01*
X163605733Y-93399763D01*
X163458067Y-93592206D01*
X163336777Y-93802285D01*
X163336773Y-93802294D01*
X163243947Y-94026395D01*
X163181162Y-94260711D01*
X163181161Y-94260716D01*
X163177771Y-94286465D01*
X163149503Y-94350361D01*
X163142513Y-94357958D01*
X158037292Y-99463181D01*
X157975969Y-99496666D01*
X157949611Y-99499500D01*
X142044403Y-99499500D01*
X141811131Y-99536446D01*
X141586503Y-99609433D01*
X141376063Y-99716659D01*
X141184993Y-99855479D01*
X141184987Y-99855484D01*
X141015486Y-100024986D01*
X141015484Y-100024988D01*
X140876659Y-100216062D01*
X140876658Y-100216064D01*
X140844850Y-100278492D01*
X140769433Y-100426503D01*
X140696446Y-100651131D01*
X140659500Y-100884402D01*
X140659500Y-105791107D01*
X140639815Y-105858146D01*
X140587011Y-105903901D01*
X140517853Y-105913845D01*
X140473502Y-105898495D01*
X140440217Y-105879279D01*
X140440218Y-105879279D01*
X140440212Y-105879276D01*
X140440205Y-105879273D01*
X140216104Y-105786447D01*
X139981785Y-105723661D01*
X139741289Y-105692000D01*
X139741288Y-105692000D01*
X139498712Y-105692000D01*
X139498711Y-105692000D01*
X139258214Y-105723661D01*
X139023895Y-105786447D01*
X138799794Y-105879273D01*
X138799785Y-105879277D01*
X138589706Y-106000567D01*
X138425486Y-106126577D01*
X138360317Y-106151771D01*
X138291872Y-106137732D01*
X138274514Y-106126577D01*
X138110293Y-106000567D01*
X138110292Y-106000566D01*
X138110289Y-106000564D01*
X137900212Y-105879276D01*
X137900205Y-105879273D01*
X137676104Y-105786447D01*
X137441785Y-105723661D01*
X137201289Y-105692000D01*
X137201288Y-105692000D01*
X136958712Y-105692000D01*
X136958711Y-105692000D01*
X136718214Y-105723661D01*
X136483895Y-105786447D01*
X136259794Y-105879273D01*
X136259785Y-105879277D01*
X136049706Y-106000567D01*
X135885486Y-106126577D01*
X135820317Y-106151771D01*
X135751872Y-106137732D01*
X135734514Y-106126577D01*
X135570293Y-106000567D01*
X135570292Y-106000566D01*
X135570289Y-106000564D01*
X135360212Y-105879276D01*
X135360205Y-105879273D01*
X135136104Y-105786447D01*
X134901785Y-105723661D01*
X134661289Y-105692000D01*
X134661288Y-105692000D01*
X134418712Y-105692000D01*
X134418711Y-105692000D01*
X134178214Y-105723661D01*
X133943895Y-105786447D01*
X133719794Y-105879273D01*
X133719789Y-105879275D01*
X133627640Y-105932477D01*
X133559740Y-105948949D01*
X133493713Y-105926096D01*
X133487281Y-105921191D01*
X133403412Y-105852805D01*
X133403408Y-105852803D01*
X133403407Y-105852802D01*
X133223049Y-105758591D01*
X133223048Y-105758590D01*
X133223045Y-105758589D01*
X133105829Y-105725050D01*
X133027418Y-105702614D01*
X133027415Y-105702613D01*
X133027413Y-105702613D01*
X132961102Y-105696717D01*
X132908037Y-105692000D01*
X132908032Y-105692000D01*
X131091971Y-105692000D01*
X131091965Y-105692000D01*
X131091964Y-105692001D01*
X131080316Y-105693036D01*
X130972584Y-105702613D01*
X130776954Y-105758589D01*
X130723625Y-105786446D01*
X130596593Y-105852802D01*
X130596591Y-105852803D01*
X130596590Y-105852804D01*
X130438890Y-105981390D01*
X130310304Y-106139090D01*
X130310302Y-106139093D01*
X130288638Y-106180567D01*
X130216089Y-106319454D01*
X130160114Y-106515083D01*
X130160113Y-106515086D01*
X130149500Y-106634466D01*
X130149500Y-108450528D01*
X130149501Y-108450534D01*
X130160113Y-108569915D01*
X130216089Y-108765545D01*
X130216090Y-108765548D01*
X130216091Y-108765549D01*
X130310302Y-108945907D01*
X130438891Y-109103609D01*
X130453859Y-109115814D01*
X130493377Y-109173432D01*
X130499500Y-109211916D01*
X130499500Y-112040597D01*
X130536446Y-112273868D01*
X130609433Y-112498496D01*
X130716657Y-112708934D01*
X130855484Y-112900011D01*
X132896726Y-114941253D01*
X132930211Y-115002576D01*
X132925227Y-115072268D01*
X132884534Y-115127308D01*
X132857257Y-115148239D01*
X132857253Y-115148243D01*
X132685739Y-115319756D01*
X132685733Y-115319763D01*
X132538067Y-115512206D01*
X132538064Y-115512210D01*
X132538064Y-115512211D01*
X132536405Y-115515084D01*
X132416777Y-115722285D01*
X132416773Y-115722294D01*
X132323947Y-115946395D01*
X132261161Y-116180714D01*
X132229500Y-116421211D01*
X132229500Y-116663788D01*
X132261161Y-116904285D01*
X132323947Y-117138604D01*
X132346479Y-117193000D01*
X132416776Y-117362712D01*
X132538064Y-117572789D01*
X132538066Y-117572792D01*
X132538067Y-117572793D01*
X132685733Y-117765236D01*
X132685739Y-117765243D01*
X132857256Y-117936760D01*
X132857263Y-117936766D01*
X132870947Y-117947266D01*
X133049711Y-118084436D01*
X133259788Y-118205724D01*
X133483900Y-118298554D01*
X133718211Y-118361338D01*
X133898586Y-118385084D01*
X133958711Y-118393000D01*
X133958712Y-118393000D01*
X134201289Y-118393000D01*
X134249388Y-118386667D01*
X134441789Y-118361338D01*
X134676100Y-118298554D01*
X134900212Y-118205724D01*
X135110289Y-118084436D01*
X135274514Y-117958422D01*
X135339683Y-117933228D01*
X135408128Y-117947266D01*
X135425486Y-117958422D01*
X135589711Y-118084436D01*
X135799788Y-118205724D01*
X136023900Y-118298554D01*
X136258211Y-118361338D01*
X136438586Y-118385084D01*
X136498711Y-118393000D01*
X136498712Y-118393000D01*
X136741289Y-118393000D01*
X136789388Y-118386667D01*
X136981789Y-118361338D01*
X137216100Y-118298554D01*
X137440212Y-118205724D01*
X137532359Y-118152522D01*
X137600257Y-118136050D01*
X137666284Y-118158902D01*
X137672719Y-118163808D01*
X137756593Y-118232198D01*
X137936951Y-118326409D01*
X138132582Y-118382386D01*
X138251963Y-118393000D01*
X140068036Y-118392999D01*
X140187418Y-118382386D01*
X140383049Y-118326409D01*
X140563407Y-118232198D01*
X140721109Y-118103609D01*
X140849698Y-117945907D01*
X140943909Y-117765549D01*
X140999886Y-117569918D01*
X141010500Y-117450537D01*
X141010499Y-115634464D01*
X140999886Y-115515082D01*
X140943909Y-115319451D01*
X140849698Y-115139093D01*
X140721109Y-114981391D01*
X140706135Y-114969181D01*
X140666620Y-114911558D01*
X140660500Y-114873082D01*
X140660500Y-114081889D01*
X140680185Y-114014850D01*
X140732989Y-113969095D01*
X140802147Y-113959151D01*
X140865703Y-113988176D01*
X140872181Y-113994208D01*
X141618181Y-114740208D01*
X141651666Y-114801531D01*
X141654500Y-114827889D01*
X141654500Y-139213063D01*
X141645061Y-139260515D01*
X141561395Y-139462503D01*
X141500306Y-139690489D01*
X141469501Y-139924479D01*
X141469500Y-139924495D01*
X141469500Y-140160504D01*
X141469501Y-140160521D01*
X141481520Y-140251815D01*
X141470754Y-140320850D01*
X141424374Y-140373106D01*
X141358581Y-140392000D01*
X111624500Y-140392000D01*
X111557461Y-140372315D01*
X111511706Y-140319511D01*
X111500500Y-140268000D01*
X111500500Y-139755389D01*
X111520185Y-139688350D01*
X111536819Y-139667708D01*
X120684071Y-130520456D01*
X130144518Y-121060010D01*
X130283343Y-120868933D01*
X130390568Y-120658492D01*
X130463553Y-120433868D01*
X130485882Y-120292889D01*
X130500500Y-120200597D01*
X130500500Y-117668881D01*
X130520185Y-117601842D01*
X130526126Y-117593393D01*
X130528441Y-117590375D01*
X130541936Y-117572789D01*
X130663224Y-117362712D01*
X130756054Y-117138600D01*
X130818838Y-116904289D01*
X130850500Y-116663788D01*
X130850500Y-116421212D01*
X130818838Y-116180711D01*
X130756054Y-115946400D01*
X130663224Y-115722288D01*
X130541936Y-115512211D01*
X130394265Y-115319762D01*
X130394260Y-115319756D01*
X130222743Y-115148239D01*
X130222736Y-115148233D01*
X130030293Y-115000567D01*
X130030292Y-115000566D01*
X130030289Y-115000564D01*
X129820212Y-114879276D01*
X129820205Y-114879273D01*
X129596104Y-114786447D01*
X129361785Y-114723661D01*
X129121289Y-114692000D01*
X129121288Y-114692000D01*
X128878712Y-114692000D01*
X128878711Y-114692000D01*
X128640685Y-114723336D01*
X128571650Y-114712570D01*
X128519394Y-114666190D01*
X128500500Y-114600397D01*
X128500500Y-81672890D01*
X128509144Y-81643452D01*
X128515668Y-81613462D01*
X128519422Y-81608446D01*
X128520185Y-81605851D01*
X128536820Y-81585208D01*
X128585211Y-81536818D01*
X128646534Y-81503334D01*
X128672891Y-81500500D01*
X150620610Y-81500500D01*
X150687649Y-81520185D01*
X150733404Y-81572989D01*
X150743348Y-81642147D01*
X150714323Y-81705703D01*
X150708291Y-81712181D01*
X141735458Y-90685013D01*
X141674135Y-90718498D01*
X141663965Y-90720271D01*
X141638216Y-90723661D01*
X141638211Y-90723662D01*
X141403895Y-90786447D01*
X141179794Y-90879273D01*
X141179785Y-90879277D01*
X140969706Y-91000567D01*
X140805486Y-91126577D01*
X140740317Y-91151771D01*
X140671872Y-91137732D01*
X140654514Y-91126577D01*
X140490293Y-91000567D01*
X140490292Y-91000566D01*
X140490289Y-91000564D01*
X140280212Y-90879276D01*
X140216303Y-90852804D01*
X140056104Y-90786447D01*
X139821785Y-90723661D01*
X139581289Y-90692000D01*
X139581288Y-90692000D01*
X139338712Y-90692000D01*
X139338711Y-90692000D01*
X139098214Y-90723661D01*
X138863895Y-90786447D01*
X138639794Y-90879273D01*
X138639785Y-90879277D01*
X138429706Y-91000567D01*
X138265486Y-91126577D01*
X138200317Y-91151771D01*
X138131872Y-91137732D01*
X138114514Y-91126577D01*
X137950293Y-91000567D01*
X137950292Y-91000566D01*
X137950289Y-91000564D01*
X137740212Y-90879276D01*
X137676303Y-90852804D01*
X137516104Y-90786447D01*
X137281785Y-90723661D01*
X137041289Y-90692000D01*
X137041288Y-90692000D01*
X136798712Y-90692000D01*
X136798711Y-90692000D01*
X136558214Y-90723661D01*
X136323895Y-90786447D01*
X136099794Y-90879273D01*
X136099785Y-90879277D01*
X135889706Y-91000567D01*
X135725486Y-91126577D01*
X135660317Y-91151771D01*
X135591872Y-91137732D01*
X135574514Y-91126577D01*
X135410293Y-91000567D01*
X135410292Y-91000566D01*
X135410289Y-91000564D01*
X135200212Y-90879276D01*
X135136303Y-90852804D01*
X134976104Y-90786447D01*
X134741785Y-90723661D01*
X134501289Y-90692000D01*
X134501288Y-90692000D01*
X134258712Y-90692000D01*
X134258711Y-90692000D01*
X134018214Y-90723661D01*
X133783895Y-90786447D01*
X133559794Y-90879273D01*
X133559785Y-90879277D01*
X133349706Y-91000567D01*
X133185486Y-91126577D01*
X133120317Y-91151771D01*
X133051872Y-91137732D01*
X133034514Y-91126577D01*
X132870293Y-91000567D01*
X132870292Y-91000566D01*
X132870289Y-91000564D01*
X132660212Y-90879276D01*
X132596303Y-90852804D01*
X132436104Y-90786447D01*
X132201785Y-90723661D01*
X131961289Y-90692000D01*
X131961288Y-90692000D01*
X131718712Y-90692000D01*
X131718711Y-90692000D01*
X131478214Y-90723661D01*
X131243895Y-90786447D01*
X131019794Y-90879273D01*
X131019785Y-90879277D01*
X130809706Y-91000567D01*
X130617263Y-91148233D01*
X130617256Y-91148239D01*
X130445739Y-91319756D01*
X130445733Y-91319763D01*
X130298067Y-91512206D01*
X130298064Y-91512210D01*
X130298064Y-91512211D01*
X130296406Y-91515083D01*
X130176777Y-91722285D01*
X130176773Y-91722294D01*
X130083947Y-91946395D01*
X130021161Y-92180714D01*
X129989500Y-92421211D01*
X129989500Y-92421212D01*
X129989500Y-92663788D01*
X130021161Y-92904285D01*
X130021692Y-92908314D01*
X130019987Y-92908538D01*
X130014336Y-92971146D01*
X130000000Y-92993003D01*
X130000000Y-93000000D01*
X130000000Y-105000000D01*
X135000000Y-104915254D01*
X135000000Y-94371508D01*
X135019685Y-94304469D01*
X135072489Y-94258714D01*
X135076548Y-94256947D01*
X135200200Y-94205729D01*
X135200200Y-94205728D01*
X135200212Y-94205724D01*
X135410289Y-94084436D01*
X135574514Y-93958422D01*
X135639683Y-93933228D01*
X135708128Y-93947266D01*
X135725486Y-93958422D01*
X135889711Y-94084436D01*
X136099788Y-94205724D01*
X136323900Y-94298554D01*
X136558211Y-94361338D01*
X136738586Y-94385084D01*
X136798711Y-94393000D01*
X136798712Y-94393000D01*
X137041289Y-94393000D01*
X137089388Y-94386667D01*
X137281789Y-94361338D01*
X137516100Y-94298554D01*
X137740212Y-94205724D01*
X137950289Y-94084436D01*
X138114514Y-93958422D01*
X138179683Y-93933228D01*
X138248128Y-93947266D01*
X138265486Y-93958422D01*
X138429711Y-94084436D01*
X138639788Y-94205724D01*
X138863900Y-94298554D01*
X139098211Y-94361338D01*
X139278586Y-94385084D01*
X139338711Y-94393000D01*
X139338712Y-94393000D01*
X139581289Y-94393000D01*
X139629388Y-94386667D01*
X139821789Y-94361338D01*
X140056100Y-94298554D01*
X140280212Y-94205724D01*
X140490289Y-94084436D01*
X140654514Y-93958422D01*
X140719683Y-93933228D01*
X140788128Y-93947266D01*
X140805486Y-93958422D01*
X140969711Y-94084436D01*
X141179788Y-94205724D01*
X141403900Y-94298554D01*
X141638211Y-94361338D01*
X141818586Y-94385084D01*
X141878711Y-94393000D01*
X141878712Y-94393000D01*
X142121289Y-94393000D01*
X142169388Y-94386667D01*
X142361789Y-94361338D01*
X142596100Y-94298554D01*
X142820212Y-94205724D01*
X143030289Y-94084436D01*
X143194514Y-93958422D01*
X143259683Y-93933228D01*
X143328128Y-93947266D01*
X143345486Y-93958422D01*
X143509711Y-94084436D01*
X143719788Y-94205724D01*
X143943900Y-94298554D01*
X144178211Y-94361338D01*
X144358586Y-94385084D01*
X144418711Y-94393000D01*
X144418712Y-94393000D01*
X144661289Y-94393000D01*
X144709388Y-94386667D01*
X144901789Y-94361338D01*
X145136100Y-94298554D01*
X145360212Y-94205724D01*
X145570289Y-94084436D01*
X145734514Y-93958422D01*
X145799683Y-93933228D01*
X145868128Y-93947266D01*
X145885486Y-93958422D01*
X146049711Y-94084436D01*
X146259788Y-94205724D01*
X146483900Y-94298554D01*
X146718211Y-94361338D01*
X146898586Y-94385084D01*
X146958711Y-94393000D01*
X146958712Y-94393000D01*
X147201289Y-94393000D01*
X147249388Y-94386667D01*
X147441789Y-94361338D01*
X147676100Y-94298554D01*
X147900212Y-94205724D01*
X148110289Y-94084436D01*
X148302738Y-93936765D01*
X148474265Y-93765238D01*
X148621936Y-93572789D01*
X148743224Y-93362712D01*
X148836054Y-93138600D01*
X148898838Y-92904289D01*
X148930500Y-92663788D01*
X148930500Y-92421212D01*
X148898838Y-92180711D01*
X148836054Y-91946400D01*
X148743224Y-91722288D01*
X148621936Y-91512211D01*
X148496463Y-91348691D01*
X148474266Y-91319763D01*
X148474260Y-91319756D01*
X148302743Y-91148239D01*
X148302736Y-91148233D01*
X148110293Y-91000567D01*
X148110292Y-91000566D01*
X148110289Y-91000564D01*
X147900212Y-90879276D01*
X147836303Y-90852804D01*
X147676104Y-90786447D01*
X147441785Y-90723661D01*
X147201289Y-90692000D01*
X147201288Y-90692000D01*
X146958712Y-90692000D01*
X146958711Y-90692000D01*
X146718214Y-90723661D01*
X146483895Y-90786447D01*
X146259794Y-90879273D01*
X146259785Y-90879277D01*
X146049706Y-91000567D01*
X145892734Y-91121015D01*
X145827565Y-91146209D01*
X145759120Y-91132170D01*
X145709130Y-91083356D01*
X145693467Y-91015265D01*
X145717104Y-90949514D01*
X145729560Y-90934965D01*
X152585209Y-84079319D01*
X152646532Y-84045834D01*
X152672890Y-84043000D01*
X153493618Y-84043000D01*
X153560657Y-84062685D01*
X153569104Y-84068624D01*
X153589711Y-84084436D01*
X153799784Y-84205722D01*
X153799785Y-84205722D01*
X153799788Y-84205724D01*
X154023900Y-84298554D01*
X154258211Y-84361338D01*
X154438586Y-84385084D01*
X154498711Y-84393000D01*
X154498712Y-84393000D01*
X154741289Y-84393000D01*
X154789388Y-84386667D01*
X154981789Y-84361338D01*
X155216100Y-84298554D01*
X155440212Y-84205724D01*
X155650289Y-84084436D01*
X155814514Y-83958422D01*
X155879683Y-83933228D01*
X155948128Y-83947266D01*
X155965486Y-83958422D01*
X156129711Y-84084436D01*
X156339788Y-84205724D01*
X156563900Y-84298554D01*
X156798211Y-84361338D01*
X156978586Y-84385084D01*
X157038711Y-84393000D01*
X157038712Y-84393000D01*
X157281289Y-84393000D01*
X157329388Y-84386667D01*
X157521789Y-84361338D01*
X157756100Y-84298554D01*
X157980212Y-84205724D01*
X158190289Y-84084436D01*
X158382738Y-83936765D01*
X158554265Y-83765238D01*
X158701936Y-83572789D01*
X158823224Y-83362712D01*
X158916054Y-83138600D01*
X158978838Y-82904289D01*
X159010500Y-82663788D01*
X159010500Y-82421212D01*
X158978838Y-82180711D01*
X158916054Y-81946400D01*
X158823224Y-81722288D01*
X158802562Y-81686500D01*
X158786089Y-81618599D01*
X158808942Y-81552573D01*
X158863863Y-81509382D01*
X158909949Y-81500500D01*
X160265897Y-81500500D01*
X160332936Y-81520185D01*
X160378691Y-81572989D01*
X160388756Y-81631683D01*
X160389442Y-81631714D01*
X160389500Y-81631714D01*
X160389500Y-81631716D01*
X160389622Y-81631722D01*
X160389500Y-81634468D01*
X160389500Y-83450528D01*
X160389501Y-83450534D01*
X160400113Y-83569915D01*
X160456089Y-83765545D01*
X160456090Y-83765548D01*
X160456091Y-83765549D01*
X160550302Y-83945907D01*
X160550304Y-83945909D01*
X160678890Y-84103609D01*
X160772803Y-84180184D01*
X160836593Y-84232198D01*
X161016951Y-84326409D01*
X161212582Y-84382386D01*
X161331963Y-84393000D01*
X163148036Y-84392999D01*
X163267418Y-84382386D01*
X163341389Y-84361220D01*
X163411257Y-84361703D01*
X163469772Y-84399883D01*
X163498357Y-84463638D01*
X163499500Y-84480436D01*
X163499500Y-87873082D01*
X163490867Y-87902481D01*
X163484373Y-87932434D01*
X163480813Y-87936721D01*
X163479815Y-87940121D01*
X163463241Y-87960703D01*
X163458762Y-87965187D01*
X163438891Y-87981391D01*
X163422469Y-88001530D01*
X163418053Y-88005953D01*
X163392658Y-88019841D01*
X163368791Y-88036210D01*
X163359248Y-88038115D01*
X163356753Y-88039480D01*
X163353548Y-88039252D01*
X163344201Y-88041119D01*
X163344220Y-88041237D01*
X163341270Y-88041704D01*
X163340039Y-88041950D01*
X163339401Y-88042000D01*
X163106131Y-88078946D01*
X162881503Y-88151933D01*
X162671065Y-88259157D01*
X162479988Y-88397984D01*
X162479987Y-88397985D01*
X159872292Y-91005681D01*
X159810969Y-91039166D01*
X159784611Y-91042000D01*
X153829417Y-91042000D01*
X153762378Y-91022315D01*
X153733315Y-90996361D01*
X153721109Y-90981391D01*
X153563407Y-90852802D01*
X153383049Y-90758591D01*
X153383048Y-90758590D01*
X153383045Y-90758589D01*
X153265829Y-90725050D01*
X153187418Y-90702614D01*
X153187415Y-90702613D01*
X153187413Y-90702613D01*
X153121102Y-90696717D01*
X153068037Y-90692000D01*
X153068032Y-90692000D01*
X151251971Y-90692000D01*
X151251965Y-90692000D01*
X151251964Y-90692001D01*
X151240316Y-90693036D01*
X151132584Y-90702613D01*
X150936954Y-90758589D01*
X150883625Y-90786446D01*
X150756593Y-90852802D01*
X150756591Y-90852803D01*
X150756590Y-90852804D01*
X150598890Y-90981390D01*
X150470304Y-91139090D01*
X150376089Y-91319454D01*
X150331332Y-91475876D01*
X150320936Y-91512211D01*
X150320114Y-91515083D01*
X150320113Y-91515086D01*
X150309500Y-91634466D01*
X150309500Y-93450528D01*
X150309501Y-93450534D01*
X150320113Y-93569915D01*
X150376089Y-93765545D01*
X150376090Y-93765548D01*
X150376091Y-93765549D01*
X150470302Y-93945907D01*
X150470304Y-93945909D01*
X150598890Y-94103609D01*
X150692803Y-94180184D01*
X150756593Y-94232198D01*
X150936951Y-94326409D01*
X150936953Y-94326409D01*
X150936954Y-94326410D01*
X150956355Y-94331961D01*
X151132582Y-94382386D01*
X151251963Y-94393000D01*
X153068036Y-94392999D01*
X153187418Y-94382386D01*
X153383049Y-94326409D01*
X153563407Y-94232198D01*
X153721109Y-94103609D01*
X153733315Y-94088638D01*
X153790937Y-94049122D01*
X153829417Y-94043000D01*
X160738097Y-94043000D01*
X160971368Y-94006053D01*
X161195992Y-93933068D01*
X161406433Y-93825843D01*
X161597510Y-93687017D01*
X161764517Y-93520010D01*
X161903343Y-93328933D01*
X162008960Y-93121647D01*
X162031760Y-93090265D01*
X163739851Y-91382174D01*
X163801172Y-91348691D01*
X163861639Y-91350640D01*
X163972582Y-91382386D01*
X164091963Y-91393000D01*
X165908036Y-91392999D01*
X166027418Y-91382386D01*
X166223049Y-91326409D01*
X166403407Y-91232198D01*
X166561109Y-91103609D01*
X166689698Y-90945907D01*
X166783909Y-90765549D01*
X166839886Y-90569918D01*
X166850500Y-90450537D01*
X166850499Y-88634464D01*
X166839886Y-88515082D01*
X166783909Y-88319451D01*
X166689698Y-88139093D01*
X166561109Y-87981391D01*
X166546135Y-87969181D01*
X166506620Y-87911558D01*
X166500500Y-87873082D01*
X166500500Y-79881902D01*
X166463553Y-79648631D01*
X166390566Y-79424003D01*
X166283342Y-79213566D01*
X166144517Y-79022490D01*
X165977510Y-78855483D01*
X165786433Y-78716657D01*
X165575996Y-78609433D01*
X165351368Y-78536446D01*
X165118097Y-78499500D01*
X165118092Y-78499500D01*
X157118092Y-78499500D01*
X127881908Y-78499500D01*
X127881903Y-78499500D01*
X127648631Y-78536446D01*
X127424003Y-78609433D01*
X127213563Y-78716659D01*
X127022496Y-78855476D01*
X127022491Y-78855480D01*
X125855485Y-80022487D01*
X125855484Y-80022488D01*
X125716659Y-80213562D01*
X125716658Y-80213564D01*
X125683780Y-80278092D01*
X125609433Y-80424003D01*
X125536446Y-80648631D01*
X125499500Y-80881902D01*
X125499500Y-116118097D01*
X125536446Y-116351368D01*
X125609433Y-116575996D01*
X125716657Y-116786434D01*
X125855483Y-116977510D01*
X126397983Y-117520010D01*
X126564990Y-117687017D01*
X126756067Y-117825843D01*
X126855491Y-117876502D01*
X126966503Y-117933066D01*
X126966505Y-117933066D01*
X126966508Y-117933068D01*
X127191132Y-118006053D01*
X127394898Y-118038326D01*
X127458032Y-118068255D01*
X127494964Y-118127566D01*
X127499500Y-118160799D01*
X127499500Y-119409610D01*
X127479815Y-119476649D01*
X127463181Y-119497291D01*
X118332181Y-128628291D01*
X118270858Y-128661776D01*
X118201166Y-128656792D01*
X118145233Y-128614920D01*
X118120816Y-128549456D01*
X118120500Y-128540610D01*
X118120500Y-125215389D01*
X118140185Y-125148350D01*
X118156819Y-125127708D01*
X119318019Y-123966508D01*
X120764518Y-122520010D01*
X120903343Y-122328933D01*
X121010568Y-122118492D01*
X121083553Y-121893868D01*
X121119444Y-121667262D01*
X121120500Y-121660597D01*
X121120500Y-110424408D01*
X121120117Y-110421988D01*
X121120117Y-110421987D01*
X121083553Y-110191134D01*
X121083553Y-110191131D01*
X121010568Y-109966508D01*
X120903343Y-109756066D01*
X120764517Y-109564990D01*
X119196735Y-107997208D01*
X119163250Y-107935885D01*
X119168234Y-107866193D01*
X119210106Y-107810260D01*
X119252319Y-107789753D01*
X119310694Y-107774112D01*
X119557211Y-107672002D01*
X119788290Y-107538588D01*
X119999978Y-107376154D01*
X120188654Y-107187478D01*
X120351088Y-106975790D01*
X120484502Y-106744711D01*
X120586612Y-106498194D01*
X120655673Y-106240459D01*
X120690500Y-105975914D01*
X120690500Y-105709086D01*
X120655673Y-105444541D01*
X120586612Y-105186806D01*
X120484502Y-104940289D01*
X120484500Y-104940286D01*
X120484498Y-104940281D01*
X120351092Y-104709217D01*
X120351088Y-104709210D01*
X120304323Y-104648265D01*
X120188655Y-104497523D01*
X120188649Y-104497516D01*
X119999983Y-104308850D01*
X119999976Y-104308844D01*
X119788298Y-104146418D01*
X119788296Y-104146416D01*
X119788290Y-104146412D01*
X119788285Y-104146409D01*
X119788282Y-104146407D01*
X119557218Y-104013001D01*
X119557201Y-104012993D01*
X119310701Y-103910890D01*
X119052955Y-103841826D01*
X118788415Y-103807000D01*
X118788414Y-103807000D01*
X116451586Y-103807000D01*
X116451585Y-103807000D01*
X116187044Y-103841826D01*
X115929298Y-103910890D01*
X115682798Y-104012993D01*
X115682781Y-104013001D01*
X115451717Y-104146407D01*
X115451701Y-104146418D01*
X115240023Y-104308844D01*
X115240016Y-104308850D01*
X115051350Y-104497516D01*
X115051344Y-104497523D01*
X114888918Y-104709201D01*
X114888907Y-104709217D01*
X114755501Y-104940281D01*
X114755493Y-104940298D01*
X114653390Y-105186798D01*
X114584326Y-105444544D01*
X114549500Y-105709085D01*
X114549500Y-105975914D01*
X114584326Y-106240455D01*
X114653390Y-106498201D01*
X114755493Y-106744701D01*
X114755501Y-106744718D01*
X114888907Y-106975782D01*
X114888918Y-106975798D01*
X115051344Y-107187476D01*
X115051350Y-107187483D01*
X115240016Y-107376149D01*
X115240022Y-107376154D01*
X115451710Y-107538588D01*
X115451717Y-107538592D01*
X115682781Y-107671998D01*
X115682786Y-107672000D01*
X115682789Y-107672002D01*
X115682793Y-107672003D01*
X115682798Y-107672006D01*
X115929298Y-107774109D01*
X115929300Y-107774109D01*
X115929306Y-107774112D01*
X116027595Y-107800448D01*
X116087254Y-107836813D01*
X116117783Y-107899660D01*
X116119500Y-107920223D01*
X116119500Y-108660597D01*
X116156446Y-108893868D01*
X116229433Y-109118496D01*
X116336657Y-109328934D01*
X116475484Y-109520011D01*
X118083181Y-111127708D01*
X118116666Y-111189031D01*
X118119500Y-111215389D01*
X118119500Y-120869610D01*
X118099815Y-120936649D01*
X118083181Y-120957291D01*
X115475484Y-123564988D01*
X115344818Y-123744833D01*
X115289487Y-123787498D01*
X115219874Y-123793477D01*
X115158079Y-123760871D01*
X115123722Y-123700032D01*
X115120500Y-123671947D01*
X115120500Y-123395000D01*
X115120499Y-123394986D01*
X115118646Y-123380915D01*
X115081993Y-123102507D01*
X115005639Y-122817548D01*
X114892743Y-122544993D01*
X114745238Y-122289506D01*
X114565646Y-122055458D01*
X114565641Y-122055452D01*
X114357047Y-121846858D01*
X114357040Y-121846852D01*
X114122993Y-121667261D01*
X113867510Y-121519758D01*
X113867500Y-121519754D01*
X113594961Y-121406864D01*
X113594954Y-121406862D01*
X113594952Y-121406861D01*
X113309993Y-121330507D01*
X113261113Y-121324071D01*
X113017513Y-121292000D01*
X113017506Y-121292000D01*
X110222494Y-121292000D01*
X110222486Y-121292000D01*
X109944085Y-121328653D01*
X109930007Y-121330507D01*
X109829230Y-121357510D01*
X109645048Y-121406861D01*
X109645038Y-121406864D01*
X109372499Y-121519754D01*
X109372489Y-121519758D01*
X109117006Y-121667261D01*
X108882959Y-121846852D01*
X108882952Y-121846858D01*
X108674358Y-122055452D01*
X108674352Y-122055459D01*
X108494761Y-122289506D01*
X108347258Y-122544989D01*
X108347254Y-122544999D01*
X108234364Y-122817538D01*
X108234361Y-122817548D01*
X108158008Y-123102504D01*
X108158006Y-123102515D01*
X108119500Y-123394986D01*
X108119500Y-123690013D01*
X108132335Y-123787498D01*
X108158007Y-123982493D01*
X108215349Y-124196498D01*
X108234361Y-124267451D01*
X108234364Y-124267461D01*
X108347254Y-124540000D01*
X108347258Y-124540010D01*
X108494761Y-124795493D01*
X108674352Y-125029540D01*
X108674358Y-125029547D01*
X108864960Y-125220149D01*
X108898445Y-125281472D01*
X108893461Y-125351164D01*
X108864960Y-125395511D01*
X106807302Y-127453169D01*
X106751715Y-127485263D01*
X106622246Y-127519954D01*
X106408799Y-127608367D01*
X106408789Y-127608371D01*
X106208706Y-127723889D01*
X106025410Y-127864537D01*
X106025403Y-127864543D01*
X105862043Y-128027903D01*
X105862037Y-128027910D01*
X105721389Y-128211206D01*
X105605871Y-128411289D01*
X105605864Y-128411304D01*
X105517454Y-128624746D01*
X105457658Y-128847912D01*
X105457655Y-128847925D01*
X105427501Y-129076970D01*
X105427500Y-129076986D01*
X103500500Y-129076986D01*
X103500500Y-97226211D01*
X115769500Y-97226211D01*
X115769500Y-97468788D01*
X115801161Y-97709285D01*
X115863947Y-97943604D01*
X115956773Y-98167705D01*
X115956777Y-98167714D01*
X115978974Y-98206161D01*
X116078064Y-98377789D01*
X116078066Y-98377792D01*
X116078067Y-98377793D01*
X116225733Y-98570236D01*
X116225739Y-98570243D01*
X116397256Y-98741760D01*
X116397262Y-98741765D01*
X116589711Y-98889436D01*
X116799788Y-99010724D01*
X117023900Y-99103554D01*
X117258211Y-99166338D01*
X117438586Y-99190084D01*
X117498711Y-99198000D01*
X117498712Y-99198000D01*
X117741289Y-99198000D01*
X117789388Y-99191667D01*
X117981789Y-99166338D01*
X118216100Y-99103554D01*
X118440212Y-99010724D01*
X118650289Y-98889436D01*
X118842738Y-98741765D01*
X119014265Y-98570238D01*
X119161936Y-98377789D01*
X119283224Y-98167712D01*
X119376054Y-97943600D01*
X119438838Y-97709289D01*
X119470500Y-97468788D01*
X119470500Y-97226212D01*
X119438838Y-96985711D01*
X119376054Y-96751400D01*
X119283224Y-96527288D01*
X119161936Y-96317211D01*
X119014265Y-96124762D01*
X119014260Y-96124756D01*
X118842743Y-95953239D01*
X118842736Y-95953233D01*
X118650293Y-95805567D01*
X118650292Y-95805566D01*
X118650289Y-95805564D01*
X118440212Y-95684276D01*
X118440205Y-95684273D01*
X118216104Y-95591447D01*
X117981785Y-95528661D01*
X117741289Y-95497000D01*
X117741288Y-95497000D01*
X117498712Y-95497000D01*
X117498711Y-95497000D01*
X117258214Y-95528661D01*
X117023895Y-95591447D01*
X116799794Y-95684273D01*
X116799785Y-95684277D01*
X116589706Y-95805567D01*
X116397263Y-95953233D01*
X116397256Y-95953239D01*
X116225739Y-96124756D01*
X116225733Y-96124763D01*
X116078067Y-96317206D01*
X115956777Y-96527285D01*
X115956773Y-96527294D01*
X115863947Y-96751395D01*
X115801161Y-96985714D01*
X115769500Y-97226211D01*
X103500500Y-97226211D01*
X103500500Y-41611211D01*
X115769500Y-41611211D01*
X115769500Y-41853788D01*
X115801161Y-42094285D01*
X115863947Y-42328604D01*
X115956773Y-42552705D01*
X115956776Y-42552712D01*
X116078064Y-42762789D01*
X116078066Y-42762792D01*
X116078067Y-42762793D01*
X116225733Y-42955236D01*
X116225739Y-42955243D01*
X116397256Y-43126760D01*
X116397262Y-43126765D01*
X116589711Y-43274436D01*
X116799788Y-43395724D01*
X117023900Y-43488554D01*
X117258211Y-43551338D01*
X117438586Y-43575084D01*
X117498711Y-43583000D01*
X117498712Y-43583000D01*
X117741289Y-43583000D01*
X117789388Y-43576667D01*
X117981789Y-43551338D01*
X118216100Y-43488554D01*
X118440212Y-43395724D01*
X118650289Y-43274436D01*
X118842738Y-43126765D01*
X119014265Y-42955238D01*
X119161936Y-42762789D01*
X119283224Y-42552712D01*
X119376054Y-42328600D01*
X119438838Y-42094289D01*
X119470500Y-41853788D01*
X119470500Y-41611212D01*
X119438838Y-41370711D01*
X119376054Y-41136400D01*
X119283224Y-40912288D01*
X119161936Y-40702211D01*
X119014265Y-40509762D01*
X119014260Y-40509756D01*
X118842743Y-40338239D01*
X118842736Y-40338233D01*
X118650293Y-40190567D01*
X118650292Y-40190566D01*
X118650289Y-40190564D01*
X118440212Y-40069276D01*
X118440205Y-40069273D01*
X118216104Y-39976447D01*
X117981785Y-39913661D01*
X117741289Y-39882000D01*
X117741288Y-39882000D01*
X117498712Y-39882000D01*
X117498711Y-39882000D01*
X117258214Y-39913661D01*
X117023895Y-39976447D01*
X116799794Y-40069273D01*
X116799785Y-40069277D01*
X116589706Y-40190567D01*
X116397263Y-40338233D01*
X116397256Y-40338239D01*
X116225739Y-40509756D01*
X116225733Y-40509763D01*
X116078067Y-40702206D01*
X115956777Y-40912285D01*
X115956773Y-40912294D01*
X115863947Y-41136395D01*
X115801161Y-41370714D01*
X115769500Y-41611211D01*
X103500500Y-41611211D01*
X103500500Y-32878711D01*
X182149500Y-32878711D01*
X182149500Y-33121288D01*
X182181161Y-33361785D01*
X182243947Y-33596104D01*
X182336773Y-33820205D01*
X182336776Y-33820212D01*
X182458064Y-34030289D01*
X182458066Y-34030292D01*
X182458067Y-34030293D01*
X182605733Y-34222736D01*
X182605739Y-34222743D01*
X182777256Y-34394260D01*
X182777262Y-34394265D01*
X182969711Y-34541936D01*
X183179788Y-34663224D01*
X183403900Y-34756054D01*
X183638211Y-34818838D01*
X183818586Y-34842584D01*
X183878711Y-34850500D01*
X183878712Y-34850500D01*
X184121289Y-34850500D01*
X184169388Y-34844167D01*
X184361789Y-34818838D01*
X184596100Y-34756054D01*
X184820212Y-34663224D01*
X185030289Y-34541936D01*
X185222738Y-34394265D01*
X185394265Y-34222738D01*
X185541936Y-34030289D01*
X185663224Y-33820212D01*
X185756054Y-33596100D01*
X185818838Y-33361789D01*
X185850500Y-33121288D01*
X185850500Y-32878712D01*
X185818838Y-32638211D01*
X185756054Y-32403900D01*
X185663224Y-32179788D01*
X185541936Y-31969711D01*
X185394265Y-31777262D01*
X185394260Y-31777256D01*
X185222743Y-31605739D01*
X185222736Y-31605733D01*
X185030293Y-31458067D01*
X185030292Y-31458066D01*
X185030289Y-31458064D01*
X184820212Y-31336776D01*
X184820205Y-31336773D01*
X184596104Y-31243947D01*
X184361785Y-31181161D01*
X184121289Y-31149500D01*
X184121288Y-31149500D01*
X183878712Y-31149500D01*
X183878711Y-31149500D01*
X183638214Y-31181161D01*
X183403895Y-31243947D01*
X183179794Y-31336773D01*
X183179785Y-31336777D01*
X182969706Y-31458067D01*
X182777263Y-31605733D01*
X182777256Y-31605739D01*
X182605739Y-31777256D01*
X182605733Y-31777263D01*
X182458067Y-31969706D01*
X182336777Y-32179785D01*
X182336773Y-32179794D01*
X182243947Y-32403895D01*
X182181161Y-32638214D01*
X182149500Y-32878711D01*
X103500500Y-32878711D01*
X103500500Y-27624500D01*
X103520185Y-27557461D01*
X103572989Y-27511706D01*
X103624500Y-27500500D01*
X188375500Y-27500500D01*
X188442539Y-27520185D01*
G37*
%TD.AperFunction*%
%TD*%
%TA.AperFunction,NonConductor*%
G36*
X160229150Y-107457685D02*
G01*
X160249792Y-107474319D01*
X160762513Y-107987040D01*
X160795998Y-108048363D01*
X160797771Y-108058534D01*
X160801161Y-108084285D01*
X160801162Y-108084288D01*
X160863947Y-108318604D01*
X160956773Y-108542705D01*
X160956777Y-108542714D01*
X160975995Y-108576000D01*
X160992468Y-108643900D01*
X160969616Y-108709927D01*
X160914695Y-108753117D01*
X160868608Y-108762000D01*
X153967470Y-108762000D01*
X153900431Y-108742315D01*
X153854676Y-108689511D01*
X153844732Y-108620353D01*
X153860083Y-108576000D01*
X153983222Y-108362715D01*
X153983224Y-108362712D01*
X154076054Y-108138600D01*
X154138838Y-107904289D01*
X154170500Y-107663788D01*
X154170500Y-107562000D01*
X154190185Y-107494961D01*
X154242989Y-107449206D01*
X154294500Y-107438000D01*
X160162111Y-107438000D01*
X160229150Y-107457685D01*
G37*
%TD.AperFunction*%
%TA.AperFunction,NonConductor*%
G36*
X133705703Y-110828176D02*
G01*
X133712181Y-110834208D01*
X136184990Y-113307017D01*
X136312374Y-113399567D01*
X136376067Y-113445844D01*
X136421360Y-113468921D01*
X136466655Y-113492000D01*
X136586503Y-113553066D01*
X136586505Y-113553066D01*
X136586508Y-113553068D01*
X136706912Y-113592189D01*
X136811131Y-113626053D01*
X137044403Y-113663000D01*
X137044408Y-113663000D01*
X137535500Y-113663000D01*
X137602539Y-113682685D01*
X137648294Y-113735489D01*
X137659500Y-113787000D01*
X137659500Y-114791107D01*
X137639815Y-114858146D01*
X137587011Y-114903901D01*
X137517853Y-114913845D01*
X137473502Y-114898495D01*
X137440217Y-114879279D01*
X137440218Y-114879279D01*
X137440212Y-114879276D01*
X137440205Y-114879273D01*
X137216104Y-114786447D01*
X137166582Y-114773177D01*
X136981789Y-114723662D01*
X136981786Y-114723661D01*
X136981784Y-114723661D01*
X136956034Y-114720271D01*
X136892138Y-114692003D01*
X136884541Y-114685013D01*
X133536819Y-111337291D01*
X133503334Y-111275968D01*
X133500500Y-111249610D01*
X133500500Y-110921889D01*
X133520185Y-110854850D01*
X133572989Y-110809095D01*
X133642147Y-110799151D01*
X133705703Y-110828176D01*
G37*
%TD.AperFunction*%
%TA.AperFunction,NonConductor*%
G36*
X172086855Y-134834453D02*
G01*
X172117684Y-134897153D01*
X172119500Y-134918300D01*
X172119500Y-136869610D01*
X172099815Y-136936649D01*
X172083181Y-136957291D01*
X171155276Y-137885195D01*
X171099690Y-137917288D01*
X171070934Y-137924993D01*
X170864512Y-138010495D01*
X170864497Y-138010502D01*
X170670998Y-138122218D01*
X170493733Y-138258240D01*
X170335740Y-138416233D01*
X170199718Y-138593498D01*
X170088002Y-138786997D01*
X170087995Y-138787012D01*
X170002493Y-138993433D01*
X169994788Y-139022190D01*
X169962695Y-139077775D01*
X165577292Y-143463181D01*
X165515969Y-143496666D01*
X165489611Y-143499500D01*
X163731113Y-143499500D01*
X163664074Y-143479815D01*
X163618319Y-143427011D01*
X163608375Y-143357853D01*
X163637400Y-143294297D01*
X163674818Y-143265015D01*
X163677507Y-143263644D01*
X163755051Y-143224134D01*
X163965229Y-143071431D01*
X164148931Y-142887729D01*
X164301634Y-142677551D01*
X164419579Y-142446072D01*
X164499860Y-142198993D01*
X164530662Y-142004509D01*
X164560589Y-141941379D01*
X164565435Y-141936248D01*
X171622366Y-134879319D01*
X171683689Y-134845834D01*
X171710047Y-134843000D01*
X171722351Y-134843000D01*
X171722352Y-134843000D01*
X171924534Y-134810977D01*
X171924539Y-134810975D01*
X171924541Y-134810975D01*
X171957180Y-134800370D01*
X172027021Y-134798373D01*
X172086855Y-134834453D01*
G37*
%TD.AperFunction*%
M02*
