%TF.GenerationSoftware,KiCad,Pcbnew,9.0.0*%
%TF.CreationDate,2025-02-27T14:05:11-05:00*%
%TF.ProjectId,Detector_de_Incendios,44657465-6374-46f7-925f-64655f496e63,rev?*%
%TF.SameCoordinates,Original*%
%TF.FileFunction,Legend,Top*%
%TF.FilePolarity,Positive*%
%FSLAX46Y46*%
G04 Gerber Fmt 4.6, Leading zero omitted, Abs format (unit mm)*
G04 Created by KiCad (PCBNEW 9.0.0) date 2025-02-27 14:05:11*
%MOMM*%
%LPD*%
G01*
G04 APERTURE LIST*
%ADD10C,0.100000*%
%ADD11C,0.150000*%
%ADD12C,0.300000*%
%ADD13C,0.400000*%
%ADD14C,0.120000*%
%ADD15C,0.127000*%
G04 APERTURE END LIST*
D10*
D11*
X177002200Y-166007200D02*
X285002200Y-166007200D01*
X285002200Y-198007200D01*
X177002200Y-198007200D01*
X177002200Y-166007200D01*
D10*
D11*
X10000000Y-10000000D02*
X287002200Y-10000000D01*
X287002200Y-200007200D01*
X10000000Y-200007200D01*
X10000000Y-10000000D01*
D10*
D11*
X12000000Y-12000000D02*
X285002200Y-12000000D01*
X285002200Y-198007200D01*
X12000000Y-198007200D01*
X12000000Y-12000000D01*
D10*
D11*
X60000000Y-12000000D02*
X60000000Y-10000000D01*
D10*
D11*
X110000000Y-12000000D02*
X110000000Y-10000000D01*
D10*
D11*
X160000000Y-12000000D02*
X160000000Y-10000000D01*
D10*
D11*
X210000000Y-12000000D02*
X210000000Y-10000000D01*
D10*
D11*
X260000000Y-12000000D02*
X260000000Y-10000000D01*
D10*
D11*
X36089160Y-11593604D02*
X35346303Y-11593604D01*
X35717731Y-11593604D02*
X35717731Y-10293604D01*
X35717731Y-10293604D02*
X35593922Y-10479319D01*
X35593922Y-10479319D02*
X35470112Y-10603128D01*
X35470112Y-10603128D02*
X35346303Y-10665033D01*
D10*
D11*
X85346303Y-10417414D02*
X85408207Y-10355509D01*
X85408207Y-10355509D02*
X85532017Y-10293604D01*
X85532017Y-10293604D02*
X85841541Y-10293604D01*
X85841541Y-10293604D02*
X85965350Y-10355509D01*
X85965350Y-10355509D02*
X86027255Y-10417414D01*
X86027255Y-10417414D02*
X86089160Y-10541223D01*
X86089160Y-10541223D02*
X86089160Y-10665033D01*
X86089160Y-10665033D02*
X86027255Y-10850747D01*
X86027255Y-10850747D02*
X85284398Y-11593604D01*
X85284398Y-11593604D02*
X86089160Y-11593604D01*
D10*
D11*
X135284398Y-10293604D02*
X136089160Y-10293604D01*
X136089160Y-10293604D02*
X135655826Y-10788842D01*
X135655826Y-10788842D02*
X135841541Y-10788842D01*
X135841541Y-10788842D02*
X135965350Y-10850747D01*
X135965350Y-10850747D02*
X136027255Y-10912652D01*
X136027255Y-10912652D02*
X136089160Y-11036461D01*
X136089160Y-11036461D02*
X136089160Y-11345985D01*
X136089160Y-11345985D02*
X136027255Y-11469795D01*
X136027255Y-11469795D02*
X135965350Y-11531700D01*
X135965350Y-11531700D02*
X135841541Y-11593604D01*
X135841541Y-11593604D02*
X135470112Y-11593604D01*
X135470112Y-11593604D02*
X135346303Y-11531700D01*
X135346303Y-11531700D02*
X135284398Y-11469795D01*
D10*
D11*
X185965350Y-10726938D02*
X185965350Y-11593604D01*
X185655826Y-10231700D02*
X185346303Y-11160271D01*
X185346303Y-11160271D02*
X186151064Y-11160271D01*
D10*
D11*
X236027255Y-10293604D02*
X235408207Y-10293604D01*
X235408207Y-10293604D02*
X235346303Y-10912652D01*
X235346303Y-10912652D02*
X235408207Y-10850747D01*
X235408207Y-10850747D02*
X235532017Y-10788842D01*
X235532017Y-10788842D02*
X235841541Y-10788842D01*
X235841541Y-10788842D02*
X235965350Y-10850747D01*
X235965350Y-10850747D02*
X236027255Y-10912652D01*
X236027255Y-10912652D02*
X236089160Y-11036461D01*
X236089160Y-11036461D02*
X236089160Y-11345985D01*
X236089160Y-11345985D02*
X236027255Y-11469795D01*
X236027255Y-11469795D02*
X235965350Y-11531700D01*
X235965350Y-11531700D02*
X235841541Y-11593604D01*
X235841541Y-11593604D02*
X235532017Y-11593604D01*
X235532017Y-11593604D02*
X235408207Y-11531700D01*
X235408207Y-11531700D02*
X235346303Y-11469795D01*
D10*
D11*
X285965350Y-10293604D02*
X285717731Y-10293604D01*
X285717731Y-10293604D02*
X285593922Y-10355509D01*
X285593922Y-10355509D02*
X285532017Y-10417414D01*
X285532017Y-10417414D02*
X285408207Y-10603128D01*
X285408207Y-10603128D02*
X285346303Y-10850747D01*
X285346303Y-10850747D02*
X285346303Y-11345985D01*
X285346303Y-11345985D02*
X285408207Y-11469795D01*
X285408207Y-11469795D02*
X285470112Y-11531700D01*
X285470112Y-11531700D02*
X285593922Y-11593604D01*
X285593922Y-11593604D02*
X285841541Y-11593604D01*
X285841541Y-11593604D02*
X285965350Y-11531700D01*
X285965350Y-11531700D02*
X286027255Y-11469795D01*
X286027255Y-11469795D02*
X286089160Y-11345985D01*
X286089160Y-11345985D02*
X286089160Y-11036461D01*
X286089160Y-11036461D02*
X286027255Y-10912652D01*
X286027255Y-10912652D02*
X285965350Y-10850747D01*
X285965350Y-10850747D02*
X285841541Y-10788842D01*
X285841541Y-10788842D02*
X285593922Y-10788842D01*
X285593922Y-10788842D02*
X285470112Y-10850747D01*
X285470112Y-10850747D02*
X285408207Y-10912652D01*
X285408207Y-10912652D02*
X285346303Y-11036461D01*
D10*
D11*
X60000000Y-198007200D02*
X60000000Y-200007200D01*
D10*
D11*
X110000000Y-198007200D02*
X110000000Y-200007200D01*
D10*
D11*
X160000000Y-198007200D02*
X160000000Y-200007200D01*
D10*
D11*
X210000000Y-198007200D02*
X210000000Y-200007200D01*
D10*
D11*
X260000000Y-198007200D02*
X260000000Y-200007200D01*
D10*
D11*
X36089160Y-199600804D02*
X35346303Y-199600804D01*
X35717731Y-199600804D02*
X35717731Y-198300804D01*
X35717731Y-198300804D02*
X35593922Y-198486519D01*
X35593922Y-198486519D02*
X35470112Y-198610328D01*
X35470112Y-198610328D02*
X35346303Y-198672233D01*
D10*
D11*
X85346303Y-198424614D02*
X85408207Y-198362709D01*
X85408207Y-198362709D02*
X85532017Y-198300804D01*
X85532017Y-198300804D02*
X85841541Y-198300804D01*
X85841541Y-198300804D02*
X85965350Y-198362709D01*
X85965350Y-198362709D02*
X86027255Y-198424614D01*
X86027255Y-198424614D02*
X86089160Y-198548423D01*
X86089160Y-198548423D02*
X86089160Y-198672233D01*
X86089160Y-198672233D02*
X86027255Y-198857947D01*
X86027255Y-198857947D02*
X85284398Y-199600804D01*
X85284398Y-199600804D02*
X86089160Y-199600804D01*
D10*
D11*
X135284398Y-198300804D02*
X136089160Y-198300804D01*
X136089160Y-198300804D02*
X135655826Y-198796042D01*
X135655826Y-198796042D02*
X135841541Y-198796042D01*
X135841541Y-198796042D02*
X135965350Y-198857947D01*
X135965350Y-198857947D02*
X136027255Y-198919852D01*
X136027255Y-198919852D02*
X136089160Y-199043661D01*
X136089160Y-199043661D02*
X136089160Y-199353185D01*
X136089160Y-199353185D02*
X136027255Y-199476995D01*
X136027255Y-199476995D02*
X135965350Y-199538900D01*
X135965350Y-199538900D02*
X135841541Y-199600804D01*
X135841541Y-199600804D02*
X135470112Y-199600804D01*
X135470112Y-199600804D02*
X135346303Y-199538900D01*
X135346303Y-199538900D02*
X135284398Y-199476995D01*
D10*
D11*
X185965350Y-198734138D02*
X185965350Y-199600804D01*
X185655826Y-198238900D02*
X185346303Y-199167471D01*
X185346303Y-199167471D02*
X186151064Y-199167471D01*
D10*
D11*
X236027255Y-198300804D02*
X235408207Y-198300804D01*
X235408207Y-198300804D02*
X235346303Y-198919852D01*
X235346303Y-198919852D02*
X235408207Y-198857947D01*
X235408207Y-198857947D02*
X235532017Y-198796042D01*
X235532017Y-198796042D02*
X235841541Y-198796042D01*
X235841541Y-198796042D02*
X235965350Y-198857947D01*
X235965350Y-198857947D02*
X236027255Y-198919852D01*
X236027255Y-198919852D02*
X236089160Y-199043661D01*
X236089160Y-199043661D02*
X236089160Y-199353185D01*
X236089160Y-199353185D02*
X236027255Y-199476995D01*
X236027255Y-199476995D02*
X235965350Y-199538900D01*
X235965350Y-199538900D02*
X235841541Y-199600804D01*
X235841541Y-199600804D02*
X235532017Y-199600804D01*
X235532017Y-199600804D02*
X235408207Y-199538900D01*
X235408207Y-199538900D02*
X235346303Y-199476995D01*
D10*
D11*
X285965350Y-198300804D02*
X285717731Y-198300804D01*
X285717731Y-198300804D02*
X285593922Y-198362709D01*
X285593922Y-198362709D02*
X285532017Y-198424614D01*
X285532017Y-198424614D02*
X285408207Y-198610328D01*
X285408207Y-198610328D02*
X285346303Y-198857947D01*
X285346303Y-198857947D02*
X285346303Y-199353185D01*
X285346303Y-199353185D02*
X285408207Y-199476995D01*
X285408207Y-199476995D02*
X285470112Y-199538900D01*
X285470112Y-199538900D02*
X285593922Y-199600804D01*
X285593922Y-199600804D02*
X285841541Y-199600804D01*
X285841541Y-199600804D02*
X285965350Y-199538900D01*
X285965350Y-199538900D02*
X286027255Y-199476995D01*
X286027255Y-199476995D02*
X286089160Y-199353185D01*
X286089160Y-199353185D02*
X286089160Y-199043661D01*
X286089160Y-199043661D02*
X286027255Y-198919852D01*
X286027255Y-198919852D02*
X285965350Y-198857947D01*
X285965350Y-198857947D02*
X285841541Y-198796042D01*
X285841541Y-198796042D02*
X285593922Y-198796042D01*
X285593922Y-198796042D02*
X285470112Y-198857947D01*
X285470112Y-198857947D02*
X285408207Y-198919852D01*
X285408207Y-198919852D02*
X285346303Y-199043661D01*
D10*
D11*
X10000000Y-60000000D02*
X12000000Y-60000000D01*
D10*
D11*
X10000000Y-110000000D02*
X12000000Y-110000000D01*
D10*
D11*
X10000000Y-160000000D02*
X12000000Y-160000000D01*
D10*
D11*
X10690476Y-35222176D02*
X11309523Y-35222176D01*
X10566666Y-35593604D02*
X10999999Y-34293604D01*
X10999999Y-34293604D02*
X11433333Y-35593604D01*
D10*
D11*
X11092857Y-84912652D02*
X11278571Y-84974557D01*
X11278571Y-84974557D02*
X11340476Y-85036461D01*
X11340476Y-85036461D02*
X11402380Y-85160271D01*
X11402380Y-85160271D02*
X11402380Y-85345985D01*
X11402380Y-85345985D02*
X11340476Y-85469795D01*
X11340476Y-85469795D02*
X11278571Y-85531700D01*
X11278571Y-85531700D02*
X11154761Y-85593604D01*
X11154761Y-85593604D02*
X10659523Y-85593604D01*
X10659523Y-85593604D02*
X10659523Y-84293604D01*
X10659523Y-84293604D02*
X11092857Y-84293604D01*
X11092857Y-84293604D02*
X11216666Y-84355509D01*
X11216666Y-84355509D02*
X11278571Y-84417414D01*
X11278571Y-84417414D02*
X11340476Y-84541223D01*
X11340476Y-84541223D02*
X11340476Y-84665033D01*
X11340476Y-84665033D02*
X11278571Y-84788842D01*
X11278571Y-84788842D02*
X11216666Y-84850747D01*
X11216666Y-84850747D02*
X11092857Y-84912652D01*
X11092857Y-84912652D02*
X10659523Y-84912652D01*
D10*
D11*
X11402380Y-135469795D02*
X11340476Y-135531700D01*
X11340476Y-135531700D02*
X11154761Y-135593604D01*
X11154761Y-135593604D02*
X11030952Y-135593604D01*
X11030952Y-135593604D02*
X10845238Y-135531700D01*
X10845238Y-135531700D02*
X10721428Y-135407890D01*
X10721428Y-135407890D02*
X10659523Y-135284080D01*
X10659523Y-135284080D02*
X10597619Y-135036461D01*
X10597619Y-135036461D02*
X10597619Y-134850747D01*
X10597619Y-134850747D02*
X10659523Y-134603128D01*
X10659523Y-134603128D02*
X10721428Y-134479319D01*
X10721428Y-134479319D02*
X10845238Y-134355509D01*
X10845238Y-134355509D02*
X11030952Y-134293604D01*
X11030952Y-134293604D02*
X11154761Y-134293604D01*
X11154761Y-134293604D02*
X11340476Y-134355509D01*
X11340476Y-134355509D02*
X11402380Y-134417414D01*
D10*
D11*
X10659523Y-185593604D02*
X10659523Y-184293604D01*
X10659523Y-184293604D02*
X10969047Y-184293604D01*
X10969047Y-184293604D02*
X11154761Y-184355509D01*
X11154761Y-184355509D02*
X11278571Y-184479319D01*
X11278571Y-184479319D02*
X11340476Y-184603128D01*
X11340476Y-184603128D02*
X11402380Y-184850747D01*
X11402380Y-184850747D02*
X11402380Y-185036461D01*
X11402380Y-185036461D02*
X11340476Y-185284080D01*
X11340476Y-185284080D02*
X11278571Y-185407890D01*
X11278571Y-185407890D02*
X11154761Y-185531700D01*
X11154761Y-185531700D02*
X10969047Y-185593604D01*
X10969047Y-185593604D02*
X10659523Y-185593604D01*
D10*
D11*
X287002200Y-60000000D02*
X285002200Y-60000000D01*
D10*
D11*
X287002200Y-110000000D02*
X285002200Y-110000000D01*
D10*
D11*
X287002200Y-160000000D02*
X285002200Y-160000000D01*
D10*
D11*
X285692676Y-35222176D02*
X286311723Y-35222176D01*
X285568866Y-35593604D02*
X286002199Y-34293604D01*
X286002199Y-34293604D02*
X286435533Y-35593604D01*
D10*
D11*
X286095057Y-84912652D02*
X286280771Y-84974557D01*
X286280771Y-84974557D02*
X286342676Y-85036461D01*
X286342676Y-85036461D02*
X286404580Y-85160271D01*
X286404580Y-85160271D02*
X286404580Y-85345985D01*
X286404580Y-85345985D02*
X286342676Y-85469795D01*
X286342676Y-85469795D02*
X286280771Y-85531700D01*
X286280771Y-85531700D02*
X286156961Y-85593604D01*
X286156961Y-85593604D02*
X285661723Y-85593604D01*
X285661723Y-85593604D02*
X285661723Y-84293604D01*
X285661723Y-84293604D02*
X286095057Y-84293604D01*
X286095057Y-84293604D02*
X286218866Y-84355509D01*
X286218866Y-84355509D02*
X286280771Y-84417414D01*
X286280771Y-84417414D02*
X286342676Y-84541223D01*
X286342676Y-84541223D02*
X286342676Y-84665033D01*
X286342676Y-84665033D02*
X286280771Y-84788842D01*
X286280771Y-84788842D02*
X286218866Y-84850747D01*
X286218866Y-84850747D02*
X286095057Y-84912652D01*
X286095057Y-84912652D02*
X285661723Y-84912652D01*
D10*
D11*
X286404580Y-135469795D02*
X286342676Y-135531700D01*
X286342676Y-135531700D02*
X286156961Y-135593604D01*
X286156961Y-135593604D02*
X286033152Y-135593604D01*
X286033152Y-135593604D02*
X285847438Y-135531700D01*
X285847438Y-135531700D02*
X285723628Y-135407890D01*
X285723628Y-135407890D02*
X285661723Y-135284080D01*
X285661723Y-135284080D02*
X285599819Y-135036461D01*
X285599819Y-135036461D02*
X285599819Y-134850747D01*
X285599819Y-134850747D02*
X285661723Y-134603128D01*
X285661723Y-134603128D02*
X285723628Y-134479319D01*
X285723628Y-134479319D02*
X285847438Y-134355509D01*
X285847438Y-134355509D02*
X286033152Y-134293604D01*
X286033152Y-134293604D02*
X286156961Y-134293604D01*
X286156961Y-134293604D02*
X286342676Y-134355509D01*
X286342676Y-134355509D02*
X286404580Y-134417414D01*
D10*
D11*
X285661723Y-185593604D02*
X285661723Y-184293604D01*
X285661723Y-184293604D02*
X285971247Y-184293604D01*
X285971247Y-184293604D02*
X286156961Y-184355509D01*
X286156961Y-184355509D02*
X286280771Y-184479319D01*
X286280771Y-184479319D02*
X286342676Y-184603128D01*
X286342676Y-184603128D02*
X286404580Y-184850747D01*
X286404580Y-184850747D02*
X286404580Y-185036461D01*
X286404580Y-185036461D02*
X286342676Y-185284080D01*
X286342676Y-185284080D02*
X286280771Y-185407890D01*
X286280771Y-185407890D02*
X286156961Y-185531700D01*
X286156961Y-185531700D02*
X285971247Y-185593604D01*
X285971247Y-185593604D02*
X285661723Y-185593604D01*
D10*
D11*
X200458026Y-193793328D02*
X200458026Y-192293328D01*
X200458026Y-192293328D02*
X200815169Y-192293328D01*
X200815169Y-192293328D02*
X201029455Y-192364757D01*
X201029455Y-192364757D02*
X201172312Y-192507614D01*
X201172312Y-192507614D02*
X201243741Y-192650471D01*
X201243741Y-192650471D02*
X201315169Y-192936185D01*
X201315169Y-192936185D02*
X201315169Y-193150471D01*
X201315169Y-193150471D02*
X201243741Y-193436185D01*
X201243741Y-193436185D02*
X201172312Y-193579042D01*
X201172312Y-193579042D02*
X201029455Y-193721900D01*
X201029455Y-193721900D02*
X200815169Y-193793328D01*
X200815169Y-193793328D02*
X200458026Y-193793328D01*
X202600884Y-193793328D02*
X202600884Y-193007614D01*
X202600884Y-193007614D02*
X202529455Y-192864757D01*
X202529455Y-192864757D02*
X202386598Y-192793328D01*
X202386598Y-192793328D02*
X202100884Y-192793328D01*
X202100884Y-192793328D02*
X201958026Y-192864757D01*
X202600884Y-193721900D02*
X202458026Y-193793328D01*
X202458026Y-193793328D02*
X202100884Y-193793328D01*
X202100884Y-193793328D02*
X201958026Y-193721900D01*
X201958026Y-193721900D02*
X201886598Y-193579042D01*
X201886598Y-193579042D02*
X201886598Y-193436185D01*
X201886598Y-193436185D02*
X201958026Y-193293328D01*
X201958026Y-193293328D02*
X202100884Y-193221900D01*
X202100884Y-193221900D02*
X202458026Y-193221900D01*
X202458026Y-193221900D02*
X202600884Y-193150471D01*
X203100884Y-192793328D02*
X203672312Y-192793328D01*
X203315169Y-192293328D02*
X203315169Y-193579042D01*
X203315169Y-193579042D02*
X203386598Y-193721900D01*
X203386598Y-193721900D02*
X203529455Y-193793328D01*
X203529455Y-193793328D02*
X203672312Y-193793328D01*
X204743741Y-193721900D02*
X204600884Y-193793328D01*
X204600884Y-193793328D02*
X204315170Y-193793328D01*
X204315170Y-193793328D02*
X204172312Y-193721900D01*
X204172312Y-193721900D02*
X204100884Y-193579042D01*
X204100884Y-193579042D02*
X204100884Y-193007614D01*
X204100884Y-193007614D02*
X204172312Y-192864757D01*
X204172312Y-192864757D02*
X204315170Y-192793328D01*
X204315170Y-192793328D02*
X204600884Y-192793328D01*
X204600884Y-192793328D02*
X204743741Y-192864757D01*
X204743741Y-192864757D02*
X204815170Y-193007614D01*
X204815170Y-193007614D02*
X204815170Y-193150471D01*
X204815170Y-193150471D02*
X204100884Y-193293328D01*
X205458026Y-193650471D02*
X205529455Y-193721900D01*
X205529455Y-193721900D02*
X205458026Y-193793328D01*
X205458026Y-193793328D02*
X205386598Y-193721900D01*
X205386598Y-193721900D02*
X205458026Y-193650471D01*
X205458026Y-193650471D02*
X205458026Y-193793328D01*
X205458026Y-192864757D02*
X205529455Y-192936185D01*
X205529455Y-192936185D02*
X205458026Y-193007614D01*
X205458026Y-193007614D02*
X205386598Y-192936185D01*
X205386598Y-192936185D02*
X205458026Y-192864757D01*
X205458026Y-192864757D02*
X205458026Y-193007614D01*
D10*
D11*
X177002200Y-194507200D02*
X285002200Y-194507200D01*
D10*
D11*
X178458026Y-196593328D02*
X178458026Y-195093328D01*
X179315169Y-196593328D02*
X178672312Y-195736185D01*
X179315169Y-195093328D02*
X178458026Y-195950471D01*
X179958026Y-196593328D02*
X179958026Y-195593328D01*
X179958026Y-195093328D02*
X179886598Y-195164757D01*
X179886598Y-195164757D02*
X179958026Y-195236185D01*
X179958026Y-195236185D02*
X180029455Y-195164757D01*
X180029455Y-195164757D02*
X179958026Y-195093328D01*
X179958026Y-195093328D02*
X179958026Y-195236185D01*
X181529455Y-196450471D02*
X181458027Y-196521900D01*
X181458027Y-196521900D02*
X181243741Y-196593328D01*
X181243741Y-196593328D02*
X181100884Y-196593328D01*
X181100884Y-196593328D02*
X180886598Y-196521900D01*
X180886598Y-196521900D02*
X180743741Y-196379042D01*
X180743741Y-196379042D02*
X180672312Y-196236185D01*
X180672312Y-196236185D02*
X180600884Y-195950471D01*
X180600884Y-195950471D02*
X180600884Y-195736185D01*
X180600884Y-195736185D02*
X180672312Y-195450471D01*
X180672312Y-195450471D02*
X180743741Y-195307614D01*
X180743741Y-195307614D02*
X180886598Y-195164757D01*
X180886598Y-195164757D02*
X181100884Y-195093328D01*
X181100884Y-195093328D02*
X181243741Y-195093328D01*
X181243741Y-195093328D02*
X181458027Y-195164757D01*
X181458027Y-195164757D02*
X181529455Y-195236185D01*
X182815170Y-196593328D02*
X182815170Y-195807614D01*
X182815170Y-195807614D02*
X182743741Y-195664757D01*
X182743741Y-195664757D02*
X182600884Y-195593328D01*
X182600884Y-195593328D02*
X182315170Y-195593328D01*
X182315170Y-195593328D02*
X182172312Y-195664757D01*
X182815170Y-196521900D02*
X182672312Y-196593328D01*
X182672312Y-196593328D02*
X182315170Y-196593328D01*
X182315170Y-196593328D02*
X182172312Y-196521900D01*
X182172312Y-196521900D02*
X182100884Y-196379042D01*
X182100884Y-196379042D02*
X182100884Y-196236185D01*
X182100884Y-196236185D02*
X182172312Y-196093328D01*
X182172312Y-196093328D02*
X182315170Y-196021900D01*
X182315170Y-196021900D02*
X182672312Y-196021900D01*
X182672312Y-196021900D02*
X182815170Y-195950471D01*
X184172313Y-196593328D02*
X184172313Y-195093328D01*
X184172313Y-196521900D02*
X184029455Y-196593328D01*
X184029455Y-196593328D02*
X183743741Y-196593328D01*
X183743741Y-196593328D02*
X183600884Y-196521900D01*
X183600884Y-196521900D02*
X183529455Y-196450471D01*
X183529455Y-196450471D02*
X183458027Y-196307614D01*
X183458027Y-196307614D02*
X183458027Y-195879042D01*
X183458027Y-195879042D02*
X183529455Y-195736185D01*
X183529455Y-195736185D02*
X183600884Y-195664757D01*
X183600884Y-195664757D02*
X183743741Y-195593328D01*
X183743741Y-195593328D02*
X184029455Y-195593328D01*
X184029455Y-195593328D02*
X184172313Y-195664757D01*
X186029455Y-195807614D02*
X186529455Y-195807614D01*
X186743741Y-196593328D02*
X186029455Y-196593328D01*
X186029455Y-196593328D02*
X186029455Y-195093328D01*
X186029455Y-195093328D02*
X186743741Y-195093328D01*
X187386598Y-196450471D02*
X187458027Y-196521900D01*
X187458027Y-196521900D02*
X187386598Y-196593328D01*
X187386598Y-196593328D02*
X187315170Y-196521900D01*
X187315170Y-196521900D02*
X187386598Y-196450471D01*
X187386598Y-196450471D02*
X187386598Y-196593328D01*
X188100884Y-196593328D02*
X188100884Y-195093328D01*
X188100884Y-195093328D02*
X188458027Y-195093328D01*
X188458027Y-195093328D02*
X188672313Y-195164757D01*
X188672313Y-195164757D02*
X188815170Y-195307614D01*
X188815170Y-195307614D02*
X188886599Y-195450471D01*
X188886599Y-195450471D02*
X188958027Y-195736185D01*
X188958027Y-195736185D02*
X188958027Y-195950471D01*
X188958027Y-195950471D02*
X188886599Y-196236185D01*
X188886599Y-196236185D02*
X188815170Y-196379042D01*
X188815170Y-196379042D02*
X188672313Y-196521900D01*
X188672313Y-196521900D02*
X188458027Y-196593328D01*
X188458027Y-196593328D02*
X188100884Y-196593328D01*
X189600884Y-196450471D02*
X189672313Y-196521900D01*
X189672313Y-196521900D02*
X189600884Y-196593328D01*
X189600884Y-196593328D02*
X189529456Y-196521900D01*
X189529456Y-196521900D02*
X189600884Y-196450471D01*
X189600884Y-196450471D02*
X189600884Y-196593328D01*
X190243742Y-196164757D02*
X190958028Y-196164757D01*
X190100885Y-196593328D02*
X190600885Y-195093328D01*
X190600885Y-195093328D02*
X191100885Y-196593328D01*
X191600884Y-196450471D02*
X191672313Y-196521900D01*
X191672313Y-196521900D02*
X191600884Y-196593328D01*
X191600884Y-196593328D02*
X191529456Y-196521900D01*
X191529456Y-196521900D02*
X191600884Y-196450471D01*
X191600884Y-196450471D02*
X191600884Y-196593328D01*
X193529456Y-196593328D02*
X193815170Y-196593328D01*
X193815170Y-196593328D02*
X193958027Y-196521900D01*
X193958027Y-196521900D02*
X194029456Y-196450471D01*
X194029456Y-196450471D02*
X194172313Y-196236185D01*
X194172313Y-196236185D02*
X194243742Y-195950471D01*
X194243742Y-195950471D02*
X194243742Y-195379042D01*
X194243742Y-195379042D02*
X194172313Y-195236185D01*
X194172313Y-195236185D02*
X194100885Y-195164757D01*
X194100885Y-195164757D02*
X193958027Y-195093328D01*
X193958027Y-195093328D02*
X193672313Y-195093328D01*
X193672313Y-195093328D02*
X193529456Y-195164757D01*
X193529456Y-195164757D02*
X193458027Y-195236185D01*
X193458027Y-195236185D02*
X193386599Y-195379042D01*
X193386599Y-195379042D02*
X193386599Y-195736185D01*
X193386599Y-195736185D02*
X193458027Y-195879042D01*
X193458027Y-195879042D02*
X193529456Y-195950471D01*
X193529456Y-195950471D02*
X193672313Y-196021900D01*
X193672313Y-196021900D02*
X193958027Y-196021900D01*
X193958027Y-196021900D02*
X194100885Y-195950471D01*
X194100885Y-195950471D02*
X194172313Y-195879042D01*
X194172313Y-195879042D02*
X194243742Y-195736185D01*
X194886598Y-196450471D02*
X194958027Y-196521900D01*
X194958027Y-196521900D02*
X194886598Y-196593328D01*
X194886598Y-196593328D02*
X194815170Y-196521900D01*
X194815170Y-196521900D02*
X194886598Y-196450471D01*
X194886598Y-196450471D02*
X194886598Y-196593328D01*
X195886599Y-195093328D02*
X196029456Y-195093328D01*
X196029456Y-195093328D02*
X196172313Y-195164757D01*
X196172313Y-195164757D02*
X196243742Y-195236185D01*
X196243742Y-195236185D02*
X196315170Y-195379042D01*
X196315170Y-195379042D02*
X196386599Y-195664757D01*
X196386599Y-195664757D02*
X196386599Y-196021900D01*
X196386599Y-196021900D02*
X196315170Y-196307614D01*
X196315170Y-196307614D02*
X196243742Y-196450471D01*
X196243742Y-196450471D02*
X196172313Y-196521900D01*
X196172313Y-196521900D02*
X196029456Y-196593328D01*
X196029456Y-196593328D02*
X195886599Y-196593328D01*
X195886599Y-196593328D02*
X195743742Y-196521900D01*
X195743742Y-196521900D02*
X195672313Y-196450471D01*
X195672313Y-196450471D02*
X195600884Y-196307614D01*
X195600884Y-196307614D02*
X195529456Y-196021900D01*
X195529456Y-196021900D02*
X195529456Y-195664757D01*
X195529456Y-195664757D02*
X195600884Y-195379042D01*
X195600884Y-195379042D02*
X195672313Y-195236185D01*
X195672313Y-195236185D02*
X195743742Y-195164757D01*
X195743742Y-195164757D02*
X195886599Y-195093328D01*
X197029455Y-196450471D02*
X197100884Y-196521900D01*
X197100884Y-196521900D02*
X197029455Y-196593328D01*
X197029455Y-196593328D02*
X196958027Y-196521900D01*
X196958027Y-196521900D02*
X197029455Y-196450471D01*
X197029455Y-196450471D02*
X197029455Y-196593328D01*
X198029456Y-195093328D02*
X198172313Y-195093328D01*
X198172313Y-195093328D02*
X198315170Y-195164757D01*
X198315170Y-195164757D02*
X198386599Y-195236185D01*
X198386599Y-195236185D02*
X198458027Y-195379042D01*
X198458027Y-195379042D02*
X198529456Y-195664757D01*
X198529456Y-195664757D02*
X198529456Y-196021900D01*
X198529456Y-196021900D02*
X198458027Y-196307614D01*
X198458027Y-196307614D02*
X198386599Y-196450471D01*
X198386599Y-196450471D02*
X198315170Y-196521900D01*
X198315170Y-196521900D02*
X198172313Y-196593328D01*
X198172313Y-196593328D02*
X198029456Y-196593328D01*
X198029456Y-196593328D02*
X197886599Y-196521900D01*
X197886599Y-196521900D02*
X197815170Y-196450471D01*
X197815170Y-196450471D02*
X197743741Y-196307614D01*
X197743741Y-196307614D02*
X197672313Y-196021900D01*
X197672313Y-196021900D02*
X197672313Y-195664757D01*
X197672313Y-195664757D02*
X197743741Y-195379042D01*
X197743741Y-195379042D02*
X197815170Y-195236185D01*
X197815170Y-195236185D02*
X197886599Y-195164757D01*
X197886599Y-195164757D02*
X198029456Y-195093328D01*
D10*
D11*
X177002200Y-191507200D02*
X285002200Y-191507200D01*
D10*
D12*
X264413853Y-193785528D02*
X263913853Y-193071242D01*
X263556710Y-193785528D02*
X263556710Y-192285528D01*
X263556710Y-192285528D02*
X264128139Y-192285528D01*
X264128139Y-192285528D02*
X264270996Y-192356957D01*
X264270996Y-192356957D02*
X264342425Y-192428385D01*
X264342425Y-192428385D02*
X264413853Y-192571242D01*
X264413853Y-192571242D02*
X264413853Y-192785528D01*
X264413853Y-192785528D02*
X264342425Y-192928385D01*
X264342425Y-192928385D02*
X264270996Y-192999814D01*
X264270996Y-192999814D02*
X264128139Y-193071242D01*
X264128139Y-193071242D02*
X263556710Y-193071242D01*
X265628139Y-193714100D02*
X265485282Y-193785528D01*
X265485282Y-193785528D02*
X265199568Y-193785528D01*
X265199568Y-193785528D02*
X265056710Y-193714100D01*
X265056710Y-193714100D02*
X264985282Y-193571242D01*
X264985282Y-193571242D02*
X264985282Y-192999814D01*
X264985282Y-192999814D02*
X265056710Y-192856957D01*
X265056710Y-192856957D02*
X265199568Y-192785528D01*
X265199568Y-192785528D02*
X265485282Y-192785528D01*
X265485282Y-192785528D02*
X265628139Y-192856957D01*
X265628139Y-192856957D02*
X265699568Y-192999814D01*
X265699568Y-192999814D02*
X265699568Y-193142671D01*
X265699568Y-193142671D02*
X264985282Y-193285528D01*
X266199567Y-192785528D02*
X266556710Y-193785528D01*
X266556710Y-193785528D02*
X266913853Y-192785528D01*
X267485281Y-193642671D02*
X267556710Y-193714100D01*
X267556710Y-193714100D02*
X267485281Y-193785528D01*
X267485281Y-193785528D02*
X267413853Y-193714100D01*
X267413853Y-193714100D02*
X267485281Y-193642671D01*
X267485281Y-193642671D02*
X267485281Y-193785528D01*
X267485281Y-192856957D02*
X267556710Y-192928385D01*
X267556710Y-192928385D02*
X267485281Y-192999814D01*
X267485281Y-192999814D02*
X267413853Y-192928385D01*
X267413853Y-192928385D02*
X267485281Y-192856957D01*
X267485281Y-192856957D02*
X267485281Y-192999814D01*
D10*
D11*
X178386598Y-193721900D02*
X178600884Y-193793328D01*
X178600884Y-193793328D02*
X178958026Y-193793328D01*
X178958026Y-193793328D02*
X179100884Y-193721900D01*
X179100884Y-193721900D02*
X179172312Y-193650471D01*
X179172312Y-193650471D02*
X179243741Y-193507614D01*
X179243741Y-193507614D02*
X179243741Y-193364757D01*
X179243741Y-193364757D02*
X179172312Y-193221900D01*
X179172312Y-193221900D02*
X179100884Y-193150471D01*
X179100884Y-193150471D02*
X178958026Y-193079042D01*
X178958026Y-193079042D02*
X178672312Y-193007614D01*
X178672312Y-193007614D02*
X178529455Y-192936185D01*
X178529455Y-192936185D02*
X178458026Y-192864757D01*
X178458026Y-192864757D02*
X178386598Y-192721900D01*
X178386598Y-192721900D02*
X178386598Y-192579042D01*
X178386598Y-192579042D02*
X178458026Y-192436185D01*
X178458026Y-192436185D02*
X178529455Y-192364757D01*
X178529455Y-192364757D02*
X178672312Y-192293328D01*
X178672312Y-192293328D02*
X179029455Y-192293328D01*
X179029455Y-192293328D02*
X179243741Y-192364757D01*
X179886597Y-193793328D02*
X179886597Y-192793328D01*
X179886597Y-192293328D02*
X179815169Y-192364757D01*
X179815169Y-192364757D02*
X179886597Y-192436185D01*
X179886597Y-192436185D02*
X179958026Y-192364757D01*
X179958026Y-192364757D02*
X179886597Y-192293328D01*
X179886597Y-192293328D02*
X179886597Y-192436185D01*
X180458026Y-192793328D02*
X181243741Y-192793328D01*
X181243741Y-192793328D02*
X180458026Y-193793328D01*
X180458026Y-193793328D02*
X181243741Y-193793328D01*
X182386598Y-193721900D02*
X182243741Y-193793328D01*
X182243741Y-193793328D02*
X181958027Y-193793328D01*
X181958027Y-193793328D02*
X181815169Y-193721900D01*
X181815169Y-193721900D02*
X181743741Y-193579042D01*
X181743741Y-193579042D02*
X181743741Y-193007614D01*
X181743741Y-193007614D02*
X181815169Y-192864757D01*
X181815169Y-192864757D02*
X181958027Y-192793328D01*
X181958027Y-192793328D02*
X182243741Y-192793328D01*
X182243741Y-192793328D02*
X182386598Y-192864757D01*
X182386598Y-192864757D02*
X182458027Y-193007614D01*
X182458027Y-193007614D02*
X182458027Y-193150471D01*
X182458027Y-193150471D02*
X181743741Y-193293328D01*
X183100883Y-193650471D02*
X183172312Y-193721900D01*
X183172312Y-193721900D02*
X183100883Y-193793328D01*
X183100883Y-193793328D02*
X183029455Y-193721900D01*
X183029455Y-193721900D02*
X183100883Y-193650471D01*
X183100883Y-193650471D02*
X183100883Y-193793328D01*
X183100883Y-192864757D02*
X183172312Y-192936185D01*
X183172312Y-192936185D02*
X183100883Y-193007614D01*
X183100883Y-193007614D02*
X183029455Y-192936185D01*
X183029455Y-192936185D02*
X183100883Y-192864757D01*
X183100883Y-192864757D02*
X183100883Y-193007614D01*
X184886598Y-193364757D02*
X185600884Y-193364757D01*
X184743741Y-193793328D02*
X185243741Y-192293328D01*
X185243741Y-192293328D02*
X185743741Y-193793328D01*
X186886598Y-192793328D02*
X186886598Y-193793328D01*
X186529455Y-192221900D02*
X186172312Y-193293328D01*
X186172312Y-193293328D02*
X187100883Y-193293328D01*
D10*
D11*
X263458026Y-196593328D02*
X263458026Y-195093328D01*
X264815170Y-196593328D02*
X264815170Y-195093328D01*
X264815170Y-196521900D02*
X264672312Y-196593328D01*
X264672312Y-196593328D02*
X264386598Y-196593328D01*
X264386598Y-196593328D02*
X264243741Y-196521900D01*
X264243741Y-196521900D02*
X264172312Y-196450471D01*
X264172312Y-196450471D02*
X264100884Y-196307614D01*
X264100884Y-196307614D02*
X264100884Y-195879042D01*
X264100884Y-195879042D02*
X264172312Y-195736185D01*
X264172312Y-195736185D02*
X264243741Y-195664757D01*
X264243741Y-195664757D02*
X264386598Y-195593328D01*
X264386598Y-195593328D02*
X264672312Y-195593328D01*
X264672312Y-195593328D02*
X264815170Y-195664757D01*
X265529455Y-196450471D02*
X265600884Y-196521900D01*
X265600884Y-196521900D02*
X265529455Y-196593328D01*
X265529455Y-196593328D02*
X265458027Y-196521900D01*
X265458027Y-196521900D02*
X265529455Y-196450471D01*
X265529455Y-196450471D02*
X265529455Y-196593328D01*
X265529455Y-195664757D02*
X265600884Y-195736185D01*
X265600884Y-195736185D02*
X265529455Y-195807614D01*
X265529455Y-195807614D02*
X265458027Y-195736185D01*
X265458027Y-195736185D02*
X265529455Y-195664757D01*
X265529455Y-195664757D02*
X265529455Y-195807614D01*
X268029456Y-195593328D02*
X268029456Y-196593328D01*
X267672313Y-195021900D02*
X267315170Y-196093328D01*
X267315170Y-196093328D02*
X268243741Y-196093328D01*
X269886598Y-195021900D02*
X268600884Y-196950471D01*
X270600884Y-195736185D02*
X270458027Y-195664757D01*
X270458027Y-195664757D02*
X270386598Y-195593328D01*
X270386598Y-195593328D02*
X270315170Y-195450471D01*
X270315170Y-195450471D02*
X270315170Y-195379042D01*
X270315170Y-195379042D02*
X270386598Y-195236185D01*
X270386598Y-195236185D02*
X270458027Y-195164757D01*
X270458027Y-195164757D02*
X270600884Y-195093328D01*
X270600884Y-195093328D02*
X270886598Y-195093328D01*
X270886598Y-195093328D02*
X271029456Y-195164757D01*
X271029456Y-195164757D02*
X271100884Y-195236185D01*
X271100884Y-195236185D02*
X271172313Y-195379042D01*
X271172313Y-195379042D02*
X271172313Y-195450471D01*
X271172313Y-195450471D02*
X271100884Y-195593328D01*
X271100884Y-195593328D02*
X271029456Y-195664757D01*
X271029456Y-195664757D02*
X270886598Y-195736185D01*
X270886598Y-195736185D02*
X270600884Y-195736185D01*
X270600884Y-195736185D02*
X270458027Y-195807614D01*
X270458027Y-195807614D02*
X270386598Y-195879042D01*
X270386598Y-195879042D02*
X270315170Y-196021900D01*
X270315170Y-196021900D02*
X270315170Y-196307614D01*
X270315170Y-196307614D02*
X270386598Y-196450471D01*
X270386598Y-196450471D02*
X270458027Y-196521900D01*
X270458027Y-196521900D02*
X270600884Y-196593328D01*
X270600884Y-196593328D02*
X270886598Y-196593328D01*
X270886598Y-196593328D02*
X271029456Y-196521900D01*
X271029456Y-196521900D02*
X271100884Y-196450471D01*
X271100884Y-196450471D02*
X271172313Y-196307614D01*
X271172313Y-196307614D02*
X271172313Y-196021900D01*
X271172313Y-196021900D02*
X271100884Y-195879042D01*
X271100884Y-195879042D02*
X271029456Y-195807614D01*
X271029456Y-195807614D02*
X270886598Y-195736185D01*
D10*
D11*
X177002200Y-187507200D02*
X285002200Y-187507200D01*
D10*
D13*
X178693928Y-188211638D02*
X179836785Y-188211638D01*
X179015357Y-190211638D02*
X179265357Y-188211638D01*
X180253452Y-190211638D02*
X180420119Y-188878304D01*
X180503452Y-188211638D02*
X180396309Y-188306876D01*
X180396309Y-188306876D02*
X180479643Y-188402114D01*
X180479643Y-188402114D02*
X180586786Y-188306876D01*
X180586786Y-188306876D02*
X180503452Y-188211638D01*
X180503452Y-188211638D02*
X180479643Y-188402114D01*
X181086786Y-188878304D02*
X181848690Y-188878304D01*
X181455833Y-188211638D02*
X181241548Y-189925923D01*
X181241548Y-189925923D02*
X181312976Y-190116400D01*
X181312976Y-190116400D02*
X181491548Y-190211638D01*
X181491548Y-190211638D02*
X181682024Y-190211638D01*
X182634405Y-190211638D02*
X182455833Y-190116400D01*
X182455833Y-190116400D02*
X182384405Y-189925923D01*
X182384405Y-189925923D02*
X182598690Y-188211638D01*
X184170119Y-190116400D02*
X183967738Y-190211638D01*
X183967738Y-190211638D02*
X183586785Y-190211638D01*
X183586785Y-190211638D02*
X183408214Y-190116400D01*
X183408214Y-190116400D02*
X183336785Y-189925923D01*
X183336785Y-189925923D02*
X183432024Y-189164019D01*
X183432024Y-189164019D02*
X183551071Y-188973542D01*
X183551071Y-188973542D02*
X183753452Y-188878304D01*
X183753452Y-188878304D02*
X184134404Y-188878304D01*
X184134404Y-188878304D02*
X184312976Y-188973542D01*
X184312976Y-188973542D02*
X184384404Y-189164019D01*
X184384404Y-189164019D02*
X184360595Y-189354495D01*
X184360595Y-189354495D02*
X183384404Y-189544971D01*
X185134405Y-190021161D02*
X185217738Y-190116400D01*
X185217738Y-190116400D02*
X185110595Y-190211638D01*
X185110595Y-190211638D02*
X185027262Y-190116400D01*
X185027262Y-190116400D02*
X185134405Y-190021161D01*
X185134405Y-190021161D02*
X185110595Y-190211638D01*
X185265357Y-188973542D02*
X185348690Y-189068780D01*
X185348690Y-189068780D02*
X185241548Y-189164019D01*
X185241548Y-189164019D02*
X185158214Y-189068780D01*
X185158214Y-189068780D02*
X185265357Y-188973542D01*
X185265357Y-188973542D02*
X185241548Y-189164019D01*
D10*
D11*
X178958026Y-185607614D02*
X178458026Y-185607614D01*
X178458026Y-186393328D02*
X178458026Y-184893328D01*
X178458026Y-184893328D02*
X179172312Y-184893328D01*
X179743740Y-186393328D02*
X179743740Y-185393328D01*
X179743740Y-184893328D02*
X179672312Y-184964757D01*
X179672312Y-184964757D02*
X179743740Y-185036185D01*
X179743740Y-185036185D02*
X179815169Y-184964757D01*
X179815169Y-184964757D02*
X179743740Y-184893328D01*
X179743740Y-184893328D02*
X179743740Y-185036185D01*
X180672312Y-186393328D02*
X180529455Y-186321900D01*
X180529455Y-186321900D02*
X180458026Y-186179042D01*
X180458026Y-186179042D02*
X180458026Y-184893328D01*
X181815169Y-186321900D02*
X181672312Y-186393328D01*
X181672312Y-186393328D02*
X181386598Y-186393328D01*
X181386598Y-186393328D02*
X181243740Y-186321900D01*
X181243740Y-186321900D02*
X181172312Y-186179042D01*
X181172312Y-186179042D02*
X181172312Y-185607614D01*
X181172312Y-185607614D02*
X181243740Y-185464757D01*
X181243740Y-185464757D02*
X181386598Y-185393328D01*
X181386598Y-185393328D02*
X181672312Y-185393328D01*
X181672312Y-185393328D02*
X181815169Y-185464757D01*
X181815169Y-185464757D02*
X181886598Y-185607614D01*
X181886598Y-185607614D02*
X181886598Y-185750471D01*
X181886598Y-185750471D02*
X181172312Y-185893328D01*
X182529454Y-186250471D02*
X182600883Y-186321900D01*
X182600883Y-186321900D02*
X182529454Y-186393328D01*
X182529454Y-186393328D02*
X182458026Y-186321900D01*
X182458026Y-186321900D02*
X182529454Y-186250471D01*
X182529454Y-186250471D02*
X182529454Y-186393328D01*
X182529454Y-185464757D02*
X182600883Y-185536185D01*
X182600883Y-185536185D02*
X182529454Y-185607614D01*
X182529454Y-185607614D02*
X182458026Y-185536185D01*
X182458026Y-185536185D02*
X182529454Y-185464757D01*
X182529454Y-185464757D02*
X182529454Y-185607614D01*
X184386597Y-186393328D02*
X184386597Y-184893328D01*
X184386597Y-184893328D02*
X184743740Y-184893328D01*
X184743740Y-184893328D02*
X184958026Y-184964757D01*
X184958026Y-184964757D02*
X185100883Y-185107614D01*
X185100883Y-185107614D02*
X185172312Y-185250471D01*
X185172312Y-185250471D02*
X185243740Y-185536185D01*
X185243740Y-185536185D02*
X185243740Y-185750471D01*
X185243740Y-185750471D02*
X185172312Y-186036185D01*
X185172312Y-186036185D02*
X185100883Y-186179042D01*
X185100883Y-186179042D02*
X184958026Y-186321900D01*
X184958026Y-186321900D02*
X184743740Y-186393328D01*
X184743740Y-186393328D02*
X184386597Y-186393328D01*
X186458026Y-186321900D02*
X186315169Y-186393328D01*
X186315169Y-186393328D02*
X186029455Y-186393328D01*
X186029455Y-186393328D02*
X185886597Y-186321900D01*
X185886597Y-186321900D02*
X185815169Y-186179042D01*
X185815169Y-186179042D02*
X185815169Y-185607614D01*
X185815169Y-185607614D02*
X185886597Y-185464757D01*
X185886597Y-185464757D02*
X186029455Y-185393328D01*
X186029455Y-185393328D02*
X186315169Y-185393328D01*
X186315169Y-185393328D02*
X186458026Y-185464757D01*
X186458026Y-185464757D02*
X186529455Y-185607614D01*
X186529455Y-185607614D02*
X186529455Y-185750471D01*
X186529455Y-185750471D02*
X185815169Y-185893328D01*
X186958026Y-185393328D02*
X187529454Y-185393328D01*
X187172311Y-184893328D02*
X187172311Y-186179042D01*
X187172311Y-186179042D02*
X187243740Y-186321900D01*
X187243740Y-186321900D02*
X187386597Y-186393328D01*
X187386597Y-186393328D02*
X187529454Y-186393328D01*
X188600883Y-186321900D02*
X188458026Y-186393328D01*
X188458026Y-186393328D02*
X188172312Y-186393328D01*
X188172312Y-186393328D02*
X188029454Y-186321900D01*
X188029454Y-186321900D02*
X187958026Y-186179042D01*
X187958026Y-186179042D02*
X187958026Y-185607614D01*
X187958026Y-185607614D02*
X188029454Y-185464757D01*
X188029454Y-185464757D02*
X188172312Y-185393328D01*
X188172312Y-185393328D02*
X188458026Y-185393328D01*
X188458026Y-185393328D02*
X188600883Y-185464757D01*
X188600883Y-185464757D02*
X188672312Y-185607614D01*
X188672312Y-185607614D02*
X188672312Y-185750471D01*
X188672312Y-185750471D02*
X187958026Y-185893328D01*
X189958026Y-186321900D02*
X189815168Y-186393328D01*
X189815168Y-186393328D02*
X189529454Y-186393328D01*
X189529454Y-186393328D02*
X189386597Y-186321900D01*
X189386597Y-186321900D02*
X189315168Y-186250471D01*
X189315168Y-186250471D02*
X189243740Y-186107614D01*
X189243740Y-186107614D02*
X189243740Y-185679042D01*
X189243740Y-185679042D02*
X189315168Y-185536185D01*
X189315168Y-185536185D02*
X189386597Y-185464757D01*
X189386597Y-185464757D02*
X189529454Y-185393328D01*
X189529454Y-185393328D02*
X189815168Y-185393328D01*
X189815168Y-185393328D02*
X189958026Y-185464757D01*
X190386597Y-185393328D02*
X190958025Y-185393328D01*
X190600882Y-184893328D02*
X190600882Y-186179042D01*
X190600882Y-186179042D02*
X190672311Y-186321900D01*
X190672311Y-186321900D02*
X190815168Y-186393328D01*
X190815168Y-186393328D02*
X190958025Y-186393328D01*
X191672311Y-186393328D02*
X191529454Y-186321900D01*
X191529454Y-186321900D02*
X191458025Y-186250471D01*
X191458025Y-186250471D02*
X191386597Y-186107614D01*
X191386597Y-186107614D02*
X191386597Y-185679042D01*
X191386597Y-185679042D02*
X191458025Y-185536185D01*
X191458025Y-185536185D02*
X191529454Y-185464757D01*
X191529454Y-185464757D02*
X191672311Y-185393328D01*
X191672311Y-185393328D02*
X191886597Y-185393328D01*
X191886597Y-185393328D02*
X192029454Y-185464757D01*
X192029454Y-185464757D02*
X192100883Y-185536185D01*
X192100883Y-185536185D02*
X192172311Y-185679042D01*
X192172311Y-185679042D02*
X192172311Y-186107614D01*
X192172311Y-186107614D02*
X192100883Y-186250471D01*
X192100883Y-186250471D02*
X192029454Y-186321900D01*
X192029454Y-186321900D02*
X191886597Y-186393328D01*
X191886597Y-186393328D02*
X191672311Y-186393328D01*
X192815168Y-186393328D02*
X192815168Y-185393328D01*
X192815168Y-185679042D02*
X192886597Y-185536185D01*
X192886597Y-185536185D02*
X192958026Y-185464757D01*
X192958026Y-185464757D02*
X193100883Y-185393328D01*
X193100883Y-185393328D02*
X193243740Y-185393328D01*
X193386597Y-186536185D02*
X194529454Y-186536185D01*
X195529454Y-186393328D02*
X195529454Y-184893328D01*
X195529454Y-186321900D02*
X195386596Y-186393328D01*
X195386596Y-186393328D02*
X195100882Y-186393328D01*
X195100882Y-186393328D02*
X194958025Y-186321900D01*
X194958025Y-186321900D02*
X194886596Y-186250471D01*
X194886596Y-186250471D02*
X194815168Y-186107614D01*
X194815168Y-186107614D02*
X194815168Y-185679042D01*
X194815168Y-185679042D02*
X194886596Y-185536185D01*
X194886596Y-185536185D02*
X194958025Y-185464757D01*
X194958025Y-185464757D02*
X195100882Y-185393328D01*
X195100882Y-185393328D02*
X195386596Y-185393328D01*
X195386596Y-185393328D02*
X195529454Y-185464757D01*
X196815168Y-186321900D02*
X196672311Y-186393328D01*
X196672311Y-186393328D02*
X196386597Y-186393328D01*
X196386597Y-186393328D02*
X196243739Y-186321900D01*
X196243739Y-186321900D02*
X196172311Y-186179042D01*
X196172311Y-186179042D02*
X196172311Y-185607614D01*
X196172311Y-185607614D02*
X196243739Y-185464757D01*
X196243739Y-185464757D02*
X196386597Y-185393328D01*
X196386597Y-185393328D02*
X196672311Y-185393328D01*
X196672311Y-185393328D02*
X196815168Y-185464757D01*
X196815168Y-185464757D02*
X196886597Y-185607614D01*
X196886597Y-185607614D02*
X196886597Y-185750471D01*
X196886597Y-185750471D02*
X196172311Y-185893328D01*
X197172311Y-186536185D02*
X198315168Y-186536185D01*
X198672310Y-186393328D02*
X198672310Y-184893328D01*
X199386596Y-185393328D02*
X199386596Y-186393328D01*
X199386596Y-185536185D02*
X199458025Y-185464757D01*
X199458025Y-185464757D02*
X199600882Y-185393328D01*
X199600882Y-185393328D02*
X199815168Y-185393328D01*
X199815168Y-185393328D02*
X199958025Y-185464757D01*
X199958025Y-185464757D02*
X200029454Y-185607614D01*
X200029454Y-185607614D02*
X200029454Y-186393328D01*
X201386597Y-186321900D02*
X201243739Y-186393328D01*
X201243739Y-186393328D02*
X200958025Y-186393328D01*
X200958025Y-186393328D02*
X200815168Y-186321900D01*
X200815168Y-186321900D02*
X200743739Y-186250471D01*
X200743739Y-186250471D02*
X200672311Y-186107614D01*
X200672311Y-186107614D02*
X200672311Y-185679042D01*
X200672311Y-185679042D02*
X200743739Y-185536185D01*
X200743739Y-185536185D02*
X200815168Y-185464757D01*
X200815168Y-185464757D02*
X200958025Y-185393328D01*
X200958025Y-185393328D02*
X201243739Y-185393328D01*
X201243739Y-185393328D02*
X201386597Y-185464757D01*
X202600882Y-186321900D02*
X202458025Y-186393328D01*
X202458025Y-186393328D02*
X202172311Y-186393328D01*
X202172311Y-186393328D02*
X202029453Y-186321900D01*
X202029453Y-186321900D02*
X201958025Y-186179042D01*
X201958025Y-186179042D02*
X201958025Y-185607614D01*
X201958025Y-185607614D02*
X202029453Y-185464757D01*
X202029453Y-185464757D02*
X202172311Y-185393328D01*
X202172311Y-185393328D02*
X202458025Y-185393328D01*
X202458025Y-185393328D02*
X202600882Y-185464757D01*
X202600882Y-185464757D02*
X202672311Y-185607614D01*
X202672311Y-185607614D02*
X202672311Y-185750471D01*
X202672311Y-185750471D02*
X201958025Y-185893328D01*
X203315167Y-185393328D02*
X203315167Y-186393328D01*
X203315167Y-185536185D02*
X203386596Y-185464757D01*
X203386596Y-185464757D02*
X203529453Y-185393328D01*
X203529453Y-185393328D02*
X203743739Y-185393328D01*
X203743739Y-185393328D02*
X203886596Y-185464757D01*
X203886596Y-185464757D02*
X203958025Y-185607614D01*
X203958025Y-185607614D02*
X203958025Y-186393328D01*
X205315168Y-186393328D02*
X205315168Y-184893328D01*
X205315168Y-186321900D02*
X205172310Y-186393328D01*
X205172310Y-186393328D02*
X204886596Y-186393328D01*
X204886596Y-186393328D02*
X204743739Y-186321900D01*
X204743739Y-186321900D02*
X204672310Y-186250471D01*
X204672310Y-186250471D02*
X204600882Y-186107614D01*
X204600882Y-186107614D02*
X204600882Y-185679042D01*
X204600882Y-185679042D02*
X204672310Y-185536185D01*
X204672310Y-185536185D02*
X204743739Y-185464757D01*
X204743739Y-185464757D02*
X204886596Y-185393328D01*
X204886596Y-185393328D02*
X205172310Y-185393328D01*
X205172310Y-185393328D02*
X205315168Y-185464757D01*
X206029453Y-186393328D02*
X206029453Y-185393328D01*
X206029453Y-184893328D02*
X205958025Y-184964757D01*
X205958025Y-184964757D02*
X206029453Y-185036185D01*
X206029453Y-185036185D02*
X206100882Y-184964757D01*
X206100882Y-184964757D02*
X206029453Y-184893328D01*
X206029453Y-184893328D02*
X206029453Y-185036185D01*
X206958025Y-186393328D02*
X206815168Y-186321900D01*
X206815168Y-186321900D02*
X206743739Y-186250471D01*
X206743739Y-186250471D02*
X206672311Y-186107614D01*
X206672311Y-186107614D02*
X206672311Y-185679042D01*
X206672311Y-185679042D02*
X206743739Y-185536185D01*
X206743739Y-185536185D02*
X206815168Y-185464757D01*
X206815168Y-185464757D02*
X206958025Y-185393328D01*
X206958025Y-185393328D02*
X207172311Y-185393328D01*
X207172311Y-185393328D02*
X207315168Y-185464757D01*
X207315168Y-185464757D02*
X207386597Y-185536185D01*
X207386597Y-185536185D02*
X207458025Y-185679042D01*
X207458025Y-185679042D02*
X207458025Y-186107614D01*
X207458025Y-186107614D02*
X207386597Y-186250471D01*
X207386597Y-186250471D02*
X207315168Y-186321900D01*
X207315168Y-186321900D02*
X207172311Y-186393328D01*
X207172311Y-186393328D02*
X206958025Y-186393328D01*
X208029454Y-186321900D02*
X208172311Y-186393328D01*
X208172311Y-186393328D02*
X208458025Y-186393328D01*
X208458025Y-186393328D02*
X208600882Y-186321900D01*
X208600882Y-186321900D02*
X208672311Y-186179042D01*
X208672311Y-186179042D02*
X208672311Y-186107614D01*
X208672311Y-186107614D02*
X208600882Y-185964757D01*
X208600882Y-185964757D02*
X208458025Y-185893328D01*
X208458025Y-185893328D02*
X208243740Y-185893328D01*
X208243740Y-185893328D02*
X208100882Y-185821900D01*
X208100882Y-185821900D02*
X208029454Y-185679042D01*
X208029454Y-185679042D02*
X208029454Y-185607614D01*
X208029454Y-185607614D02*
X208100882Y-185464757D01*
X208100882Y-185464757D02*
X208243740Y-185393328D01*
X208243740Y-185393328D02*
X208458025Y-185393328D01*
X208458025Y-185393328D02*
X208600882Y-185464757D01*
X209315168Y-186250471D02*
X209386597Y-186321900D01*
X209386597Y-186321900D02*
X209315168Y-186393328D01*
X209315168Y-186393328D02*
X209243740Y-186321900D01*
X209243740Y-186321900D02*
X209315168Y-186250471D01*
X209315168Y-186250471D02*
X209315168Y-186393328D01*
X210029454Y-186393328D02*
X210029454Y-184893328D01*
X210172312Y-185821900D02*
X210600883Y-186393328D01*
X210600883Y-185393328D02*
X210029454Y-185964757D01*
X211243740Y-186393328D02*
X211243740Y-185393328D01*
X211243740Y-184893328D02*
X211172312Y-184964757D01*
X211172312Y-184964757D02*
X211243740Y-185036185D01*
X211243740Y-185036185D02*
X211315169Y-184964757D01*
X211315169Y-184964757D02*
X211243740Y-184893328D01*
X211243740Y-184893328D02*
X211243740Y-185036185D01*
X212600884Y-186321900D02*
X212458026Y-186393328D01*
X212458026Y-186393328D02*
X212172312Y-186393328D01*
X212172312Y-186393328D02*
X212029455Y-186321900D01*
X212029455Y-186321900D02*
X211958026Y-186250471D01*
X211958026Y-186250471D02*
X211886598Y-186107614D01*
X211886598Y-186107614D02*
X211886598Y-185679042D01*
X211886598Y-185679042D02*
X211958026Y-185536185D01*
X211958026Y-185536185D02*
X212029455Y-185464757D01*
X212029455Y-185464757D02*
X212172312Y-185393328D01*
X212172312Y-185393328D02*
X212458026Y-185393328D01*
X212458026Y-185393328D02*
X212600884Y-185464757D01*
X213886598Y-186393328D02*
X213886598Y-185607614D01*
X213886598Y-185607614D02*
X213815169Y-185464757D01*
X213815169Y-185464757D02*
X213672312Y-185393328D01*
X213672312Y-185393328D02*
X213386598Y-185393328D01*
X213386598Y-185393328D02*
X213243740Y-185464757D01*
X213886598Y-186321900D02*
X213743740Y-186393328D01*
X213743740Y-186393328D02*
X213386598Y-186393328D01*
X213386598Y-186393328D02*
X213243740Y-186321900D01*
X213243740Y-186321900D02*
X213172312Y-186179042D01*
X213172312Y-186179042D02*
X213172312Y-186036185D01*
X213172312Y-186036185D02*
X213243740Y-185893328D01*
X213243740Y-185893328D02*
X213386598Y-185821900D01*
X213386598Y-185821900D02*
X213743740Y-185821900D01*
X213743740Y-185821900D02*
X213886598Y-185750471D01*
X215243741Y-186393328D02*
X215243741Y-184893328D01*
X215243741Y-186321900D02*
X215100883Y-186393328D01*
X215100883Y-186393328D02*
X214815169Y-186393328D01*
X214815169Y-186393328D02*
X214672312Y-186321900D01*
X214672312Y-186321900D02*
X214600883Y-186250471D01*
X214600883Y-186250471D02*
X214529455Y-186107614D01*
X214529455Y-186107614D02*
X214529455Y-185679042D01*
X214529455Y-185679042D02*
X214600883Y-185536185D01*
X214600883Y-185536185D02*
X214672312Y-185464757D01*
X214672312Y-185464757D02*
X214815169Y-185393328D01*
X214815169Y-185393328D02*
X215100883Y-185393328D01*
X215100883Y-185393328D02*
X215243741Y-185464757D01*
X215600884Y-186536185D02*
X216743741Y-186536185D01*
X217100883Y-185393328D02*
X217100883Y-186893328D01*
X217100883Y-185464757D02*
X217243741Y-185393328D01*
X217243741Y-185393328D02*
X217529455Y-185393328D01*
X217529455Y-185393328D02*
X217672312Y-185464757D01*
X217672312Y-185464757D02*
X217743741Y-185536185D01*
X217743741Y-185536185D02*
X217815169Y-185679042D01*
X217815169Y-185679042D02*
X217815169Y-186107614D01*
X217815169Y-186107614D02*
X217743741Y-186250471D01*
X217743741Y-186250471D02*
X217672312Y-186321900D01*
X217672312Y-186321900D02*
X217529455Y-186393328D01*
X217529455Y-186393328D02*
X217243741Y-186393328D01*
X217243741Y-186393328D02*
X217100883Y-186321900D01*
X219100884Y-186321900D02*
X218958026Y-186393328D01*
X218958026Y-186393328D02*
X218672312Y-186393328D01*
X218672312Y-186393328D02*
X218529455Y-186321900D01*
X218529455Y-186321900D02*
X218458026Y-186250471D01*
X218458026Y-186250471D02*
X218386598Y-186107614D01*
X218386598Y-186107614D02*
X218386598Y-185679042D01*
X218386598Y-185679042D02*
X218458026Y-185536185D01*
X218458026Y-185536185D02*
X218529455Y-185464757D01*
X218529455Y-185464757D02*
X218672312Y-185393328D01*
X218672312Y-185393328D02*
X218958026Y-185393328D01*
X218958026Y-185393328D02*
X219100884Y-185464757D01*
X219743740Y-186393328D02*
X219743740Y-184893328D01*
X219743740Y-185464757D02*
X219886598Y-185393328D01*
X219886598Y-185393328D02*
X220172312Y-185393328D01*
X220172312Y-185393328D02*
X220315169Y-185464757D01*
X220315169Y-185464757D02*
X220386598Y-185536185D01*
X220386598Y-185536185D02*
X220458026Y-185679042D01*
X220458026Y-185679042D02*
X220458026Y-186107614D01*
X220458026Y-186107614D02*
X220386598Y-186250471D01*
X220386598Y-186250471D02*
X220315169Y-186321900D01*
X220315169Y-186321900D02*
X220172312Y-186393328D01*
X220172312Y-186393328D02*
X219886598Y-186393328D01*
X219886598Y-186393328D02*
X219743740Y-186321900D01*
D10*
D11*
X177002200Y-181507200D02*
X285002200Y-181507200D01*
D10*
D11*
X178386598Y-183621900D02*
X178600884Y-183693328D01*
X178600884Y-183693328D02*
X178958026Y-183693328D01*
X178958026Y-183693328D02*
X179100884Y-183621900D01*
X179100884Y-183621900D02*
X179172312Y-183550471D01*
X179172312Y-183550471D02*
X179243741Y-183407614D01*
X179243741Y-183407614D02*
X179243741Y-183264757D01*
X179243741Y-183264757D02*
X179172312Y-183121900D01*
X179172312Y-183121900D02*
X179100884Y-183050471D01*
X179100884Y-183050471D02*
X178958026Y-182979042D01*
X178958026Y-182979042D02*
X178672312Y-182907614D01*
X178672312Y-182907614D02*
X178529455Y-182836185D01*
X178529455Y-182836185D02*
X178458026Y-182764757D01*
X178458026Y-182764757D02*
X178386598Y-182621900D01*
X178386598Y-182621900D02*
X178386598Y-182479042D01*
X178386598Y-182479042D02*
X178458026Y-182336185D01*
X178458026Y-182336185D02*
X178529455Y-182264757D01*
X178529455Y-182264757D02*
X178672312Y-182193328D01*
X178672312Y-182193328D02*
X179029455Y-182193328D01*
X179029455Y-182193328D02*
X179243741Y-182264757D01*
X179886597Y-183693328D02*
X179886597Y-182193328D01*
X180529455Y-183693328D02*
X180529455Y-182907614D01*
X180529455Y-182907614D02*
X180458026Y-182764757D01*
X180458026Y-182764757D02*
X180315169Y-182693328D01*
X180315169Y-182693328D02*
X180100883Y-182693328D01*
X180100883Y-182693328D02*
X179958026Y-182764757D01*
X179958026Y-182764757D02*
X179886597Y-182836185D01*
X181815169Y-183621900D02*
X181672312Y-183693328D01*
X181672312Y-183693328D02*
X181386598Y-183693328D01*
X181386598Y-183693328D02*
X181243740Y-183621900D01*
X181243740Y-183621900D02*
X181172312Y-183479042D01*
X181172312Y-183479042D02*
X181172312Y-182907614D01*
X181172312Y-182907614D02*
X181243740Y-182764757D01*
X181243740Y-182764757D02*
X181386598Y-182693328D01*
X181386598Y-182693328D02*
X181672312Y-182693328D01*
X181672312Y-182693328D02*
X181815169Y-182764757D01*
X181815169Y-182764757D02*
X181886598Y-182907614D01*
X181886598Y-182907614D02*
X181886598Y-183050471D01*
X181886598Y-183050471D02*
X181172312Y-183193328D01*
X183100883Y-183621900D02*
X182958026Y-183693328D01*
X182958026Y-183693328D02*
X182672312Y-183693328D01*
X182672312Y-183693328D02*
X182529454Y-183621900D01*
X182529454Y-183621900D02*
X182458026Y-183479042D01*
X182458026Y-183479042D02*
X182458026Y-182907614D01*
X182458026Y-182907614D02*
X182529454Y-182764757D01*
X182529454Y-182764757D02*
X182672312Y-182693328D01*
X182672312Y-182693328D02*
X182958026Y-182693328D01*
X182958026Y-182693328D02*
X183100883Y-182764757D01*
X183100883Y-182764757D02*
X183172312Y-182907614D01*
X183172312Y-182907614D02*
X183172312Y-183050471D01*
X183172312Y-183050471D02*
X182458026Y-183193328D01*
X183600883Y-182693328D02*
X184172311Y-182693328D01*
X183815168Y-182193328D02*
X183815168Y-183479042D01*
X183815168Y-183479042D02*
X183886597Y-183621900D01*
X183886597Y-183621900D02*
X184029454Y-183693328D01*
X184029454Y-183693328D02*
X184172311Y-183693328D01*
X184672311Y-183550471D02*
X184743740Y-183621900D01*
X184743740Y-183621900D02*
X184672311Y-183693328D01*
X184672311Y-183693328D02*
X184600883Y-183621900D01*
X184600883Y-183621900D02*
X184672311Y-183550471D01*
X184672311Y-183550471D02*
X184672311Y-183693328D01*
X184672311Y-182764757D02*
X184743740Y-182836185D01*
X184743740Y-182836185D02*
X184672311Y-182907614D01*
X184672311Y-182907614D02*
X184600883Y-182836185D01*
X184600883Y-182836185D02*
X184672311Y-182764757D01*
X184672311Y-182764757D02*
X184672311Y-182907614D01*
D10*
D11*
X197002200Y-191507200D02*
X197002200Y-194507200D01*
D10*
D11*
X261002200Y-191507200D02*
X261002200Y-198007200D01*
X182666666Y-142254819D02*
X182333333Y-141778628D01*
X182095238Y-142254819D02*
X182095238Y-141254819D01*
X182095238Y-141254819D02*
X182476190Y-141254819D01*
X182476190Y-141254819D02*
X182571428Y-141302438D01*
X182571428Y-141302438D02*
X182619047Y-141350057D01*
X182619047Y-141350057D02*
X182666666Y-141445295D01*
X182666666Y-141445295D02*
X182666666Y-141588152D01*
X182666666Y-141588152D02*
X182619047Y-141683390D01*
X182619047Y-141683390D02*
X182571428Y-141731009D01*
X182571428Y-141731009D02*
X182476190Y-141778628D01*
X182476190Y-141778628D02*
X182095238Y-141778628D01*
X183095238Y-141731009D02*
X183428571Y-141731009D01*
X183571428Y-142254819D02*
X183095238Y-142254819D01*
X183095238Y-142254819D02*
X183095238Y-141254819D01*
X183095238Y-141254819D02*
X183571428Y-141254819D01*
X184333333Y-141731009D02*
X184000000Y-141731009D01*
X184000000Y-142254819D02*
X184000000Y-141254819D01*
X184000000Y-141254819D02*
X184476190Y-141254819D01*
X185000000Y-141254819D02*
X185000000Y-141492914D01*
X184761905Y-141397676D02*
X185000000Y-141492914D01*
X185000000Y-141492914D02*
X185238095Y-141397676D01*
X184857143Y-141683390D02*
X185000000Y-141492914D01*
X185000000Y-141492914D02*
X185142857Y-141683390D01*
X185761905Y-141254819D02*
X185761905Y-141492914D01*
X185523810Y-141397676D02*
X185761905Y-141492914D01*
X185761905Y-141492914D02*
X186000000Y-141397676D01*
X185619048Y-141683390D02*
X185761905Y-141492914D01*
X185761905Y-141492914D02*
X185904762Y-141683390D01*
X105254819Y-147333333D02*
X104778628Y-147666666D01*
X105254819Y-147904761D02*
X104254819Y-147904761D01*
X104254819Y-147904761D02*
X104254819Y-147523809D01*
X104254819Y-147523809D02*
X104302438Y-147428571D01*
X104302438Y-147428571D02*
X104350057Y-147380952D01*
X104350057Y-147380952D02*
X104445295Y-147333333D01*
X104445295Y-147333333D02*
X104588152Y-147333333D01*
X104588152Y-147333333D02*
X104683390Y-147380952D01*
X104683390Y-147380952D02*
X104731009Y-147428571D01*
X104731009Y-147428571D02*
X104778628Y-147523809D01*
X104778628Y-147523809D02*
X104778628Y-147904761D01*
X104731009Y-146904761D02*
X104731009Y-146571428D01*
X105254819Y-146428571D02*
X105254819Y-146904761D01*
X105254819Y-146904761D02*
X104254819Y-146904761D01*
X104254819Y-146904761D02*
X104254819Y-146428571D01*
X104731009Y-145666666D02*
X104731009Y-145999999D01*
X105254819Y-145999999D02*
X104254819Y-145999999D01*
X104254819Y-145999999D02*
X104254819Y-145523809D01*
X104254819Y-144999999D02*
X104492914Y-144999999D01*
X104397676Y-145238094D02*
X104492914Y-144999999D01*
X104492914Y-144999999D02*
X104397676Y-144761904D01*
X104683390Y-145142856D02*
X104492914Y-144999999D01*
X104492914Y-144999999D02*
X104683390Y-144857142D01*
X104254819Y-144238094D02*
X104492914Y-144238094D01*
X104397676Y-144476189D02*
X104492914Y-144238094D01*
X104492914Y-144238094D02*
X104397676Y-143999999D01*
X104683390Y-144380951D02*
X104492914Y-144238094D01*
X104492914Y-144238094D02*
X104683390Y-144095237D01*
X182666666Y-29254819D02*
X182333333Y-28778628D01*
X182095238Y-29254819D02*
X182095238Y-28254819D01*
X182095238Y-28254819D02*
X182476190Y-28254819D01*
X182476190Y-28254819D02*
X182571428Y-28302438D01*
X182571428Y-28302438D02*
X182619047Y-28350057D01*
X182619047Y-28350057D02*
X182666666Y-28445295D01*
X182666666Y-28445295D02*
X182666666Y-28588152D01*
X182666666Y-28588152D02*
X182619047Y-28683390D01*
X182619047Y-28683390D02*
X182571428Y-28731009D01*
X182571428Y-28731009D02*
X182476190Y-28778628D01*
X182476190Y-28778628D02*
X182095238Y-28778628D01*
X183095238Y-28731009D02*
X183428571Y-28731009D01*
X183571428Y-29254819D02*
X183095238Y-29254819D01*
X183095238Y-29254819D02*
X183095238Y-28254819D01*
X183095238Y-28254819D02*
X183571428Y-28254819D01*
X184333333Y-28731009D02*
X184000000Y-28731009D01*
X184000000Y-29254819D02*
X184000000Y-28254819D01*
X184000000Y-28254819D02*
X184476190Y-28254819D01*
X185000000Y-28254819D02*
X185000000Y-28492914D01*
X184761905Y-28397676D02*
X185000000Y-28492914D01*
X185000000Y-28492914D02*
X185238095Y-28397676D01*
X184857143Y-28683390D02*
X185000000Y-28492914D01*
X185000000Y-28492914D02*
X185142857Y-28683390D01*
X185761905Y-28254819D02*
X185761905Y-28492914D01*
X185523810Y-28397676D02*
X185761905Y-28492914D01*
X185761905Y-28492914D02*
X186000000Y-28397676D01*
X185619048Y-28683390D02*
X185761905Y-28492914D01*
X185761905Y-28492914D02*
X185904762Y-28683390D01*
X149453333Y-143217319D02*
X149120000Y-142741128D01*
X148881905Y-143217319D02*
X148881905Y-142217319D01*
X148881905Y-142217319D02*
X149262857Y-142217319D01*
X149262857Y-142217319D02*
X149358095Y-142264938D01*
X149358095Y-142264938D02*
X149405714Y-142312557D01*
X149405714Y-142312557D02*
X149453333Y-142407795D01*
X149453333Y-142407795D02*
X149453333Y-142550652D01*
X149453333Y-142550652D02*
X149405714Y-142645890D01*
X149405714Y-142645890D02*
X149358095Y-142693509D01*
X149358095Y-142693509D02*
X149262857Y-142741128D01*
X149262857Y-142741128D02*
X148881905Y-142741128D01*
X150405714Y-143217319D02*
X149834286Y-143217319D01*
X150120000Y-143217319D02*
X150120000Y-142217319D01*
X150120000Y-142217319D02*
X150024762Y-142360176D01*
X150024762Y-142360176D02*
X149929524Y-142455414D01*
X149929524Y-142455414D02*
X149834286Y-142503033D01*
X145177200Y-123232976D02*
X145224819Y-123090119D01*
X145224819Y-123090119D02*
X145224819Y-122852024D01*
X145224819Y-122852024D02*
X145177200Y-122756786D01*
X145177200Y-122756786D02*
X145129580Y-122709167D01*
X145129580Y-122709167D02*
X145034342Y-122661548D01*
X145034342Y-122661548D02*
X144939104Y-122661548D01*
X144939104Y-122661548D02*
X144843866Y-122709167D01*
X144843866Y-122709167D02*
X144796247Y-122756786D01*
X144796247Y-122756786D02*
X144748628Y-122852024D01*
X144748628Y-122852024D02*
X144701009Y-123042500D01*
X144701009Y-123042500D02*
X144653390Y-123137738D01*
X144653390Y-123137738D02*
X144605771Y-123185357D01*
X144605771Y-123185357D02*
X144510533Y-123232976D01*
X144510533Y-123232976D02*
X144415295Y-123232976D01*
X144415295Y-123232976D02*
X144320057Y-123185357D01*
X144320057Y-123185357D02*
X144272438Y-123137738D01*
X144272438Y-123137738D02*
X144224819Y-123042500D01*
X144224819Y-123042500D02*
X144224819Y-122804405D01*
X144224819Y-122804405D02*
X144272438Y-122661548D01*
X145177200Y-121852024D02*
X145224819Y-121947262D01*
X145224819Y-121947262D02*
X145224819Y-122137738D01*
X145224819Y-122137738D02*
X145177200Y-122232976D01*
X145177200Y-122232976D02*
X145081961Y-122280595D01*
X145081961Y-122280595D02*
X144701009Y-122280595D01*
X144701009Y-122280595D02*
X144605771Y-122232976D01*
X144605771Y-122232976D02*
X144558152Y-122137738D01*
X144558152Y-122137738D02*
X144558152Y-121947262D01*
X144558152Y-121947262D02*
X144605771Y-121852024D01*
X144605771Y-121852024D02*
X144701009Y-121804405D01*
X144701009Y-121804405D02*
X144796247Y-121804405D01*
X144796247Y-121804405D02*
X144891485Y-122280595D01*
X144558152Y-121375833D02*
X145224819Y-121375833D01*
X144653390Y-121375833D02*
X144605771Y-121328214D01*
X144605771Y-121328214D02*
X144558152Y-121232976D01*
X144558152Y-121232976D02*
X144558152Y-121090119D01*
X144558152Y-121090119D02*
X144605771Y-120994881D01*
X144605771Y-120994881D02*
X144701009Y-120947262D01*
X144701009Y-120947262D02*
X145224819Y-120947262D01*
X145177200Y-120518690D02*
X145224819Y-120423452D01*
X145224819Y-120423452D02*
X145224819Y-120232976D01*
X145224819Y-120232976D02*
X145177200Y-120137738D01*
X145177200Y-120137738D02*
X145081961Y-120090119D01*
X145081961Y-120090119D02*
X145034342Y-120090119D01*
X145034342Y-120090119D02*
X144939104Y-120137738D01*
X144939104Y-120137738D02*
X144891485Y-120232976D01*
X144891485Y-120232976D02*
X144891485Y-120375833D01*
X144891485Y-120375833D02*
X144843866Y-120471071D01*
X144843866Y-120471071D02*
X144748628Y-120518690D01*
X144748628Y-120518690D02*
X144701009Y-120518690D01*
X144701009Y-120518690D02*
X144605771Y-120471071D01*
X144605771Y-120471071D02*
X144558152Y-120375833D01*
X144558152Y-120375833D02*
X144558152Y-120232976D01*
X144558152Y-120232976D02*
X144605771Y-120137738D01*
X145224819Y-119518690D02*
X145177200Y-119613928D01*
X145177200Y-119613928D02*
X145129580Y-119661547D01*
X145129580Y-119661547D02*
X145034342Y-119709166D01*
X145034342Y-119709166D02*
X144748628Y-119709166D01*
X144748628Y-119709166D02*
X144653390Y-119661547D01*
X144653390Y-119661547D02*
X144605771Y-119613928D01*
X144605771Y-119613928D02*
X144558152Y-119518690D01*
X144558152Y-119518690D02*
X144558152Y-119375833D01*
X144558152Y-119375833D02*
X144605771Y-119280595D01*
X144605771Y-119280595D02*
X144653390Y-119232976D01*
X144653390Y-119232976D02*
X144748628Y-119185357D01*
X144748628Y-119185357D02*
X145034342Y-119185357D01*
X145034342Y-119185357D02*
X145129580Y-119232976D01*
X145129580Y-119232976D02*
X145177200Y-119280595D01*
X145177200Y-119280595D02*
X145224819Y-119375833D01*
X145224819Y-119375833D02*
X145224819Y-119518690D01*
X145224819Y-118756785D02*
X144558152Y-118756785D01*
X144748628Y-118756785D02*
X144653390Y-118709166D01*
X144653390Y-118709166D02*
X144605771Y-118661547D01*
X144605771Y-118661547D02*
X144558152Y-118566309D01*
X144558152Y-118566309D02*
X144558152Y-118471071D01*
X145320057Y-118375833D02*
X145320057Y-117613928D01*
X145224819Y-116947261D02*
X144224819Y-116947261D01*
X145177200Y-116947261D02*
X145224819Y-117042499D01*
X145224819Y-117042499D02*
X145224819Y-117232975D01*
X145224819Y-117232975D02*
X145177200Y-117328213D01*
X145177200Y-117328213D02*
X145129580Y-117375832D01*
X145129580Y-117375832D02*
X145034342Y-117423451D01*
X145034342Y-117423451D02*
X144748628Y-117423451D01*
X144748628Y-117423451D02*
X144653390Y-117375832D01*
X144653390Y-117375832D02*
X144605771Y-117328213D01*
X144605771Y-117328213D02*
X144558152Y-117232975D01*
X144558152Y-117232975D02*
X144558152Y-117042499D01*
X144558152Y-117042499D02*
X144605771Y-116947261D01*
X145177200Y-116090118D02*
X145224819Y-116185356D01*
X145224819Y-116185356D02*
X145224819Y-116375832D01*
X145224819Y-116375832D02*
X145177200Y-116471070D01*
X145177200Y-116471070D02*
X145081961Y-116518689D01*
X145081961Y-116518689D02*
X144701009Y-116518689D01*
X144701009Y-116518689D02*
X144605771Y-116471070D01*
X144605771Y-116471070D02*
X144558152Y-116375832D01*
X144558152Y-116375832D02*
X144558152Y-116185356D01*
X144558152Y-116185356D02*
X144605771Y-116090118D01*
X144605771Y-116090118D02*
X144701009Y-116042499D01*
X144701009Y-116042499D02*
X144796247Y-116042499D01*
X144796247Y-116042499D02*
X144891485Y-116518689D01*
X145320057Y-115852023D02*
X145320057Y-115090118D01*
X145224819Y-114375832D02*
X145224819Y-114852022D01*
X145224819Y-114852022D02*
X144224819Y-114852022D01*
X145224819Y-113899641D02*
X145177200Y-113994879D01*
X145177200Y-113994879D02*
X145081961Y-114042498D01*
X145081961Y-114042498D02*
X144224819Y-114042498D01*
X145224819Y-113090117D02*
X144701009Y-113090117D01*
X144701009Y-113090117D02*
X144605771Y-113137736D01*
X144605771Y-113137736D02*
X144558152Y-113232974D01*
X144558152Y-113232974D02*
X144558152Y-113423450D01*
X144558152Y-113423450D02*
X144605771Y-113518688D01*
X145177200Y-113090117D02*
X145224819Y-113185355D01*
X145224819Y-113185355D02*
X145224819Y-113423450D01*
X145224819Y-113423450D02*
X145177200Y-113518688D01*
X145177200Y-113518688D02*
X145081961Y-113566307D01*
X145081961Y-113566307D02*
X144986723Y-113566307D01*
X144986723Y-113566307D02*
X144891485Y-113518688D01*
X144891485Y-113518688D02*
X144843866Y-113423450D01*
X144843866Y-113423450D02*
X144843866Y-113185355D01*
X144843866Y-113185355D02*
X144796247Y-113090117D01*
X145224819Y-112613926D02*
X144558152Y-112613926D01*
X144653390Y-112613926D02*
X144605771Y-112566307D01*
X144605771Y-112566307D02*
X144558152Y-112471069D01*
X144558152Y-112471069D02*
X144558152Y-112328212D01*
X144558152Y-112328212D02*
X144605771Y-112232974D01*
X144605771Y-112232974D02*
X144701009Y-112185355D01*
X144701009Y-112185355D02*
X145224819Y-112185355D01*
X144701009Y-112185355D02*
X144605771Y-112137736D01*
X144605771Y-112137736D02*
X144558152Y-112042498D01*
X144558152Y-112042498D02*
X144558152Y-111899641D01*
X144558152Y-111899641D02*
X144605771Y-111804402D01*
X144605771Y-111804402D02*
X144701009Y-111756783D01*
X144701009Y-111756783D02*
X145224819Y-111756783D01*
X145224819Y-110852022D02*
X144701009Y-110852022D01*
X144701009Y-110852022D02*
X144605771Y-110899641D01*
X144605771Y-110899641D02*
X144558152Y-110994879D01*
X144558152Y-110994879D02*
X144558152Y-111185355D01*
X144558152Y-111185355D02*
X144605771Y-111280593D01*
X145177200Y-110852022D02*
X145224819Y-110947260D01*
X145224819Y-110947260D02*
X145224819Y-111185355D01*
X145224819Y-111185355D02*
X145177200Y-111280593D01*
X145177200Y-111280593D02*
X145081961Y-111328212D01*
X145081961Y-111328212D02*
X144986723Y-111328212D01*
X144986723Y-111328212D02*
X144891485Y-111280593D01*
X144891485Y-111280593D02*
X144843866Y-111185355D01*
X144843866Y-111185355D02*
X144843866Y-110947260D01*
X144843866Y-110947260D02*
X144796247Y-110852022D01*
X145224819Y-109852022D02*
X145224819Y-110423450D01*
X145224819Y-110137736D02*
X144224819Y-110137736D01*
X144224819Y-110137736D02*
X144367676Y-110232974D01*
X144367676Y-110232974D02*
X144462914Y-110328212D01*
X144462914Y-110328212D02*
X144510533Y-110423450D01*
X128684819Y-107875833D02*
X129399104Y-107875833D01*
X129399104Y-107875833D02*
X129541961Y-107923452D01*
X129541961Y-107923452D02*
X129637200Y-108018690D01*
X129637200Y-108018690D02*
X129684819Y-108161547D01*
X129684819Y-108161547D02*
X129684819Y-108256785D01*
X129018152Y-106971071D02*
X129684819Y-106971071D01*
X128637200Y-107209166D02*
X129351485Y-107447261D01*
X129351485Y-107447261D02*
X129351485Y-106828214D01*
X104305290Y-123676629D02*
X105020020Y-123676629D01*
X105020020Y-123676629D02*
X105162966Y-123724278D01*
X105162966Y-123724278D02*
X105258264Y-123819575D01*
X105258264Y-123819575D02*
X105305912Y-123962521D01*
X105305912Y-123962521D02*
X105305912Y-124057819D01*
X105305912Y-122771304D02*
X104781777Y-122771304D01*
X104781777Y-122771304D02*
X104686480Y-122818953D01*
X104686480Y-122818953D02*
X104638831Y-122914250D01*
X104638831Y-122914250D02*
X104638831Y-123104845D01*
X104638831Y-123104845D02*
X104686480Y-123200142D01*
X105258264Y-122771304D02*
X105305912Y-122866602D01*
X105305912Y-122866602D02*
X105305912Y-123104845D01*
X105305912Y-123104845D02*
X105258264Y-123200142D01*
X105258264Y-123200142D02*
X105162966Y-123247791D01*
X105162966Y-123247791D02*
X105067669Y-123247791D01*
X105067669Y-123247791D02*
X104972372Y-123200142D01*
X104972372Y-123200142D02*
X104924723Y-123104845D01*
X104924723Y-123104845D02*
X104924723Y-122866602D01*
X104924723Y-122866602D02*
X104877074Y-122771304D01*
X105258264Y-121865979D02*
X105305912Y-121961277D01*
X105305912Y-121961277D02*
X105305912Y-122151871D01*
X105305912Y-122151871D02*
X105258264Y-122247169D01*
X105258264Y-122247169D02*
X105210615Y-122294817D01*
X105210615Y-122294817D02*
X105115318Y-122342466D01*
X105115318Y-122342466D02*
X104829426Y-122342466D01*
X104829426Y-122342466D02*
X104734128Y-122294817D01*
X104734128Y-122294817D02*
X104686480Y-122247169D01*
X104686480Y-122247169D02*
X104638831Y-122151871D01*
X104638831Y-122151871D02*
X104638831Y-121961277D01*
X104638831Y-121961277D02*
X104686480Y-121865979D01*
X105305912Y-121437141D02*
X104305290Y-121437141D01*
X104924723Y-121341844D02*
X105305912Y-121055952D01*
X104638831Y-121055952D02*
X105020020Y-121437141D01*
X105305912Y-120627114D02*
X104305290Y-120627114D01*
X104305290Y-120627114D02*
X104305290Y-120388871D01*
X104305290Y-120388871D02*
X104352939Y-120245925D01*
X104352939Y-120245925D02*
X104448236Y-120150628D01*
X104448236Y-120150628D02*
X104543534Y-120102979D01*
X104543534Y-120102979D02*
X104734128Y-120055330D01*
X104734128Y-120055330D02*
X104877074Y-120055330D01*
X104877074Y-120055330D02*
X105067669Y-120102979D01*
X105067669Y-120102979D02*
X105162966Y-120150628D01*
X105162966Y-120150628D02*
X105258264Y-120245925D01*
X105258264Y-120245925D02*
X105305912Y-120388871D01*
X105305912Y-120388871D02*
X105305912Y-120627114D01*
X105210615Y-119054708D02*
X105258264Y-119102357D01*
X105258264Y-119102357D02*
X105305912Y-119245303D01*
X105305912Y-119245303D02*
X105305912Y-119340600D01*
X105305912Y-119340600D02*
X105258264Y-119483546D01*
X105258264Y-119483546D02*
X105162966Y-119578844D01*
X105162966Y-119578844D02*
X105067669Y-119626492D01*
X105067669Y-119626492D02*
X104877074Y-119674141D01*
X104877074Y-119674141D02*
X104734128Y-119674141D01*
X104734128Y-119674141D02*
X104543534Y-119626492D01*
X104543534Y-119626492D02*
X104448236Y-119578844D01*
X104448236Y-119578844D02*
X104352939Y-119483546D01*
X104352939Y-119483546D02*
X104305290Y-119340600D01*
X104305290Y-119340600D02*
X104305290Y-119245303D01*
X104305290Y-119245303D02*
X104352939Y-119102357D01*
X104352939Y-119102357D02*
X104400588Y-119054708D01*
X105305912Y-118101735D02*
X105305912Y-118673519D01*
X105305912Y-118387627D02*
X104305290Y-118387627D01*
X104305290Y-118387627D02*
X104448236Y-118482924D01*
X104448236Y-118482924D02*
X104543534Y-118578222D01*
X104543534Y-118578222D02*
X104591182Y-118673519D01*
X154384819Y-92875833D02*
X155099104Y-92875833D01*
X155099104Y-92875833D02*
X155241961Y-92923452D01*
X155241961Y-92923452D02*
X155337200Y-93018690D01*
X155337200Y-93018690D02*
X155384819Y-93161547D01*
X155384819Y-93161547D02*
X155384819Y-93256785D01*
X155384819Y-91875833D02*
X155384819Y-92447261D01*
X155384819Y-92161547D02*
X154384819Y-92161547D01*
X154384819Y-92161547D02*
X154527676Y-92256785D01*
X154527676Y-92256785D02*
X154622914Y-92352023D01*
X154622914Y-92352023D02*
X154670533Y-92447261D01*
X166154819Y-85209166D02*
X166154819Y-85685356D01*
X166154819Y-85685356D02*
X165154819Y-85685356D01*
X166107200Y-84494880D02*
X166154819Y-84590118D01*
X166154819Y-84590118D02*
X166154819Y-84780594D01*
X166154819Y-84780594D02*
X166107200Y-84875832D01*
X166107200Y-84875832D02*
X166011961Y-84923451D01*
X166011961Y-84923451D02*
X165631009Y-84923451D01*
X165631009Y-84923451D02*
X165535771Y-84875832D01*
X165535771Y-84875832D02*
X165488152Y-84780594D01*
X165488152Y-84780594D02*
X165488152Y-84590118D01*
X165488152Y-84590118D02*
X165535771Y-84494880D01*
X165535771Y-84494880D02*
X165631009Y-84447261D01*
X165631009Y-84447261D02*
X165726247Y-84447261D01*
X165726247Y-84447261D02*
X165821485Y-84923451D01*
X166154819Y-83590118D02*
X165154819Y-83590118D01*
X166107200Y-83590118D02*
X166154819Y-83685356D01*
X166154819Y-83685356D02*
X166154819Y-83875832D01*
X166154819Y-83875832D02*
X166107200Y-83971070D01*
X166107200Y-83971070D02*
X166059580Y-84018689D01*
X166059580Y-84018689D02*
X165964342Y-84066308D01*
X165964342Y-84066308D02*
X165678628Y-84066308D01*
X165678628Y-84066308D02*
X165583390Y-84018689D01*
X165583390Y-84018689D02*
X165535771Y-83971070D01*
X165535771Y-83971070D02*
X165488152Y-83875832D01*
X165488152Y-83875832D02*
X165488152Y-83685356D01*
X165488152Y-83685356D02*
X165535771Y-83590118D01*
X165773866Y-83113927D02*
X165773866Y-82352023D01*
X166154819Y-81304404D02*
X165678628Y-81637737D01*
X166154819Y-81875832D02*
X165154819Y-81875832D01*
X165154819Y-81875832D02*
X165154819Y-81494880D01*
X165154819Y-81494880D02*
X165202438Y-81399642D01*
X165202438Y-81399642D02*
X165250057Y-81352023D01*
X165250057Y-81352023D02*
X165345295Y-81304404D01*
X165345295Y-81304404D02*
X165488152Y-81304404D01*
X165488152Y-81304404D02*
X165583390Y-81352023D01*
X165583390Y-81352023D02*
X165631009Y-81399642D01*
X165631009Y-81399642D02*
X165678628Y-81494880D01*
X165678628Y-81494880D02*
X165678628Y-81875832D01*
X165202438Y-80352023D02*
X165154819Y-80447261D01*
X165154819Y-80447261D02*
X165154819Y-80590118D01*
X165154819Y-80590118D02*
X165202438Y-80732975D01*
X165202438Y-80732975D02*
X165297676Y-80828213D01*
X165297676Y-80828213D02*
X165392914Y-80875832D01*
X165392914Y-80875832D02*
X165583390Y-80923451D01*
X165583390Y-80923451D02*
X165726247Y-80923451D01*
X165726247Y-80923451D02*
X165916723Y-80875832D01*
X165916723Y-80875832D02*
X166011961Y-80828213D01*
X166011961Y-80828213D02*
X166107200Y-80732975D01*
X166107200Y-80732975D02*
X166154819Y-80590118D01*
X166154819Y-80590118D02*
X166154819Y-80494880D01*
X166154819Y-80494880D02*
X166107200Y-80352023D01*
X166107200Y-80352023D02*
X166059580Y-80304404D01*
X166059580Y-80304404D02*
X165726247Y-80304404D01*
X165726247Y-80304404D02*
X165726247Y-80494880D01*
X165631009Y-79542499D02*
X165678628Y-79399642D01*
X165678628Y-79399642D02*
X165726247Y-79352023D01*
X165726247Y-79352023D02*
X165821485Y-79304404D01*
X165821485Y-79304404D02*
X165964342Y-79304404D01*
X165964342Y-79304404D02*
X166059580Y-79352023D01*
X166059580Y-79352023D02*
X166107200Y-79399642D01*
X166107200Y-79399642D02*
X166154819Y-79494880D01*
X166154819Y-79494880D02*
X166154819Y-79875832D01*
X166154819Y-79875832D02*
X165154819Y-79875832D01*
X165154819Y-79875832D02*
X165154819Y-79542499D01*
X165154819Y-79542499D02*
X165202438Y-79447261D01*
X165202438Y-79447261D02*
X165250057Y-79399642D01*
X165250057Y-79399642D02*
X165345295Y-79352023D01*
X165345295Y-79352023D02*
X165440533Y-79352023D01*
X165440533Y-79352023D02*
X165535771Y-79399642D01*
X165535771Y-79399642D02*
X165583390Y-79447261D01*
X165583390Y-79447261D02*
X165631009Y-79542499D01*
X165631009Y-79542499D02*
X165631009Y-79875832D01*
X166154819Y-78352023D02*
X166154819Y-78923451D01*
X166154819Y-78637737D02*
X165154819Y-78637737D01*
X165154819Y-78637737D02*
X165297676Y-78732975D01*
X165297676Y-78732975D02*
X165392914Y-78828213D01*
X165392914Y-78828213D02*
X165440533Y-78923451D01*
X142384819Y-119780595D02*
X141384819Y-119780595D01*
X141384819Y-119780595D02*
X141384819Y-119399643D01*
X141384819Y-119399643D02*
X141432438Y-119304405D01*
X141432438Y-119304405D02*
X141480057Y-119256786D01*
X141480057Y-119256786D02*
X141575295Y-119209167D01*
X141575295Y-119209167D02*
X141718152Y-119209167D01*
X141718152Y-119209167D02*
X141813390Y-119256786D01*
X141813390Y-119256786D02*
X141861009Y-119304405D01*
X141861009Y-119304405D02*
X141908628Y-119399643D01*
X141908628Y-119399643D02*
X141908628Y-119780595D01*
X142384819Y-118780595D02*
X141718152Y-118780595D01*
X141908628Y-118780595D02*
X141813390Y-118732976D01*
X141813390Y-118732976D02*
X141765771Y-118685357D01*
X141765771Y-118685357D02*
X141718152Y-118590119D01*
X141718152Y-118590119D02*
X141718152Y-118494881D01*
X141718152Y-117732976D02*
X142384819Y-117732976D01*
X141718152Y-118161547D02*
X142241961Y-118161547D01*
X142241961Y-118161547D02*
X142337200Y-118113928D01*
X142337200Y-118113928D02*
X142384819Y-118018690D01*
X142384819Y-118018690D02*
X142384819Y-117875833D01*
X142384819Y-117875833D02*
X142337200Y-117780595D01*
X142337200Y-117780595D02*
X142289580Y-117732976D01*
X142337200Y-116875833D02*
X142384819Y-116971071D01*
X142384819Y-116971071D02*
X142384819Y-117161547D01*
X142384819Y-117161547D02*
X142337200Y-117256785D01*
X142337200Y-117256785D02*
X142241961Y-117304404D01*
X142241961Y-117304404D02*
X141861009Y-117304404D01*
X141861009Y-117304404D02*
X141765771Y-117256785D01*
X141765771Y-117256785D02*
X141718152Y-117161547D01*
X141718152Y-117161547D02*
X141718152Y-116971071D01*
X141718152Y-116971071D02*
X141765771Y-116875833D01*
X141765771Y-116875833D02*
X141861009Y-116828214D01*
X141861009Y-116828214D02*
X141956247Y-116828214D01*
X141956247Y-116828214D02*
X142051485Y-117304404D01*
X142384819Y-116399642D02*
X141384819Y-116399642D01*
X141765771Y-116399642D02*
X141718152Y-116304404D01*
X141718152Y-116304404D02*
X141718152Y-116113928D01*
X141718152Y-116113928D02*
X141765771Y-116018690D01*
X141765771Y-116018690D02*
X141813390Y-115971071D01*
X141813390Y-115971071D02*
X141908628Y-115923452D01*
X141908628Y-115923452D02*
X142194342Y-115923452D01*
X142194342Y-115923452D02*
X142289580Y-115971071D01*
X142289580Y-115971071D02*
X142337200Y-116018690D01*
X142337200Y-116018690D02*
X142384819Y-116113928D01*
X142384819Y-116113928D02*
X142384819Y-116304404D01*
X142384819Y-116304404D02*
X142337200Y-116399642D01*
X142384819Y-115066309D02*
X141861009Y-115066309D01*
X141861009Y-115066309D02*
X141765771Y-115113928D01*
X141765771Y-115113928D02*
X141718152Y-115209166D01*
X141718152Y-115209166D02*
X141718152Y-115399642D01*
X141718152Y-115399642D02*
X141765771Y-115494880D01*
X142337200Y-115066309D02*
X142384819Y-115161547D01*
X142384819Y-115161547D02*
X142384819Y-115399642D01*
X142384819Y-115399642D02*
X142337200Y-115494880D01*
X142337200Y-115494880D02*
X142241961Y-115542499D01*
X142241961Y-115542499D02*
X142146723Y-115542499D01*
X142146723Y-115542499D02*
X142051485Y-115494880D01*
X142051485Y-115494880D02*
X142003866Y-115399642D01*
X142003866Y-115399642D02*
X142003866Y-115161547D01*
X142003866Y-115161547D02*
X141956247Y-115066309D01*
X142337200Y-114637737D02*
X142384819Y-114542499D01*
X142384819Y-114542499D02*
X142384819Y-114352023D01*
X142384819Y-114352023D02*
X142337200Y-114256785D01*
X142337200Y-114256785D02*
X142241961Y-114209166D01*
X142241961Y-114209166D02*
X142194342Y-114209166D01*
X142194342Y-114209166D02*
X142099104Y-114256785D01*
X142099104Y-114256785D02*
X142051485Y-114352023D01*
X142051485Y-114352023D02*
X142051485Y-114494880D01*
X142051485Y-114494880D02*
X142003866Y-114590118D01*
X142003866Y-114590118D02*
X141908628Y-114637737D01*
X141908628Y-114637737D02*
X141861009Y-114637737D01*
X141861009Y-114637737D02*
X141765771Y-114590118D01*
X141765771Y-114590118D02*
X141718152Y-114494880D01*
X141718152Y-114494880D02*
X141718152Y-114352023D01*
X141718152Y-114352023D02*
X141765771Y-114256785D01*
X142384819Y-113256785D02*
X142384819Y-113828213D01*
X142384819Y-113542499D02*
X141384819Y-113542499D01*
X141384819Y-113542499D02*
X141527676Y-113637737D01*
X141527676Y-113637737D02*
X141622914Y-113732975D01*
X141622914Y-113732975D02*
X141670533Y-113828213D01*
X164501412Y-136561789D02*
X164501412Y-137040567D01*
X164501412Y-137040567D02*
X163495979Y-137040567D01*
X164453535Y-136274522D02*
X164501412Y-136130889D01*
X164501412Y-136130889D02*
X164501412Y-135891500D01*
X164501412Y-135891500D02*
X164453535Y-135795745D01*
X164453535Y-135795745D02*
X164405657Y-135747867D01*
X164405657Y-135747867D02*
X164309901Y-135699989D01*
X164309901Y-135699989D02*
X164214146Y-135699989D01*
X164214146Y-135699989D02*
X164118390Y-135747867D01*
X164118390Y-135747867D02*
X164070512Y-135795745D01*
X164070512Y-135795745D02*
X164022635Y-135891500D01*
X164022635Y-135891500D02*
X163974757Y-136083011D01*
X163974757Y-136083011D02*
X163926879Y-136178767D01*
X163926879Y-136178767D02*
X163879001Y-136226645D01*
X163879001Y-136226645D02*
X163783246Y-136274522D01*
X163783246Y-136274522D02*
X163687490Y-136274522D01*
X163687490Y-136274522D02*
X163591735Y-136226645D01*
X163591735Y-136226645D02*
X163543857Y-136178767D01*
X163543857Y-136178767D02*
X163495979Y-136083011D01*
X163495979Y-136083011D02*
X163495979Y-135843623D01*
X163495979Y-135843623D02*
X163543857Y-135699989D01*
X164501412Y-134742434D02*
X164501412Y-135316967D01*
X164501412Y-135029701D02*
X163495979Y-135029701D01*
X163495979Y-135029701D02*
X163639613Y-135125456D01*
X163639613Y-135125456D02*
X163735368Y-135221212D01*
X163735368Y-135221212D02*
X163783246Y-135316967D01*
X172265568Y-130081798D02*
X172265568Y-129317902D01*
X172266429Y-144344972D02*
X172266429Y-143580068D01*
X172648881Y-143962520D02*
X171883977Y-143962520D01*
X156072380Y-118519700D02*
X156215237Y-118567319D01*
X156215237Y-118567319D02*
X156453332Y-118567319D01*
X156453332Y-118567319D02*
X156548570Y-118519700D01*
X156548570Y-118519700D02*
X156596189Y-118472080D01*
X156596189Y-118472080D02*
X156643808Y-118376842D01*
X156643808Y-118376842D02*
X156643808Y-118281604D01*
X156643808Y-118281604D02*
X156596189Y-118186366D01*
X156596189Y-118186366D02*
X156548570Y-118138747D01*
X156548570Y-118138747D02*
X156453332Y-118091128D01*
X156453332Y-118091128D02*
X156262856Y-118043509D01*
X156262856Y-118043509D02*
X156167618Y-117995890D01*
X156167618Y-117995890D02*
X156119999Y-117948271D01*
X156119999Y-117948271D02*
X156072380Y-117853033D01*
X156072380Y-117853033D02*
X156072380Y-117757795D01*
X156072380Y-117757795D02*
X156119999Y-117662557D01*
X156119999Y-117662557D02*
X156167618Y-117614938D01*
X156167618Y-117614938D02*
X156262856Y-117567319D01*
X156262856Y-117567319D02*
X156500951Y-117567319D01*
X156500951Y-117567319D02*
X156643808Y-117614938D01*
X157453332Y-118519700D02*
X157358094Y-118567319D01*
X157358094Y-118567319D02*
X157167618Y-118567319D01*
X157167618Y-118567319D02*
X157072380Y-118519700D01*
X157072380Y-118519700D02*
X157024761Y-118424461D01*
X157024761Y-118424461D02*
X157024761Y-118043509D01*
X157024761Y-118043509D02*
X157072380Y-117948271D01*
X157072380Y-117948271D02*
X157167618Y-117900652D01*
X157167618Y-117900652D02*
X157358094Y-117900652D01*
X157358094Y-117900652D02*
X157453332Y-117948271D01*
X157453332Y-117948271D02*
X157500951Y-118043509D01*
X157500951Y-118043509D02*
X157500951Y-118138747D01*
X157500951Y-118138747D02*
X157024761Y-118233985D01*
X157929523Y-117900652D02*
X157929523Y-118567319D01*
X157929523Y-117995890D02*
X157977142Y-117948271D01*
X157977142Y-117948271D02*
X158072380Y-117900652D01*
X158072380Y-117900652D02*
X158215237Y-117900652D01*
X158215237Y-117900652D02*
X158310475Y-117948271D01*
X158310475Y-117948271D02*
X158358094Y-118043509D01*
X158358094Y-118043509D02*
X158358094Y-118567319D01*
X158786666Y-118519700D02*
X158881904Y-118567319D01*
X158881904Y-118567319D02*
X159072380Y-118567319D01*
X159072380Y-118567319D02*
X159167618Y-118519700D01*
X159167618Y-118519700D02*
X159215237Y-118424461D01*
X159215237Y-118424461D02*
X159215237Y-118376842D01*
X159215237Y-118376842D02*
X159167618Y-118281604D01*
X159167618Y-118281604D02*
X159072380Y-118233985D01*
X159072380Y-118233985D02*
X158929523Y-118233985D01*
X158929523Y-118233985D02*
X158834285Y-118186366D01*
X158834285Y-118186366D02*
X158786666Y-118091128D01*
X158786666Y-118091128D02*
X158786666Y-118043509D01*
X158786666Y-118043509D02*
X158834285Y-117948271D01*
X158834285Y-117948271D02*
X158929523Y-117900652D01*
X158929523Y-117900652D02*
X159072380Y-117900652D01*
X159072380Y-117900652D02*
X159167618Y-117948271D01*
X159786666Y-118567319D02*
X159691428Y-118519700D01*
X159691428Y-118519700D02*
X159643809Y-118472080D01*
X159643809Y-118472080D02*
X159596190Y-118376842D01*
X159596190Y-118376842D02*
X159596190Y-118091128D01*
X159596190Y-118091128D02*
X159643809Y-117995890D01*
X159643809Y-117995890D02*
X159691428Y-117948271D01*
X159691428Y-117948271D02*
X159786666Y-117900652D01*
X159786666Y-117900652D02*
X159929523Y-117900652D01*
X159929523Y-117900652D02*
X160024761Y-117948271D01*
X160024761Y-117948271D02*
X160072380Y-117995890D01*
X160072380Y-117995890D02*
X160119999Y-118091128D01*
X160119999Y-118091128D02*
X160119999Y-118376842D01*
X160119999Y-118376842D02*
X160072380Y-118472080D01*
X160072380Y-118472080D02*
X160024761Y-118519700D01*
X160024761Y-118519700D02*
X159929523Y-118567319D01*
X159929523Y-118567319D02*
X159786666Y-118567319D01*
X160548571Y-118567319D02*
X160548571Y-117900652D01*
X160548571Y-118091128D02*
X160596190Y-117995890D01*
X160596190Y-117995890D02*
X160643809Y-117948271D01*
X160643809Y-117948271D02*
X160739047Y-117900652D01*
X160739047Y-117900652D02*
X160834285Y-117900652D01*
X160929524Y-118662557D02*
X161691428Y-118662557D01*
X162358095Y-118567319D02*
X162358095Y-117567319D01*
X162358095Y-118519700D02*
X162262857Y-118567319D01*
X162262857Y-118567319D02*
X162072381Y-118567319D01*
X162072381Y-118567319D02*
X161977143Y-118519700D01*
X161977143Y-118519700D02*
X161929524Y-118472080D01*
X161929524Y-118472080D02*
X161881905Y-118376842D01*
X161881905Y-118376842D02*
X161881905Y-118091128D01*
X161881905Y-118091128D02*
X161929524Y-117995890D01*
X161929524Y-117995890D02*
X161977143Y-117948271D01*
X161977143Y-117948271D02*
X162072381Y-117900652D01*
X162072381Y-117900652D02*
X162262857Y-117900652D01*
X162262857Y-117900652D02*
X162358095Y-117948271D01*
X163215238Y-118519700D02*
X163120000Y-118567319D01*
X163120000Y-118567319D02*
X162929524Y-118567319D01*
X162929524Y-118567319D02*
X162834286Y-118519700D01*
X162834286Y-118519700D02*
X162786667Y-118424461D01*
X162786667Y-118424461D02*
X162786667Y-118043509D01*
X162786667Y-118043509D02*
X162834286Y-117948271D01*
X162834286Y-117948271D02*
X162929524Y-117900652D01*
X162929524Y-117900652D02*
X163120000Y-117900652D01*
X163120000Y-117900652D02*
X163215238Y-117948271D01*
X163215238Y-117948271D02*
X163262857Y-118043509D01*
X163262857Y-118043509D02*
X163262857Y-118138747D01*
X163262857Y-118138747D02*
X162786667Y-118233985D01*
X163453334Y-118662557D02*
X164215238Y-118662557D01*
X164453334Y-118567319D02*
X164453334Y-117567319D01*
X164453334Y-118043509D02*
X165024762Y-118043509D01*
X165024762Y-118567319D02*
X165024762Y-117567319D01*
X165929524Y-117900652D02*
X165929524Y-118567319D01*
X165500953Y-117900652D02*
X165500953Y-118424461D01*
X165500953Y-118424461D02*
X165548572Y-118519700D01*
X165548572Y-118519700D02*
X165643810Y-118567319D01*
X165643810Y-118567319D02*
X165786667Y-118567319D01*
X165786667Y-118567319D02*
X165881905Y-118519700D01*
X165881905Y-118519700D02*
X165929524Y-118472080D01*
X166405715Y-118567319D02*
X166405715Y-117900652D01*
X166405715Y-117995890D02*
X166453334Y-117948271D01*
X166453334Y-117948271D02*
X166548572Y-117900652D01*
X166548572Y-117900652D02*
X166691429Y-117900652D01*
X166691429Y-117900652D02*
X166786667Y-117948271D01*
X166786667Y-117948271D02*
X166834286Y-118043509D01*
X166834286Y-118043509D02*
X166834286Y-118567319D01*
X166834286Y-118043509D02*
X166881905Y-117948271D01*
X166881905Y-117948271D02*
X166977143Y-117900652D01*
X166977143Y-117900652D02*
X167120000Y-117900652D01*
X167120000Y-117900652D02*
X167215239Y-117948271D01*
X167215239Y-117948271D02*
X167262858Y-118043509D01*
X167262858Y-118043509D02*
X167262858Y-118567319D01*
X167881905Y-118567319D02*
X167786667Y-118519700D01*
X167786667Y-118519700D02*
X167739048Y-118472080D01*
X167739048Y-118472080D02*
X167691429Y-118376842D01*
X167691429Y-118376842D02*
X167691429Y-118091128D01*
X167691429Y-118091128D02*
X167739048Y-117995890D01*
X167739048Y-117995890D02*
X167786667Y-117948271D01*
X167786667Y-117948271D02*
X167881905Y-117900652D01*
X167881905Y-117900652D02*
X168024762Y-117900652D01*
X168024762Y-117900652D02*
X168120000Y-117948271D01*
X168120000Y-117948271D02*
X168167619Y-117995890D01*
X168167619Y-117995890D02*
X168215238Y-118091128D01*
X168215238Y-118091128D02*
X168215238Y-118376842D01*
X168215238Y-118376842D02*
X168167619Y-118472080D01*
X168167619Y-118472080D02*
X168120000Y-118519700D01*
X168120000Y-118519700D02*
X168024762Y-118567319D01*
X168024762Y-118567319D02*
X167881905Y-118567319D01*
X169167619Y-118567319D02*
X168596191Y-118567319D01*
X168881905Y-118567319D02*
X168881905Y-117567319D01*
X168881905Y-117567319D02*
X168786667Y-117710176D01*
X168786667Y-117710176D02*
X168691429Y-117805414D01*
X168691429Y-117805414D02*
X168596191Y-117853033D01*
X157190475Y-87179700D02*
X157333332Y-87227319D01*
X157333332Y-87227319D02*
X157571427Y-87227319D01*
X157571427Y-87227319D02*
X157666665Y-87179700D01*
X157666665Y-87179700D02*
X157714284Y-87132080D01*
X157714284Y-87132080D02*
X157761903Y-87036842D01*
X157761903Y-87036842D02*
X157761903Y-86941604D01*
X157761903Y-86941604D02*
X157714284Y-86846366D01*
X157714284Y-86846366D02*
X157666665Y-86798747D01*
X157666665Y-86798747D02*
X157571427Y-86751128D01*
X157571427Y-86751128D02*
X157380951Y-86703509D01*
X157380951Y-86703509D02*
X157285713Y-86655890D01*
X157285713Y-86655890D02*
X157238094Y-86608271D01*
X157238094Y-86608271D02*
X157190475Y-86513033D01*
X157190475Y-86513033D02*
X157190475Y-86417795D01*
X157190475Y-86417795D02*
X157238094Y-86322557D01*
X157238094Y-86322557D02*
X157285713Y-86274938D01*
X157285713Y-86274938D02*
X157380951Y-86227319D01*
X157380951Y-86227319D02*
X157619046Y-86227319D01*
X157619046Y-86227319D02*
X157761903Y-86274938D01*
X158571427Y-87179700D02*
X158476189Y-87227319D01*
X158476189Y-87227319D02*
X158285713Y-87227319D01*
X158285713Y-87227319D02*
X158190475Y-87179700D01*
X158190475Y-87179700D02*
X158142856Y-87084461D01*
X158142856Y-87084461D02*
X158142856Y-86703509D01*
X158142856Y-86703509D02*
X158190475Y-86608271D01*
X158190475Y-86608271D02*
X158285713Y-86560652D01*
X158285713Y-86560652D02*
X158476189Y-86560652D01*
X158476189Y-86560652D02*
X158571427Y-86608271D01*
X158571427Y-86608271D02*
X158619046Y-86703509D01*
X158619046Y-86703509D02*
X158619046Y-86798747D01*
X158619046Y-86798747D02*
X158142856Y-86893985D01*
X159047618Y-86560652D02*
X159047618Y-87227319D01*
X159047618Y-86655890D02*
X159095237Y-86608271D01*
X159095237Y-86608271D02*
X159190475Y-86560652D01*
X159190475Y-86560652D02*
X159333332Y-86560652D01*
X159333332Y-86560652D02*
X159428570Y-86608271D01*
X159428570Y-86608271D02*
X159476189Y-86703509D01*
X159476189Y-86703509D02*
X159476189Y-87227319D01*
X159904761Y-87179700D02*
X159999999Y-87227319D01*
X159999999Y-87227319D02*
X160190475Y-87227319D01*
X160190475Y-87227319D02*
X160285713Y-87179700D01*
X160285713Y-87179700D02*
X160333332Y-87084461D01*
X160333332Y-87084461D02*
X160333332Y-87036842D01*
X160333332Y-87036842D02*
X160285713Y-86941604D01*
X160285713Y-86941604D02*
X160190475Y-86893985D01*
X160190475Y-86893985D02*
X160047618Y-86893985D01*
X160047618Y-86893985D02*
X159952380Y-86846366D01*
X159952380Y-86846366D02*
X159904761Y-86751128D01*
X159904761Y-86751128D02*
X159904761Y-86703509D01*
X159904761Y-86703509D02*
X159952380Y-86608271D01*
X159952380Y-86608271D02*
X160047618Y-86560652D01*
X160047618Y-86560652D02*
X160190475Y-86560652D01*
X160190475Y-86560652D02*
X160285713Y-86608271D01*
X160904761Y-87227319D02*
X160809523Y-87179700D01*
X160809523Y-87179700D02*
X160761904Y-87132080D01*
X160761904Y-87132080D02*
X160714285Y-87036842D01*
X160714285Y-87036842D02*
X160714285Y-86751128D01*
X160714285Y-86751128D02*
X160761904Y-86655890D01*
X160761904Y-86655890D02*
X160809523Y-86608271D01*
X160809523Y-86608271D02*
X160904761Y-86560652D01*
X160904761Y-86560652D02*
X161047618Y-86560652D01*
X161047618Y-86560652D02*
X161142856Y-86608271D01*
X161142856Y-86608271D02*
X161190475Y-86655890D01*
X161190475Y-86655890D02*
X161238094Y-86751128D01*
X161238094Y-86751128D02*
X161238094Y-87036842D01*
X161238094Y-87036842D02*
X161190475Y-87132080D01*
X161190475Y-87132080D02*
X161142856Y-87179700D01*
X161142856Y-87179700D02*
X161047618Y-87227319D01*
X161047618Y-87227319D02*
X160904761Y-87227319D01*
X161666666Y-87227319D02*
X161666666Y-86560652D01*
X161666666Y-86751128D02*
X161714285Y-86655890D01*
X161714285Y-86655890D02*
X161761904Y-86608271D01*
X161761904Y-86608271D02*
X161857142Y-86560652D01*
X161857142Y-86560652D02*
X161952380Y-86560652D01*
X162047619Y-87322557D02*
X162809523Y-87322557D01*
X162904762Y-86227319D02*
X163476190Y-86227319D01*
X163190476Y-87227319D02*
X163190476Y-86227319D01*
X164190476Y-87179700D02*
X164095238Y-87227319D01*
X164095238Y-87227319D02*
X163904762Y-87227319D01*
X163904762Y-87227319D02*
X163809524Y-87179700D01*
X163809524Y-87179700D02*
X163761905Y-87084461D01*
X163761905Y-87084461D02*
X163761905Y-86703509D01*
X163761905Y-86703509D02*
X163809524Y-86608271D01*
X163809524Y-86608271D02*
X163904762Y-86560652D01*
X163904762Y-86560652D02*
X164095238Y-86560652D01*
X164095238Y-86560652D02*
X164190476Y-86608271D01*
X164190476Y-86608271D02*
X164238095Y-86703509D01*
X164238095Y-86703509D02*
X164238095Y-86798747D01*
X164238095Y-86798747D02*
X163761905Y-86893985D01*
X164666667Y-87227319D02*
X164666667Y-86560652D01*
X164666667Y-86655890D02*
X164714286Y-86608271D01*
X164714286Y-86608271D02*
X164809524Y-86560652D01*
X164809524Y-86560652D02*
X164952381Y-86560652D01*
X164952381Y-86560652D02*
X165047619Y-86608271D01*
X165047619Y-86608271D02*
X165095238Y-86703509D01*
X165095238Y-86703509D02*
X165095238Y-87227319D01*
X165095238Y-86703509D02*
X165142857Y-86608271D01*
X165142857Y-86608271D02*
X165238095Y-86560652D01*
X165238095Y-86560652D02*
X165380952Y-86560652D01*
X165380952Y-86560652D02*
X165476191Y-86608271D01*
X165476191Y-86608271D02*
X165523810Y-86703509D01*
X165523810Y-86703509D02*
X165523810Y-87227319D01*
X166000000Y-86560652D02*
X166000000Y-87560652D01*
X166000000Y-86608271D02*
X166095238Y-86560652D01*
X166095238Y-86560652D02*
X166285714Y-86560652D01*
X166285714Y-86560652D02*
X166380952Y-86608271D01*
X166380952Y-86608271D02*
X166428571Y-86655890D01*
X166428571Y-86655890D02*
X166476190Y-86751128D01*
X166476190Y-86751128D02*
X166476190Y-87036842D01*
X166476190Y-87036842D02*
X166428571Y-87132080D01*
X166428571Y-87132080D02*
X166380952Y-87179700D01*
X166380952Y-87179700D02*
X166285714Y-87227319D01*
X166285714Y-87227319D02*
X166095238Y-87227319D01*
X166095238Y-87227319D02*
X166000000Y-87179700D01*
X167285714Y-87179700D02*
X167190476Y-87227319D01*
X167190476Y-87227319D02*
X167000000Y-87227319D01*
X167000000Y-87227319D02*
X166904762Y-87179700D01*
X166904762Y-87179700D02*
X166857143Y-87084461D01*
X166857143Y-87084461D02*
X166857143Y-86703509D01*
X166857143Y-86703509D02*
X166904762Y-86608271D01*
X166904762Y-86608271D02*
X167000000Y-86560652D01*
X167000000Y-86560652D02*
X167190476Y-86560652D01*
X167190476Y-86560652D02*
X167285714Y-86608271D01*
X167285714Y-86608271D02*
X167333333Y-86703509D01*
X167333333Y-86703509D02*
X167333333Y-86798747D01*
X167333333Y-86798747D02*
X166857143Y-86893985D01*
X167761905Y-87227319D02*
X167761905Y-86560652D01*
X167761905Y-86751128D02*
X167809524Y-86655890D01*
X167809524Y-86655890D02*
X167857143Y-86608271D01*
X167857143Y-86608271D02*
X167952381Y-86560652D01*
X167952381Y-86560652D02*
X168047619Y-86560652D01*
X168809524Y-87227319D02*
X168809524Y-86703509D01*
X168809524Y-86703509D02*
X168761905Y-86608271D01*
X168761905Y-86608271D02*
X168666667Y-86560652D01*
X168666667Y-86560652D02*
X168476191Y-86560652D01*
X168476191Y-86560652D02*
X168380953Y-86608271D01*
X168809524Y-87179700D02*
X168714286Y-87227319D01*
X168714286Y-87227319D02*
X168476191Y-87227319D01*
X168476191Y-87227319D02*
X168380953Y-87179700D01*
X168380953Y-87179700D02*
X168333334Y-87084461D01*
X168333334Y-87084461D02*
X168333334Y-86989223D01*
X168333334Y-86989223D02*
X168380953Y-86893985D01*
X168380953Y-86893985D02*
X168476191Y-86846366D01*
X168476191Y-86846366D02*
X168714286Y-86846366D01*
X168714286Y-86846366D02*
X168809524Y-86798747D01*
X169142858Y-86560652D02*
X169523810Y-86560652D01*
X169285715Y-86227319D02*
X169285715Y-87084461D01*
X169285715Y-87084461D02*
X169333334Y-87179700D01*
X169333334Y-87179700D02*
X169428572Y-87227319D01*
X169428572Y-87227319D02*
X169523810Y-87227319D01*
X170285715Y-86560652D02*
X170285715Y-87227319D01*
X169857144Y-86560652D02*
X169857144Y-87084461D01*
X169857144Y-87084461D02*
X169904763Y-87179700D01*
X169904763Y-87179700D02*
X170000001Y-87227319D01*
X170000001Y-87227319D02*
X170142858Y-87227319D01*
X170142858Y-87227319D02*
X170238096Y-87179700D01*
X170238096Y-87179700D02*
X170285715Y-87132080D01*
X170761906Y-87227319D02*
X170761906Y-86560652D01*
X170761906Y-86751128D02*
X170809525Y-86655890D01*
X170809525Y-86655890D02*
X170857144Y-86608271D01*
X170857144Y-86608271D02*
X170952382Y-86560652D01*
X170952382Y-86560652D02*
X171047620Y-86560652D01*
X171809525Y-87227319D02*
X171809525Y-86703509D01*
X171809525Y-86703509D02*
X171761906Y-86608271D01*
X171761906Y-86608271D02*
X171666668Y-86560652D01*
X171666668Y-86560652D02*
X171476192Y-86560652D01*
X171476192Y-86560652D02*
X171380954Y-86608271D01*
X171809525Y-87179700D02*
X171714287Y-87227319D01*
X171714287Y-87227319D02*
X171476192Y-87227319D01*
X171476192Y-87227319D02*
X171380954Y-87179700D01*
X171380954Y-87179700D02*
X171333335Y-87084461D01*
X171333335Y-87084461D02*
X171333335Y-86989223D01*
X171333335Y-86989223D02*
X171380954Y-86893985D01*
X171380954Y-86893985D02*
X171476192Y-86846366D01*
X171476192Y-86846366D02*
X171714287Y-86846366D01*
X171714287Y-86846366D02*
X171809525Y-86798747D01*
X172809525Y-87227319D02*
X172238097Y-87227319D01*
X172523811Y-87227319D02*
X172523811Y-86227319D01*
X172523811Y-86227319D02*
X172428573Y-86370176D01*
X172428573Y-86370176D02*
X172333335Y-86465414D01*
X172333335Y-86465414D02*
X172238097Y-86513033D01*
X118395180Y-134780595D02*
X117585657Y-134780595D01*
X117585657Y-134780595D02*
X117490419Y-134828214D01*
X117490419Y-134828214D02*
X117442800Y-134875833D01*
X117442800Y-134875833D02*
X117395180Y-134971071D01*
X117395180Y-134971071D02*
X117395180Y-135161547D01*
X117395180Y-135161547D02*
X117442800Y-135256785D01*
X117442800Y-135256785D02*
X117490419Y-135304404D01*
X117490419Y-135304404D02*
X117585657Y-135352023D01*
X117585657Y-135352023D02*
X118395180Y-135352023D01*
X117395180Y-136352023D02*
X117395180Y-135780595D01*
X117395180Y-136066309D02*
X118395180Y-136066309D01*
X118395180Y-136066309D02*
X118252323Y-135971071D01*
X118252323Y-135971071D02*
X118157085Y-135875833D01*
X118157085Y-135875833D02*
X118109466Y-135780595D01*
X167261905Y-128924819D02*
X167261905Y-127924819D01*
X167261905Y-127924819D02*
X167500000Y-127924819D01*
X167500000Y-127924819D02*
X167642857Y-127972438D01*
X167642857Y-127972438D02*
X167738095Y-128067676D01*
X167738095Y-128067676D02*
X167785714Y-128162914D01*
X167785714Y-128162914D02*
X167833333Y-128353390D01*
X167833333Y-128353390D02*
X167833333Y-128496247D01*
X167833333Y-128496247D02*
X167785714Y-128686723D01*
X167785714Y-128686723D02*
X167738095Y-128781961D01*
X167738095Y-128781961D02*
X167642857Y-128877200D01*
X167642857Y-128877200D02*
X167500000Y-128924819D01*
X167500000Y-128924819D02*
X167261905Y-128924819D01*
X168785714Y-128924819D02*
X168214286Y-128924819D01*
X168500000Y-128924819D02*
X168500000Y-127924819D01*
X168500000Y-127924819D02*
X168404762Y-128067676D01*
X168404762Y-128067676D02*
X168309524Y-128162914D01*
X168309524Y-128162914D02*
X168214286Y-128210533D01*
X171548095Y-128354819D02*
X171548095Y-127354819D01*
X172119523Y-128354819D02*
X171690952Y-127783390D01*
X172119523Y-127354819D02*
X171548095Y-127926247D01*
X161524761Y-138802557D02*
X161429523Y-138754938D01*
X161429523Y-138754938D02*
X161334285Y-138659700D01*
X161334285Y-138659700D02*
X161191428Y-138516842D01*
X161191428Y-138516842D02*
X161096190Y-138469223D01*
X161096190Y-138469223D02*
X161000952Y-138469223D01*
X161048571Y-138707319D02*
X160953333Y-138659700D01*
X160953333Y-138659700D02*
X160858095Y-138564461D01*
X160858095Y-138564461D02*
X160810476Y-138373985D01*
X160810476Y-138373985D02*
X160810476Y-138040652D01*
X160810476Y-138040652D02*
X160858095Y-137850176D01*
X160858095Y-137850176D02*
X160953333Y-137754938D01*
X160953333Y-137754938D02*
X161048571Y-137707319D01*
X161048571Y-137707319D02*
X161239047Y-137707319D01*
X161239047Y-137707319D02*
X161334285Y-137754938D01*
X161334285Y-137754938D02*
X161429523Y-137850176D01*
X161429523Y-137850176D02*
X161477142Y-138040652D01*
X161477142Y-138040652D02*
X161477142Y-138373985D01*
X161477142Y-138373985D02*
X161429523Y-138564461D01*
X161429523Y-138564461D02*
X161334285Y-138659700D01*
X161334285Y-138659700D02*
X161239047Y-138707319D01*
X161239047Y-138707319D02*
X161048571Y-138707319D01*
X161858095Y-137802557D02*
X161905714Y-137754938D01*
X161905714Y-137754938D02*
X162000952Y-137707319D01*
X162000952Y-137707319D02*
X162239047Y-137707319D01*
X162239047Y-137707319D02*
X162334285Y-137754938D01*
X162334285Y-137754938D02*
X162381904Y-137802557D01*
X162381904Y-137802557D02*
X162429523Y-137897795D01*
X162429523Y-137897795D02*
X162429523Y-137993033D01*
X162429523Y-137993033D02*
X162381904Y-138135890D01*
X162381904Y-138135890D02*
X161810476Y-138707319D01*
X161810476Y-138707319D02*
X162429523Y-138707319D01*
X106121009Y-105783214D02*
X106168628Y-105640357D01*
X106168628Y-105640357D02*
X106216247Y-105592738D01*
X106216247Y-105592738D02*
X106311485Y-105545119D01*
X106311485Y-105545119D02*
X106454342Y-105545119D01*
X106454342Y-105545119D02*
X106549580Y-105592738D01*
X106549580Y-105592738D02*
X106597200Y-105640357D01*
X106597200Y-105640357D02*
X106644819Y-105735595D01*
X106644819Y-105735595D02*
X106644819Y-106116547D01*
X106644819Y-106116547D02*
X105644819Y-106116547D01*
X105644819Y-106116547D02*
X105644819Y-105783214D01*
X105644819Y-105783214D02*
X105692438Y-105687976D01*
X105692438Y-105687976D02*
X105740057Y-105640357D01*
X105740057Y-105640357D02*
X105835295Y-105592738D01*
X105835295Y-105592738D02*
X105930533Y-105592738D01*
X105930533Y-105592738D02*
X106025771Y-105640357D01*
X106025771Y-105640357D02*
X106073390Y-105687976D01*
X106073390Y-105687976D02*
X106121009Y-105783214D01*
X106121009Y-105783214D02*
X106121009Y-106116547D01*
X105644819Y-105259404D02*
X105644819Y-104687976D01*
X106644819Y-104973690D02*
X105644819Y-104973690D01*
X105740057Y-104402261D02*
X105692438Y-104354642D01*
X105692438Y-104354642D02*
X105644819Y-104259404D01*
X105644819Y-104259404D02*
X105644819Y-104021309D01*
X105644819Y-104021309D02*
X105692438Y-103926071D01*
X105692438Y-103926071D02*
X105740057Y-103878452D01*
X105740057Y-103878452D02*
X105835295Y-103830833D01*
X105835295Y-103830833D02*
X105930533Y-103830833D01*
X105930533Y-103830833D02*
X106073390Y-103878452D01*
X106073390Y-103878452D02*
X106644819Y-104449880D01*
X106644819Y-104449880D02*
X106644819Y-103830833D01*
D14*
%TO.C,R1*%
X154930000Y-140042500D02*
X154240000Y-140042500D01*
X154240000Y-141762500D02*
X154240000Y-138322500D01*
X154240000Y-138322500D02*
X145000000Y-138322500D01*
X145000000Y-141762500D02*
X154240000Y-141762500D01*
X145000000Y-138322500D02*
X145000000Y-141762500D01*
X144310000Y-140042500D02*
X145000000Y-140042500D01*
%TO.C,Sensor_de_Llama1*%
X148810000Y-117872500D02*
X153950000Y-117872500D01*
X148810000Y-117872500D02*
X148810000Y-115212500D01*
X153950000Y-117872500D02*
X153950000Y-115212500D01*
X146210000Y-116542500D02*
X146210000Y-115212500D01*
X146210000Y-115212500D02*
X147540000Y-115212500D01*
X148810000Y-115212500D02*
X153950000Y-115212500D01*
%TO.C,J4*%
X133270000Y-108872500D02*
X153650000Y-108872500D01*
X133270000Y-108872500D02*
X133270000Y-106212500D01*
X153650000Y-108872500D02*
X153650000Y-106212500D01*
X130670000Y-107542500D02*
X130670000Y-106212500D01*
X130670000Y-106212500D02*
X132000000Y-106212500D01*
X133270000Y-106212500D02*
X153650000Y-106212500D01*
D15*
%TO.C,JackDC1*%
X107120000Y-109842500D02*
X116120000Y-109842500D01*
X116120000Y-109842500D02*
X116120000Y-124242500D01*
X107120000Y-124242500D02*
X107120000Y-123092500D01*
X116120000Y-124242500D02*
X114270000Y-124242500D01*
X107120000Y-117992500D02*
X107120000Y-109842500D01*
X109070000Y-124242500D02*
X107120000Y-124242500D01*
D13*
X111820000Y-125542500D02*
G75*
G02*
X111420000Y-125542500I-200000J0D01*
G01*
X111420000Y-125542500D02*
G75*
G02*
X111820000Y-125542500I200000J0D01*
G01*
D14*
%TO.C,J1*%
X150890000Y-91212500D02*
X130510000Y-91212500D01*
X150890000Y-91212500D02*
X150890000Y-93872500D01*
X130510000Y-91212500D02*
X130510000Y-93872500D01*
X153490000Y-92542500D02*
X153490000Y-93872500D01*
X153490000Y-93872500D02*
X152160000Y-93872500D01*
X150890000Y-93872500D02*
X130510000Y-93872500D01*
%TO.C,Led-RGB1*%
X160970000Y-83872500D02*
X153290000Y-83872500D01*
X163570000Y-83872500D02*
X162240000Y-83872500D01*
X163570000Y-82542500D02*
X163570000Y-83872500D01*
X153290000Y-81212500D02*
X153290000Y-83872500D01*
X160970000Y-81212500D02*
X160970000Y-83872500D01*
X160970000Y-81212500D02*
X153290000Y-81212500D01*
%TO.C,Pruebas1*%
X137890000Y-115212500D02*
X127670000Y-115212500D01*
X137890000Y-115212500D02*
X137890000Y-117872500D01*
X127670000Y-115212500D02*
X127670000Y-117872500D01*
X140490000Y-116542500D02*
X140490000Y-117872500D01*
X140490000Y-117872500D02*
X139160000Y-117872500D01*
X137890000Y-117872500D02*
X127670000Y-117872500D01*
D15*
%TO.C,LS1*%
X177620000Y-136292500D02*
G75*
G02*
X165620000Y-136292500I-6000000J0D01*
G01*
X165620000Y-136292500D02*
G75*
G02*
X177620000Y-136292500I6000000J0D01*
G01*
D14*
%TO.C,Sensor_de_Humo1*%
X163950000Y-114072500D02*
X163950000Y-106392500D01*
X163950000Y-114072500D02*
X161290000Y-114072500D01*
X163950000Y-106392500D02*
X161290000Y-106392500D01*
X162620000Y-116672500D02*
X161290000Y-116672500D01*
X161290000Y-116672500D02*
X161290000Y-115342500D01*
X161290000Y-114072500D02*
X161290000Y-106392500D01*
%TO.C,Sensor_Temperatura1*%
X163670000Y-90812500D02*
X163670000Y-101032500D01*
X163670000Y-90812500D02*
X166330000Y-90812500D01*
X163670000Y-101032500D02*
X166330000Y-101032500D01*
X165000000Y-88212500D02*
X166330000Y-88212500D01*
X166330000Y-88212500D02*
X166330000Y-89542500D01*
X166330000Y-90812500D02*
X166330000Y-101032500D01*
%TO.C,U1*%
X131320000Y-127922500D02*
X105920000Y-127922500D01*
X105920000Y-143162500D01*
X131320000Y-143162500D01*
X131320000Y-127922500D01*
%TO.C,D1*%
X170720000Y-127470000D02*
X165280000Y-127470000D01*
X170720000Y-127140000D02*
X170720000Y-127470000D01*
X170720000Y-124860000D02*
X170720000Y-124530000D01*
X170720000Y-124530000D02*
X165280000Y-124530000D01*
X169940000Y-127470000D02*
X169940000Y-124530000D01*
X169820000Y-127470000D02*
X169820000Y-124530000D01*
X169700000Y-127470000D02*
X169700000Y-124530000D01*
X165280000Y-127470000D02*
X165280000Y-127140000D01*
X165280000Y-124530000D02*
X165280000Y-124860000D01*
%TO.C,Q2*%
X159820000Y-143662500D02*
X163420000Y-143662500D01*
X159781522Y-143650978D02*
G75*
G02*
X161620000Y-139212499I1838478J1838478D01*
G01*
X161620000Y-139212500D02*
G75*
G02*
X163458478Y-143650978I0J-2600000D01*
G01*
D15*
%TO.C,BT2*%
X117620000Y-29912500D02*
X117620000Y-27912500D01*
X117620000Y-111172500D02*
X117620000Y-109172500D01*
X116620000Y-110172500D02*
X118620000Y-110172500D01*
X128110000Y-108022500D02*
X107130000Y-108022500D01*
X128110000Y-31062500D02*
X128110000Y-108022500D01*
X107130000Y-31062500D02*
X128110000Y-31062500D01*
X107130000Y-108022500D02*
X107130000Y-31062500D01*
%TD*%
M02*
