M48
; DRILL file {KiCad 9.0.0} date 2025-02-27T14:05:08-0500
; FORMAT={-:-/ absolute / metric / decimal}
; #@! TF.CreationDate,2025-02-27T14:05:08-05:00
; #@! TF.GenerationSoftware,Kicad,Pcbnew,9.0.0
; #@! TF.FileFunction,Plated,1,2,PTH
FMAT,2
METRIC
; #@! TA.AperFunction,Plated,PTH,ComponentDrill
T1C0.750
; #@! TA.AperFunction,Plated,PTH,ComponentDrill
T2C0.762
; #@! TA.AperFunction,Plated,PTH,ComponentDrill
T3C0.800
; #@! TA.AperFunction,Plated,PTH,ComponentDrill
T4C0.900
; #@! TA.AperFunction,Plated,PTH,ComponentDrill
T5C1.000
; #@! TA.AperFunction,Plated,PTH,ComponentDrill
T6C1.380
%
G90
G05
T1
X160.35Y-141.812
X161.62Y-140.542
X162.89Y-141.812
T2
X107.19Y-129.192
X107.19Y-131.732
X107.19Y-134.273
X107.19Y-136.812
X107.19Y-139.352
X107.19Y-141.892
T3
X143.27Y-140.042
X155.97Y-140.042
T4
X164.19Y-126.0
X171.62Y-133.042
X171.62Y-139.542
X171.81Y-126.0
T5
X129.0Y-116.542
X131.54Y-116.542
X131.84Y-92.542
X132.0Y-107.542
X134.08Y-116.542
X134.38Y-92.542
X134.54Y-107.542
X136.62Y-116.542
X136.92Y-92.542
X137.08Y-107.542
X139.16Y-116.542
X139.46Y-92.542
X139.62Y-107.542
X142.0Y-92.542
X142.16Y-107.542
X144.54Y-92.542
X144.7Y-107.542
X147.08Y-92.542
X147.24Y-107.542
X147.54Y-116.542
X149.62Y-92.542
X149.78Y-107.542
X150.08Y-116.542
X152.16Y-92.542
X152.32Y-107.542
X152.62Y-116.542
X154.62Y-82.542
X157.16Y-82.542
X159.7Y-82.542
X162.24Y-82.542
X162.62Y-107.722
X162.62Y-110.262
X162.62Y-112.802
X162.62Y-115.343
X165.0Y-89.542
X165.0Y-92.082
X165.0Y-94.623
X165.0Y-97.162
X165.0Y-99.703
T5
G00X106.92Y-121.542
M15
G01X106.92Y-119.542
M16
G05
G00X110.62Y-117.542
M15
G01X112.62Y-117.542
M16
G05
G00X110.37Y-123.542
M15
G01X112.87Y-123.542
M16
G05
T6
G00X117.11Y-32.942
M15
G01X118.13Y-32.942
M16
G05
G00X117.11Y-105.843
M15
G01X118.13Y-105.843
M16
G05
M30
