  0
SECTION
  2
HEADER
  9
$ACADVER
  1
AC1014
  9
$ACADMAINTVER
 70
     9
  9
$DWGCODEPAGE
  3
ANSI_1252
  9
$INSBASE
 10
0.0
 20
0.0
 30
0.0
  9
$EXTMIN
 10
20.0
 20
10.0
 30
0.0
  9
$EXTMAX
 10
297.384048
 20
200.0
 30
0.0
  9
$LIMMIN
 10
0.0
 20
0.0
  9
$LIMMAX
 10
420.0
 20
297.0
  9
$ORTHOMODE
 70
     0
  9
$REGENMODE
 70
     1
  9
$FILLMODE
 70
     1
  9
$QTEXTMODE
 70
     0
  9
$MIRRTEXT
 70
     1
  9
$DRAGMODE
 70
     2
  9
$LTSCALE
 40
12.7
  9
$OSMODE
 70
    23
  9
$ATTMODE
 70
     1
  9
$TEXTSIZE
 40
3.5
  9
$TRACEWID
 40
1.0
  9
$TEXTSTYLE
  7
ONSHAPE-STANDARD
  9
$CLAYER
  8
0
  9
$CELTYPE
  6
BYLAYER
  9
$CECOLOR
 62
   256
  9
$CELTSCALE
 40
1.0
  9
$DELOBJ
 70
     1
  9
$DISPSILH
 70
     0
  9
$DIMSCALE
 40
1.0
  9
$DIMASZ
 40
2.5
  9
$DIMEXO
 40
0.625
  9
$DIMDLI
 40
3.75
  9
$DIMRND
 40
0.0
  9
$DIMDLE
 40
0.0
  9
$DIMEXE
 40
1.25
  9
$DIMTP
 40
0.0
  9
$DIMTM
 40
0.0
  9
$DIMTXT
 40
3.5
  9
$DIMCEN
 40
2.5
  9
$DIMTSZ
 40
0.0
  9
$DIMTOL
 70
     0
  9
$DIMLIM
 70
     0
  9
$DIMTIH
 70
     0
  9
$DIMTOH
 70
     0
  9
$DIMSE1
 70
     0
  9
$DIMSE2
 70
     0
  9
$DIMTAD
 70
     1
  9
$DIMZIN
 70
     8
  9
$DIMBLK
  1

  9
$DIMASO
 70
     1
  9
$DIMSHO
 70
     1
  9
$DIMPOST
  1

  9
$DIMAPOST
  1

  9
$DIMALT
 70
     0
  9
$DIMALTD
 70
     3
  9
$DIMALTF
 40
0.03937
  9
$DIMLFAC
 40
2.0
  9
$DIMTOFL
 70
     1
  9
$DIMTVP
 40
0.0
  9
$DIMTIX
 70
     0
  9
$DIMSOXD
 70
     0
  9
$DIMSAH
 70
     0
  9
$DIMBLK1
  1

  9
$DIMBLK2
  1

  9
$DIMSTYLE
  2
ONSHAPE-ISO-25
  9
$DIMCLRD
 70
     7
  9
$DIMCLRE
 70
     7
  9
$DIMCLRT
 70
     7
  9
$DIMTFAC
 40
1.0
  9
$DIMGAP
 40
0.625
  9
$DIMJUST
 70
     0
  9
$DIMSD1
 70
     0
  9
$DIMSD2
 70
     0
  9
$DIMTOLJ
 70
     0
  9
$DIMTZIN
 70
     8
  9
$DIMALTZ
 70
     8
  9
$DIMALTTZ
 70
     0
  9
$DIMFIT
 70
     3
  9
$DIMUPT
 70
     1
  9
$DIMUNIT
 70
     2
  9
$DIMDEC
 70
     2
  9
$DIMTDEC
 70
     2
  9
$DIMALTU
 70
     2
  9
$DIMALTTD
 70
     3
  9
$DIMTXSTY
  7
ONSHAPE-STANDARD-DIMENSION
  9
$DIMAUNIT
 70
     0
  9
$LUNITS
 70
     2
  9
$LUPREC
 70
     4
  9
$SKETCHINC
 40
1.0
  9
$FILLETRAD
 40
10.0
  9
$AUNITS
 70
     0
  9
$AUPREC
 70
     0
  9
$MENU
  1
.
  9
$ELEVATION
 40
0.0
  9
$PELEVATION
 40
0.0
  9
$THICKNESS
 40
0.0
  9
$LIMCHECK
 70
     0
  9
$CHAMFERA
 40
0.0
  9
$CHAMFERB
 40
0.0
  9
$CHAMFERC
 40
0.0
  9
$CHAMFERD
 40
0.0
  9
$SKPOLY
 70
     0
  9
$TDCREATE
 40
2460738.093588172
  9
$TDUPDATE
 40
2460738.093588981
  9
$TDINDWG
 40
0.0
  9
$TDUSRTIMER
 40
0.0
  9
$USRTIMER
 70
     1
  9
$ANGBASE
 50
0.0
  9
$ANGDIR
 70
     0
  9
$PDMODE
 70
    33
  9
$PDSIZE
 40
1.0
  9
$PLINEWID
 40
0.0
  9
$COORDS
 70
     1
  9
$SPLFRAME
 70
     0
  9
$SPLINETYPE
 70
     6
  9
$SPLINESEGS
 70
     8
  9
$ATTDIA
 70
     0
  9
$ATTREQ
 70
     1
  9
$HANDLING
 70
     1
  9
$HANDSEED
  5
494
  9
$SURFTAB1
 70
     6
  9
$SURFTAB2
 70
     6
  9
$SURFTYPE
 70
     6
  9
$SURFU
 70
     6
  9
$SURFV
 70
     6
  9
$UCSNAME
  2

  9
$UCSORG
 10
0.0
 20
0.0
 30
0.0
  9
$UCSXDIR
 10
1.0
 20
0.0
 30
0.0
  9
$UCSYDIR
 10
0.0
 20
1.0
 30
0.0
  9
$PUCSNAME
  2

  9
$PUCSORG
 10
0.0
 20
0.0
 30
0.0
  9
$PUCSXDIR
 10
1.0
 20
0.0
 30
0.0
  9
$PUCSYDIR
 10
0.0
 20
1.0
 30
0.0
  9
$USERI1
 70
     0
  9
$USERI2
 70
     0
  9
$USERI3
 70
     0
  9
$USERI4
 70
     0
  9
$USERI5
 70
     0
  9
$USERR1
 40
0.0
  9
$USERR2
 40
0.0
  9
$USERR3
 40
0.0
  9
$USERR4
 40
0.0
  9
$USERR5
 40
0.0
  9
$WORLDVIEW
 70
     1
  9
$SHADEDGE
 70
     3
  9
$SHADEDIF
 70
    70
  9
$TILEMODE
 70
     1
  9
$MAXACTVP
 70
    64
  9
$PINSBASE
 10
0.0
 20
0.0
 30
0.0
  9
$PLIMCHECK
 70
     0
  9
$PEXTMIN
 10
1.000000000000000E+20
 20
1.000000000000000E+20
 30
1.000000000000000E+20
  9
$PEXTMAX
 10
-1.000000000000000E+20
 20
-1.000000000000000E+20
 30
-1.000000000000000E+20
  9
$PLIMMIN
 10
0.0
 20
0.0
  9
$PLIMMAX
 10
420.0
 20
297.0
  9
$UNITMODE
 70
     0
  9
$VISRETAIN
 70
     1
  9
$PLINEGEN
 70
     0
  9
$PSLTSCALE
 70
     1
  9
$TREEDEPTH
 70
  3020
  9
$PICKSTYLE
 70
     1
  9
$CMLSTYLE
  2
STANDARD
  9
$CMLJUST
 70
     0
  9
$CMLSCALE
 40
20.0
  9
$PROXYGRAPHICS
 70
     1
  9
$MEASUREMENT
 70
     1
  0
ENDSEC
  0
SECTION
  2
CLASSES
  0
CLASS
  1
ACDBDICTIONARYWDFLT
  2
AcDbDictionaryWithDefault
  3
ObjectDBX Classes
 90
        0
280
     0
281
     0
  0
CLASS
  1
VISUALSTYLE
  2
AcDbVisualStyle
  3
ObjectDBX Classes
 90
     4095
280
     0
281
     0
  0
CLASS
  1
MATERIAL
  2
AcDbMaterial
  3
ObjectDBX Classes
 90
     1153
280
     0
281
     0
  0
CLASS
  1
SCALE
  2
AcDbScale
  3
ObjectDBX Classes
 90
     1153
280
     0
281
     0
  0
CLASS
  1
TABLESTYLE
  2
AcDbTableStyle
  3
ObjectDBX Classes
 90
     4095
280
     0
281
     0
  0
CLASS
  1
MLEADERSTYLE
  2
AcDbMLeaderStyle
  3
ACDB_MLEADERSTYLE_CLASS
 90
     4095
280
     0
281
     0
  0
CLASS
  1
SUN
  2
AcDbSun
  3
SCENEOE
 90
     1153
280
     0
281
     0
  0
CLASS
  1
DICTIONARYVAR
  2
AcDbDictionaryVar
  3
ObjectDBX Classes
 90
        0
280
     0
281
     0
  0
CLASS
  1
FIELD
  2
AcDbField
  3
ObjectDBX Classes
 90
     1152
280
     0
281
     0
  0
CLASS
  1
FIELDLIST
  2
AcDbFieldList
  3
ObjectDBX Classes
 90
     1152
280
     0
281
     0
  0
CLASS
  1
DIMASSOC
  2
AcDbDimAssoc
  3
"AcDbDimAssoc|Product Desc:     AcDim ARX App For Dimension|Company:          Autodesk, Inc.|WEB Address:      www.autodesk.com"
 90
        0
280
     0
281
     0
  0
CLASS
  1
BREAKDATA
  2
AcDbBreakData
  3
ObjectDBX Classes
 90
     1024
280
     0
281
     0
  0
CLASS
  1
XRECORD
  2
AcDbXrecord
  3
ObjectDBX Classes
 90
        0
280
     0
281
     0
  0
CLASS
  1
LWPOLYLINE
  2
AcDbPolyline
  3
ObjectDBX Classes
 90
        0
280
     0
281
     1
  0
CLASS
  1
HATCH
  2
AcDbHatch
  3
ObjectDBX Classes
 90
        0
280
     0
281
     1
  0
CLASS
  1
ACDBPLACEHOLDER
  2
AcDbPlaceHolder
  3
ObjectDBX Classes
 90
        0
280
     0
281
     0
  0
CLASS
  1
LAYOUT
  2
AcDbLayout
  3
ObjectDBX Classes
 90
        0
280
     0
281
     0
  0
ENDSEC
  0
SECTION
  2
TABLES
  0
TABLE
  2
VPORT
  5
8
102
{ACAD_XDICTIONARY
360
489
102
}
330
0
100
AcDbSymbolTable
 70
     1
  0
VPORT
  5
29
330
8
100
AcDbSymbolTableRecord
100
AcDbViewportTableRecord
  2
*ACTIVE
 70
     0
 10
0.0
 20
0.0
 11
1.0
 21
1.0
 12
159.194944
 22
105.0
 13
0.0
 23
0.0
 14
10.0
 24
10.0
 15
10.0
 25
10.0
 16
0.0
 26
0.0
 36
1.0
 17
0.0
 27
0.0
 37
0.0
 40
193.8
 41
1.465209936842105
 42
50.0
 43
0.0
 44
0.0
 50
0.0
 51
0.0
 71
     0
 72
   100
 73
     1
 74
     3
 75
     0
 76
     0
 77
     0
 78
     0
  0
ENDTAB
  0
TABLE
  2
LTYPE
  5
5
330
0
100
AcDbSymbolTable
 70
     3
  0
LTYPE
  5
14
330
5
100
AcDbSymbolTableRecord
100
AcDbLinetypeTableRecord
  2
BYBLOCK
 70
     0
  3

 72
    65
 73
     0
 40
0.0
  0
LTYPE
  5
15
330
5
100
AcDbSymbolTableRecord
100
AcDbLinetypeTableRecord
  2
BYLAYER
 70
     0
  3

 72
    65
 73
     0
 40
0.0
  0
LTYPE
  5
16
330
5
100
AcDbSymbolTableRecord
100
AcDbLinetypeTableRecord
  2
CONTINUOUS
 70
     0
  3
Solid line
 72
    65
 73
     0
 40
0.0
  0
LTYPE
  5
234
330
5
100
AcDbSymbolTableRecord
100
AcDbLinetypeTableRecord
  2
CENTER
 70
     0
  3
Center line ____ _ ____ _ ____ _
 72
    65
 73
     4
 40
0.7874015748031495
 49
0.4921259842519685
 74
     0
 49
-0.0984251968503937
 74
     0
 49
0.0984251968503937
 74
     0
 49
-0.0984251968503937
 74
     0
  0
LTYPE
  5
39F
330
5
100
AcDbSymbolTableRecord
100
AcDbLinetypeTableRecord
  2
ONS_PHANTOM
 70
     0
  3
Onshape Phantom line ______ __ __ ______
 72
    65
 73
     6
 40
0.4999999999999999
 49
0.25
 74
     0
 49
-0.05
 74
     0
 49
0.05
 74
     0
 49
-0.05
 74
     0
 49
0.05
 74
     0
 49
-0.05
 74
     0
  0
ENDTAB
  0
TABLE
  2
LAYER
  5
2
330
0
100
AcDbSymbolTable
 70
    10
  0
LAYER
  5
10
330
2
100
AcDbSymbolTableRecord
100
AcDbLayerTableRecord
  2
0
 70
     0
 62
     7
  6
CONTINUOUS
  0
LAYER
  5
70
330
2
100
AcDbSymbolTableRecord
100
AcDbLayerTableRecord
  2
DEFPOINTS
 70
     0
 62
     7
  6
CONTINUOUS
  0
LAYER
  5
74
330
2
100
AcDbSymbolTableRecord
100
AcDbLayerTableRecord
  2
VISIBLE
 70
     0
 62
     7
  6
CONTINUOUS
  0
LAYER
  5
10B
330
2
100
AcDbSymbolTableRecord
100
AcDbLayerTableRecord
  2
DETAIL_VIEW_BORDER
 70
     0
 62
     7
  6
CONTINUOUS
  0
LAYER
  5
18D
330
2
100
AcDbSymbolTableRecord
100
AcDbLayerTableRecord
  2
BORDER_FRAME
 70
     0
 62
     7
  6
CONTINUOUS
  0
LAYER
  5
193
330
2
100
AcDbSymbolTableRecord
100
AcDbLayerTableRecord
  2
TITLE_BLOCK
 70
     0
 62
     7
  6
CONTINUOUS
  0
LAYER
  5
22E
330
2
100
AcDbSymbolTableRecord
100
AcDbLayerTableRecord
  2
ANNOTATION_TEXT
 70
     0
 62
     7
  6
CONTINUOUS
  0
LAYER
  5
233
330
2
100
AcDbSymbolTableRecord
100
AcDbLayerTableRecord
  2
CENTERMARKS
 70
     0
 62
     7
  6
CONTINUOUS
  0
LAYER
  5
39E
330
2
100
AcDbSymbolTableRecord
100
AcDbLayerTableRecord
  2
DETAIL_VIEW_PARENT_BORDER
 70
     0
 62
     7
  6
ONS_PHANTOM
  0
LAYER
  5
3A0
330
2
100
AcDbSymbolTableRecord
100
AcDbLayerTableRecord
  2
SKETCHED_GEOMETRY
 70
     0
 62
     7
  6
CONTINUOUS
  0
ENDTAB
  0
TABLE
  2
STYLE
  5
3
330
0
100
AcDbSymbolTable
 70
    36
  0
STYLE
  5
11
330
3
100
AcDbSymbolTableRecord
100
AcDbTextStyleTableRecord
  2
STANDARD
 70
     0
 40
0.0
 41
1.0
 50
0.0
 71
     0
 42
3.5
  3
txt
  4

  0
STYLE
  5
71
330
3
100
AcDbSymbolTableRecord
100
AcDbTextStyleTableRecord
  2
ONSHAPE-STANDARD
 70
     0
 40
0.0
 41
1.0
 50
0.0
 71
     0
 42
3.5
  3
NotoSans-Regular.ttf
  4

1001
ACAD
1000
Noto Sans
1071
        0
  0
STYLE
  5
73
330
3
100
AcDbSymbolTableRecord
100
AcDbTextStyleTableRecord
  2
ONSHAPE-STANDARD-DIMENSION
 70
     0
 40
0.0
 41
1.0
 50
0.0
 71
     0
 42
3.5
  3

  4

1001
ACAD
1000
Noto Sans
1071
        0
  0
STYLE
  5
1C9
330
3
100
AcDbSymbolTableRecord
100
AcDbTextStyleTableRecord
  2
ONSHAPE-STANDARD-FIELDS
 70
     0
 40
0.0
 41
1.0
 50
0.0
 71
     0
 42
3.5
  3

  4

1001
ACAD
1000
Noto Sans
1071
        0
  0
STYLE
  5
230
330
3
100
AcDbSymbolTableRecord
100
AcDbTextStyleTableRecord
  2
ONSHAPE-STANDARD-VIEW-LABE
 70
     0
 40
3.5
 41
1.0
 50
0.0
 71
     0
 42
3.5
  3
NotoSans-Regular.ttf
  4

1001
ACAD
1000
Noto Sans
1071
        0
  0
STYLE
  5
40D
330
3
100
AcDbSymbolTableRecord
100
AcDbTextStyleTableRecord
  2
ONSHAPE-STANDARD-BOLD
 70
     0
 40
0.0
 41
1.0
 50
0.0
 71
     0
 42
3.5
  3
NotoSans-Bold.ttf
  4

1001
ACAD
1000
Noto Sans
1071
 33554432
  0
STYLE
  5
40F
330
3
100
AcDbSymbolTableRecord
100
AcDbTextStyleTableRecord
  2
ONSHAPE-STANDARD-TCFIELDS
 70
     0
 40
0.0
 41
1.0
 50
0.0
 71
     0
 42
3.5
  3
NotoSansTC-Regular.otf
  4

1001
ACAD
1000
Noto Sans TC
1071
        0
  0
STYLE
  5
410
330
3
100
AcDbSymbolTableRecord
100
AcDbTextStyleTableRecord
  2
ONSHAPE-STANDARD-SCFIELDS
 70
     0
 40
0.0
 41
1.0
 50
0.0
 71
     0
 42
3.5
  3
NotoSansSC-Regular.otf
  4

1001
ACAD
1000
Noto Sans SC
1071
        0
  0
STYLE
  5
411
330
3
100
AcDbSymbolTableRecord
100
AcDbTextStyleTableRecord
  2
ONSHAPE-STANDARD-KOREANFIE
 70
     0
 40
0.0
 41
1.0
 50
0.0
 71
     0
 42
3.5
  3
NotoSansKR-Regular.otf
  4

1001
ACAD
1000
Noto Sans KR
1071
        0
  0
STYLE
  5
412
330
3
100
AcDbSymbolTableRecord
100
AcDbTextStyleTableRecord
  2
ONSHAPE-STANDARD-JAPANESEF
 70
     0
 40
0.0
 41
1.0
 50
0.0
 71
     0
 42
3.5
  3
NotoSansJP-Regular.otf
  4

1001
ACAD
1000
Noto Sans JP
1071
        0
  0
STYLE
  5
413
330
3
100
AcDbSymbolTableRecord
100
AcDbTextStyleTableRecord
  2
TTFSTYLE
 70
     0
 40
0.0
 41
1.0
 50
0.0
 71
     0
 42
3.5
  3
Verdana.ttf
  4

1001
ACAD
1000
Verdana
1071
       34
  0
STYLE
  5
414
330
3
100
AcDbSymbolTableRecord
100
AcDbTextStyleTableRecord
  2
ONSHAPE-STANDARD-GTOLERANC
 70
     0
 40
0.0
 41
1.0
 50
0.0
 71
     0
 42
3.5
  3

  4

1001
ACAD
1000
Noto Sans
1071
        0
  0
STYLE
  5
415
330
3
100
AcDbSymbolTableRecord
100
AcDbTextStyleTableRecord
  2
ONSHAPE-STANDARD-TABLE-DAT
 70
     0
 40
0.0
 41
1.0
 50
0.0
 71
     0
 42
3.5
  3
NotoSans-Regular.ttf
  4

1001
ACAD
1000
Noto Sans
1071
        0
  0
STYLE
  5
416
330
3
100
AcDbSymbolTableRecord
100
AcDbTextStyleTableRecord
  2
ONSHAPE-STANDARD-TABLE-TIT
 70
     0
 40
0.0
 41
1.0
 50
0.0
 71
     0
 42
3.5
  3
NotoSans-Bold.ttf
  4

1001
ACAD
1000
Noto Sans
1071
 33554432
  0
STYLE
  5
417
330
3
100
AcDbSymbolTableRecord
100
AcDbTextStyleTableRecord
  2
ONSHAPE-STANDARD-TABLE-HEA
 70
     0
 40
0.0
 41
1.0
 50
0.0
 71
     0
 42
3.5
  3
NotoSans-Bold.ttf
  4

1001
ACAD
1000
Noto Sans
1071
 33554432
  0
STYLE
  5
418
330
3
100
AcDbSymbolTableRecord
100
AcDbTextStyleTableRecord
  2
ONSHAPE-STANDARD-BOMTABLE-
 70
     0
 40
0.0
 41
1.0
 50
0.0
 71
     0
 42
3.5
  3
NotoSans-Regular.ttf
  4

1001
ACAD
1000
Noto Sans
1071
        0
  0
STYLE
  5
419
330
3
100
AcDbSymbolTableRecord
100
AcDbTextStyleTableRecord
  2
ONSHAPE-STANDARD-BOMTABLE0
 70
     0
 40
0.0
 41
1.0
 50
0.0
 71
     0
 42
3.5
  3
NotoSans-Bold.ttf
  4

1001
ACAD
1000
Noto Sans
1071
 33554432
  0
STYLE
  5
41A
330
3
100
AcDbSymbolTableRecord
100
AcDbTextStyleTableRecord
  2
ONSHAPE-STANDARD-BOMTABLE1
 70
     0
 40
0.0
 41
1.0
 50
0.0
 71
     0
 42
3.5
  3
NotoSans-Bold.ttf
  4

1001
ACAD
1000
Noto Sans
1071
 33554432
  0
STYLE
  5
41B
330
3
100
AcDbSymbolTableRecord
100
AcDbTextStyleTableRecord
  2
ONSHAPE-STANDARD-NOTESTYLE
 70
     0
 40
3.5
 41
1.0
 50
0.0
 71
     0
 42
3.5
  3
Noto Sans
  4

1001
ACAD
1000
Noto Sans
1071
        0
  0
STYLE
  5
41C
330
3
100
AcDbSymbolTableRecord
100
AcDbTextStyleTableRecord
  2
ONSHAPE-STANDARD-DATUM-DIM
 70
     0
 40
3.5
 41
1.0
 50
0.0
 71
     0
 42
3.5
  3
Noto Sans
  4

1001
ACAD
1000
Noto Sans
1071
        0
  0
STYLE
  5
41D
330
3
100
AcDbSymbolTableRecord
100
AcDbTextStyleTableRecord
  2
ONSHAPE-DETAIL-VIEW-LEADER
 70
     0
 40
3.5
 41
1.0
 50
0.0
 71
     0
 42
3.5
  3
Noto Sans
  4

1001
ACAD
1000
Noto Sans
1071
        0
  0
STYLE
  5
41E
330
3
100
AcDbSymbolTableRecord
100
AcDbTextStyleTableRecord
  2
ONSHAPE-STANDARD-HOLE-CALL
 70
     0
 40
3.5
 41
1.0
 50
0.0
 71
     0
 42
3.5
  3
Noto Sans
  4

1001
ACAD
1000
Noto Sans
1071
        0
  0
STYLE
  5
41F
330
3
100
AcDbSymbolTableRecord
100
AcDbTextStyleTableRecord
  2
ONSHAPE-STANDARD-HOLETABLE
 70
     0
 40
0.0
 41
1.0
 50
0.0
 71
     0
 42
3.5
  3
NotoSans-Regular.ttf
  4

1001
ACAD
1000
Noto Sans
1071
        0
  0
STYLE
  5
420
330
3
100
AcDbSymbolTableRecord
100
AcDbTextStyleTableRecord
  2
ONSHAPE-STANDARD-HOLETABL0
 70
     0
 40
0.0
 41
1.0
 50
0.0
 71
     0
 42
3.5
  3
NotoSans-Bold.ttf
  4

1001
ACAD
1000
Noto Sans
1071
 33554432
  0
STYLE
  5
421
330
3
100
AcDbSymbolTableRecord
100
AcDbTextStyleTableRecord
  2
ONSHAPE-STANDARD-HOLETABL1
 70
     0
 40
0.0
 41
1.0
 50
0.0
 71
     0
 42
3.5
  3
NotoSans-Bold.ttf
  4

1001
ACAD
1000
Noto Sans
1071
 33554432
  0
STYLE
  5
422
330
3
100
AcDbSymbolTableRecord
100
AcDbTextStyleTableRecord
  2
ONSHAPE-STANDARD-HOLE-TAG
 70
     0
 40
3.5
 41
1.0
 50
0.0
 71
     0
 42
3.5
  3
Noto Sans
  4

1001
ACAD
1000
Noto Sans
1071
        0
  0
STYLE
  5
423
330
3
100
AcDbSymbolTableRecord
100
AcDbTextStyleTableRecord
  2
ONSHAPE-STANDARD-REVISIONT
 70
     0
 40
0.0
 41
1.0
 50
0.0
 71
     0
 42
3.5
  3
NotoSans-Regular.ttf
  4

1001
ACAD
1000
Noto Sans
1071
        0
  0
STYLE
  5
424
330
3
100
AcDbSymbolTableRecord
100
AcDbTextStyleTableRecord
  2
ONSHAPE-STANDARD-REVISION0
 70
     0
 40
0.0
 41
1.0
 50
0.0
 71
     0
 42
3.5
  3
NotoSans-Bold.ttf
  4

1001
ACAD
1000
Noto Sans
1071
 33554432
  0
STYLE
  5
425
330
3
100
AcDbSymbolTableRecord
100
AcDbTextStyleTableRecord
  2
ONSHAPE-STANDARD-REVISION1
 70
     0
 40
0.0
 41
1.0
 50
0.0
 71
     0
 42
3.5
  3
NotoSans-Bold.ttf
  4

1001
ACAD
1000
Noto Sans
1071
 33554432
  0
STYLE
  5
426
330
3
100
AcDbSymbolTableRecord
100
AcDbTextStyleTableRecord
  2
ONSHAPE-STANDARD-REVISION-
 70
     0
 40
3.5
 41
1.0
 50
0.0
 71
     0
 42
3.5
  3
Noto Sans
  4

1001
ACAD
1000
Noto Sans
1071
        0
  0
STYLE
  5
427
330
3
100
AcDbSymbolTableRecord
100
AcDbTextStyleTableRecord
  2
ONSHAPE-STANDARD-CUTLISTTA
 70
     0
 40
0.0
 41
1.0
 50
0.0
 71
     0
 42
3.5
  3
NotoSans-Regular.ttf
  4

1001
ACAD
1000
Noto Sans
1071
        0
  0
STYLE
  5
428
330
3
100
AcDbSymbolTableRecord
100
AcDbTextStyleTableRecord
  2
ONSHAPE-STANDARD-CUTLISTT0
 70
     0
 40
0.0
 41
1.0
 50
0.0
 71
     0
 42
3.5
  3
NotoSans-Bold.ttf
  4

1001
ACAD
1000
Noto Sans
1071
 33554432
  0
STYLE
  5
429
330
3
100
AcDbSymbolTableRecord
100
AcDbTextStyleTableRecord
  2
ONSHAPE-STANDARD-CUTLISTT1
 70
     0
 40
0.0
 41
1.0
 50
0.0
 71
     0
 42
3.5
  3
NotoSans-Bold.ttf
  4

1001
ACAD
1000
Noto Sans
1071
 33554432
  0
STYLE
  5
42A
330
3
100
AcDbSymbolTableRecord
100
AcDbTextStyleTableRecord
  2
ONSHAPE-STANDARD-CUSTOMTAB
 70
     0
 40
0.0
 41
1.0
 50
0.0
 71
     0
 42
3.5
  3
NotoSans-Regular.ttf
  4

1001
ACAD
1000
Noto Sans
1071
        0
  0
STYLE
  5
42B
330
3
100
AcDbSymbolTableRecord
100
AcDbTextStyleTableRecord
  2
ONSHAPE-STANDARD-CUSTOMTA0
 70
     0
 40
0.0
 41
1.0
 50
0.0
 71
     0
 42
3.5
  3
NotoSans-Bold.ttf
  4

1001
ACAD
1000
Noto Sans
1071
 33554432
  0
STYLE
  5
42C
330
3
100
AcDbSymbolTableRecord
100
AcDbTextStyleTableRecord
  2
ONSHAPE-STANDARD-CUSTOMTA1
 70
     0
 40
0.0
 41
1.0
 50
0.0
 71
     0
 42
3.5
  3
NotoSans-Bold.ttf
  4

1001
ACAD
1000
Noto Sans
1071
 33554432
  0
ENDTAB
  0
TABLE
  2
VIEW
  5
6
330
0
100
AcDbSymbolTable
 70
     0
  0
ENDTAB
  0
TABLE
  2
UCS
  5
7
330
0
100
AcDbSymbolTable
 70
     0
  0
ENDTAB
  0
TABLE
  2
APPID
  5
9
330
0
100
AcDbSymbolTable
 70
     9
  0
APPID
  5
12
330
9
100
AcDbSymbolTableRecord
100
AcDbRegAppTableRecord
  2
ACAD
 70
     0
  0
APPID
  5
232
330
9
100
AcDbSymbolTableRecord
100
AcDbRegAppTableRecord
  2
ONSHAPE_NOTES_ANNOTATION_D
 70
     0
  0
APPID
  5
2D6
330
9
100
AcDbSymbolTableRecord
100
AcDbRegAppTableRecord
  2
ACAD_DIMASSOC_CALC_DIMLFAC
 70
     0
  0
APPID
  5
2D7
330
9
100
AcDbSymbolTableRecord
100
AcDbRegAppTableRecord
  2
ACAD_DIMASSOC_DIMLFAC
 70
     0
  0
APPID
  5
2D8
330
9
100
AcDbSymbolTableRecord
100
AcDbRegAppTableRecord
  2
ACAD_DIMASSOC_OVERRIDDEN_D
 70
     0
  0
APPID
  5
2D9
330
9
100
AcDbSymbolTableRecord
100
AcDbRegAppTableRecord
  2
ONSHAPE_DIMENSION_ON_CENTE
 70
     0
  0
APPID
  5
2C9
330
9
100
AcDbSymbolTableRecord
100
AcDbRegAppTableRecord
  2
INDEX
 70
     0
  0
APPID
  5
315
330
9
100
AcDbSymbolTableRecord
100
AcDbRegAppTableRecord
  2
ONSHAPE_DIMENSION_ON_CENT0
 70
     0
  0
APPID
  5
493
330
9
100
AcDbSymbolTableRecord
100
AcDbRegAppTableRecord
  2
ACAD_MLEADERVER
 70
     0
  0
ENDTAB
  0
TABLE
  2
DIMSTYLE
  5
A
330
0
100
AcDbSymbolTable
 70
    22
  0
DIMSTYLE
105
27
330
A
100
AcDbSymbolTableRecord
100
AcDbDimStyleTableRecord
  2
ISO-25
 70
     0
  3

  4

  5

  6

  7

 40
1.0
 41
2.5
 42
0.625
 43
3.75
 44
1.25
 45
0.0
 46
0.0
 47
0.0
 48
0.0
140
2.5
141
2.5
142
0.0
143
0.03937007874016
144
1.0
145
0.0
146
1.0
147
0.625
 71
     0
 72
     0
 73
     0
 74
     0
 75
     0
 76
     0
 77
     1
 78
     8
170
     0
171
     3
172
     1
173
     0
174
     0
175
     0
176
     0
177
     0
178
     0
270
     2
271
     2
272
     2
273
     2
274
     3
340
11
275
     0
280
     0
281
     0
282
     0
283
     0
284
     8
285
     0
286
     0
287
     3
288
     0
  0
DIMSTYLE
105
72
330
A
100
AcDbSymbolTableRecord
100
AcDbDimStyleTableRecord
  2
ONSHAPE-ISO-25
 70
     0
  3

  4

  5

  6

  7

 40
1.0
 41
2.5
 42
0.625
 43
3.75
 44
1.25
 45
0.0
 46
0.0
 47
0.0
 48
0.0
140
3.5
141
2.5
142
0.0
143
0.03937
144
1.0
145
0.0
146
1.0
147
0.625
 71
     0
 72
     0
 73
     0
 74
     0
 75
     0
 76
     0
 77
     1
 78
     8
170
     0
171
     3
172
     1
173
     0
174
     0
175
     0
176
     7
177
     7
178
     7
179
     1
270
     2
271
     2
272
     2
273
     2
274
     3
340
73
275
     0
280
     0
281
     0
282
     0
283
     0
284
     8
285
     8
286
     0
287
     3
288
     1
  0
DIMSTYLE
105
2C4
102
{ACAD_REACTORS
330
2BB
330
2DA
330
2ED
330
300
330
316
330
329
330
33C
330
351
330
364
330
377
330
38C
330
3AE
330
3C6
330
3D9
330
3EC
102
}
330
A
100
AcDbSymbolTableRecord
100
AcDbDimStyleTableRecord
  2
ONSHAPE-ISO-25$0
 70
     0
  3

  4

  5

  6

  7

 40
1.0
 41
2.5
 42
0.625
 43
3.75
 44
1.25
 45
0.0
 46
0.0
 47
0.0
 48
0.0
140
3.5
141
2.5
142
0.0
143
0.03937
144
1.0
145
0.0
146
1.0
147
0.625
 71
     0
 72
     0
 73
     0
 74
     0
 75
     0
 76
     0
 77
     1
 78
     8
170
     0
171
     3
172
     1
173
     0
174
     0
175
     0
176
     7
177
     7
178
     7
179
     1
270
     2
271
     2
272
     2
273
     2
274
     3
340
73
275
     0
280
     0
281
     0
282
     0
283
     0
284
     8
285
     8
286
     0
287
     3
288
     1
  0
DIMSTYLE
105
42F
330
A
100
AcDbSymbolTableRecord
100
AcDbDimStyleTableRecord
  2
ISO
 70
     0
  3

  4
"
  5

  6

  7

 40
1.0
 41
3.5
 42
1.0
 43
10.0
 44
1.0
 45
0.0
 46
0.0
 47
0.1
 48
0.1
140
3.5
141
0.0
142
0.0
143
0.03937
144
1.0
145
0.0
146
0.71
147
1.5
 71
     0
 72
     0
 73
     0
 74
     0
 75
     0
 76
     0
 77
     1
 78
     8
170
     0
171
     3
172
     1
173
     0
174
     0
175
     0
176
     7
177
     7
178
     7
270
     2
271
     2
272
     3
273
     2
274
     3
340
11
275
     0
280
     0
281
     0
282
     0
283
     0
284
     8
285
     8
286
     0
287
     3
288
     1
  0
DIMSTYLE
105
430
330
A
100
AcDbSymbolTableRecord
100
AcDbDimStyleTableRecord
  2
ISO$3
 70
     0
  3

  4
"
  5

  6

  7

 40
1.0
 41
3.5
 42
1.0
 43
10.0
 44
1.0
 45
0.0
 46
0.0
 47
0.1
 48
0.1
140
3.5
141
0.0
142
0.0
143
0.03937
144
1.0
145
0.0
146
0.71
147
1.5
 71
     0
 72
     0
 73
     0
 74
     1
 75
     0
 76
     0
 77
     1
 78
     8
170
     0
171
     3
172
     0
173
     0
174
     0
175
     0
176
     7
177
     7
178
     7
270
     2
271
     2
272
     3
273
     2
274
     3
340
11
275
     0
280
     0
281
     0
282
     0
283
     0
284
     8
285
     8
286
     0
288
     1
  0
DIMSTYLE
105
431
330
A
100
AcDbSymbolTableRecord
100
AcDbDimStyleTableRecord
  2
ISO$4
 70
     0
  3

  4
"
  5

  6

  7

 40
1.0
 41
3.5
 42
1.0
 43
10.0
 44
1.0
 45
0.0
 46
0.0
 47
0.1
 48
0.1
140
3.5
141
0.0
142
0.0
143
0.03937
144
1.0
145
0.0
146
0.71
147
1.5
 71
     0
 72
     0
 73
     0
 74
     0
 75
     0
 76
     0
 77
     1
 78
     8
170
     0
171
     3
172
     1
173
     0
174
     0
175
     0
176
     7
177
     7
178
     7
270
     2
271
     2
272
     3
273
     2
274
     3
340
11
275
     0
280
     0
281
     0
282
     0
283
     0
284
     8
285
     8
286
     0
287
     3
288
     1
  0
DIMSTYLE
105
432
330
A
100
AcDbSymbolTableRecord
100
AcDbDimStyleTableRecord
  2
ISO$6
 70
     0
  3

  4
"
  5

  6

  7

 40
1.0
 41
0.5
 42
1.0
 43
10.0
 44
1.0
 45
0.0
 46
0.0
 47
0.1
 48
0.1
140
3.5
141
0.0
142
0.0
143
0.03937
144
1.0
145
0.0
146
0.71
147
1.5
 71
     0
 72
     0
 73
     0
 74
     0
 75
     0
 76
     0
 77
     0
 78
     8
170
     0
171
     3
172
     1
173
     0
174
     0
175
     0
176
     7
177
     7
178
     7
270
     2
271
     2
272
     3
273
     2
274
     3
340
11
275
     0
280
     0
281
     0
282
     0
283
     0
284
     8
285
     8
286
     0
287
     3
288
     1
  0
DIMSTYLE
105
433
330
A
100
AcDbSymbolTableRecord
100
AcDbDimStyleTableRecord
  2
ISO$7
 70
     0
  3

  4
"
  5

  6

  7

 40
1.0
 41
3.5
 42
1.0
 43
10.0
 44
1.0
 45
0.0
 46
0.0
 47
0.1
 48
0.1
140
3.5
141
0.0
142
0.0
143
0.03937
144
1.0
145
0.0
146
0.71
147
1.5
 71
     0
 72
     0
 73
     0
 74
     0
 75
     0
 76
     0
 77
     1
 78
     8
170
     0
171
     3
172
     1
173
     0
174
     0
175
     0
176
     7
177
     7
178
     7
270
     2
271
     2
272
     3
273
     2
274
     3
340
11
275
     0
280
     0
281
     0
282
     0
283
     0
284
     8
285
     8
286
     0
287
     3
288
     1
  0
DIMSTYLE
105
434
330
A
100
AcDbSymbolTableRecord
100
AcDbDimStyleTableRecord
  2
ISO$SF
 70
     0
  3

  4
"
  5

  6

  7

 40
1.0
 41
3.5
 42
1.0
 43
10.0
 44
1.0
 45
0.0
 46
0.0
 47
0.1
 48
0.1
140
3.5
141
0.0
142
0.0
143
0.03937
144
1.0
145
0.0
146
0.71
147
1.5
 71
     0
 72
     0
 73
     0
 74
     0
 75
     1
 76
     1
 77
     1
 78
     8
170
     0
171
     3
172
     1
173
     0
174
     0
175
     0
176
     7
177
     7
178
     7
270
     2
271
     2
272
     3
273
     2
274
     3
340
11
275
     0
280
     0
281
     0
282
     0
283
     0
284
     8
285
     8
286
     0
287
     3
288
     1
  0
DIMSTYLE
105
435
330
A
100
AcDbSymbolTableRecord
100
AcDbDimStyleTableRecord
  2
ISO$SH
 70
     0
  3

  4
"
  5

  6

  7

 40
1.0
 41
3.5
 42
1.0
 43
10.0
 44
1.0
 45
0.0
 46
0.0
 47
0.1
 48
0.1
140
3.5
141
0.0
142
0.0
143
0.03937
144
2.0
145
0.0
146
0.71
147
1.5
 71
     0
 72
     0
 73
     0
 74
     0
 75
     1
 76
     1
 77
     1
 78
     8
170
     0
171
     3
172
     1
173
     1
174
     0
175
     0
176
     7
177
     7
178
     7
270
     2
271
     2
272
     3
273
     2
274
     3
340
11
275
     0
280
     0
281
     0
282
     0
283
     0
284
     8
285
     8
286
     0
287
     3
288
     1
  0
DIMSTYLE
105
437
330
A
100
AcDbSymbolTableRecord
100
AcDbDimStyleTableRecord
  2
ONSHAPE-ISO-25$2
 70
     0
  3

  4

  5

  6

  7

 40
1.0
 41
2.5
 42
0.625
 43
3.75
 44
1.25
 45
0.0
 46
0.0
 47
0.0
 48
0.0
140
3.5
141
2.5
142
0.0
143
0.03937
144
1.0
145
0.0
146
1.0
147
0.625
 71
     0
 72
     0
 73
     0
 74
     0
 75
     0
 76
     0
 77
     1
 78
     8
170
     0
171
     3
172
     1
173
     0
174
     0
175
     0
176
     7
177
     7
178
     7
179
     1
270
     2
271
     2
272
     2
273
     2
274
     3
340
73
275
     0
280
     0
281
     0
282
     0
283
     0
284
     8
285
     8
286
     0
287
     3
288
     1
  0
DIMSTYLE
105
438
330
A
100
AcDbSymbolTableRecord
100
AcDbDimStyleTableRecord
  2
ONSHAPE-ISO-25$3
 70
     0
  3

  4

  5

  6

  7

 40
1.0
 41
2.5
 42
0.625
 43
3.75
 44
1.25
 45
0.0
 46
0.0
 47
0.0
 48
0.0
140
3.5
141
0.0
142
0.0
143
0.03937
144
1.0
145
0.0
146
1.0
147
0.625
 71
     0
 72
     0
 73
     0
 74
     0
 75
     0
 76
     0
 77
     1
 78
     8
170
     0
171
     3
172
     1
173
     0
174
     0
175
     0
176
     7
177
     7
178
     7
179
     1
270
     2
271
     2
272
     2
273
     2
274
     3
340
73
275
     0
280
     0
281
     0
282
     0
283
     0
284
     8
285
     8
286
     0
287
     3
288
     1
  0
DIMSTYLE
105
439
330
A
100
AcDbSymbolTableRecord
100
AcDbDimStyleTableRecord
  2
ONSHAPE-ISO-25$4
 70
     0
  3

  4

  5

  6

  7

 40
1.0
 41
2.5
 42
0.625
 43
3.75
 44
1.25
 45
0.0
 46
0.0
 47
0.0
 48
0.0
140
3.5
141
0.0
142
0.0
143
0.03937
144
1.0
145
0.0
146
1.0
147
0.625
 71
     0
 72
     0
 73
     0
 74
     0
 75
     0
 76
     0
 77
     1
 78
     8
170
     0
171
     3
172
     1
173
     0
174
     0
175
     0
176
     7
177
     7
178
     7
179
     1
270
     2
271
     2
272
     2
273
     2
274
     3
340
73
275
     0
280
     0
281
     0
282
     0
283
     0
284
     8
285
     8
286
     0
287
     3
288
     1
  0
DIMSTYLE
105
43A
330
A
100
AcDbSymbolTableRecord
100
AcDbDimStyleTableRecord
  2
ONSHAPE-ISO-25$6
 70
     0
  3

  4

  5

  6

  7

 40
1.0
 41
0.5
 42
0.625
 43
3.75
 44
1.25
 45
0.0
 46
0.0
 47
0.0
 48
0.0
140
3.5
141
2.5
142
0.0
143
0.03937
144
1.0
145
0.0
146
1.0
147
0.625
 71
     0
 72
     0
 73
     0
 74
     0
 75
     0
 76
     0
 77
     1
 78
     8
170
     0
171
     3
172
     1
173
     0
174
     0
175
     0
176
     7
177
     7
178
     7
179
     1
270
     2
271
     2
272
     2
273
     2
274
     3
340
73
275
     0
280
     0
281
     0
282
     0
283
     0
284
     8
285
     8
286
     0
287
     3
288
     1
  0
DIMSTYLE
105
43B
330
A
100
AcDbSymbolTableRecord
100
AcDbDimStyleTableRecord
  2
ONSHAPE-ISO-25$7
 70
     0
  3

  4

  5

  6

  7

 40
1.0
 41
2.5
 42
0.625
 43
3.75
 44
1.25
 45
0.0
 46
0.0
 47
0.0
 48
0.0
140
3.5
141
2.5
142
0.0
143
0.03937
144
1.0
145
0.0
146
1.0
147
0.625
 71
     0
 72
     0
 73
     0
 74
     0
 75
     0
 76
     0
 77
     1
 78
     8
170
     0
171
     3
172
     1
173
     0
174
     0
175
     0
176
     7
177
     7
178
     7
179
     1
270
     2
271
     2
272
     2
273
     2
274
     3
340
73
275
     0
280
     0
281
     0
282
     0
283
     0
284
     8
285
     8
286
     0
287
     3
288
     1
  0
DIMSTYLE
105
43C
330
A
100
AcDbSymbolTableRecord
100
AcDbDimStyleTableRecord
  2
ONSHAPE-STANDARD-GTOLERANC
 70
     0
  3

  4

  5

  6

  7

 40
1.0
 41
2.5
 42
0.625
 43
3.75
 44
1.25
 45
0.0
 46
0.0
 47
0.0
 48
0.0
140
3.5
141
2.5
142
0.0
143
0.03937
144
1.0
145
0.0
146
1.0
147
0.625
 71
     0
 72
     0
 73
     0
 74
     0
 75
     0
 76
     0
 77
     1
 78
     8
170
     0
171
     3
172
     1
173
     0
174
     0
175
     0
176
     7
177
     7
178
     7
179
     1
270
     2
271
     2
272
     2
273
     2
274
     3
340
414
275
     0
280
     0
281
     0
282
     0
283
     0
284
     8
285
     8
286
     0
287
     3
288
     1
  0
DIMSTYLE
105
43E
330
A
100
AcDbSymbolTableRecord
100
AcDbDimStyleTableRecord
  2
ONSHAPE-ORDINATESTYLE
 70
     0
  3

  4

  5

  6

  7

 40
1.0
 41
2.5
 42
0.625
 43
3.75
 44
1.25
 45
0.0
 46
0.0
 47
0.0
 48
0.0
140
3.5
141
2.5
142
0.0
143
0.03937
144
1.0
145
0.0
146
1.0
147
0.625
 71
     0
 72
     0
 73
     0
 74
     0
 75
     0
 76
     0
 77
     1
 78
     8
170
     0
171
     3
172
     1
173
     0
174
     0
175
     0
176
     7
177
     7
178
     7
179
     1
270
     2
271
     2
272
     2
273
     2
274
     3
340
73
275
     0
280
     0
281
     0
282
     0
283
     0
284
     8
285
     8
286
     0
287
     3
288
     1
  0
DIMSTYLE
105
43F
330
A
100
AcDbSymbolTableRecord
100
AcDbDimStyleTableRecord
  2
ONSHAPE-CHAMFERDIMSTYLE
 70
     0
  3

  4

  5

  6

  7

 40
1.0
 41
2.5
 42
0.625
 43
3.75
 44
1.25
 45
0.0
 46
0.0
 47
0.0
 48
0.0
140
3.5
141
2.5
142
0.0
143
0.03937
144
1.0
145
0.0
146
1.0
147
0.625
 71
     0
 72
     0
 73
     0
 74
     0
 75
     0
 76
     0
 77
     1
 78
     8
170
     0
171
     3
172
     1
173
     0
174
     0
175
     0
176
     7
177
     7
178
     7
179
     1
270
     2
271
     2
272
     2
273
     2
274
     3
340
73
275
     0
280
     0
281
     0
282
     0
283
     0
284
     8
285
     8
286
     0
287
     3
288
     1
  0
DIMSTYLE
105
440
330
A
100
AcDbSymbolTableRecord
100
AcDbDimStyleTableRecord
  2
ONSHAPE-SKETCHDRIVENDIMSTY
 70
     0
  3

  4

  5

  6

  7

 40
1.0
 41
2.5
 42
0.625
 43
3.75
 44
1.25
 45
0.0
 46
0.0
 47
0.0
 48
0.0
140
3.5
141
2.5
142
0.0
143
0.03937
144
1.0
145
0.0
146
1.0
147
0.625
 71
     0
 72
     0
 73
     0
 74
     0
 75
     0
 76
     0
 77
     1
 78
     8
170
     0
171
     3
172
     1
173
     0
174
     0
175
     0
176
   251
177
   251
178
   251
179
     1
270
     2
271
     2
272
     2
273
     2
274
     3
340
73
275
     0
280
     0
281
     0
282
     0
283
     0
284
     8
285
     8
286
     0
287
     3
288
     1
  0
DIMSTYLE
105
441
330
A
100
AcDbSymbolTableRecord
100
AcDbDimStyleTableRecord
  2
ONSHAPE-SKETCHDRIVENDIMST0
 70
     0
  3

  4

  5

  6

  7

 40
1.0
 41
2.5
 42
0.625
 43
3.75
 44
1.25
 45
0.0
 46
0.0
 47
0.0
 48
0.0
140
3.5
141
2.5
142
0.0
143
0.03937
144
1.0
145
0.0
146
1.0
147
0.625
 71
     0
 72
     0
 73
     0
 74
     0
 75
     0
 76
     0
 77
     1
 78
     8
170
     0
171
     3
172
     1
173
     0
174
     0
175
     0
176
   251
177
   251
178
   251
179
     1
270
     2
271
     2
272
     2
273
     2
274
     3
340
73
275
     0
280
     0
281
     0
282
     0
283
     0
284
     8
285
     8
286
     0
287
     3
288
     1
  0
DIMSTYLE
105
442
330
A
100
AcDbSymbolTableRecord
100
AcDbDimStyleTableRecord
  2
ONSHAPE-SKETCHDRIVENDIMST1
 70
     0
  3

  4

  5

  6

  7

 40
1.0
 41
2.5
 42
0.625
 43
3.75
 44
1.25
 45
0.0
 46
0.0
 47
0.0
 48
0.0
140
3.5
141
0.0
142
0.0
143
0.03937
144
1.0
145
0.0
146
1.0
147
0.625
 71
     0
 72
     0
 73
     0
 74
     0
 75
     0
 76
     0
 77
     1
 78
     8
170
     0
171
     3
172
     1
173
     0
174
     0
175
     0
176
   251
177
   251
178
   251
179
     1
270
     2
271
     2
272
     2
273
     2
274
     3
340
73
275
     0
280
     0
281
     0
282
     0
283
     0
284
     8
285
     8
286
     0
287
     3
288
     1
  0
DIMSTYLE
105
443
330
A
100
AcDbSymbolTableRecord
100
AcDbDimStyleTableRecord
  2
ONSHAPE-SKETCHDRIVENDIMST2
 70
     0
  3

  4

  5

  6

  7

 40
1.0
 41
2.5
 42
0.625
 43
3.75
 44
1.25
 45
0.0
 46
0.0
 47
0.0
 48
0.0
140
3.5
141
0.0
142
0.0
143
0.03937
144
1.0
145
0.0
146
1.0
147
0.625
 71
     0
 72
     0
 73
     0
 74
     0
 75
     0
 76
     0
 77
     1
 78
     8
170
     0
171
     3
172
     1
173
     0
174
     0
175
     0
176
   251
177
   251
178
   251
179
     1
270
     2
271
     2
272
     2
273
     2
274
     3
340
73
275
     0
280
     0
281
     0
282
     0
283
     0
284
     8
285
     8
286
     0
287
     3
288
     1
  0
ENDTAB
  0
TABLE
  2
BLOCK_RECORD
  5
1
330
0
100
AcDbSymbolTable
 70
    15
  0
BLOCK_RECORD
  5
1F
330
1
100
AcDbSymbolTableRecord
100
AcDbBlockTableRecord
  2
*MODEL_SPACE
  0
BLOCK_RECORD
  5
1B
330
1
100
AcDbSymbolTableRecord
100
AcDbBlockTableRecord
  2
*PAPER_SPACE
  0
BLOCK_RECORD
  5
2C6
330
1
100
AcDbSymbolTableRecord
100
AcDbBlockTableRecord
  2
*D1
  0
BLOCK_RECORD
  5
2E0
330
1
100
AcDbSymbolTableRecord
100
AcDbBlockTableRecord
  2
*D2
  0
BLOCK_RECORD
  5
2F3
330
1
100
AcDbSymbolTableRecord
100
AcDbBlockTableRecord
  2
*D3
  0
BLOCK_RECORD
  5
306
330
1
100
AcDbSymbolTableRecord
100
AcDbBlockTableRecord
  2
*D4
  0
BLOCK_RECORD
  5
31C
330
1
100
AcDbSymbolTableRecord
100
AcDbBlockTableRecord
  2
*D5
  0
BLOCK_RECORD
  5
32F
330
1
100
AcDbSymbolTableRecord
100
AcDbBlockTableRecord
  2
*D6
  0
BLOCK_RECORD
  5
342
330
1
100
AcDbSymbolTableRecord
100
AcDbBlockTableRecord
  2
*D7
  0
BLOCK_RECORD
  5
357
330
1
100
AcDbSymbolTableRecord
100
AcDbBlockTableRecord
  2
*D8
  0
BLOCK_RECORD
  5
36A
330
1
100
AcDbSymbolTableRecord
100
AcDbBlockTableRecord
  2
*D9
  0
BLOCK_RECORD
  5
37D
330
1
100
AcDbSymbolTableRecord
100
AcDbBlockTableRecord
  2
*D10
  0
BLOCK_RECORD
  5
392
330
1
100
AcDbSymbolTableRecord
100
AcDbBlockTableRecord
  2
*D11
  0
BLOCK_RECORD
  5
3B6
330
1
100
AcDbSymbolTableRecord
100
AcDbBlockTableRecord
  2
*D12
  0
BLOCK_RECORD
  5
3CC
330
1
100
AcDbSymbolTableRecord
100
AcDbBlockTableRecord
  2
*D13
  0
BLOCK_RECORD
  5
3DF
330
1
100
AcDbSymbolTableRecord
100
AcDbBlockTableRecord
  2
*D14
  0
BLOCK_RECORD
  5
3F2
330
1
100
AcDbSymbolTableRecord
100
AcDbBlockTableRecord
  2
*D15
  0
ENDTAB
  0
ENDSEC
  0
SECTION
  2
BLOCKS
  0
BLOCK
  5
20
330
1F
100
AcDbEntity
  8
0
100
AcDbBlockBegin
  2
*MODEL_SPACE
 70
     0
 10
0.0
 20
0.0
 30
0.0
  3
*MODEL_SPACE
  1

  0
ENDBLK
  5
21
330
1F
100
AcDbEntity
  8
0
100
AcDbBlockEnd
  0
BLOCK
  5
1C
330
1B
100
AcDbEntity
 67
     1
  8
0
100
AcDbBlockBegin
  2
*PAPER_SPACE
 70
     0
 10
0.0
 20
0.0
 30
0.0
  3
*PAPER_SPACE
  1

  0
ENDBLK
  5
1D
330
1B
100
AcDbEntity
 67
     1
  8
0
100
AcDbBlockEnd
  0
BLOCK
  5
2C7
330
2C6
100
AcDbEntity
  8
0
100
AcDbBlockBegin
  2
*D1
 70
     1
 10
0.0
 20
0.0
 30
0.0
  3
*D1
  1

  0
LINE
  5
2C8
330
2C6
100
AcDbEntity
  8
ANNOTATION_TEXT
 62
     7
100
AcDbLine
 10
124.694944
 20
109.5199367088608
 30
0.0
 11
124.694944
 21
102.7354712816913
 31
0.0
1001
INDEX
1070
     0
  0
LINE
  5
2CA
330
2C6
100
AcDbEntity
  8
ANNOTATION_TEXT
 62
     7
100
AcDbLine
 10
125.444944
 20
109.4199367088608
 30
0.0
 11
125.444944
 21
102.7354712816913
 31
0.0
1001
INDEX
1070
     1
  0
LINE
  5
2CB
330
2C6
100
AcDbEntity
  8
ANNOTATION_TEXT
 62
     7
100
AcDbLine
 10
125.444944
 20
103.9854712816913
 30
0.0
 11
137.8771647084469
 21
103.9854712816913
 31
0.0
  0
LINE
  5
2CC
330
2C6
100
AcDbEntity
  8
ANNOTATION_TEXT
 62
     7
100
AcDbLine
 10
124.694944
 20
103.9854712816913
 30
0.0
 11
125.444944
 21
103.9854712816913
 31
0.0
  0
LINE
  5
2CD
330
2C6
100
AcDbEntity
  8
ANNOTATION_TEXT
 62
     7
100
AcDbLine
 10
122.194944
 20
103.9854712816913
 30
0.0
 11
119.694944
 21
103.9854712816913
 31
0.0
  0
LINE
  5
2CE
330
2C6
100
AcDbEntity
  8
ANNOTATION_TEXT
 62
     7
100
AcDbLine
 10
127.944944
 20
103.9854712816913
 30
0.0
 11
130.444944
 21
103.9854712816913
 31
0.0
  0
SOLID
  5
2CF
330
2C6
100
AcDbEntity
  8
ANNOTATION_TEXT
 62
     7
100
AcDbTrace
 10
122.194944
 20
103.5688046150246
 30
0.0
 11
122.194944
 21
104.4021379483579
 31
0.0
 12
124.694944
 22
103.9854712816913
 32
0.0
 13
124.694944
 23
103.9854712816913
 33
0.0
  0
SOLID
  5
2D0
330
2C6
100
AcDbEntity
  8
ANNOTATION_TEXT
 62
     7
100
AcDbTrace
 10
127.944944
 20
104.4021379483579
 30
0.0
 11
127.944944
 21
103.5688046150246
 31
0.0
 12
125.444944
 22
103.9854712816913
 32
0.0
 13
125.444944
 23
103.9854712816913
 33
0.0
  0
MTEXT
  5
2D1
330
2C6
100
AcDbEntity
  8
ANNOTATION_TEXT
 62
     7
100
AcDbMText
 10
134.1610543542234
 20
106.3950421263779
 30
0.0
 40
3.5
 41
0.0
 71
     5
 72
     1
  1
1.5
  7
ONSHAPE-STANDARD-DIMENSION
  0
POINT
  5
2D2
330
2C6
100
AcDbEntity
  8
DEFPOINTS
 62
     0
100
AcDbPoint
 10
124.694944
 20
110.1449367088608
 30
0.0
  0
POINT
  5
2D3
330
2C6
100
AcDbEntity
  8
DEFPOINTS
 62
     0
100
AcDbPoint
 10
125.444944
 20
110.0449367088608
 30
0.0
  0
POINT
  5
2D4
330
2C6
100
AcDbEntity
  8
DEFPOINTS
 62
     0
100
AcDbPoint
 10
125.444944
 20
103.9854712816913
 30
0.0
  0
ENDBLK
  5
2D5
330
2C6
100
AcDbEntity
  8
0
100
AcDbBlockEnd
  0
BLOCK
  5
2E1
330
2E0
100
AcDbEntity
  8
0
100
AcDbBlockBegin
  2
*D2
 70
     1
 10
0.0
 20
0.0
 30
0.0
  3
*D2
  1

  0
LINE
  5
2E2
330
2E0
100
AcDbEntity
  8
ANNOTATION_TEXT
 62
     7
100
AcDbLine
 10
124.694944
 20
109.5199367088608
 30
0.0
 11
124.694944
 21
105.8604712816913
 31
0.0
1001
INDEX
1070
     0
  0
LINE
  5
2E3
330
2E0
100
AcDbEntity
  8
ANNOTATION_TEXT
 62
     7
100
AcDbLine
 10
124.694944
 20
102.1104712816913
 30
0.0
 11
124.694944
 21
95.98916705792664
 31
0.0
1001
INDEX
1070
     0
  0
LINE
  5
2E4
330
2E0
100
AcDbEntity
  8
ANNOTATION_TEXT
 62
     7
100
AcDbLine
 10
142.694944
 20
109.4199367088608
 30
0.0
 11
142.694944
 21
95.98916705792664
 31
0.0
1001
INDEX
1070
     1
  0
LINE
  5
2E5
330
2E0
100
AcDbEntity
  8
ANNOTATION_TEXT
 62
     7
100
AcDbLine
 10
127.194944
 20
97.23916705792664
 30
0.0
 11
140.194944
 21
97.23916705792664
 31
0.0
  0
SOLID
  5
2E6
330
2E0
100
AcDbEntity
  8
ANNOTATION_TEXT
 62
     7
100
AcDbTrace
 10
127.194944
 20
97.65583372459331
 30
0.0
 11
127.194944
 21
96.82250039125996
 31
0.0
 12
124.694944
 22
97.23916705792664
 32
0.0
 13
124.694944
 23
97.23916705792664
 33
0.0
  0
SOLID
  5
2E7
330
2E0
100
AcDbEntity
  8
ANNOTATION_TEXT
 62
     7
100
AcDbTrace
 10
140.194944
 20
96.82250039125996
 30
0.0
 11
140.194944
 21
97.65583372459331
 31
0.0
 12
142.694944
 22
97.23916705792664
 32
0.0
 13
142.694944
 23
97.23916705792664
 33
0.0
  0
MTEXT
  5
2E8
330
2E0
100
AcDbEntity
  8
ANNOTATION_TEXT
 62
     7
100
AcDbMText
 10
133.694944
 20
99.65589049116915
 30
0.0
 40
3.5
 41
0.0
 71
     5
 72
     1
  1
36
  7
ONSHAPE-STANDARD-DIMENSION
  0
POINT
  5
2E9
330
2E0
100
AcDbEntity
  8
DEFPOINTS
 62
     0
100
AcDbPoint
 10
124.694944
 20
110.1449367088608
 30
0.0
  0
POINT
  5
2EA
330
2E0
100
AcDbEntity
  8
DEFPOINTS
 62
     0
100
AcDbPoint
 10
142.694944
 20
110.0449367088608
 30
0.0
  0
POINT
  5
2EB
330
2E0
100
AcDbEntity
  8
DEFPOINTS
 62
     0
100
AcDbPoint
 10
142.694944
 20
97.23916705792664
 30
0.0
  0
ENDBLK
  5
2EC
330
2E0
100
AcDbEntity
  8
0
100
AcDbBlockEnd
  0
BLOCK
  5
2F4
330
2F3
100
AcDbEntity
  8
0
100
AcDbBlockBegin
  2
*D3
 70
     1
 10
0.0
 20
0.0
 30
0.0
  3
*D3
  1

  0
LINE
  5
2F5
330
2F3
100
AcDbEntity
  8
ANNOTATION_TEXT
 62
     7
100
AcDbLine
 10
124.694944
 20
109.5199367088608
 30
0.0
 11
124.694944
 21
105.8604712816913
 31
0.0
1001
INDEX
1070
     0
  0
LINE
  5
2F6
330
2F3
100
AcDbEntity
  8
ANNOTATION_TEXT
 62
     7
100
AcDbLine
 10
124.694944
 20
102.1104712816913
 30
0.0
 11
124.694944
 21
86.61760200649634
 31
0.0
1001
INDEX
1070
     0
  0
LINE
  5
2F7
330
2F3
100
AcDbEntity
  8
ANNOTATION_TEXT
 62
     7
100
AcDbLine
 10
159.194944
 20
109.4199367088608
 30
0.0
 11
159.194944
 21
86.61760200649634
 31
0.0
1001
INDEX
1070
     1
  0
LINE
  5
2F8
330
2F3
100
AcDbEntity
  8
ANNOTATION_TEXT
 62
     7
100
AcDbLine
 10
127.194944
 20
87.86760200649634
 30
0.0
 11
156.694944
 21
87.86760200649634
 31
0.0
  0
SOLID
  5
2F9
330
2F3
100
AcDbEntity
  8
ANNOTATION_TEXT
 62
     7
100
AcDbTrace
 10
127.194944
 20
88.28426867316301
 30
0.0
 11
127.194944
 21
87.45093533982967
 31
0.0
 12
124.694944
 22
87.86760200649634
 32
0.0
 13
124.694944
 23
87.86760200649634
 33
0.0
  0
SOLID
  5
2FA
330
2F3
100
AcDbEntity
  8
ANNOTATION_TEXT
 62
     7
100
AcDbTrace
 10
156.694944
 20
87.45093533982967
 30
0.0
 11
156.694944
 21
88.28426867316301
 31
0.0
 12
159.194944
 22
87.86760200649634
 32
0.0
 13
159.194944
 23
87.86760200649634
 33
0.0
  0
MTEXT
  5
2FB
330
2F3
100
AcDbEntity
  8
ANNOTATION_TEXT
 62
     7
100
AcDbMText
 10
141.944944
 20
90.28432543973885
 30
0.0
 40
3.5
 41
0.0
 71
     5
 72
     1
  1
69
  7
ONSHAPE-STANDARD-DIMENSION
  0
POINT
  5
2FC
330
2F3
100
AcDbEntity
  8
DEFPOINTS
 62
     0
100
AcDbPoint
 10
124.694944
 20
110.1449367088608
 30
0.0
  0
POINT
  5
2FD
330
2F3
100
AcDbEntity
  8
DEFPOINTS
 62
     0
100
AcDbPoint
 10
159.194944
 20
110.0449367088608
 30
0.0
  0
POINT
  5
2FE
330
2F3
100
AcDbEntity
  8
DEFPOINTS
 62
     0
100
AcDbPoint
 10
159.194944
 20
87.86760200649634
 30
0.0
  0
ENDBLK
  5
2FF
330
2F3
100
AcDbEntity
  8
0
100
AcDbBlockEnd
  0
BLOCK
  5
307
330
306
100
AcDbEntity
  8
0
100
AcDbBlockBegin
  2
*D4
 70
     1
 10
0.0
 20
0.0
 30
0.0
  3
*D4
  1

  0
LINE
  5
308
330
306
100
AcDbEntity
  8
ANNOTATION_TEXT
 62
     7
100
AcDbLine
 10
192.944944
 20
109.4199367088608
 30
0.0
 11
192.944944
 21
102.7354712816913
 31
0.0
1001
INDEX
1070
     0
  0
LINE
  5
309
330
306
100
AcDbEntity
  8
ANNOTATION_TEXT
 62
     7
100
AcDbLine
 10
193.694944
 20
109.5199367088608
 30
0.0
 11
193.694944
 21
102.7354712816913
 31
0.0
1001
INDEX
1070
     1
  0
LINE
  5
30A
330
306
100
AcDbEntity
  8
ANNOTATION_TEXT
 62
     7
100
AcDbLine
 10
192.944944
 20
103.9854712816913
 30
0.0
 11
180.5127232915531
 21
103.9854712816913
 31
0.0
  0
LINE
  5
30B
330
306
100
AcDbEntity
  8
ANNOTATION_TEXT
 62
     7
100
AcDbLine
 10
192.944944
 20
103.9854712816913
 30
0.0
 11
193.694944
 21
103.9854712816913
 31
0.0
  0
LINE
  5
30C
330
306
100
AcDbEntity
  8
ANNOTATION_TEXT
 62
     7
100
AcDbLine
 10
190.444944
 20
103.9854712816913
 30
0.0
 11
187.944944
 21
103.9854712816913
 31
0.0
  0
LINE
  5
30D
330
306
100
AcDbEntity
  8
ANNOTATION_TEXT
 62
     7
100
AcDbLine
 10
196.194944
 20
103.9854712816913
 30
0.0
 11
198.694944
 21
103.9854712816913
 31
0.0
  0
SOLID
  5
30E
330
306
100
AcDbEntity
  8
ANNOTATION_TEXT
 62
     7
100
AcDbTrace
 10
190.444944
 20
103.5688046150246
 30
0.0
 11
190.444944
 21
104.4021379483579
 31
0.0
 12
192.944944
 22
103.9854712816913
 32
0.0
 13
192.944944
 23
103.9854712816913
 33
0.0
  0
SOLID
  5
30F
330
306
100
AcDbEntity
  8
ANNOTATION_TEXT
 62
     7
100
AcDbTrace
 10
196.194944
 20
104.4021379483579
 30
0.0
 11
196.194944
 21
103.5688046150246
 31
0.0
 12
193.694944
 22
103.9854712816913
 32
0.0
 13
193.694944
 23
103.9854712816913
 33
0.0
  0
MTEXT
  5
310
330
306
100
AcDbEntity
  8
ANNOTATION_TEXT
 62
     7
100
AcDbMText
 10
184.2288336457765
 20
106.3950421263779
 30
0.0
 40
3.5
 41
0.0
 71
     5
 72
     1
  1
1.5
  7
ONSHAPE-STANDARD-DIMENSION
  0
POINT
  5
311
330
306
100
AcDbEntity
  8
DEFPOINTS
 62
     0
100
AcDbPoint
 10
192.944944
 20
110.0449367088608
 30
0.0
  0
POINT
  5
312
330
306
100
AcDbEntity
  8
DEFPOINTS
 62
     0
100
AcDbPoint
 10
193.694944
 20
110.1449367088608
 30
0.0
  0
POINT
  5
313
330
306
100
AcDbEntity
  8
DEFPOINTS
 62
     0
100
AcDbPoint
 10
193.694944
 20
103.9854712816913
 30
0.0
  0
ENDBLK
  5
314
330
306
100
AcDbEntity
  8
0
100
AcDbBlockEnd
  0
BLOCK
  5
31D
330
31C
100
AcDbEntity
  8
0
100
AcDbBlockBegin
  2
*D5
 70
     1
 10
0.0
 20
0.0
 30
0.0
  3
*D5
  1

  0
LINE
  5
31E
330
31C
100
AcDbEntity
  8
ANNOTATION_TEXT
 62
     7
100
AcDbLine
 10
175.694944
 20
109.4199367088608
 30
0.0
 11
175.694944
 21
95.98916705792664
 31
0.0
1001
INDEX
1070
     0
  0
LINE
  5
31F
330
31C
100
AcDbEntity
  8
ANNOTATION_TEXT
 62
     7
100
AcDbLine
 10
193.694944
 20
109.5199367088608
 30
0.0
 11
193.694944
 21
105.8604712816913
 31
0.0
1001
INDEX
1070
     1
  0
LINE
  5
320
330
31C
100
AcDbEntity
  8
ANNOTATION_TEXT
 62
     7
100
AcDbLine
 10
193.694944
 20
102.1104712816913
 30
0.0
 11
193.694944
 21
95.98916705792664
 31
0.0
1001
INDEX
1070
     1
  0
LINE
  5
321
330
31C
100
AcDbEntity
  8
ANNOTATION_TEXT
 62
     7
100
AcDbLine
 10
178.194944
 20
97.23916705792664
 30
0.0
 11
191.194944
 21
97.23916705792664
 31
0.0
  0
SOLID
  5
322
330
31C
100
AcDbEntity
  8
ANNOTATION_TEXT
 62
     7
100
AcDbTrace
 10
178.194944
 20
97.65583372459331
 30
0.0
 11
178.194944
 21
96.82250039125996
 31
0.0
 12
175.694944
 22
97.23916705792664
 32
0.0
 13
175.694944
 23
97.23916705792664
 33
0.0
  0
SOLID
  5
323
330
31C
100
AcDbEntity
  8
ANNOTATION_TEXT
 62
     7
100
AcDbTrace
 10
191.194944
 20
96.82250039125996
 30
0.0
 11
191.194944
 21
97.65583372459331
 31
0.0
 12
193.694944
 22
97.23916705792664
 32
0.0
 13
193.694944
 23
97.23916705792664
 33
0.0
  0
MTEXT
  5
324
330
31C
100
AcDbEntity
  8
ANNOTATION_TEXT
 62
     7
100
AcDbMText
 10
184.694944
 20
99.65589049116915
 30
0.0
 40
3.5
 41
0.0
 71
     5
 72
     1
  1
36
  7
ONSHAPE-STANDARD-DIMENSION
  0
POINT
  5
325
330
31C
100
AcDbEntity
  8
DEFPOINTS
 62
     0
100
AcDbPoint
 10
175.694944
 20
110.0449367088608
 30
0.0
  0
POINT
  5
326
330
31C
100
AcDbEntity
  8
DEFPOINTS
 62
     0
100
AcDbPoint
 10
193.694944
 20
110.1449367088608
 30
0.0
  0
POINT
  5
327
330
31C
100
AcDbEntity
  8
DEFPOINTS
 62
     0
100
AcDbPoint
 10
193.694944
 20
97.23916705792664
 30
0.0
  0
ENDBLK
  5
328
330
31C
100
AcDbEntity
  8
0
100
AcDbBlockEnd
  0
BLOCK
  5
330
330
32F
100
AcDbEntity
  8
0
100
AcDbBlockBegin
  2
*D6
 70
     1
 10
0.0
 20
0.0
 30
0.0
  3
*D6
  1

  0
LINE
  5
331
330
32F
100
AcDbEntity
  8
ANNOTATION_TEXT
 62
     7
100
AcDbLine
 10
159.194944
 20
109.4199367088608
 30
0.0
 11
159.194944
 21
86.61760200649634
 31
0.0
1001
INDEX
1070
     0
  0
LINE
  5
332
330
32F
100
AcDbEntity
  8
ANNOTATION_TEXT
 62
     7
100
AcDbLine
 10
193.694944
 20
109.5199367088608
 30
0.0
 11
193.694944
 21
105.8604712816913
 31
0.0
1001
INDEX
1070
     1
  0
LINE
  5
333
330
32F
100
AcDbEntity
  8
ANNOTATION_TEXT
 62
     7
100
AcDbLine
 10
193.694944
 20
102.1104712816913
 30
0.0
 11
193.694944
 21
86.61760200649634
 31
0.0
1001
INDEX
1070
     1
  0
LINE
  5
334
330
32F
100
AcDbEntity
  8
ANNOTATION_TEXT
 62
     7
100
AcDbLine
 10
161.694944
 20
87.86760200649634
 30
0.0
 11
191.194944
 21
87.86760200649634
 31
0.0
  0
SOLID
  5
335
330
32F
100
AcDbEntity
  8
ANNOTATION_TEXT
 62
     7
100
AcDbTrace
 10
161.694944
 20
88.28426867316301
 30
0.0
 11
161.694944
 21
87.45093533982967
 31
0.0
 12
159.194944
 22
87.86760200649634
 32
0.0
 13
159.194944
 23
87.86760200649634
 33
0.0
  0
SOLID
  5
336
330
32F
100
AcDbEntity
  8
ANNOTATION_TEXT
 62
     7
100
AcDbTrace
 10
191.194944
 20
87.45093533982967
 30
0.0
 11
191.194944
 21
88.28426867316301
 31
0.0
 12
193.694944
 22
87.86760200649634
 32
0.0
 13
193.694944
 23
87.86760200649634
 33
0.0
  0
MTEXT
  5
337
330
32F
100
AcDbEntity
  8
ANNOTATION_TEXT
 62
     7
100
AcDbMText
 10
175.2061308987408
 20
90.28432543973885
 30
0.0
 40
3.5
 41
0.0
 71
     5
 72
     1
  1
69
  7
ONSHAPE-STANDARD-DIMENSION
  0
POINT
  5
338
330
32F
100
AcDbEntity
  8
DEFPOINTS
 62
     0
100
AcDbPoint
 10
159.194944
 20
110.0449367088608
 30
0.0
  0
POINT
  5
339
330
32F
100
AcDbEntity
  8
DEFPOINTS
 62
     0
100
AcDbPoint
 10
193.694944
 20
110.1449367088608
 30
0.0
  0
POINT
  5
33A
330
32F
100
AcDbEntity
  8
DEFPOINTS
 62
     0
100
AcDbPoint
 10
193.694944
 20
87.86760200649634
 30
0.0
  0
ENDBLK
  5
33B
330
32F
100
AcDbEntity
  8
0
100
AcDbBlockEnd
  0
BLOCK
  5
343
330
342
100
AcDbEntity
  8
0
100
AcDbBlockBegin
  2
*D7
 70
     1
 10
0.0
 20
0.0
 30
0.0
  3
*D7
  1

  0
LINE
  5
344
330
342
100
AcDbEntity
  8
ANNOTATION_TEXT
 62
     7
100
AcDbLine
 10
194.419944
 20
110.8949367088608
 30
0.0
 11
202.1118083533346
 21
110.8949367088608
 31
0.0
1001
INDEX
1070
     0
  0
LINE
  5
345
330
342
100
AcDbEntity
  8
ANNOTATION_TEXT
 62
     7
100
AcDbLine
 10
194.319944
 20
110.1449367088608
 30
0.0
 11
202.1118083533346
 21
110.1449367088608
 31
0.0
1001
INDEX
1070
     1
  0
LINE
  5
346
330
342
100
AcDbEntity
  8
ANNOTATION_TEXT
 62
     7
100
AcDbLine
 10
200.8618083533346
 20
110.8949367088608
 30
0.0
 11
200.8618083533346
 21
123.3271574173077
 31
0.0
  0
LINE
  5
347
330
342
100
AcDbEntity
  8
ANNOTATION_TEXT
 62
     7
100
AcDbLine
 10
200.8618083533346
 20
110.8949367088608
 30
0.0
 11
200.8618083533346
 21
110.1449367088608
 31
0.0
  0
LINE
  5
348
330
342
100
AcDbEntity
  8
ANNOTATION_TEXT
 62
     7
100
AcDbLine
 10
200.8618083533346
 20
113.3949367088608
 30
0.0
 11
200.8618083533346
 21
115.8949367088608
 31
0.0
  0
LINE
  5
349
330
342
100
AcDbEntity
  8
ANNOTATION_TEXT
 62
     7
100
AcDbLine
 10
200.8618083533346
 20
107.6449367088608
 30
0.0
 11
200.8618083533346
 21
105.1449367088608
 31
0.0
  0
SOLID
  5
34A
330
342
100
AcDbEntity
  8
ANNOTATION_TEXT
 62
     7
100
AcDbTrace
 10
200.4451416866679
 20
113.3949367088608
 30
0.0
 11
201.2784750200012
 21
113.3949367088608
 31
0.0
 12
200.8618083533346
 22
110.8949367088608
 32
0.0
 13
200.8618083533346
 23
110.8949367088608
 33
0.0
  0
SOLID
  5
34B
330
342
100
AcDbEntity
  8
ANNOTATION_TEXT
 62
     7
100
AcDbTrace
 10
201.2784750200012
 20
107.6449367088608
 30
0.0
 11
200.4451416866679
 21
107.6449367088608
 31
0.0
 12
200.8618083533346
 22
110.1449367088608
 32
0.0
 13
200.8618083533346
 23
110.1449367088608
 33
0.0
  0
MTEXT
  5
34C
330
342
100
AcDbEntity
  8
ANNOTATION_TEXT
 62
     7
100
AcDbMText
 10
198.4522375086479
 20
119.6110470630842
 30
0.0
 40
3.5
 41
0.0
 71
     5
 72
     1
  1
1.5
  7
ONSHAPE-STANDARD-DIMENSION
 11
0.0
 21
1.0
 31
0.0
  0
POINT
  5
34D
330
342
100
AcDbEntity
  8
DEFPOINTS
 62
     0
100
AcDbPoint
 10
193.794944
 20
110.8949367088608
 30
0.0
  0
POINT
  5
34E
330
342
100
AcDbEntity
  8
DEFPOINTS
 62
     0
100
AcDbPoint
 10
193.694944
 20
110.1449367088608
 30
0.0
  0
POINT
  5
34F
330
342
100
AcDbEntity
  8
DEFPOINTS
 62
     0
100
AcDbPoint
 10
200.8618083533346
 20
110.1449367088608
 30
0.0
  0
ENDBLK
  5
350
330
342
100
AcDbEntity
  8
0
100
AcDbBlockEnd
  0
BLOCK
  5
358
330
357
100
AcDbEntity
  8
0
100
AcDbBlockBegin
  2
*D8
 70
     1
 10
0.0
 20
0.0
 30
0.0
  3
*D8
  1

  0
LINE
  5
359
330
357
100
AcDbEntity
  8
ANNOTATION_TEXT
 62
     7
100
AcDbLine
 10
194.319944
 20
110.1449367088608
 30
0.0
 11
198.9868083533346
 21
110.1449367088608
 31
0.0
1001
INDEX
1070
     0
  0
LINE
  5
35A
330
357
100
AcDbEntity
  8
ANNOTATION_TEXT
 62
     7
100
AcDbLine
 10
202.7368083533346
 20
110.1449367088608
 30
0.0
 11
211.5912962104461
 21
110.1449367088608
 31
0.0
1001
INDEX
1070
     0
  0
LINE
  5
35B
330
357
100
AcDbEntity
  8
ANNOTATION_TEXT
 62
     7
100
AcDbLine
 10
194.419944
 20
125.1449367088608
 30
0.0
 11
211.5912962104461
 21
125.1449367088608
 31
0.0
1001
INDEX
1070
     1
  0
LINE
  5
35C
330
357
100
AcDbEntity
  8
ANNOTATION_TEXT
 62
     7
100
AcDbLine
 10
210.3412962104461
 20
112.6449367088608
 30
0.0
 11
210.3412962104461
 21
122.6449367088608
 31
0.0
  0
SOLID
  5
35D
330
357
100
AcDbEntity
  8
ANNOTATION_TEXT
 62
     7
100
AcDbTrace
 10
209.9246295437794
 20
112.6449367088608
 30
0.0
 11
210.7579628771128
 21
112.6449367088608
 31
0.0
 12
210.3412962104461
 22
110.1449367088608
 32
0.0
 13
210.3412962104461
 23
110.1449367088608
 33
0.0
  0
SOLID
  5
35E
330
357
100
AcDbEntity
  8
ANNOTATION_TEXT
 62
     7
100
AcDbTrace
 10
210.7579628771128
 20
122.6449367088608
 30
0.0
 11
209.9246295437794
 21
122.6449367088608
 31
0.0
 12
210.3412962104461
 22
125.1449367088608
 32
0.0
 13
210.3412962104461
 23
125.1449367088608
 33
0.0
  0
MTEXT
  5
35F
330
357
100
AcDbEntity
  8
ANNOTATION_TEXT
 62
     7
100
AcDbMText
 10
207.9221885810183
 20
117.6449367088608
 30
0.0
 40
3.5
 41
0.0
 71
     5
 72
     1
  1
30
  7
ONSHAPE-STANDARD-DIMENSION
 11
0.0
 21
1.0
 31
0.0
  0
POINT
  5
360
330
357
100
AcDbEntity
  8
DEFPOINTS
 62
     0
100
AcDbPoint
 10
193.694944
 20
110.1449367088608
 30
0.0
  0
POINT
  5
361
330
357
100
AcDbEntity
  8
DEFPOINTS
 62
     0
100
AcDbPoint
 10
193.794944
 20
125.1449367088608
 30
0.0
  0
POINT
  5
362
330
357
100
AcDbEntity
  8
DEFPOINTS
 62
     0
100
AcDbPoint
 10
210.3412962104461
 20
125.1449367088608
 30
0.0
  0
ENDBLK
  5
363
330
357
100
AcDbEntity
  8
0
100
AcDbBlockEnd
  0
BLOCK
  5
36B
330
36A
100
AcDbEntity
  8
0
100
AcDbBlockBegin
  2
*D9
 70
     1
 10
0.0
 20
0.0
 30
0.0
  3
*D9
  1

  0
LINE
  5
36C
330
36A
100
AcDbEntity
  8
ANNOTATION_TEXT
 62
     7
100
AcDbLine
 10
194.319944
 20
110.1449367088608
 30
0.0
 11
198.9868083533346
 21
110.1449367088608
 31
0.0
1001
INDEX
1070
     0
  0
LINE
  5
36D
330
36A
100
AcDbEntity
  8
ANNOTATION_TEXT
 62
     7
100
AcDbLine
 10
202.7368083533346
 20
110.1449367088608
 30
0.0
 11
222.4975628437012
 21
110.1449367088608
 31
0.0
1001
INDEX
1070
     0
  0
LINE
  5
36E
330
36A
100
AcDbEntity
  8
ANNOTATION_TEXT
 62
     7
100
AcDbLine
 10
194.419944
 20
139.3949367088608
 30
0.0
 11
222.4975628437012
 21
139.3949367088608
 31
0.0
1001
INDEX
1070
     1
  0
LINE
  5
36F
330
36A
100
AcDbEntity
  8
ANNOTATION_TEXT
 62
     7
100
AcDbLine
 10
221.2475628437012
 20
112.6449367088608
 30
0.0
 11
221.2475628437012
 21
136.8949367088608
 31
0.0
  0
SOLID
  5
370
330
36A
100
AcDbEntity
  8
ANNOTATION_TEXT
 62
     7
100
AcDbTrace
 10
220.8308961770345
 20
112.6449367088608
 30
0.0
 11
221.6642295103678
 21
112.6449367088608
 31
0.0
 12
221.2475628437012
 22
110.1449367088608
 32
0.0
 13
221.2475628437012
 23
110.1449367088608
 33
0.0
  0
SOLID
  5
371
330
36A
100
AcDbEntity
  8
ANNOTATION_TEXT
 62
     7
100
AcDbTrace
 10
221.6642295103678
 20
136.8949367088608
 30
0.0
 11
220.8308961770345
 21
136.8949367088608
 31
0.0
 12
221.2475628437012
 22
139.3949367088608
 32
0.0
 13
221.2475628437012
 23
139.3949367088608
 33
0.0
  0
MTEXT
  5
372
330
36A
100
AcDbEntity
  8
ANNOTATION_TEXT
 62
     7
100
AcDbMText
 10
218.8201105276249
 20
124.7699367088608
 30
0.0
 40
3.5
 41
0.0
 71
     5
 72
     1
  1
58.5
  7
ONSHAPE-STANDARD-DIMENSION
 11
0.0
 21
1.0
 31
0.0
  0
POINT
  5
373
330
36A
100
AcDbEntity
  8
DEFPOINTS
 62
     0
100
AcDbPoint
 10
193.694944
 20
110.1449367088608
 30
0.0
  0
POINT
  5
374
330
36A
100
AcDbEntity
  8
DEFPOINTS
 62
     0
100
AcDbPoint
 10
193.794944
 20
139.3949367088608
 30
0.0
  0
POINT
  5
375
330
36A
100
AcDbEntity
  8
DEFPOINTS
 62
     0
100
AcDbPoint
 10
221.2475628437012
 20
139.3949367088608
 30
0.0
  0
ENDBLK
  5
376
330
36A
100
AcDbEntity
  8
0
100
AcDbBlockEnd
  0
BLOCK
  5
37E
330
37D
100
AcDbEntity
  8
0
100
AcDbBlockBegin
  2
*D10
 70
     1
 10
0.0
 20
0.0
 30
0.0
  3
*D10
  1

  0
LINE
  5
37F
330
37D
100
AcDbEntity
  8
ANNOTATION_TEXT
 62
     7
100
AcDbLine
 10
194.419944
 20
149.3949367088608
 30
0.0
 11
203.4210566313122
 21
149.3949367088608
 31
0.0
1001
INDEX
1070
     0
  0
LINE
  5
380
330
37D
100
AcDbEntity
  8
ANNOTATION_TEXT
 62
     7
100
AcDbLine
 10
194.319944
 20
150.1449367088608
 30
0.0
 11
203.4210566313122
 21
150.1449367088608
 31
0.0
1001
INDEX
1070
     1
  0
LINE
  5
381
330
37D
100
AcDbEntity
  8
ANNOTATION_TEXT
 62
     7
100
AcDbLine
 10
202.1710566313122
 20
150.1449367088608
 30
0.0
 11
202.1710566313122
 21
162.5771574173077
 31
0.0
  0
LINE
  5
382
330
37D
100
AcDbEntity
  8
ANNOTATION_TEXT
 62
     7
100
AcDbLine
 10
202.1710566313122
 20
149.3949367088608
 30
0.0
 11
202.1710566313122
 21
150.1449367088608
 31
0.0
  0
LINE
  5
383
330
37D
100
AcDbEntity
  8
ANNOTATION_TEXT
 62
     7
100
AcDbLine
 10
202.1710566313122
 20
146.8949367088608
 30
0.0
 11
202.1710566313122
 21
144.3949367088608
 31
0.0
  0
LINE
  5
384
330
37D
100
AcDbEntity
  8
ANNOTATION_TEXT
 62
     7
100
AcDbLine
 10
202.1710566313122
 20
152.6449367088608
 30
0.0
 11
202.1710566313122
 21
155.1449367088608
 31
0.0
  0
SOLID
  5
385
330
37D
100
AcDbEntity
  8
ANNOTATION_TEXT
 62
     7
100
AcDbTrace
 10
202.5877232979788
 20
146.8949367088608
 30
0.0
 11
201.7543899646455
 21
146.8949367088608
 31
0.0
 12
202.1710566313122
 22
149.3949367088608
 32
0.0
 13
202.1710566313122
 23
149.3949367088608
 33
0.0
  0
SOLID
  5
386
330
37D
100
AcDbEntity
  8
ANNOTATION_TEXT
 62
     7
100
AcDbTrace
 10
201.7543899646455
 20
152.6449367088608
 30
0.0
 11
202.5877232979788
 21
152.6449367088608
 31
0.0
 12
202.1710566313122
 22
150.1449367088608
 32
0.0
 13
202.1710566313122
 23
150.1449367088608
 33
0.0
  0
MTEXT
  5
387
330
37D
100
AcDbEntity
  8
ANNOTATION_TEXT
 62
     7
100
AcDbMText
 10
199.7614857866255
 20
158.8610470630842
 30
0.0
 40
3.5
 41
0.0
 71
     5
 72
     1
  1
1.5
  7
ONSHAPE-STANDARD-DIMENSION
 11
0.0
 21
1.0
 31
0.0
  0
POINT
  5
388
330
37D
100
AcDbEntity
  8
DEFPOINTS
 62
     0
100
AcDbPoint
 10
193.794944
 20
149.3949367088608
 30
0.0
  0
POINT
  5
389
330
37D
100
AcDbEntity
  8
DEFPOINTS
 62
     0
100
AcDbPoint
 10
193.694944
 20
150.1449367088608
 30
0.0
  0
POINT
  5
38A
330
37D
100
AcDbEntity
  8
DEFPOINTS
 62
     0
100
AcDbPoint
 10
202.1710566313122
 20
150.1449367088608
 30
0.0
  0
ENDBLK
  5
38B
330
37D
100
AcDbEntity
  8
0
100
AcDbBlockEnd
  0
BLOCK
  5
393
330
392
100
AcDbEntity
  8
0
100
AcDbBlockBegin
  2
*D11
 70
     1
 10
0.0
 20
0.0
 30
0.0
  3
*D11
  1

  0
LINE
  5
394
330
392
100
AcDbEntity
  8
ANNOTATION_TEXT
 62
     7
100
AcDbLine
 10
124.069944
 20
150.1449367088608
 30
0.0
 11
118.8397076857877
 21
150.1449367088608
 31
0.0
1001
INDEX
1070
     0
  0
LINE
  5
395
330
392
100
AcDbEntity
  8
ANNOTATION_TEXT
 62
     7
100
AcDbLine
 10
123.969944
 20
139.3949367088608
 30
0.0
 11
118.8397076857877
 21
139.3949367088608
 31
0.0
1001
INDEX
1070
     1
  0
LINE
  5
396
330
392
100
AcDbEntity
  8
ANNOTATION_TEXT
 62
     7
100
AcDbLine
 10
120.0897076857877
 20
147.6449367088608
 30
0.0
 11
120.0897076857877
 21
141.8949367088608
 31
0.0
  0
SOLID
  5
397
330
392
100
AcDbEntity
  8
ANNOTATION_TEXT
 62
     7
100
AcDbTrace
 10
120.5063743524544
 20
147.6449367088608
 30
0.0
 11
119.673041019121
 21
147.6449367088608
 31
0.0
 12
120.0897076857877
 22
150.1449367088608
 32
0.0
 13
120.0897076857877
 23
150.1449367088608
 33
0.0
  0
SOLID
  5
398
330
392
100
AcDbEntity
  8
ANNOTATION_TEXT
 62
     7
100
AcDbTrace
 10
119.673041019121
 20
141.8949367088608
 30
0.0
 11
120.5063743524544
 21
141.8949367088608
 31
0.0
 12
120.0897076857877
 22
139.3949367088608
 32
0.0
 13
120.0897076857877
 23
139.3949367088608
 33
0.0
  0
MTEXT
  5
399
330
392
100
AcDbEntity
  8
ANNOTATION_TEXT
 62
     7
100
AcDbMText
 10
117.6622553697114
 20
144.7699367088608
 30
0.0
 40
3.5
 41
0.0
 71
     5
 72
     1
  1
21.5
  7
ONSHAPE-STANDARD-DIMENSION
 11
0.0
 21
1.0
 31
0.0
  0
POINT
  5
39A
330
392
100
AcDbEntity
  8
DEFPOINTS
 62
     0
100
AcDbPoint
 10
124.694944
 20
150.1449367088608
 30
0.0
  0
POINT
  5
39B
330
392
100
AcDbEntity
  8
DEFPOINTS
 62
     0
100
AcDbPoint
 10
124.594944
 20
139.3949367088608
 30
0.0
  0
POINT
  5
39C
330
392
100
AcDbEntity
  8
DEFPOINTS
 62
     0
100
AcDbPoint
 10
120.0897076857877
 20
139.3949367088608
 30
0.0
  0
ENDBLK
  5
39D
330
392
100
AcDbEntity
  8
0
100
AcDbBlockEnd
  0
BLOCK
  5
3B7
330
3B6
100
AcDbEntity
  8
0
100
AcDbBlockBegin
  2
*D12
 70
     1
 10
0.0
 20
0.0
 30
0.0
  3
*D12
  1

  0
LINE
  5
3B8
330
3B6
100
AcDbEntity
  8
ANNOTATION_TEXT
 62
     7
100
AcDbLine
 10
55.90942465609311
 20
88.00899844856049
 30
0.0
 11
72.66738429623925
 21
117.0346359764823
 31
0.0
1001
INDEX
1070
     0
  0
LINE
  5
3BA
330
3B6
100
AcDbEntity
  8
ANNOTATION_TEXT
 62
     7
100
AcDbLine
 10
81.89018676962625
 20
73.00899844856053
 30
0.0
 11
98.64814640977238
 21
102.0346359764823
 31
0.0
1001
INDEX
1070
     1
  0
LINE
  5
3BB
330
3B6
100
AcDbEntity
  8
ANNOTATION_TEXT
 62
     7
100
AcDbLine
 10
74.20744780570034
 20
114.7021042217518
 30
0.0
 11
95.85808290031129
 21
102.2021042217518
 31
0.0
  0
SOLID
  5
3BC
330
3B6
100
AcDbEntity
  8
ANNOTATION_TEXT
 62
     7
100
AcDbTrace
 10
74.41578113903367
 20
115.0629481399953
 30
0.0
 11
73.99911447236701
 21
114.3412603035082
 31
0.0
 12
72.04238429623925
 22
115.9521042217518
 32
0.0
 13
72.04238429623925
 23
115.9521042217518
 33
0.0
  0
SOLID
  5
3BD
330
3B6
100
AcDbEntity
  8
ANNOTATION_TEXT
 62
     7
100
AcDbTrace
 10
95.64974956697796
 20
101.8412603035083
 30
0.0
 11
96.06641623364462
 21
102.5629481399953
 31
0.0
 12
98.02314640977238
 22
100.9521042217518
 32
0.0
 13
98.02314640977238
 23
100.9521042217518
 33
0.0
  0
MTEXT
  5
3BE
330
3B6
100
AcDbEntity
  8
ANNOTATION_TEXT
 62
     7
100
AcDbMText
 10
86.23218633393229
 20
110.5295623003804
 30
0.0
 40
3.5
 41
0.0
 71
     5
 72
     1
  1
15
  7
ONSHAPE-STANDARD-DIMENSION
 11
0.8660254037844388
 21
-0.4999999999999997
 31
0.0
  0
POINT
  5
3BF
330
3B6
100
AcDbEntity
  8
DEFPOINTS
 62
     0
100
AcDbPoint
 10
55.59692465609311
 20
87.46773257119521
 30
0.0
  0
POINT
  5
3C0
330
3B6
100
AcDbEntity
  8
DEFPOINTS
 62
     0
100
AcDbPoint
 10
81.57768676962625
 20
72.46773257119526
 30
0.0
  0
POINT
  5
3C1
330
3B6
100
AcDbEntity
  8
DEFPOINTS
 62
     0
100
AcDbPoint
 10
98.02314640977238
 20
100.9521042217518
 30
0.0
  0
ENDBLK
  5
3C2
330
3B6
100
AcDbEntity
  8
0
100
AcDbBlockEnd
  0
BLOCK
  5
3CD
330
3CC
100
AcDbEntity
  8
0
100
AcDbBlockBegin
  2
*D13
 70
     1
 10
0.0
 20
0.0
 30
0.0
  3
*D13
  1

  0
LINE
  5
3CE
330
3CC
100
AcDbEntity
  8
ANNOTATION_TEXT
 62
     7
100
AcDbLine
 10
73.54243273178187
 20
87.46773257119523
 30
0.0
 11
88.36294080747061
 21
87.46773257119524
 31
0.0
1001
INDEX
1070
     0
  0
LINE
  5
3CF
330
3CC
100
AcDbEntity
  8
ANNOTATION_TEXT
 62
     7
100
AcDbLine
 10
92.11294080747061
 20
87.46773257119524
 30
0.0
 11
109.1592060384678
 21
87.46773257119527
 31
0.0
1001
INDEX
1070
     0
  0
LINE
  5
3D0
330
3CC
100
AcDbEntity
  8
ANNOTATION_TEXT
 62
     7
100
AcDbLine
 10
73.54243273178187
 20
57.46773257119522
 30
0.0
 11
109.1592060384679
 21
57.46773257119526
 31
0.0
1001
INDEX
1070
     1
  0
LINE
  5
3D1
330
3CC
100
AcDbEntity
  8
ANNOTATION_TEXT
 62
     7
100
AcDbLine
 10
107.9092060384678
 20
84.96773257119527
 30
0.0
 11
107.9092060384679
 21
59.96773257119526
 31
0.0
  0
SOLID
  5
3D2
330
3CC
100
AcDbEntity
  8
ANNOTATION_TEXT
 62
     7
100
AcDbTrace
 10
108.3258727051345
 20
84.96773257119527
 30
0.0
 11
107.4925393718012
 21
84.96773257119527
 31
0.0
 12
107.9092060384678
 22
87.46773257119527
 32
0.0
 13
107.9092060384678
 23
87.46773257119527
 33
0.0
  0
SOLID
  5
3D3
330
3CC
100
AcDbEntity
  8
ANNOTATION_TEXT
 62
     7
100
AcDbTrace
 10
107.4925393718012
 20
59.96773257119526
 30
0.0
 11
108.3258727051345
 21
59.96773257119526
 31
0.0
 12
107.9092060384679
 22
57.46773257119526
 32
0.0
 13
107.9092060384679
 23
57.46773257119526
 33
0.0
  0
MTEXT
  5
3D4
330
3CC
100
AcDbEntity
  8
ANNOTATION_TEXT
 62
     7
100
AcDbMText
 10
105.510364076615
 20
72.46773257119526
 30
0.0
 40
3.5
 41
0.0
 71
     5
 72
     1
  1
15
  7
ONSHAPE-STANDARD-DIMENSION
 11
-9.473903143467998E-16
 21
1.0
 31
0.0
  0
POINT
  5
3D5
330
3CC
100
AcDbEntity
  8
DEFPOINTS
 62
     0
100
AcDbPoint
 10
72.91743273178187
 20
87.46773257119523
 30
0.0
  0
POINT
  5
3D6
330
3CC
100
AcDbEntity
  8
DEFPOINTS
 62
     0
100
AcDbPoint
 10
72.91743273178187
 20
57.46773257119522
 30
0.0
  0
POINT
  5
3D7
330
3CC
100
AcDbEntity
  8
DEFPOINTS
 62
     0
100
AcDbPoint
 10
107.9092060384679
 20
57.46773257119526
 30
0.0
  0
ENDBLK
  5
3D8
330
3CC
100
AcDbEntity
  8
0
100
AcDbBlockEnd
  0
BLOCK
  5
3E0
330
3DF
100
AcDbEntity
  8
0
100
AcDbBlockBegin
  2
*D14
 70
     1
 10
0.0
 20
0.0
 30
0.0
  3
*D14
  1

  0
LINE
  5
3E1
330
3DF
100
AcDbEntity
  8
ANNOTATION_TEXT
 62
     7
100
AcDbLine
 10
81.89018676962625
 20
71.92646669382998
 30
0.0
 11
89.30044080747062
 21
59.09153020329106
 31
0.0
1001
INDEX
1070
     0
  0
LINE
  5
3E2
330
3DF
100
AcDbEntity
  8
ANNOTATION_TEXT
 62
     7
100
AcDbLine
 10
91.17544080747062
 20
55.84393493909942
 30
0.0
 11
98.18106676047547
 21
43.70983484967184
 31
0.0
1001
INDEX
1070
     0
  0
LINE
  5
3E3
330
3DF
100
AcDbEntity
  8
ANNOTATION_TEXT
 62
     7
100
AcDbLine
 10
55.9094246560931
 20
56.92646669382992
 30
0.0
 11
72.20030464694227
 21
28.70983484967186
 31
0.0
1001
INDEX
1070
     1
  0
LINE
  5
3E4
330
3DF
100
AcDbEntity
  8
ANNOTATION_TEXT
 62
     7
100
AcDbLine
 10
95.39100325101438
 20
43.54236660440238
 30
0.0
 11
73.74036815640336
 21
31.0423666044024
 31
0.0
  0
SOLID
  5
3E5
330
3DF
100
AcDbEntity
  8
ANNOTATION_TEXT
 62
     7
100
AcDbTrace
 10
95.59933658434771
 20
43.18152268615886
 30
0.0
 11
95.18266991768105
 21
43.9032105226459
 31
0.0
 12
97.55606676047547
 22
44.79236660440238
 32
0.0
 13
97.55606676047547
 23
44.79236660440238
 33
0.0
  0
SOLID
  5
3E6
330
3DF
100
AcDbEntity
  8
ANNOTATION_TEXT
 62
     7
100
AcDbTrace
 10
73.53203482307003
 20
31.40321052264592
 30
0.0
 11
73.94870148973669
 21
30.68152268615889
 31
0.0
 12
71.57530464694227
 22
29.79236660440241
 32
0.0
 13
71.57530464694227
 23
29.79236660440241
 33
0.0
  0
MTEXT
  5
3E7
330
3DF
100
AcDbEntity
  8
ANNOTATION_TEXT
 62
     7
100
AcDbMText
 10
83.3662647227825
 20
39.36982468303111
 30
0.0
 40
3.5
 41
0.0
 71
     5
 72
     1
  1
15
  7
ONSHAPE-STANDARD-DIMENSION
 11
0.8660254037844394
 21
0.4999999999999988
 31
0.0
  0
POINT
  5
3E8
330
3DF
100
AcDbEntity
  8
DEFPOINTS
 62
     0
100
AcDbPoint
 10
81.57768676962625
 20
72.46773257119526
 30
0.0
  0
POINT
  5
3E9
330
3DF
100
AcDbEntity
  8
DEFPOINTS
 62
     0
100
AcDbPoint
 10
55.5969246560931
 20
57.4677325711952
 30
0.0
  0
POINT
  5
3EA
330
3DF
100
AcDbEntity
  8
DEFPOINTS
 62
     0
100
AcDbPoint
 10
71.57530464694227
 20
29.79236660440241
 30
0.0
  0
ENDBLK
  5
3EB
330
3DF
100
AcDbEntity
  8
0
100
AcDbBlockEnd
  0
BLOCK
  5
3F3
330
3F2
100
AcDbEntity
  8
0
100
AcDbBlockBegin
  2
*D15
 70
     1
 10
0.0
 20
0.0
 30
0.0
  3
*D15
  1

  0
LINE
  5
3F4
330
3F2
100
AcDbEntity
  8
ANNOTATION_TEXT
 62
     7
100
AcDbLine
 10
46.62417061824872
 20
73.00899844856052
 30
0.0
 11
31.82041189644453
 21
98.64986069771628
 31
0.0
1001
INDEX
1070
     0
  0
LINE
  5
3F5
330
3F2
100
AcDbEntity
  8
ANNOTATION_TEXT
 62
     7
100
AcDbLine
 10
41.42801819554204
 20
70.00899844856053
 30
0.0
 11
26.62425947373786
 21
95.64986069771625
 31
0.0
1001
INDEX
1070
     1
  0
LINE
  5
3F6
330
3F2
100
AcDbEntity
  8
ANNOTATION_TEXT
 62
     7
100
AcDbLine
 10
32.44541189644453
 20
97.56732894298572
 30
0.0
 11
48.11554689622904
 21
106.6144856033491
 31
0.0
  0
LINE
  5
3F7
330
3F2
100
AcDbEntity
  8
ANNOTATION_TEXT
 62
     7
100
AcDbLine
 10
32.44541189644453
 20
97.56732894298572
 30
0.0
 11
27.24925947373786
 21
94.5673289429857
 31
0.0
  0
LINE
  5
3F8
330
3F2
100
AcDbEntity
  8
ANNOTATION_TEXT
 62
     7
100
AcDbLine
 10
34.61047540590562
 20
98.81732894298572
 30
0.0
 11
36.77553891536671
 21
100.0673289429857
 31
0.0
  0
LINE
  5
3F9
330
3F2
100
AcDbEntity
  8
ANNOTATION_TEXT
 62
     7
100
AcDbLine
 10
25.08419596427677
 20
93.3173289429857
 30
0.0
 11
22.91913245481567
 21
92.0673289429857
 31
0.0
  0
SOLID
  5
3FA
330
3F2
100
AcDbEntity
  8
ANNOTATION_TEXT
 62
     7
100
AcDbTrace
 10
34.40214207257228
 20
99.17817286122924
 30
0.0
 11
34.81880873923895
 21
98.45648502474221
 31
0.0
 12
32.44541189644453
 22
97.56732894298572
 32
0.0
 13
32.44541189644453
 23
97.56732894298572
 33
0.0
  0
SOLID
  5
3FB
330
3F2
100
AcDbEntity
  8
ANNOTATION_TEXT
 62
     7
100
AcDbTrace
 10
25.2925292976101
 20
92.95648502474218
 30
0.0
 11
24.87586263094343
 21
93.67817286122921
 31
0.0
 12
27.24925947373786
 22
94.5673289429857
 32
0.0
 13
27.24925947373786
 23
94.5673289429857
 33
0.0
  0
MTEXT
  5
3FC
330
3F2
100
AcDbEntity
  8
ANNOTATION_TEXT
 62
     7
100
AcDbMText
 10
45.37173039779584
 20
107.8209342588506
 30
0.0
 40
3.5
 41
0.0
 71
     5
 72
     1
  1
3
  7
ONSHAPE-STANDARD-DIMENSION
 11
0.866025403784438
 21
0.500000000000001
 31
0.0
  0
POINT
  5
3FD
330
3F2
100
AcDbEntity
  8
DEFPOINTS
 62
     0
100
AcDbPoint
 10
46.93667061824872
 20
72.46773257119524
 30
0.0
  0
POINT
  5
3FE
330
3F2
100
AcDbEntity
  8
DEFPOINTS
 62
     0
100
AcDbPoint
 10
41.74051819554204
 20
69.46773257119526
 30
0.0
  0
POINT
  5
3FF
330
3F2
100
AcDbEntity
  8
DEFPOINTS
 62
     0
100
AcDbPoint
 10
27.24925947373786
 20
94.56732894298568
 30
0.0
  0
ENDBLK
  5
400
330
3F2
100
AcDbEntity
  8
0
100
AcDbBlockEnd
  0
ENDSEC
  0
SECTION
  2
ENTITIES
  0
LINE
  5
76
330
1F
100
AcDbEntity
  8
VISIBLE
100
AcDbLine
 10
180.8455788327431
 20
120.5439781391242
 30
0.0
 11
183.0106423422042
 21
116.7939781391242
 31
0.0
  0
LINE
  5
77
330
1F
100
AcDbEntity
  8
VISIBLE
100
AcDbLine
 10
176.5154518138209
 20
120.5439781391242
 30
0.0
 11
180.8455788327431
 21
120.5439781391242
 31
0.0
  0
LINE
  5
78
330
1F
100
AcDbEntity
  8
VISIBLE
100
AcDbLine
 10
174.3503883043598
 20
116.7939781391242
 30
0.0
 11
176.5154518138209
 21
120.5439781391242
 31
0.0
  0
LINE
  5
79
330
1F
100
AcDbEntity
  8
VISIBLE
100
AcDbLine
 10
176.5154518138208
 20
113.0439781391243
 30
0.0
 11
174.3503883043598
 21
116.7939781391242
 31
0.0
  0
LINE
  5
7A
330
1F
100
AcDbEntity
  8
VISIBLE
100
AcDbLine
 10
180.8455788327431
 20
113.0439781391242
 30
0.0
 11
176.5154518138208
 21
113.0439781391243
 31
0.0
  0
LINE
  5
7B
330
1F
100
AcDbEntity
  8
VISIBLE
100
AcDbLine
 10
183.0106423422042
 20
116.7939781391242
 30
0.0
 11
180.8455788327431
 21
113.0439781391242
 31
0.0
  0
LINE
  5
7C
330
1F
100
AcDbEntity
  8
VISIBLE
100
AcDbLine
 10
176.5154518138209
 20
122.0439781391242
 30
0.0
 11
174.3503883043598
 21
125.7939781391242
 31
0.0
  0
LINE
  5
7D
330
1F
100
AcDbEntity
  8
VISIBLE
100
AcDbLine
 10
180.8455788327431
 20
122.0439781391241
 30
0.0
 11
176.5154518138209
 21
122.0439781391242
 31
0.0
  0
LINE
  5
7E
330
1F
100
AcDbEntity
  8
VISIBLE
100
AcDbLine
 10
183.0106423422042
 20
125.7939781391242
 30
0.0
 11
180.8455788327431
 21
122.0439781391241
 31
0.0
  0
LINE
  5
7F
330
1F
100
AcDbEntity
  8
VISIBLE
100
AcDbLine
 10
180.8455788327431
 20
129.5439781391242
 30
0.0
 11
183.0106423422042
 21
125.7939781391242
 31
0.0
  0
LINE
  5
80
330
1F
100
AcDbEntity
  8
VISIBLE
100
AcDbLine
 10
176.5154518138209
 20
129.5439781391242
 30
0.0
 11
180.8455788327431
 21
129.5439781391242
 31
0.0
  0
LINE
  5
81
330
1F
100
AcDbEntity
  8
VISIBLE
100
AcDbLine
 10
174.3503883043598
 20
125.7939781391242
 30
0.0
 11
176.5154518138209
 21
129.5439781391242
 31
0.0
  0
LINE
  5
82
330
1F
100
AcDbEntity
  8
VISIBLE
100
AcDbLine
 10
184.3096804478809
 20
117.5439781391241
 30
0.0
 11
182.1446169384197
 21
121.2939781391242
 31
0.0
  0
LINE
  5
83
330
1F
100
AcDbEntity
  8
VISIBLE
100
AcDbLine
 10
188.639807466803
 20
117.5439781391242
 30
0.0
 11
184.3096804478809
 21
117.5439781391241
 31
0.0
  0
LINE
  5
84
330
1F
100
AcDbEntity
  8
VISIBLE
100
AcDbLine
 10
190.8048704525283
 20
121.2939790462613
 30
0.0
 11
188.639807466803
 21
117.5439781391242
 31
0.0
  0
LINE
  5
85
330
1F
100
AcDbEntity
  8
VISIBLE
100
AcDbLine
 10
188.639807466803
 20
125.0439781391242
 30
0.0
 11
190.8048704525283
 21
121.2939790462613
 31
0.0
  0
LINE
  5
86
330
1F
100
AcDbEntity
  8
VISIBLE
100
AcDbLine
 10
184.3096804478809
 20
125.0439781391241
 30
0.0
 11
188.639807466803
 21
125.0439781391242
 31
0.0
  0
LINE
  5
87
330
1F
100
AcDbEntity
  8
VISIBLE
100
AcDbLine
 10
182.1446169384197
 20
121.2939781391242
 30
0.0
 11
184.3096804478809
 21
125.0439781391241
 31
0.0
  0
LINE
  5
88
330
1F
100
AcDbEntity
  8
VISIBLE
100
AcDbLine
 10
184.3096804478808
 20
126.5439781391243
 30
0.0
 11
182.1446169384197
 21
130.2939781391242
 31
0.0
  0
LINE
  5
89
330
1F
100
AcDbEntity
  8
VISIBLE
100
AcDbLine
 10
188.639807466803
 20
126.5439781391242
 30
0.0
 11
184.3096804478808
 21
126.5439781391243
 31
0.0
  0
LINE
  5
8A
330
1F
100
AcDbEntity
  8
VISIBLE
100
AcDbLine
 10
190.8048704525283
 20
130.2939790462613
 30
0.0
 11
188.639807466803
 21
126.5439781391242
 31
0.0
  0
LINE
  5
8B
330
1F
100
AcDbEntity
  8
VISIBLE
100
AcDbLine
 10
188.6398074668031
 20
134.0439781391242
 30
0.0
 11
190.8048704525283
 21
130.2939790462613
 31
0.0
  0
LINE
  5
8C
330
1F
100
AcDbEntity
  8
VISIBLE
100
AcDbLine
 10
184.3096804478809
 20
134.0439781391242
 30
0.0
 11
188.6398074668031
 21
134.0439781391242
 31
0.0
  0
LINE
  5
8D
330
1F
100
AcDbEntity
  8
VISIBLE
100
AcDbLine
 10
182.1446169384197
 20
130.2939781391242
 30
0.0
 11
184.3096804478809
 21
134.0439781391242
 31
0.0
  0
LINE
  5
8E
330
1F
100
AcDbEntity
  8
VISIBLE
100
AcDbLine
 10
165.2571215646232
 20
120.5439781391242
 30
0.0
 11
167.4221850740842
 21
116.7939781391242
 31
0.0
  0
LINE
  5
8F
330
1F
100
AcDbEntity
  8
VISIBLE
100
AcDbLine
 10
160.9269945457009
 20
120.5439781391242
 30
0.0
 11
165.2571215646232
 21
120.5439781391242
 31
0.0
  0
LINE
  5
90
330
1F
100
AcDbEntity
  8
VISIBLE
100
AcDbLine
 10
158.7619310362398
 20
116.7939781391242
 30
0.0
 11
160.9269945457009
 21
120.5439781391242
 31
0.0
  0
LINE
  5
91
330
1F
100
AcDbEntity
  8
VISIBLE
100
AcDbLine
 10
160.9269945457009
 20
113.0439781391242
 30
0.0
 11
158.7619310362398
 21
116.7939781391242
 31
0.0
  0
LINE
  5
92
330
1F
100
AcDbEntity
  8
VISIBLE
100
AcDbLine
 10
165.2571215646232
 20
113.0439781391242
 30
0.0
 11
160.9269945457009
 21
113.0439781391242
 31
0.0
  0
LINE
  5
93
330
1F
100
AcDbEntity
  8
VISIBLE
100
AcDbLine
 10
167.4221850740842
 20
116.7939781391242
 30
0.0
 11
165.2571215646232
 21
113.0439781391242
 31
0.0
  0
LINE
  5
94
330
1F
100
AcDbEntity
  8
VISIBLE
100
AcDbLine
 10
168.721223179761
 20
117.5439781391242
 30
0.0
 11
166.5561596702998
 21
121.2939781391242
 31
0.0
  0
LINE
  5
95
330
1F
100
AcDbEntity
  8
VISIBLE
100
AcDbLine
 10
173.0513501986831
 20
117.5439781391242
 30
0.0
 11
168.721223179761
 21
117.5439781391242
 31
0.0
  0
LINE
  5
96
330
1F
100
AcDbEntity
  8
VISIBLE
100
AcDbLine
 10
175.2164137081442
 20
121.2939781391242
 30
0.0
 11
173.0513501986831
 21
117.5439781391242
 31
0.0
  0
LINE
  5
97
330
1F
100
AcDbEntity
  8
VISIBLE
100
AcDbLine
 10
173.0513501986831
 20
125.0439781391242
 30
0.0
 11
175.2164137081442
 21
121.2939781391242
 31
0.0
  0
LINE
  5
98
330
1F
100
AcDbEntity
  8
VISIBLE
100
AcDbLine
 10
168.7212231797609
 20
125.0439781391242
 30
0.0
 11
173.0513501986831
 21
125.0439781391242
 31
0.0
  0
LINE
  5
99
330
1F
100
AcDbEntity
  8
VISIBLE
100
AcDbLine
 10
166.5561596702998
 20
121.2939781391242
 30
0.0
 11
168.7212231797609
 21
125.0439781391242
 31
0.0
  0
LINE
  5
9A
330
1F
100
AcDbEntity
  8
VISIBLE
100
AcDbLine
 10
145.338537277581
 20
122.0439781391242
 30
0.0
 11
143.1734737681199
 21
125.7939781391242
 31
0.0
  0
LINE
  5
9B
330
1F
100
AcDbEntity
  8
VISIBLE
100
AcDbLine
 10
149.6686642965032
 20
122.0439781391242
 30
0.0
 11
145.338537277581
 21
122.0439781391242
 31
0.0
  0
LINE
  5
9C
330
1F
100
AcDbEntity
  8
VISIBLE
100
AcDbLine
 10
151.8337278059643
 20
125.7939781391242
 30
0.0
 11
149.6686642965032
 21
122.0439781391242
 31
0.0
  0
LINE
  5
9D
330
1F
100
AcDbEntity
  8
VISIBLE
100
AcDbLine
 10
149.6686642965032
 20
129.5439781391242
 30
0.0
 11
151.8337278059643
 21
125.7939781391242
 31
0.0
  0
LINE
  5
9E
330
1F
100
AcDbEntity
  8
VISIBLE
100
AcDbLine
 10
145.338537277581
 20
129.5439781391242
 30
0.0
 11
149.6686642965032
 21
129.5439781391242
 31
0.0
  0
LINE
  5
9F
330
1F
100
AcDbEntity
  8
VISIBLE
100
AcDbLine
 10
143.1734737681199
 20
125.7939781391242
 30
0.0
 11
145.338537277581
 21
129.5439781391242
 31
0.0
  0
LINE
  5
A0
330
1F
100
AcDbEntity
  8
VISIBLE
100
AcDbLine
 10
153.132765911641
 20
126.5439781391242
 30
0.0
 11
150.9677024021799
 21
130.2939781391242
 31
0.0
  0
LINE
  5
A1
330
1F
100
AcDbEntity
  8
VISIBLE
100
AcDbLine
 10
157.4628929305632
 20
126.5439781391242
 30
0.0
 11
153.132765911641
 21
126.5439781391242
 31
0.0
  0
LINE
  5
A2
330
1F
100
AcDbEntity
  8
VISIBLE
100
AcDbLine
 10
159.6279564400243
 20
130.2939781391242
 30
0.0
 11
157.4628929305632
 21
126.5439781391242
 31
0.0
  0
LINE
  5
A3
330
1F
100
AcDbEntity
  8
VISIBLE
100
AcDbLine
 10
157.4628929305632
 20
134.0439781391242
 30
0.0
 11
159.6279564400243
 21
130.2939781391242
 31
0.0
  0
LINE
  5
A4
330
1F
100
AcDbEntity
  8
VISIBLE
100
AcDbLine
 10
153.1327659116409
 20
134.0439781391242
 30
0.0
 11
157.4628929305632
 21
134.0439781391242
 31
0.0
  0
LINE
  5
A5
330
1F
100
AcDbEntity
  8
VISIBLE
100
AcDbLine
 10
150.9677024021799
 20
130.2939781391242
 30
0.0
 11
153.1327659116409
 21
134.0439781391242
 31
0.0
  0
LINE
  5
A6
330
1F
100
AcDbEntity
  8
VISIBLE
100
AcDbLine
 10
137.544308643521
 20
126.5439781391242
 30
0.0
 11
135.3792451340599
 21
130.2939781391242
 31
0.0
  0
LINE
  5
A7
330
1F
100
AcDbEntity
  8
VISIBLE
100
AcDbLine
 10
141.8744356624432
 20
126.5439781391242
 30
0.0
 11
137.544308643521
 21
126.5439781391242
 31
0.0
  0
LINE
  5
A8
330
1F
100
AcDbEntity
  8
VISIBLE
100
AcDbLine
 10
144.0394991719044
 20
130.2939781391242
 30
0.0
 11
141.8744356624432
 21
126.5439781391242
 31
0.0
  0
LINE
  5
A9
330
1F
100
AcDbEntity
  8
VISIBLE
100
AcDbLine
 10
141.8744356624432
 20
134.0439781391242
 30
0.0
 11
144.0394991719044
 21
130.2939781391242
 31
0.0
  0
LINE
  5
AA
330
1F
100
AcDbEntity
  8
VISIBLE
100
AcDbLine
 10
137.544308643521
 20
134.0439781391242
 30
0.0
 11
141.8744356624432
 21
134.0439781391242
 31
0.0
  0
LINE
  5
AB
330
1F
100
AcDbEntity
  8
VISIBLE
100
AcDbLine
 10
135.3792451340599
 20
130.2939781391242
 30
0.0
 11
137.544308643521
 21
134.0439781391242
 31
0.0
  0
LINE
  5
AC
330
1F
100
AcDbEntity
  8
VISIBLE
100
AcDbLine
 10
145.338537277581
 20
131.0439781391242
 30
0.0
 11
143.1734737681199
 21
134.7939781391242
 31
0.0
  0
LINE
  5
AD
330
1F
100
AcDbEntity
  8
VISIBLE
100
AcDbLine
 10
149.6686642965032
 20
131.0439781391242
 30
0.0
 11
145.338537277581
 21
131.0439781391242
 31
0.0
  0
LINE
  5
AE
330
1F
100
AcDbEntity
  8
VISIBLE
100
AcDbLine
 10
151.8337278059643
 20
134.7939781391242
 30
0.0
 11
149.6686642965032
 21
131.0439781391242
 31
0.0
  0
LINE
  5
AF
330
1F
100
AcDbEntity
  8
VISIBLE
100
AcDbLine
 10
143.1734737681199
 20
134.7939781391242
 30
0.0
 11
151.8337278059643
 21
134.7939781391242
 31
0.0
  0
LINE
  5
B0
330
1F
100
AcDbEntity
  8
VISIBLE
100
AcDbLine
 10
168.7212231797609
 20
126.5439781391242
 30
0.0
 11
166.5561596702998
 21
130.2939781391242
 31
0.0
  0
LINE
  5
B1
330
1F
100
AcDbEntity
  8
VISIBLE
100
AcDbLine
 10
173.0513501986831
 20
126.5439781391242
 30
0.0
 11
168.7212231797609
 21
126.5439781391242
 31
0.0
  0
LINE
  5
B2
330
1F
100
AcDbEntity
  8
VISIBLE
100
AcDbLine
 10
175.2164137081442
 20
130.2939781391242
 30
0.0
 11
173.0513501986831
 21
126.5439781391242
 31
0.0
  0
LINE
  5
B3
330
1F
100
AcDbEntity
  8
VISIBLE
100
AcDbLine
 10
173.0513501986831
 20
134.0439781391242
 30
0.0
 11
175.2164137081442
 21
130.2939781391242
 31
0.0
  0
LINE
  5
B4
330
1F
100
AcDbEntity
  8
VISIBLE
100
AcDbLine
 10
168.7212231797609
 20
134.0439781391242
 30
0.0
 11
173.0513501986831
 21
134.0439781391242
 31
0.0
  0
LINE
  5
B5
330
1F
100
AcDbEntity
  8
VISIBLE
100
AcDbLine
 10
166.5561596702998
 20
130.2939781391242
 30
0.0
 11
168.7212231797609
 21
134.0439781391242
 31
0.0
  0
LINE
  5
B6
330
1F
100
AcDbEntity
  8
VISIBLE
100
AcDbLine
 10
176.5154518138208
 20
131.0439781391242
 30
0.0
 11
174.3503883043598
 21
134.7939781391242
 31
0.0
  0
LINE
  5
B7
330
1F
100
AcDbEntity
  8
VISIBLE
100
AcDbLine
 10
180.8455788327431
 20
131.0439781391242
 30
0.0
 11
176.5154518138208
 21
131.0439781391242
 31
0.0
  0
LINE
  5
B8
330
1F
100
AcDbEntity
  8
VISIBLE
100
AcDbLine
 10
183.0106423422042
 20
134.7939781391242
 30
0.0
 11
180.8455788327431
 21
131.0439781391242
 31
0.0
  0
LINE
  5
B9
330
1F
100
AcDbEntity
  8
VISIBLE
100
AcDbLine
 10
174.3503883043598
 20
134.7939781391242
 30
0.0
 11
183.0106423422042
 21
134.7939781391242
 31
0.0
  0
LINE
  5
BA
330
1F
100
AcDbEntity
  8
VISIBLE
100
AcDbLine
 10
160.9269945457009
 20
122.0439781391242
 30
0.0
 11
158.7619310362398
 21
125.7939781391242
 31
0.0
  0
LINE
  5
BB
330
1F
100
AcDbEntity
  8
VISIBLE
100
AcDbLine
 10
165.2571215646231
 20
122.0439781391242
 30
0.0
 11
160.9269945457009
 21
122.0439781391242
 31
0.0
  0
LINE
  5
BC
330
1F
100
AcDbEntity
  8
VISIBLE
100
AcDbLine
 10
167.4221850740842
 20
125.7939781391242
 30
0.0
 11
165.2571215646231
 21
122.0439781391242
 31
0.0
  0
LINE
  5
BD
330
1F
100
AcDbEntity
  8
VISIBLE
100
AcDbLine
 10
165.2571215646232
 20
129.5439781391242
 30
0.0
 11
167.4221850740842
 21
125.7939781391242
 31
0.0
  0
LINE
  5
BE
330
1F
100
AcDbEntity
  8
VISIBLE
100
AcDbLine
 10
160.9269945457009
 20
129.5439781391242
 30
0.0
 11
165.2571215646232
 21
129.5439781391242
 31
0.0
  0
LINE
  5
BF
330
1F
100
AcDbEntity
  8
VISIBLE
100
AcDbLine
 10
158.7619310362398
 20
125.7939781391242
 30
0.0
 11
160.9269945457009
 21
129.5439781391242
 31
0.0
  0
LINE
  5
C0
330
1F
100
AcDbEntity
  8
VISIBLE
100
AcDbLine
 10
160.9269945457009
 20
131.0439781391242
 30
0.0
 11
158.7619310362399
 21
134.7939781391242
 31
0.0
  0
LINE
  5
C1
330
1F
100
AcDbEntity
  8
VISIBLE
100
AcDbLine
 10
165.2571215646231
 20
131.0439781391242
 30
0.0
 11
160.9269945457009
 21
131.0439781391242
 31
0.0
  0
LINE
  5
C2
330
1F
100
AcDbEntity
  8
VISIBLE
100
AcDbLine
 10
167.4221850740842
 20
134.7939781391242
 30
0.0
 11
165.2571215646231
 21
131.0439781391242
 31
0.0
  0
LINE
  5
C3
330
1F
100
AcDbEntity
  8
VISIBLE
100
AcDbLine
 10
158.7619310362399
 20
134.7939781391242
 30
0.0
 11
167.4221850740842
 21
134.7939781391242
 31
0.0
  0
LINE
  5
C4
330
1F
100
AcDbEntity
  8
VISIBLE
100
AcDbLine
 10
137.544308643521
 20
117.5439781391242
 30
0.0
 11
135.37924513406
 21
121.2939781391242
 31
0.0
  0
LINE
  5
C5
330
1F
100
AcDbEntity
  8
VISIBLE
100
AcDbLine
 10
141.8744356624433
 20
117.5439781391242
 30
0.0
 11
137.544308643521
 21
117.5439781391242
 31
0.0
  0
LINE
  5
C6
330
1F
100
AcDbEntity
  8
VISIBLE
100
AcDbLine
 10
144.0394991719043
 20
121.2939781391242
 30
0.0
 11
141.8744356624433
 21
117.5439781391242
 31
0.0
  0
LINE
  5
C7
330
1F
100
AcDbEntity
  8
VISIBLE
100
AcDbLine
 10
141.8744356624433
 20
125.0439781391242
 30
0.0
 11
144.0394991719043
 21
121.2939781391242
 31
0.0
  0
LINE
  5
C8
330
1F
100
AcDbEntity
  8
VISIBLE
100
AcDbLine
 10
137.544308643521
 20
125.0439781391242
 30
0.0
 11
141.8744356624433
 21
125.0439781391242
 31
0.0
  0
LINE
  5
C9
330
1F
100
AcDbEntity
  8
VISIBLE
100
AcDbLine
 10
135.37924513406
 20
121.2939781391242
 30
0.0
 11
137.544308643521
 21
125.0439781391242
 31
0.0
  0
LINE
  5
CA
330
1F
100
AcDbEntity
  8
VISIBLE
100
AcDbLine
 10
129.7500800094611
 20
113.0439781391242
 30
0.0
 11
127.5850165
 21
116.7939781391242
 31
0.0
  0
LINE
  5
CB
330
1F
100
AcDbEntity
  8
VISIBLE
100
AcDbLine
 10
134.0802070283833
 20
113.0439781391242
 30
0.0
 11
129.7500800094611
 21
113.0439781391242
 31
0.0
  0
LINE
  5
CC
330
1F
100
AcDbEntity
  8
VISIBLE
100
AcDbLine
 10
136.2452705378444
 20
116.7939781391242
 30
0.0
 11
134.0802070283833
 21
113.0439781391242
 31
0.0
  0
LINE
  5
CD
330
1F
100
AcDbEntity
  8
VISIBLE
100
AcDbLine
 10
134.0802070283833
 20
120.5439781391242
 30
0.0
 11
136.2452705378444
 21
116.7939781391242
 31
0.0
  0
LINE
  5
CE
330
1F
100
AcDbEntity
  8
VISIBLE
100
AcDbLine
 10
129.7500800094611
 20
120.5439781391242
 30
0.0
 11
134.0802070283833
 21
120.5439781391242
 31
0.0
  0
LINE
  5
CF
330
1F
100
AcDbEntity
  8
VISIBLE
100
AcDbLine
 10
127.5850165
 20
116.7939781391242
 30
0.0
 11
129.7500800094611
 21
120.5439781391242
 31
0.0
  0
LINE
  5
D0
330
1F
100
AcDbEntity
  8
VISIBLE
100
AcDbLine
 10
136.2452705378444
 20
125.7939781391242
 30
0.0
 11
134.0802070283833
 21
122.0439781391242
 31
0.0
  0
LINE
  5
D1
330
1F
100
AcDbEntity
  8
VISIBLE
100
AcDbLine
 10
134.0802070283833
 20
129.5439781391242
 30
0.0
 11
136.2452705378444
 21
125.7939781391242
 31
0.0
  0
LINE
  5
D2
330
1F
100
AcDbEntity
  8
VISIBLE
100
AcDbLine
 10
129.7500800094611
 20
129.5439781391242
 30
0.0
 11
134.0802070283833
 21
129.5439781391242
 31
0.0
  0
LINE
  5
D3
330
1F
100
AcDbEntity
  8
VISIBLE
100
AcDbLine
 10
127.5850165
 20
125.7939781391242
 30
0.0
 11
129.7500800094611
 21
129.5439781391242
 31
0.0
  0
LINE
  5
D4
330
1F
100
AcDbEntity
  8
VISIBLE
100
AcDbLine
 10
129.7500800094611
 20
122.0439781391242
 30
0.0
 11
127.5850165
 21
125.7939781391242
 31
0.0
  0
LINE
  5
D5
330
1F
100
AcDbEntity
  8
VISIBLE
100
AcDbLine
 10
134.0802070283833
 20
122.0439781391242
 30
0.0
 11
129.7500800094611
 21
122.0439781391242
 31
0.0
  0
LINE
  5
D6
330
1F
100
AcDbEntity
  8
VISIBLE
100
AcDbLine
 10
153.132765911641
 20
117.5439781391242
 30
0.0
 11
150.9677024021799
 21
121.2939781391242
 31
0.0
  0
LINE
  5
D7
330
1F
100
AcDbEntity
  8
VISIBLE
100
AcDbLine
 10
157.4628929305632
 20
117.5439781391242
 30
0.0
 11
153.132765911641
 21
117.5439781391242
 31
0.0
  0
LINE
  5
D8
330
1F
100
AcDbEntity
  8
VISIBLE
100
AcDbLine
 10
159.6279564400243
 20
121.2939781391242
 30
0.0
 11
157.4628929305632
 21
117.5439781391242
 31
0.0
  0
LINE
  5
D9
330
1F
100
AcDbEntity
  8
VISIBLE
100
AcDbLine
 10
157.4628929305632
 20
125.0439781391242
 30
0.0
 11
159.6279564400243
 21
121.2939781391242
 31
0.0
  0
LINE
  5
DA
330
1F
100
AcDbEntity
  8
VISIBLE
100
AcDbLine
 10
153.132765911641
 20
125.0439781391242
 30
0.0
 11
157.4628929305632
 21
125.0439781391242
 31
0.0
  0
LINE
  5
DB
330
1F
100
AcDbEntity
  8
VISIBLE
100
AcDbLine
 10
150.9677024021799
 20
121.2939781391242
 30
0.0
 11
153.132765911641
 21
125.0439781391242
 31
0.0
  0
LINE
  5
DC
330
1F
100
AcDbEntity
  8
VISIBLE
100
AcDbLine
 10
149.6686642965032
 20
120.5439781391242
 30
0.0
 11
151.8337278059643
 21
116.7939781391242
 31
0.0
  0
LINE
  5
DD
330
1F
100
AcDbEntity
  8
VISIBLE
100
AcDbLine
 10
145.338537277581
 20
120.5439781391242
 30
0.0
 11
149.6686642965032
 21
120.5439781391242
 31
0.0
  0
LINE
  5
DE
330
1F
100
AcDbEntity
  8
VISIBLE
100
AcDbLine
 10
143.1734737681199
 20
116.7939781391242
 30
0.0
 11
145.338537277581
 21
120.5439781391242
 31
0.0
  0
LINE
  5
DF
330
1F
100
AcDbEntity
  8
VISIBLE
100
AcDbLine
 10
145.338537277581
 20
113.0439781391242
 30
0.0
 11
143.1734737681199
 21
116.7939781391242
 31
0.0
  0
LINE
  5
E0
330
1F
100
AcDbEntity
  8
VISIBLE
100
AcDbLine
 10
149.6686642965032
 20
113.0439781391242
 30
0.0
 11
145.338537277581
 21
113.0439781391242
 31
0.0
  0
LINE
  5
E1
330
1F
100
AcDbEntity
  8
VISIBLE
100
AcDbLine
 10
151.8337278059643
 20
116.7939781391242
 30
0.0
 11
149.6686642965032
 21
113.0439781391242
 31
0.0
  0
LINE
  5
E2
330
1F
100
AcDbEntity
  8
VISIBLE
100
AcDbLine
 10
136.2452705378444
 20
134.7939781391242
 30
0.0
 11
134.0802070283833
 21
131.0439781391242
 31
0.0
  0
LINE
  5
E3
330
1F
100
AcDbEntity
  8
VISIBLE
100
AcDbLine
 10
127.5850165
 20
134.7939781391242
 30
0.0
 11
136.2452705378444
 21
134.7939781391242
 31
0.0
  0
LINE
  5
E4
330
1F
100
AcDbEntity
  8
VISIBLE
100
AcDbLine
 10
129.7500800094611
 20
131.0439781391242
 30
0.0
 11
127.5850165
 21
134.7939781391242
 31
0.0
  0
LINE
  5
E5
330
1F
100
AcDbEntity
  8
VISIBLE
100
AcDbLine
 10
134.0802070283833
 20
131.0439781391242
 30
0.0
 11
129.7500800094611
 21
131.0439781391242
 31
0.0
  0
LINE
  5
E6
330
1F
100
AcDbEntity
  8
VISIBLE
100
AcDbLine
 10
193.694944
 20
110.1449367088608
 30
0.0
 11
124.694944
 21
110.1449367088608
 31
0.0
  0
LINE
  5
E7
330
1F
100
AcDbEntity
  8
VISIBLE
100
AcDbLine
 10
124.694944
 20
150.1449367088608
 30
0.0
 11
124.694944
 21
110.1449367088608
 31
0.0
  0
LINE
  5
E8
330
1F
100
AcDbEntity
  8
VISIBLE
100
AcDbLine
 10
193.694944
 20
150.1449367088608
 30
0.0
 11
124.694944
 21
150.1449367088608
 31
0.0
  0
LINE
  5
E9
330
1F
100
AcDbEntity
  8
VISIBLE
100
AcDbLine
 10
193.694944
 20
150.1449367088608
 30
0.0
 11
193.694944
 21
110.1449367088608
 31
0.0
  0
CIRCLE
  5
EA
330
1F
100
AcDbEntity
  8
VISIBLE
100
AcDbCircle
 10
142.694944
 20
149.3949367088608
 30
0.0
 40
0.5000000000000004
  0
CIRCLE
  5
EB
330
1F
100
AcDbEntity
  8
VISIBLE
100
AcDbCircle
 10
192.944944
 20
149.3949367088608
 30
0.0
 40
0.5000000000000004
  0
CIRCLE
  5
EC
330
1F
100
AcDbEntity
  8
VISIBLE
100
AcDbCircle
 10
192.944944
 20
139.3949367088608
 30
0.0
 40
0.5000000000000004
  0
CIRCLE
  5
ED
330
1F
100
AcDbEntity
  8
VISIBLE
100
AcDbCircle
 10
192.944944
 20
125.1449367088608
 30
0.0
 40
0.5000000000000004
  0
CIRCLE
  5
EE
330
1F
100
AcDbEntity
  8
VISIBLE
100
AcDbCircle
 10
192.944944
 20
110.8949367088608
 30
0.0
 40
0.5000000000000004
  0
CIRCLE
  5
EF
330
1F
100
AcDbEntity
  8
VISIBLE
100
AcDbCircle
 10
125.444944
 20
110.8949367088608
 30
0.0
 40
0.5000000000000004
  0
CIRCLE
  5
F0
330
1F
100
AcDbEntity
  8
VISIBLE
100
AcDbCircle
 10
125.444944
 20
125.1449367088608
 30
0.0
 40
0.5000000000000004
  0
CIRCLE
  5
F1
330
1F
100
AcDbEntity
  8
VISIBLE
100
AcDbCircle
 10
125.444944
 20
139.3949367088608
 30
0.0
 40
0.5000000000000004
  0
CIRCLE
  5
F2
330
1F
100
AcDbEntity
  8
VISIBLE
100
AcDbCircle
 10
125.444944
 20
149.3949367088608
 30
0.0
 40
0.5000000000000004
  0
CIRCLE
  5
F3
330
1F
100
AcDbEntity
  8
VISIBLE
100
AcDbCircle
 10
159.194944
 20
149.3949367088608
 30
0.0
 40
0.5000000000000004
  0
CIRCLE
  5
F4
330
1F
100
AcDbEntity
  8
VISIBLE
100
AcDbCircle
 10
175.694944
 20
149.3949367088608
 30
0.0
 40
0.5000000000000004
  0
CIRCLE
  5
F5
330
1F
100
AcDbEntity
  8
VISIBLE
100
AcDbCircle
 10
142.694944
 20
139.3949367088608
 30
0.0
 40
0.5000000000000004
  0
CIRCLE
  5
F6
330
1F
100
AcDbEntity
  8
VISIBLE
100
AcDbCircle
 10
159.194944
 20
139.3949367088608
 30
0.0
 40
0.5000000000000004
  0
CIRCLE
  5
F7
330
1F
100
AcDbEntity
  8
VISIBLE
100
AcDbCircle
 10
175.694944
 20
110.8949367088608
 30
0.0
 40
0.5000000000000004
  0
CIRCLE
  5
F8
330
1F
100
AcDbEntity
  8
VISIBLE
100
AcDbCircle
 10
159.194944
 20
110.8949367088608
 30
0.0
 40
0.5000000000000004
  0
CIRCLE
  5
F9
330
1F
100
AcDbEntity
  8
VISIBLE
100
AcDbCircle
 10
142.694944
 20
110.8949367088608
 30
0.0
 40
0.5000000000000004
  0
CIRCLE
  5
FA
330
1F
100
AcDbEntity
  8
VISIBLE
100
AcDbCircle
 10
175.694944
 20
139.3949367088608
 30
0.0
 40
0.5000000000000004
  0
LINE
  5
FB
330
1F
100
AcDbEntity
  8
VISIBLE
100
AcDbLine
 10
135.8122578359522
 20
113.0439781391242
 30
0.0
 11
143.6064864700121
 21
113.0439781391242
 31
0.0
  0
LINE
  5
FC
330
1F
100
AcDbEntity
  8
VISIBLE
100
AcDbLine
 10
143.6064864700121
 20
113.0439781391242
 30
0.0
 11
141.8744356624433
 21
116.0439781391242
 31
0.0
  0
LINE
  5
FD
330
1F
100
AcDbEntity
  8
VISIBLE
100
AcDbLine
 10
141.8744356624433
 20
116.0439781391242
 30
0.0
 11
137.544308643521
 21
116.0439781391242
 31
0.0
  0
LINE
  5
FE
330
1F
100
AcDbEntity
  8
VISIBLE
100
AcDbLine
 10
137.544308643521
 20
116.0439781391242
 30
0.0
 11
135.8122578359522
 21
113.0439781391242
 31
0.0
  0
LINE
  5
FF
330
1F
100
AcDbEntity
  8
VISIBLE
100
AcDbLine
 10
151.4007151040721
 20
113.0439781391242
 30
0.0
 11
159.1949437381321
 21
113.0439781391242
 31
0.0
  0
LINE
  5
100
330
1F
100
AcDbEntity
  8
VISIBLE
100
AcDbLine
 10
159.1949437381321
 20
113.0439781391242
 30
0.0
 11
157.4628929305632
 21
116.0439781391242
 31
0.0
  0
LINE
  5
101
330
1F
100
AcDbEntity
  8
VISIBLE
100
AcDbLine
 10
157.4628929305632
 20
116.0439781391242
 30
0.0
 11
153.132765911641
 21
116.0439781391242
 31
0.0
  0
LINE
  5
102
330
1F
100
AcDbEntity
  8
VISIBLE
100
AcDbLine
 10
153.132765911641
 20
116.0439781391242
 30
0.0
 11
151.4007151040721
 21
113.0439781391242
 31
0.0
  0
LINE
  5
103
330
1F
100
AcDbEntity
  8
VISIBLE
100
AcDbLine
 10
184.3096804478809
 20
116.0439781391242
 30
0.0
 11
182.577629640312
 21
113.0439781391243
 31
0.0
  0
LINE
  5
104
330
1F
100
AcDbEntity
  8
VISIBLE
100
AcDbLine
 10
182.577629640312
 20
113.0439781391243
 30
0.0
 11
190.3718582743719
 21
113.0439781391243
 31
0.0
  0
LINE
  5
105
330
1F
100
AcDbEntity
  8
VISIBLE
100
AcDbLine
 10
190.3718582743719
 20
113.0439781391243
 30
0.0
 11
188.639807466803
 21
116.0439781391242
 31
0.0
  0
LINE
  5
106
330
1F
100
AcDbEntity
  8
VISIBLE
100
AcDbLine
 10
188.639807466803
 20
116.0439781391242
 30
0.0
 11
184.3096804478809
 21
116.0439781391242
 31
0.0
  0
LINE
  5
107
330
1F
100
AcDbEntity
  8
VISIBLE
100
AcDbLine
 10
166.989172372192
 20
113.0439781391242
 30
0.0
 11
174.783401006252
 21
113.0439781391242
 31
0.0
  0
LINE
  5
108
330
1F
100
AcDbEntity
  8
VISIBLE
100
AcDbLine
 10
174.783401006252
 20
113.0439781391242
 30
0.0
 11
173.0513501986831
 21
116.0439781391242
 31
0.0
  0
LINE
  5
109
330
1F
100
AcDbEntity
  8
VISIBLE
100
AcDbLine
 10
173.0513501986831
 20
116.0439781391242
 30
0.0
 11
168.7212231797609
 21
116.0439781391242
 31
0.0
  0
LINE
  5
10A
330
1F
100
AcDbEntity
  8
VISIBLE
100
AcDbLine
 10
168.7212231797609
 20
116.0439781391242
 30
0.0
 11
166.989172372192
 21
113.0439781391242
 31
0.0
  0
POLYLINE
  5
10E
330
1F
100
AcDbEntity
  8
DETAIL_VIEW_BORDER
100
AcDb2dPolyline
 66
     1
 10
0.0
 20
0.0
 30
0.0
 70
   129
  0
VERTEX
  5
10F
330
10E
100
AcDbEntity
  8
DETAIL_VIEW_BORDER
100
AcDbVertex
100
AcDb2dVertex
 10
91.46162331860559
 20
73.83685113123512
 30
0.0
  0
VERTEX
  5
110
330
10E
100
AcDbEntity
  8
DETAIL_VIEW_BORDER
100
AcDbVertex
100
AcDb2dVertex
 10
91.40815537812215
 20
75.53822858440377
 30
0.0
  0
VERTEX
  5
111
330
10E
100
AcDbEntity
  8
DETAIL_VIEW_BORDER
100
AcDbVertex
100
AcDb2dVertex
 10
91.24796257020574
 20
77.23289147805016
 30
0.0
  0
VERTEX
  5
112
330
10E
100
AcDbEntity
  8
DETAIL_VIEW_BORDER
100
AcDbVertex
100
AcDb2dVertex
 10
90.98167710268409
 20
78.91415175195095
 30
0.0
  0
VERTEX
  5
113
330
10E
100
AcDbEntity
  8
DETAIL_VIEW_BORDER
100
AcDbVertex
100
AcDb2dVertex
 10
90.61034988264323
 20
80.57537423989979
 30
0.0
  0
VERTEX
  5
114
330
10E
100
AcDbEntity
  8
DETAIL_VIEW_BORDER
100
AcDbVertex
100
AcDb2dVertex
 10
90.13544636897743
 20
82.21000285567709
 30
0.0
  0
VERTEX
  5
115
330
10E
100
AcDbEntity
  8
DETAIL_VIEW_BORDER
100
AcDbVertex
100
AcDb2dVertex
 10
89.55884078889228
 20
83.81158646692717
 30
0.0
  0
VERTEX
  5
116
330
10E
100
AcDbEntity
  8
DETAIL_VIEW_BORDER
100
AcDbVertex
100
AcDb2dVertex
 10
88.88280874118641
 20
85.37380435483038
 30
0.0
  0
VERTEX
  5
117
330
10E
100
AcDbEntity
  8
DETAIL_VIEW_BORDER
100
AcDbVertex
100
AcDb2dVertex
 10
88.11001821550242
 20
86.89049115909262
 30
0.0
  0
VERTEX
  5
118
330
10E
100
AcDbEntity
  8
DETAIL_VIEW_BORDER
100
AcDbVertex
100
AcDb2dVertex
 10
87.24351906299079
 20
88.35566120980577
 30
0.0
  0
VERTEX
  5
119
330
10E
100
AcDbEntity
  8
DETAIL_VIEW_BORDER
100
AcDbVertex
100
AcDb2dVertex
 10
86.28673095994066
 20
89.76353215015219
 30
0.0
  0
VERTEX
  5
11A
330
10E
100
AcDbEntity
  8
DETAIL_VIEW_BORDER
100
AcDbVertex
100
AcDb2dVertex
 10
85.24342991187987
 20
91.10854775672537
 30
0.0
  0
VERTEX
  5
11B
330
10E
100
AcDbEntity
  8
DETAIL_VIEW_BORDER
100
AcDbVertex
100
AcDb2dVertex
 10
84.11773335140622
 20
92.38539986740535
 30
0.0
  0
VERTEX
  5
11C
330
10E
100
AcDbEntity
  8
DETAIL_VIEW_BORDER
100
AcDbVertex
100
AcDb2dVertex
 10
82.91408388856203
 20
93.58904933024954
 30
0.0
  0
VERTEX
  5
11D
330
10E
100
AcDbEntity
  8
DETAIL_VIEW_BORDER
100
AcDbVertex
100
AcDb2dVertex
 10
81.63723177788205
 20
94.7147458907232
 30
0.0
  0
VERTEX
  5
11E
330
10E
100
AcDbEntity
  8
DETAIL_VIEW_BORDER
100
AcDbVertex
100
AcDb2dVertex
 10
80.29221617130887
 20
95.75804693878398
 30
0.0
  0
VERTEX
  5
11F
330
10E
100
AcDbEntity
  8
DETAIL_VIEW_BORDER
100
AcDbVertex
100
AcDb2dVertex
 10
78.88434523096245
 20
96.7148350418341
 30
0.0
  0
VERTEX
  5
120
330
10E
100
AcDbEntity
  8
DETAIL_VIEW_BORDER
100
AcDbVertex
100
AcDb2dVertex
 10
77.4191751802493
 20
97.58133419434574
 30
0.0
  0
VERTEX
  5
121
330
10E
100
AcDbEntity
  8
DETAIL_VIEW_BORDER
100
AcDbVertex
100
AcDb2dVertex
 10
75.90248837598705
 20
98.35412472002973
 30
0.0
  0
VERTEX
  5
122
330
10E
100
AcDbEntity
  8
DETAIL_VIEW_BORDER
100
AcDbVertex
100
AcDb2dVertex
 10
74.34027048808385
 20
99.0301567677356
 30
0.0
  0
VERTEX
  5
123
330
10E
100
AcDbEntity
  8
DETAIL_VIEW_BORDER
100
AcDbVertex
100
AcDb2dVertex
 10
72.73868687683375
 20
99.60676234782073
 30
0.0
  0
VERTEX
  5
124
330
10E
100
AcDbEntity
  8
DETAIL_VIEW_BORDER
100
AcDbVertex
100
AcDb2dVertex
 10
71.10405826105645
 20
100.0816658614866
 30
0.0
  0
VERTEX
  5
125
330
10E
100
AcDbEntity
  8
DETAIL_VIEW_BORDER
100
AcDbVertex
100
AcDb2dVertex
 10
69.44283577310763
 20
100.4529930815274
 30
0.0
  0
VERTEX
  5
126
330
10E
100
AcDbEntity
  8
DETAIL_VIEW_BORDER
100
AcDbVertex
100
AcDb2dVertex
 10
67.76157549920686
 20
100.7192785490491
 30
0.0
  0
VERTEX
  5
127
330
10E
100
AcDbEntity
  8
DETAIL_VIEW_BORDER
100
AcDbVertex
100
AcDb2dVertex
 10
66.06691260556045
 20
100.8794713569655
 30
0.0
  0
VERTEX
  5
128
330
10E
100
AcDbEntity
  8
DETAIL_VIEW_BORDER
100
AcDbVertex
100
AcDb2dVertex
 10
64.3655351523918
 20
100.9329392974489
 30
0.0
  0
VERTEX
  5
129
330
10E
100
AcDbEntity
  8
DETAIL_VIEW_BORDER
100
AcDbVertex
100
AcDb2dVertex
 10
62.66415769922315
 20
100.8794713569655
 30
0.0
  0
VERTEX
  5
12A
330
10E
100
AcDbEntity
  8
DETAIL_VIEW_BORDER
100
AcDbVertex
100
AcDb2dVertex
 10
60.96949480557674
 20
100.7192785490491
 30
0.0
  0
VERTEX
  5
12B
330
10E
100
AcDbEntity
  8
DETAIL_VIEW_BORDER
100
AcDbVertex
100
AcDb2dVertex
 10
59.28823453167595
 20
100.4529930815274
 30
0.0
  0
VERTEX
  5
12C
330
10E
100
AcDbEntity
  8
DETAIL_VIEW_BORDER
100
AcDbVertex
100
AcDb2dVertex
 10
57.62701204372713
 20
100.0816658614866
 30
0.0
  0
VERTEX
  5
12D
330
10E
100
AcDbEntity
  8
DETAIL_VIEW_BORDER
100
AcDbVertex
100
AcDb2dVertex
 10
55.99238342794983
 20
99.60676234782073
 30
0.0
  0
VERTEX
  5
12E
330
10E
100
AcDbEntity
  8
DETAIL_VIEW_BORDER
100
AcDbVertex
100
AcDb2dVertex
 10
54.39079981669975
 20
99.0301567677356
 30
0.0
  0
VERTEX
  5
12F
330
10E
100
AcDbEntity
  8
DETAIL_VIEW_BORDER
100
AcDbVertex
100
AcDb2dVertex
 10
52.82858192879654
 20
98.35412472002973
 30
0.0
  0
VERTEX
  5
130
330
10E
100
AcDbEntity
  8
DETAIL_VIEW_BORDER
100
AcDbVertex
100
AcDb2dVertex
 10
51.31189512453429
 20
97.58133419434574
 30
0.0
  0
VERTEX
  5
131
330
10E
100
AcDbEntity
  8
DETAIL_VIEW_BORDER
100
AcDbVertex
100
AcDb2dVertex
 10
49.84672507382114
 20
96.7148350418341
 30
0.0
  0
VERTEX
  5
132
330
10E
100
AcDbEntity
  8
DETAIL_VIEW_BORDER
100
AcDbVertex
100
AcDb2dVertex
 10
48.43885413347473
 20
95.75804693878398
 30
0.0
  0
VERTEX
  5
133
330
10E
100
AcDbEntity
  8
DETAIL_VIEW_BORDER
100
AcDbVertex
100
AcDb2dVertex
 10
47.09383852690155
 20
94.7147458907232
 30
0.0
  0
VERTEX
  5
134
330
10E
100
AcDbEntity
  8
DETAIL_VIEW_BORDER
100
AcDbVertex
100
AcDb2dVertex
 10
45.81698641622157
 20
93.58904933024954
 30
0.0
  0
VERTEX
  5
135
330
10E
100
AcDbEntity
  8
DETAIL_VIEW_BORDER
100
AcDbVertex
100
AcDb2dVertex
 10
44.61333695337738
 20
92.38539986740535
 30
0.0
  0
VERTEX
  5
136
330
10E
100
AcDbEntity
  8
DETAIL_VIEW_BORDER
100
AcDbVertex
100
AcDb2dVertex
 10
43.48764039290372
 20
91.10854775672536
 30
0.0
  0
VERTEX
  5
137
330
10E
100
AcDbEntity
  8
DETAIL_VIEW_BORDER
100
AcDbVertex
100
AcDb2dVertex
 10
42.44433934484294
 20
89.76353215015219
 30
0.0
  0
VERTEX
  5
138
330
10E
100
AcDbEntity
  8
DETAIL_VIEW_BORDER
100
AcDbVertex
100
AcDb2dVertex
 10
41.48755124179281
 20
88.35566120980577
 30
0.0
  0
VERTEX
  5
139
330
10E
100
AcDbEntity
  8
DETAIL_VIEW_BORDER
100
AcDbVertex
100
AcDb2dVertex
 10
40.62105208928117
 20
86.89049115909262
 30
0.0
  0
VERTEX
  5
13A
330
10E
100
AcDbEntity
  8
DETAIL_VIEW_BORDER
100
AcDbVertex
100
AcDb2dVertex
 10
39.84826156359718
 20
85.37380435483037
 30
0.0
  0
VERTEX
  5
13B
330
10E
100
AcDbEntity
  8
DETAIL_VIEW_BORDER
100
AcDbVertex
100
AcDb2dVertex
 10
39.17222951589131
 20
83.81158646692717
 30
0.0
  0
VERTEX
  5
13C
330
10E
100
AcDbEntity
  8
DETAIL_VIEW_BORDER
100
AcDbVertex
100
AcDb2dVertex
 10
38.59562393580618
 20
82.21000285567708
 30
0.0
  0
VERTEX
  5
13D
330
10E
100
AcDbEntity
  8
DETAIL_VIEW_BORDER
100
AcDbVertex
100
AcDb2dVertex
 10
38.12072042214036
 20
80.57537423989979
 30
0.0
  0
VERTEX
  5
13E
330
10E
100
AcDbEntity
  8
DETAIL_VIEW_BORDER
100
AcDbVertex
100
AcDb2dVertex
 10
37.7493932020995
 20
78.91415175195095
 30
0.0
  0
VERTEX
  5
13F
330
10E
100
AcDbEntity
  8
DETAIL_VIEW_BORDER
100
AcDbVertex
100
AcDb2dVertex
 10
37.48310773457785
 20
77.23289147805016
 30
0.0
  0
VERTEX
  5
140
330
10E
100
AcDbEntity
  8
DETAIL_VIEW_BORDER
100
AcDbVertex
100
AcDb2dVertex
 10
37.32291492666145
 20
75.53822858440375
 30
0.0
  0
VERTEX
  5
141
330
10E
100
AcDbEntity
  8
DETAIL_VIEW_BORDER
100
AcDbVertex
100
AcDb2dVertex
 10
37.26944698617802
 20
73.83685113123511
 30
0.0
  0
VERTEX
  5
142
330
10E
100
AcDbEntity
  8
DETAIL_VIEW_BORDER
100
AcDbVertex
100
AcDb2dVertex
 10
37.32291492666145
 20
72.13547367806648
 30
0.0
  0
VERTEX
  5
143
330
10E
100
AcDbEntity
  8
DETAIL_VIEW_BORDER
100
AcDbVertex
100
AcDb2dVertex
 10
37.48310773457785
 20
70.44081078442007
 30
0.0
  0
VERTEX
  5
144
330
10E
100
AcDbEntity
  8
DETAIL_VIEW_BORDER
100
AcDbVertex
100
AcDb2dVertex
 10
37.7493932020995
 20
68.75955051051929
 30
0.0
  0
VERTEX
  5
145
330
10E
100
AcDbEntity
  8
DETAIL_VIEW_BORDER
100
AcDbVertex
100
AcDb2dVertex
 10
38.12072042214036
 20
67.09832802257046
 30
0.0
  0
VERTEX
  5
146
330
10E
100
AcDbEntity
  8
DETAIL_VIEW_BORDER
100
AcDbVertex
100
AcDb2dVertex
 10
38.59562393580618
 20
65.46369940679315
 30
0.0
  0
VERTEX
  5
147
330
10E
100
AcDbEntity
  8
DETAIL_VIEW_BORDER
100
AcDbVertex
100
AcDb2dVertex
 10
39.17222951589132
 20
63.86211579554306
 30
0.0
  0
VERTEX
  5
148
330
10E
100
AcDbEntity
  8
DETAIL_VIEW_BORDER
100
AcDbVertex
100
AcDb2dVertex
 10
39.84826156359719
 20
62.29989790763987
 30
0.0
  0
VERTEX
  5
149
330
10E
100
AcDbEntity
  8
DETAIL_VIEW_BORDER
100
AcDbVertex
100
AcDb2dVertex
 10
40.62105208928117
 20
60.78321110337762
 30
0.0
  0
VERTEX
  5
14A
330
10E
100
AcDbEntity
  8
DETAIL_VIEW_BORDER
100
AcDbVertex
100
AcDb2dVertex
 10
41.48755124179281
 20
59.31804105266446
 30
0.0
  0
VERTEX
  5
14B
330
10E
100
AcDbEntity
  8
DETAIL_VIEW_BORDER
100
AcDbVertex
100
AcDb2dVertex
 10
42.44433934484294
 20
57.91017011231805
 30
0.0
  0
VERTEX
  5
14C
330
10E
100
AcDbEntity
  8
DETAIL_VIEW_BORDER
100
AcDbVertex
100
AcDb2dVertex
 10
43.48764039290374
 20
56.56515450574486
 30
0.0
  0
VERTEX
  5
14D
330
10E
100
AcDbEntity
  8
DETAIL_VIEW_BORDER
100
AcDbVertex
100
AcDb2dVertex
 10
44.61333695337738
 20
55.28830239506489
 30
0.0
  0
VERTEX
  5
14E
330
10E
100
AcDbEntity
  8
DETAIL_VIEW_BORDER
100
AcDbVertex
100
AcDb2dVertex
 10
45.81698641622157
 20
54.08465293222071
 30
0.0
  0
VERTEX
  5
14F
330
10E
100
AcDbEntity
  8
DETAIL_VIEW_BORDER
100
AcDbVertex
100
AcDb2dVertex
 10
47.09383852690155
 20
52.95895637174704
 30
0.0
  0
VERTEX
  5
150
330
10E
100
AcDbEntity
  8
DETAIL_VIEW_BORDER
100
AcDbVertex
100
AcDb2dVertex
 10
48.43885413347472
 20
51.91565532368627
 30
0.0
  0
VERTEX
  5
151
330
10E
100
AcDbEntity
  8
DETAIL_VIEW_BORDER
100
AcDbVertex
100
AcDb2dVertex
 10
49.84672507382115
 20
50.95886722063613
 30
0.0
  0
VERTEX
  5
152
330
10E
100
AcDbEntity
  8
DETAIL_VIEW_BORDER
100
AcDbVertex
100
AcDb2dVertex
 10
51.3118951245343
 20
50.09236806812449
 30
0.0
  0
VERTEX
  5
153
330
10E
100
AcDbEntity
  8
DETAIL_VIEW_BORDER
100
AcDbVertex
100
AcDb2dVertex
 10
52.82858192879655
 20
49.31957754244051
 30
0.0
  0
VERTEX
  5
154
330
10E
100
AcDbEntity
  8
DETAIL_VIEW_BORDER
100
AcDbVertex
100
AcDb2dVertex
 10
54.39079981669975
 20
48.64354549473463
 30
0.0
  0
VERTEX
  5
155
330
10E
100
AcDbEntity
  8
DETAIL_VIEW_BORDER
100
AcDbVertex
100
AcDb2dVertex
 10
55.99238342794983
 20
48.0669399146495
 30
0.0
  0
VERTEX
  5
156
330
10E
100
AcDbEntity
  8
DETAIL_VIEW_BORDER
100
AcDbVertex
100
AcDb2dVertex
 10
57.62701204372715
 20
47.59203640098367
 30
0.0
  0
VERTEX
  5
157
330
10E
100
AcDbEntity
  8
DETAIL_VIEW_BORDER
100
AcDbVertex
100
AcDb2dVertex
 10
59.28823453167596
 20
47.22070918094282
 30
0.0
  0
VERTEX
  5
158
330
10E
100
AcDbEntity
  8
DETAIL_VIEW_BORDER
100
AcDbVertex
100
AcDb2dVertex
 10
60.96949480557676
 20
46.95442371342117
 30
0.0
  0
VERTEX
  5
159
330
10E
100
AcDbEntity
  8
DETAIL_VIEW_BORDER
100
AcDbVertex
100
AcDb2dVertex
 10
62.66415769922316
 20
46.79423090550477
 30
0.0
  0
VERTEX
  5
15A
330
10E
100
AcDbEntity
  8
DETAIL_VIEW_BORDER
100
AcDbVertex
100
AcDb2dVertex
 10
64.3655351523918
 20
46.74076296502134
 30
0.0
  0
VERTEX
  5
15B
330
10E
100
AcDbEntity
  8
DETAIL_VIEW_BORDER
100
AcDbVertex
100
AcDb2dVertex
 10
66.06691260556045
 20
46.79423090550477
 30
0.0
  0
VERTEX
  5
15C
330
10E
100
AcDbEntity
  8
DETAIL_VIEW_BORDER
100
AcDbVertex
100
AcDb2dVertex
 10
67.76157549920686
 20
46.95442371342117
 30
0.0
  0
VERTEX
  5
15D
330
10E
100
AcDbEntity
  8
DETAIL_VIEW_BORDER
100
AcDbVertex
100
AcDb2dVertex
 10
69.44283577310765
 20
47.22070918094282
 30
0.0
  0
VERTEX
  5
15E
330
10E
100
AcDbEntity
  8
DETAIL_VIEW_BORDER
100
AcDbVertex
100
AcDb2dVertex
 10
71.10405826105647
 20
47.59203640098368
 30
0.0
  0
VERTEX
  5
15F
330
10E
100
AcDbEntity
  8
DETAIL_VIEW_BORDER
100
AcDbVertex
100
AcDb2dVertex
 10
72.73868687683375
 20
48.0669399146495
 30
0.0
  0
VERTEX
  5
160
330
10E
100
AcDbEntity
  8
DETAIL_VIEW_BORDER
100
AcDbVertex
100
AcDb2dVertex
 10
74.34027048808386
 20
48.64354549473464
 30
0.0
  0
VERTEX
  5
161
330
10E
100
AcDbEntity
  8
DETAIL_VIEW_BORDER
100
AcDbVertex
100
AcDb2dVertex
 10
75.90248837598705
 20
49.31957754244051
 30
0.0
  0
VERTEX
  5
162
330
10E
100
AcDbEntity
  8
DETAIL_VIEW_BORDER
100
AcDbVertex
100
AcDb2dVertex
 10
77.41917518024931
 20
50.0923680681245
 30
0.0
  0
VERTEX
  5
163
330
10E
100
AcDbEntity
  8
DETAIL_VIEW_BORDER
100
AcDbVertex
100
AcDb2dVertex
 10
78.88434523096245
 20
50.95886722063614
 30
0.0
  0
VERTEX
  5
164
330
10E
100
AcDbEntity
  8
DETAIL_VIEW_BORDER
100
AcDbVertex
100
AcDb2dVertex
 10
80.29221617130888
 20
51.91565532368627
 30
0.0
  0
VERTEX
  5
165
330
10E
100
AcDbEntity
  8
DETAIL_VIEW_BORDER
100
AcDbVertex
100
AcDb2dVertex
 10
81.63723177788205
 20
52.95895637174706
 30
0.0
  0
VERTEX
  5
166
330
10E
100
AcDbEntity
  8
DETAIL_VIEW_BORDER
100
AcDbVertex
100
AcDb2dVertex
 10
82.91408388856203
 20
54.08465293222071
 30
0.0
  0
VERTEX
  5
167
330
10E
100
AcDbEntity
  8
DETAIL_VIEW_BORDER
100
AcDbVertex
100
AcDb2dVertex
 10
84.11773335140623
 20
55.2883023950649
 30
0.0
  0
VERTEX
  5
168
330
10E
100
AcDbEntity
  8
DETAIL_VIEW_BORDER
100
AcDbVertex
100
AcDb2dVertex
 10
85.24342991187987
 20
56.56515450574487
 30
0.0
  0
VERTEX
  5
169
330
10E
100
AcDbEntity
  8
DETAIL_VIEW_BORDER
100
AcDbVertex
100
AcDb2dVertex
 10
86.28673095994067
 20
57.91017011231807
 30
0.0
  0
VERTEX
  5
16A
330
10E
100
AcDbEntity
  8
DETAIL_VIEW_BORDER
100
AcDbVertex
100
AcDb2dVertex
 10
87.24351906299079
 20
59.31804105266448
 30
0.0
  0
VERTEX
  5
16B
330
10E
100
AcDbEntity
  8
DETAIL_VIEW_BORDER
100
AcDbVertex
100
AcDb2dVertex
 10
88.11001821550242
 20
60.78321110337762
 30
0.0
  0
VERTEX
  5
16C
330
10E
100
AcDbEntity
  8
DETAIL_VIEW_BORDER
100
AcDbVertex
100
AcDb2dVertex
 10
88.88280874118641
 20
62.29989790763988
 30
0.0
  0
VERTEX
  5
16D
330
10E
100
AcDbEntity
  8
DETAIL_VIEW_BORDER
100
AcDbVertex
100
AcDb2dVertex
 10
89.55884078889228
 20
63.86211579554308
 30
0.0
  0
VERTEX
  5
16E
330
10E
100
AcDbEntity
  8
DETAIL_VIEW_BORDER
100
AcDbVertex
100
AcDb2dVertex
 10
90.13544636897743
 20
65.46369940679318
 30
0.0
  0
VERTEX
  5
16F
330
10E
100
AcDbEntity
  8
DETAIL_VIEW_BORDER
100
AcDbVertex
100
AcDb2dVertex
 10
90.61034988264325
 20
67.09832802257046
 30
0.0
  0
VERTEX
  5
170
330
10E
100
AcDbEntity
  8
DETAIL_VIEW_BORDER
100
AcDbVertex
100
AcDb2dVertex
 10
90.98167710268409
 20
68.75955051051929
 30
0.0
  0
VERTEX
  5
171
330
10E
100
AcDbEntity
  8
DETAIL_VIEW_BORDER
100
AcDbVertex
100
AcDb2dVertex
 10
91.24796257020574
 20
70.44081078442008
 30
0.0
  0
VERTEX
  5
172
330
10E
100
AcDbEntity
  8
DETAIL_VIEW_BORDER
100
AcDbVertex
100
AcDb2dVertex
 10
91.40815537812215
 20
72.13547367806649
 30
0.0
  0
SEQEND
  5
173
330
10E
100
AcDbEntity
  8
DETAIL_VIEW_BORDER
  0
LINE
  5
174
330
1F
100
AcDbEntity
  8
VISIBLE
100
AcDbLine
 10
86.77383919233299
 20
69.46773257119517
 30
0.0
 11
91.09384212201212
 21
69.46773257119517
 31
0.0
  0
LINE
  5
175
330
1F
100
AcDbEntity
  8
VISIBLE
100
AcDbLine
 10
78.11358515448855
 20
54.46773257119523
 30
0.0
 11
86.77383919233299
 21
69.46773257119517
 31
0.0
  0
LINE
  5
176
330
1F
100
AcDbEntity
  8
VISIBLE
100
AcDbLine
 10
79.78574868598209
 20
51.57146037608463
 30
0.0
 11
78.11358515448855
 21
54.46773257119523
 31
0.0
  0
LINE
  5
177
330
1F
100
AcDbEntity
  8
VISIBLE
100
AcDbLine
 10
41.74051819554202
 20
75.46773257119521
 30
0.0
 11
37.32069950019536
 21
75.46773257119521
 31
0.0
  0
LINE
  5
178
330
1F
100
AcDbEntity
  8
VISIBLE
100
AcDbLine
 10
50.40077223338642
 20
90.46773257119526
 30
0.0
 11
41.74051819554202
 21
75.46773257119521
 31
0.0
  0
LINE
  5
179
330
1F
100
AcDbEntity
  8
VISIBLE
100
AcDbLine
 10
47.684318239322
 20
95.17276890533822
 30
0.0
 11
50.40077223338642
 21
90.46773257119526
 31
0.0
  0
LINE
  5
17A
330
1F
100
AcDbEntity
  8
VISIBLE
100
AcDbLine
 10
55.59692465609302
 20
93.46773257119536
 30
0.0
 11
52.78777051669096
 21
98.33333026693212
 31
0.0
  0
LINE
  5
17B
330
1F
100
AcDbEntity
  8
VISIBLE
100
AcDbLine
 10
72.91743273178184
 20
93.46773257119523
 30
0.0
 11
55.59692465609302
 21
93.46773257119536
 31
0.0
  0
LINE
  5
17C
330
1F
100
AcDbEntity
  8
VISIBLE
100
AcDbLine
 10
75.77135511941411
 20
98.4108711474326
 30
0.0
 11
72.91743273178184
 21
93.46773257119523
 31
0.0
  0
LINE
  5
17D
330
1F
100
AcDbEntity
  8
VISIBLE
100
AcDbLine
 10
86.77383919233297
 20
75.46773257119517
 30
0.0
 11
78.11358515448858
 21
90.4677325711952
 31
0.0
  0
LINE
  5
17E
330
1F
100
AcDbEntity
  8
VISIBLE
100
AcDbLine
 10
91.41037080458823
 20
75.46773257119516
 30
0.0
 11
86.77383919233297
 21
75.46773257119517
 31
0.0
  0
LINE
  5
17F
330
1F
100
AcDbEntity
  8
VISIBLE
100
AcDbLine
 10
78.11358515448858
 20
90.4677325711952
 30
0.0
 11
80.89707178287487
 21
95.28887283374885
 31
0.0
  0
LINE
  5
180
330
1F
100
AcDbEntity
  8
VISIBLE
100
AcDbLine
 10
55.5969246560931
 20
57.4677325711952
 30
0.0
 11
46.93667061824872
 21
72.46773257119524
 31
0.0
  0
LINE
  5
181
330
1F
100
AcDbEntity
  8
VISIBLE
100
AcDbLine
 10
72.91743273178187
 20
57.46773257119522
 30
0.0
 11
55.5969246560931
 21
57.4677325711952
 31
0.0
  0
LINE
  5
182
330
1F
100
AcDbEntity
  8
VISIBLE
100
AcDbLine
 10
81.57768676962625
 20
72.46773257119526
 30
0.0
 11
72.91743273178187
 21
57.46773257119522
 31
0.0
  0
LINE
  5
183
330
1F
100
AcDbEntity
  8
VISIBLE
100
AcDbLine
 10
72.91743273178187
 20
87.46773257119523
 30
0.0
 11
81.57768676962625
 21
72.46773257119526
 31
0.0
  0
LINE
  5
184
330
1F
100
AcDbEntity
  8
VISIBLE
100
AcDbLine
 10
55.59692465609311
 20
87.46773257119521
 30
0.0
 11
72.91743273178187
 21
87.46773257119523
 31
0.0
  0
LINE
  5
185
330
1F
100
AcDbEntity
  8
VISIBLE
100
AcDbLine
 10
46.93667061824872
 20
72.46773257119524
 30
0.0
 11
55.59692465609311
 21
87.46773257119521
 31
0.0
  0
LINE
  5
186
330
1F
100
AcDbEntity
  8
VISIBLE
100
AcDbLine
 10
41.74051819554204
 20
69.46773257119526
 30
0.0
 11
50.40077223338642
 21
54.46773257119528
 31
0.0
  0
LINE
  5
187
330
1F
100
AcDbEntity
  8
VISIBLE
100
AcDbLine
 10
37.63722818277146
 20
69.46773257119526
 30
0.0
 11
41.74051819554204
 21
69.46773257119526
 31
0.0
  0
LINE
  5
188
330
1F
100
AcDbEntity
  8
VISIBLE
100
AcDbLine
 10
50.40077223338642
 20
54.46773257119528
 30
0.0
 11
48.7896780692499
 21
51.6772356231331
 31
0.0
  0
LINE
  5
189
330
1F
100
AcDbEntity
  8
VISIBLE
100
AcDbLine
 10
74.5064574545109
 20
48.7154610169455
 30
0.0
 11
72.91743273178184
 21
51.46773257119523
 31
0.0
  0
LINE
  5
18A
330
1F
100
AcDbEntity
  8
VISIBLE
100
AcDbLine
 10
72.91743273178184
 20
51.46773257119523
 30
0.0
 11
55.59692465609309
 21
51.46773257119524
 31
0.0
  0
LINE
  5
18B
330
1F
100
AcDbEntity
  8
VISIBLE
100
AcDbLine
 10
55.59692465609309
 20
51.46773257119524
 30
0.0
 11
54.05122056827775
 21
48.79049455763218
 31
0.0
  0
LINE
  5
18C
330
1F
100
AcDbEntity
  8
BORDER_FRAME
100
AcDbLine
 10
20.0
 20
10.0
 30
0.0
 11
20.0
 21
200.0
 31
0.0
  0
LINE
  5
18F
330
1F
100
AcDbEntity
  8
BORDER_FRAME
100
AcDbLine
 10
20.0
 20
200.0
 30
0.0
 11
297.0
 21
200.0
 31
0.0
  0
LINE
  5
190
330
1F
100
AcDbEntity
  8
BORDER_FRAME
100
AcDbLine
 10
297.0
 20
200.0
 30
0.0
 11
297.0
 21
10.0
 31
0.0
  0
LINE
  5
191
330
1F
100
AcDbEntity
  8
BORDER_FRAME
100
AcDbLine
 10
297.0
 20
10.0
 30
0.0
 11
20.0
 21
10.0
 31
0.0
  0
LINE
  5
192
330
1F
100
AcDbEntity
  8
TITLE_BLOCK
100
AcDbLine
 10
135.075
 20
10.0
 30
0.0
 11
135.075
 21
48.09999999999999
 31
0.0
  0
LINE
  5
194
330
1F
100
AcDbEntity
  8
TITLE_BLOCK
100
AcDbLine
 10
135.075
 20
10.0
 30
0.0
 11
165.555
 21
10.0
 31
0.0
  0
LINE
  5
195
330
1F
100
AcDbEntity
  8
TITLE_BLOCK
100
AcDbLine
 10
135.075
 20
17.62
 30
0.0
 11
165.555
 21
17.62
 31
0.0
  0
LINE
  5
196
330
1F
100
AcDbEntity
  8
TITLE_BLOCK
100
AcDbLine
 10
135.075
 20
20.668
 30
0.0
 11
165.555
 21
20.668
 31
0.0
  0
LINE
  5
197
330
1F
100
AcDbEntity
  8
TITLE_BLOCK
100
AcDbLine
 10
135.075
 20
25.8496
 30
0.0
 11
165.555
 21
25.8496
 31
0.0
  0
LINE
  5
198
330
1F
100
AcDbEntity
  8
TITLE_BLOCK
100
AcDbLine
 10
135.075
 20
30.2692
 30
0.0
 11
165.555
 21
30.2692
 31
0.0
  0
LINE
  5
199
330
1F
100
AcDbEntity
  8
TITLE_BLOCK
100
AcDbLine
 10
135.075
 20
48.09999999999999
 30
0.0
 11
165.555
 21
48.09999999999999
 31
0.0
  0
MTEXT
  5
19A
330
1F
100
AcDbEntity
  8
TITLE_BLOCK
100
AcDbMText
 10
135.644976
 20
47.167312
 30
0.0
 40
1.03632
 41
29.87039999999999
 71
     1
 72
     1
  1
A MENOS QUE SE INDIQUE LO CONTRARIO, LAS COTAS ESTN EN MILMETROS
  7
ONSHAPE-STANDARD
  0
MTEXT
  5
19C
330
1F
100
AcDbEntity
  8
TITLE_BLOCK
100
AcDbMText
 10
150.918504
 20
42.540448
 30
0.0
 40
1.09728
 41
14.93519999999998
 71
     1
 72
     1
  1
^JANGULAR =  ^J
  7
ONSHAPE-STANDARD
  0
MTEXT
  5
19D
330
1F
100
AcDbEntity
  8
TITLE_BLOCK
100
AcDbMText
 10
135.74556
 20
35.11552
 30
0.0
 40
1.2192
 41
14.93520000000001
 71
     1
 72
     1
  1
ACABADO SUPERFICIAL
  7
ONSHAPE-STANDARD
  0
LINE
  5
19E
330
1F
100
AcDbEntity
  8
TITLE_BLOCK
100
AcDbLine
 10
148.791
 20
33.3172
 30
0.0
 11
149.553
 21
31.99737728463252
 31
0.0
  0
LINE
  5
19F
330
1F
100
AcDbEntity
  8
TITLE_BLOCK
100
AcDbLine
 10
149.553
 20
31.99737728463252
 30
0.0
 11
151.1532
 21
34.76900498690424
 31
0.0
  0
LINE
  5
1A0
330
1F
100
AcDbEntity
  8
TITLE_BLOCK
100
AcDbLine
 10
151.1532
 20
34.76900498690424
 30
0.0
 11
152.8296
 21
34.76900498690424
 31
0.0
  0
MTEXT
  5
1A1
330
1F
100
AcDbEntity
  8
TITLE_BLOCK
100
AcDbMText
 10
150.315
 20
28.842736
 30
0.0
 40
1.58496
 41
29.87039999999999
 71
     2
 72
     1
  1
NO ESCALAR DIBUJO
  7
ONSHAPE-STANDARD
  0
MTEXT
  5
1A2
330
1F
100
AcDbEntity
  8
TITLE_BLOCK
100
AcDbMText
 10
150.315
 20
24.75232
 30
0.0
 40
1.2192
 41
29.87039999999999
 71
     2
 72
     1
  1
INTERRUMPIR TODAS LAS ARISTAS VIVAS Y ELIMINAR REBABAS
  7
ONSHAPE-STANDARD
  0
CIRCLE
  5
1A3
330
1F
100
AcDbEntity
  8
TITLE_BLOCK
100
AcDbCircle
 10
146.886
 20
13.77952
 30
0.0
 40
1.3716
  0
CIRCLE
  5
1A4
330
1F
100
AcDbEntity
  8
TITLE_BLOCK
100
AcDbCircle
 10
146.886
 20
13.77952
 30
0.0
 40
2.743199999999999
  0
LINE
  5
1A5
330
1F
100
AcDbEntity
  8
TITLE_BLOCK
100
AcDbLine
 10
147.5718
 20
13.77952
 30
0.0
 11
146.2002
 21
13.77952
 31
0.0
  0
LINE
  5
1A6
330
1F
100
AcDbEntity
  8
TITLE_BLOCK
100
AcDbLine
 10
146.886
 20
14.46532
 30
0.0
 11
146.886
 21
13.09372
 31
0.0
  0
LINE
  5
1A7
330
1F
100
AcDbEntity
  8
TITLE_BLOCK
100
AcDbLine
 10
148.2576
 20
13.77952
 30
0.0
 11
150.315
 21
13.77952
 31
0.0
  0
LINE
  5
1A8
330
1F
100
AcDbEntity
  8
TITLE_BLOCK
100
AcDbLine
 10
146.886
 20
15.15112
 30
0.0
 11
146.886
 21
17.20852
 31
0.0
  0
LINE
  5
1A9
330
1F
100
AcDbEntity
  8
TITLE_BLOCK
100
AcDbLine
 10
145.5144
 20
13.77952
 30
0.0
 11
143.457
 21
13.77952
 31
0.0
  0
LINE
  5
1AA
330
1F
100
AcDbEntity
  8
TITLE_BLOCK
100
AcDbLine
 10
146.886
 20
12.40792
 30
0.0
 11
146.886
 21
10.35052
 31
0.0
  0
LINE
  5
1AB
330
1F
100
AcDbEntity
  8
TITLE_BLOCK
100
AcDbLine
 10
156.4872
 20
11.03632
 30
0.0
 11
156.4872
 21
16.52272
 31
0.0
  0
LINE
  5
1AC
330
1F
100
AcDbEntity
  8
TITLE_BLOCK
100
AcDbLine
 10
156.4872
 20
16.52272
 30
0.0
 11
151.0008
 21
15.15112
 31
0.0
  0
LINE
  5
1AD
330
1F
100
AcDbEntity
  8
TITLE_BLOCK
100
AcDbLine
 10
151.0008
 20
15.15112
 30
0.0
 11
151.0008
 21
12.40792
 31
0.0
  0
LINE
  5
1AE
330
1F
100
AcDbEntity
  8
TITLE_BLOCK
100
AcDbLine
 10
151.0008
 20
12.40792
 30
0.0
 11
156.4872
 21
11.03632
 31
0.0
  0
LINE
  5
1AF
330
1F
100
AcDbEntity
  8
TITLE_BLOCK
100
AcDbLine
 10
154.4298
 20
13.77952
 30
0.0
 11
156.8301
 21
13.77952
 31
0.0
  0
LINE
  5
1B0
330
1F
100
AcDbEntity
  8
TITLE_BLOCK
100
AcDbLine
 10
154.01832
 20
13.77952
 30
0.0
 11
153.46968
 21
13.77952
 31
0.0
  0
LINE
  5
1B1
330
1F
100
AcDbEntity
  8
TITLE_BLOCK
100
AcDbLine
 10
153.0582
 20
13.77952
 30
0.0
 11
150.6579
 21
13.77952
 31
0.0
  0
MTEXT
  5
1B2
330
1F
100
AcDbEntity
  8
TITLE_BLOCK
100
AcDbMText
 10
150.315
 20
19.93648
 30
0.0
 40
1.2192
 41
29.87039999999999
 71
     2
 72
     1
  1
PROYECCIN DE TERCER NGULO
  7
ONSHAPE-STANDARD
  0
LINE
  5
1B3
330
1F
100
AcDbEntity
  8
TITLE_BLOCK
100
AcDbLine
 10
165.555
 20
10.0
 30
0.0
 11
165.555
 21
48.09999999999999
 31
0.0
  0
LINE
  5
1B4
330
1F
100
AcDbEntity
  8
TITLE_BLOCK
100
AcDbLine
 10
178.89
 20
20.668
 30
0.0
 11
178.89
 21
48.09999999999999
 31
0.0
  0
LINE
  5
1B5
330
1F
100
AcDbEntity
  8
TITLE_BLOCK
100
AcDbLine
 10
194.13
 20
20.668
 30
0.0
 11
194.13
 21
48.09999999999999
 31
0.0
  0
LINE
  5
1B6
330
1F
100
AcDbEntity
  8
TITLE_BLOCK
100
AcDbLine
 10
192.225
 20
10.0
 30
0.0
 11
192.225
 21
20.668
 31
0.0
  0
MTEXT
  5
1B7
330
1F
100
AcDbEntity
  8
TITLE_BLOCK
100
AcDbMText
 10
201.75
 20
47.00272
 30
0.0
 40
1.2192
 41
14.93520000000001
 71
     2
 72
     1
  1
FIRMA
  7
ONSHAPE-STANDARD
  0
LINE
  5
1B8
330
1F
100
AcDbEntity
  8
TITLE_BLOCK
100
AcDbLine
 10
209.37
 20
20.668
 30
0.0
 11
209.37
 21
48.09999999999999
 31
0.0
  0
LINE
  5
1B9
330
1F
100
AcDbEntity
  8
TITLE_BLOCK
100
AcDbLine
 10
165.555
 20
48.09999999999999
 30
0.0
 11
218.895
 21
48.09999999999999
 31
0.0
  0
LINE
  5
1BA
330
1F
100
AcDbEntity
  8
TITLE_BLOCK
100
AcDbLine
 10
165.555
 20
43.528
 30
0.0
 11
218.895
 21
43.528
 31
0.0
  0
LINE
  5
1BB
330
1F
100
AcDbEntity
  8
TITLE_BLOCK
100
AcDbLine
 10
165.555
 20
38.956
 30
0.0
 11
218.895
 21
38.956
 31
0.0
  0
LINE
  5
1BC
330
1F
100
AcDbEntity
  8
TITLE_BLOCK
100
AcDbLine
 10
165.555
 20
34.384
 30
0.0
 11
218.895
 21
34.384
 31
0.0
  0
LINE
  5
1BD
330
1F
100
AcDbEntity
  8
TITLE_BLOCK
100
AcDbLine
 10
165.555
 20
29.812
 30
0.0
 11
218.895
 21
29.812
 31
0.0
  0
LINE
  5
1BE
330
1F
100
AcDbEntity
  8
TITLE_BLOCK
100
AcDbLine
 10
165.555
 20
25.24
 30
0.0
 11
218.895
 21
25.24
 31
0.0
  0
LINE
  5
1BF
330
1F
100
AcDbEntity
  8
TITLE_BLOCK
100
AcDbLine
 10
165.555
 20
20.668
 30
0.0
 11
218.895
 21
20.668
 31
0.0
  0
MTEXT
  5
1C0
330
1F
100
AcDbEntity
  8
TITLE_BLOCK
100
AcDbMText
 10
179.56056
 20
47.00272
 30
0.0
 40
1.2192
 41
14.93519999999998
 71
     1
 72
     1
  1
NOMBRE
  7
ONSHAPE-STANDARD
  0
MTEXT
  5
1C1
330
1F
100
AcDbEntity
  8
TITLE_BLOCK
100
AcDbMText
 10
214.1325
 20
47.00272
 30
0.0
 40
1.2192
 41
9.334500000000006
 71
     2
 72
     1
  1
FECHA
  7
ONSHAPE-STANDARD
  0
MTEXT
  5
1C2
330
1F
100
AcDbEntity
  8
TITLE_BLOCK
100
AcDbMText
 10
166.158504
 20
42.540448
 30
0.0
 40
1.09728
 41
13.06830000000001
 71
     1
 72
     1
  1
DIBUJADO POR
  7
ONSHAPE-STANDARD
  0
MTEXT
  5
1C3
102
{ACAD_XDICTIONARY
360
1C4
102
}
330
1F
100
AcDbEntity
  8
TITLE_BLOCK
100
AcDbMText
 10
186.51
 20
41.242
 30
0.0
 40
1.024128
 41
15.23999999999998
 71
     5
 72
     1
  1
SEBASTIN GALINDO
  7
ONSHAPE-STANDARD-FIELDS
1001
ACAD
1000
ACAD_MTEXT_DEFINED_HEIGHT_BEGIN
1070
    46
1040
4.572000000000003
1000
ACAD_MTEXT_DEFINED_HEIGHT_END
  0
MTEXT
  5
1CA
102
{ACAD_XDICTIONARY
360
1CB
102
}
330
1F
100
AcDbEntity
  8
TITLE_BLOCK
100
AcDbMText
 10
214.1325
 20
41.242
 30
0.0
 40
1.024128
 41
9.525000000000006
 71
     5
 72
     1
  1
2025-03-03
  7
ONSHAPE-STANDARD-FIELDS
1001
ACAD
1000
ACAD_MTEXT_DEFINED_HEIGHT_BEGIN
1070
    46
1040
4.572000000000003
1000
ACAD_MTEXT_DEFINED_HEIGHT_END
  0
MTEXT
  5
1D0
330
1F
100
AcDbEntity
  8
TITLE_BLOCK
100
AcDbMText
 10
166.158504
 20
37.968448
 30
0.0
 40
1.09728
 41
13.06830000000001
 71
     1
 72
     1
  1
COMPROBADO POR
  7
ONSHAPE-STANDARD
  0
MTEXT
  5
1D1
330
1F
100
AcDbEntity
  8
TITLE_BLOCK
100
AcDbMText
 10
186.51
 20
36.67
 30
0.0
 40
1.024128
 41
15.23999999999998
 71
     5
 72
     1
  1
 
  7
ONSHAPE-STANDARD-FIELDS
1001
ACAD
1000
ACAD_MTEXT_DEFINED_HEIGHT_BEGIN
1070
    46
1040
4.571999999999996
1000
ACAD_MTEXT_DEFINED_HEIGHT_END
  0
MTEXT
  5
1D2
330
1F
100
AcDbEntity
  8
TITLE_BLOCK
100
AcDbMText
 10
214.1325
 20
36.67
 30
0.0
 40
1.024128
 41
9.525000000000006
 71
     5
 72
     1
  1
 
  7
ONSHAPE-STANDARD-FIELDS
1001
ACAD
1000
ACAD_MTEXT_DEFINED_HEIGHT_BEGIN
1070
    46
1040
4.571999999999996
1000
ACAD_MTEXT_DEFINED_HEIGHT_END
  0
MTEXT
  5
1D3
330
1F
100
AcDbEntity
  8
TITLE_BLOCK
100
AcDbMText
 10
166.158504
 20
33.396448
 30
0.0
 40
1.09728
 41
13.06830000000001
 71
     1
 72
     1
  1
APROBADO POR
  7
ONSHAPE-STANDARD
  0
MTEXT
  5
1D4
102
{ACAD_XDICTIONARY
360
1D5
102
}
330
1F
100
AcDbEntity
  8
TITLE_BLOCK
100
AcDbMText
 10
186.51
 20
32.098
 30
0.0
 40
1.024128
 41
15.23999999999998
 71
     5
 72
     1
  1
----
  7
ONSHAPE-STANDARD-FIELDS
1001
ACAD
1000
ACAD_MTEXT_DEFINED_HEIGHT_BEGIN
1070
    46
1040
4.572000000000003
1000
ACAD_MTEXT_DEFINED_HEIGHT_END
  0
MTEXT
  5
1DA
102
{ACAD_XDICTIONARY
360
1DB
102
}
330
1F
100
AcDbEntity
  8
TITLE_BLOCK
100
AcDbMText
 10
214.1325
 20
32.098
 30
0.0
 40
1.024128
 41
9.525000000000006
 71
     5
 72
     1
  1
----
  7
ONSHAPE-STANDARD-FIELDS
1001
ACAD
1000
ACAD_MTEXT_DEFINED_HEIGHT_BEGIN
1070
    46
1040
4.572000000000003
1000
ACAD_MTEXT_DEFINED_HEIGHT_END
  0
MTEXT
  5
1E0
330
1F
100
AcDbEntity
  8
TITLE_BLOCK
100
AcDbMText
 10
172.2225
 20
27.526
 30
0.0
 40
1.8288
 41
13.33500000000001
 71
     5
 72
     1
  1
 
  7
ONSHAPE-STANDARD-FIELDS
1001
ACAD
1000
ACAD_MTEXT_DEFINED_HEIGHT_BEGIN
1070
    46
1040
4.571999999999999
1000
ACAD_MTEXT_DEFINED_HEIGHT_END
  0
MTEXT
  5
1E1
330
1F
100
AcDbEntity
  8
TITLE_BLOCK
100
AcDbMText
 10
186.51
 20
27.526
 30
0.0
 40
1.024128
 41
15.23999999999998
 71
     5
 72
     1
  1
 
  7
ONSHAPE-STANDARD-FIELDS
1001
ACAD
1000
ACAD_MTEXT_DEFINED_HEIGHT_BEGIN
1070
    46
1040
4.571999999999999
1000
ACAD_MTEXT_DEFINED_HEIGHT_END
  0
MTEXT
  5
1E2
330
1F
100
AcDbEntity
  8
TITLE_BLOCK
100
AcDbMText
 10
214.1325
 20
27.526
 30
0.0
 40
1.024128
 41
9.525000000000006
 71
     5
 72
     1
  1
 
  7
ONSHAPE-STANDARD-FIELDS
1001
ACAD
1000
ACAD_MTEXT_DEFINED_HEIGHT_BEGIN
1070
    46
1040
4.571999999999999
1000
ACAD_MTEXT_DEFINED_HEIGHT_END
  0
MTEXT
  5
1E3
330
1F
100
AcDbEntity
  8
TITLE_BLOCK
100
AcDbMText
 10
172.2225
 20
22.954
 30
0.0
 40
1.8288
 41
13.33500000000001
 71
     5
 72
     1
  1
 
  7
ONSHAPE-STANDARD-FIELDS
1001
ACAD
1000
ACAD_MTEXT_DEFINED_HEIGHT_BEGIN
1070
    46
1040
4.571999999999999
1000
ACAD_MTEXT_DEFINED_HEIGHT_END
  0
MTEXT
  5
1E4
330
1F
100
AcDbEntity
  8
TITLE_BLOCK
100
AcDbMText
 10
186.51
 20
22.954
 30
0.0
 40
1.024128
 41
15.23999999999998
 71
     5
 72
     1
  1
 
  7
ONSHAPE-STANDARD-FIELDS
1001
ACAD
1000
ACAD_MTEXT_DEFINED_HEIGHT_BEGIN
1070
    46
1040
4.571999999999999
1000
ACAD_MTEXT_DEFINED_HEIGHT_END
  0
MTEXT
  5
1E5
330
1F
100
AcDbEntity
  8
TITLE_BLOCK
100
AcDbMText
 10
214.1325
 20
22.954
 30
0.0
 40
1.024128
 41
9.525000000000006
 71
     5
 72
     1
  1
 
  7
ONSHAPE-STANDARD-FIELDS
1001
ACAD
1000
ACAD_MTEXT_DEFINED_HEIGHT_BEGIN
1070
    46
1040
4.571999999999999
1000
ACAD_MTEXT_DEFINED_HEIGHT_END
  0
MTEXT
  5
1E6
330
1F
100
AcDbEntity
  8
TITLE_BLOCK
100
AcDbMText
 10
166.22556
 20
19.57072
 30
0.0
 40
1.2192
 41
26.13660000000002
 71
     1
 72
     1
  1
MATERIAL
  7
ONSHAPE-STANDARD
  0
MTEXT
  5
1E7
330
1F
100
AcDbEntity
  8
TITLE_BLOCK
100
AcDbMText
 10
178.89
 20
15.334
 30
0.0
 40
1.8288
 41
26.67000000000002
 71
     5
 72
     1
  1
 
  7
ONSHAPE-STANDARD-FIELDS
1001
ACAD
1000
ACAD_MTEXT_DEFINED_HEIGHT_BEGIN
1070
    46
1040
10.668
1000
ACAD_MTEXT_DEFINED_HEIGHT_END
  0
MTEXT
  5
1E8
330
1F
100
AcDbEntity
  8
TITLE_BLOCK
100
AcDbMText
 10
192.89556
 20
19.57072
 30
0.0
 40
1.2192
 41
26.13659999999999
 71
     1
 72
     1
  1
ACABADO
  7
ONSHAPE-STANDARD
  0
MTEXT
  5
1E9
330
1F
100
AcDbEntity
  8
TITLE_BLOCK
100
AcDbMText
 10
205.56
 20
15.334
 30
0.0
 40
1.8288
 41
26.66999999999999
 71
     5
 72
     1
  1
 
  7
ONSHAPE-STANDARD-FIELDS
1001
ACAD
1000
ACAD_MTEXT_DEFINED_HEIGHT_BEGIN
1070
    46
1040
10.668
1000
ACAD_MTEXT_DEFINED_HEIGHT_END
  0
LINE
  5
1EA
330
1F
100
AcDbEntity
  8
TITLE_BLOCK
100
AcDbLine
 10
218.895
 20
10.0
 30
0.0
 11
218.895
 21
48.09999999999999
 31
0.0
  0
LINE
  5
1EB
330
1F
100
AcDbEntity
  8
TITLE_BLOCK
100
AcDbLine
 10
228.42
 20
14.953
 30
0.0
 11
228.42
 21
22.573
 31
0.0
  0
LINE
  5
1EC
330
1F
100
AcDbEntity
  8
TITLE_BLOCK
100
AcDbLine
 10
235.659
 20
10.0
 30
0.0
 11
235.659
 21
14.953
 31
0.0
  0
LINE
  5
1ED
330
1F
100
AcDbEntity
  8
TITLE_BLOCK
100
AcDbLine
 10
270.33
 20
10.0
 30
0.0
 11
270.33
 21
14.953
 31
0.0
  0
LINE
  5
1EE
330
1F
100
AcDbEntity
  8
TITLE_BLOCK
100
AcDbLine
 10
289.38
 20
14.953
 30
0.0
 11
289.38
 21
22.573
 31
0.0
  0
LINE
  5
1EF
330
1F
100
AcDbEntity
  8
TITLE_BLOCK
100
AcDbLine
 10
218.895
 20
14.953
 30
0.0
 11
297.0
 21
14.953
 31
0.0
  0
LINE
  5
1F0
330
1F
100
AcDbEntity
  8
TITLE_BLOCK
100
AcDbLine
 10
218.895
 20
22.573
 30
0.0
 11
297.0
 21
22.573
 31
0.0
  0
LINE
  5
1F1
330
1F
100
AcDbEntity
  8
TITLE_BLOCK
100
AcDbLine
 10
218.895
 20
38.575
 30
0.0
 11
297.0
 21
38.575
 31
0.0
  0
LINE
  5
1F2
330
1F
100
AcDbEntity
  8
TITLE_BLOCK
100
AcDbLine
 10
218.895
 20
48.09999999999999
 30
0.0
 11
297.0
 21
48.09999999999999
 31
0.0
  0
MTEXT
  5
1F3
330
1F
100
AcDbEntity
  8
TITLE_BLOCK
100
AcDbMText
 10
219.56556
 20
37.47772
 30
0.0
 40
1.2192
 41
9.334500000000006
 71
     1
 72
     1
  1
TTULO
  7
ONSHAPE-STANDARD
  0
MTEXT
  5
1F4
102
{ACAD_XDICTIONARY
360
1F5
102
}
330
1F
100
AcDbEntity
  8
TITLE_BLOCK
100
AcDbMText
 10
257.9475
 20
35.52699999999999
 30
0.0
 40
2.92608
 41
70.48499999999999
 71
     5
 72
     1
  1
----
  7
ONSHAPE-STANDARD-FIELDS
1001
ACAD
1000
ACAD_MTEXT_DEFINED_HEIGHT_BEGIN
1070
    46
1040
4.800599999999998
1000
ACAD_MTEXT_DEFINED_HEIGHT_END
  0
MTEXT
  5
1FA
102
{ACAD_XDICTIONARY
360
1FB
102
}
330
1F
100
AcDbEntity
  8
TITLE_BLOCK
100
AcDbMText
 10
257.9475
 20
30.7264
 30
0.0
 40
2.92608
 41
70.48499999999999
 71
     5
 72
     1
  1
----
  7
ONSHAPE-STANDARD-FIELDS
1001
ACAD
1000
ACAD_MTEXT_DEFINED_HEIGHT_BEGIN
1070
    46
1040
4.800599999999998
1000
ACAD_MTEXT_DEFINED_HEIGHT_END
  0
MTEXT
  5
200
102
{ACAD_XDICTIONARY
360
201
102
}
330
1F
100
AcDbEntity
  8
TITLE_BLOCK
100
AcDbMText
 10
257.9475
 20
25.9258
 30
0.0
 40
2.92608
 41
70.48499999999999
 71
     5
 72
     1
  1
----
  7
ONSHAPE-STANDARD-FIELDS
1001
ACAD
1000
ACAD_MTEXT_DEFINED_HEIGHT_BEGIN
1070
    46
1040
4.800599999999998
1000
ACAD_MTEXT_DEFINED_HEIGHT_END
  0
MTEXT
  5
206
330
1F
100
AcDbEntity
  8
TITLE_BLOCK
100
AcDbMText
 10
219.431448
 20
21.695176
 30
0.0
 40
0.9753599999999999
 41
9.334500000000006
 71
     1
 72
     1
  1
TAMAO
  7
ONSHAPE-STANDARD
  0
MTEXT
  5
207
102
{ACAD_XDICTIONARY
360
208
102
}
330
1F
100
AcDbEntity
  8
TITLE_BLOCK
100
AcDbMText
 10
223.6575
 20
18.763
 30
0.0
 40
3.6576
 41
9.525000000000006
 71
     5
 72
     1
  1
A4
  7
ONSHAPE-STANDARD-FIELDS
1001
ACAD
1000
ACAD_MTEXT_DEFINED_HEIGHT_BEGIN
1070
    46
1040
7.620000000000001
1000
ACAD_MTEXT_DEFINED_HEIGHT_END
  0
MTEXT
  5
20D
330
1F
100
AcDbEntity
  8
TITLE_BLOCK
100
AcDbMText
 10
228.956448
 20
21.695176
 30
0.0
 40
0.9753599999999999
 41
59.74079999999998
 71
     1
 72
     1
  1
NMERO DE DIBUJO
  7
ONSHAPE-STANDARD
  0
MTEXT
  5
20E
102
{ACAD_XDICTIONARY
360
20F
102
}
330
1F
100
AcDbEntity
  8
TITLE_BLOCK
100
AcDbMText
 10
258.9
 20
18.763
 30
0.0
 40
3.6576
 41
60.95999999999998
 71
     5
 72
     1
  1
----
  7
ONSHAPE-STANDARD-FIELDS
1001
ACAD
1000
ACAD_MTEXT_DEFINED_HEIGHT_BEGIN
1070
    46
1040
7.620000000000001
1000
ACAD_MTEXT_DEFINED_HEIGHT_END
  0
MTEXT
  5
214
330
1F
100
AcDbEntity
  8
TITLE_BLOCK
100
AcDbMText
 10
289.916448
 20
21.695176
 30
0.0
 40
0.9753599999999999
 41
7.467600000000004
 71
     1
 72
     1
  1
REVISIN
  7
ONSHAPE-STANDARD
  0
MTEXT
  5
215
102
{ACAD_XDICTIONARY
360
216
102
}
330
1F
100
AcDbEntity
  8
TITLE_BLOCK
100
AcDbMText
 10
293.571
 20
18.763
 30
0.0
 40
3.6576
 41
6.858000000000004
 71
     5
 72
     1
  1
-
  7
ONSHAPE-STANDARD-FIELDS
1001
ACAD
1000
ACAD_MTEXT_DEFINED_HEIGHT_BEGIN
1070
    46
1040
7.620000000000001
1000
ACAD_MTEXT_DEFINED_HEIGHT_END
  0
MTEXT
  5
21B
330
1F
100
AcDbEntity
  8
TITLE_BLOCK
100
AcDbMText
 10
219.431448
 20
14.075176
 30
0.0
 40
0.9753599999999999
 41
16.42871999999998
 71
     1
 72
     1
  1
ESCALA
  7
ONSHAPE-STANDARD
  0
MTEXT
  5
21C
102
{ACAD_XDICTIONARY
360
21D
102
}
330
1F
100
AcDbEntity
  8
TITLE_BLOCK
100
AcDbMText
 10
228.039
 20
12.4765
 30
0.0
 40
2.19456
 41
15.23999999999998
 71
     5
 72
     1
  1
1:2
  7
ONSHAPE-STANDARD-FIELDS
1001
ACAD
1000
ACAD_MTEXT_DEFINED_HEIGHT_BEGIN
1070
    46
1040
4.952999999999999
1000
ACAD_MTEXT_DEFINED_HEIGHT_END
  0
MTEXT
  5
222
330
1F
100
AcDbEntity
  8
TITLE_BLOCK
100
AcDbMText
 10
236.195448
 20
14.075176
 30
0.0
 40
0.9753599999999999
 41
33.97757999999999
 71
     1
 72
     1
  1
PESO
  7
ONSHAPE-STANDARD
  0
MTEXT
  5
223
330
1F
100
AcDbEntity
  8
TITLE_BLOCK
100
AcDbMText
 10
252.9945
 20
12.4765
 30
0.0
 40
2.19456
 41
34.67099999999999
 71
     5
 72
     1
  1
 
  7
ONSHAPE-STANDARD-FIELDS
1001
ACAD
1000
ACAD_MTEXT_DEFINED_HEIGHT_BEGIN
1070
    46
1040
4.952999999999999
1000
ACAD_MTEXT_DEFINED_HEIGHT_END
  0
MTEXT
  5
224
330
1F
100
AcDbEntity
  8
TITLE_BLOCK
100
AcDbMText
 10
270.866448
 20
14.075176
 30
0.0
 40
0.9753599999999999
 41
26.13660000000002
 71
     1
 72
     1
  1
HOJA
  7
ONSHAPE-STANDARD
  0
MTEXT
  5
225
102
{ACAD_XDICTIONARY
360
226
102
}
330
1F
100
AcDbEntity
  8
TITLE_BLOCK
100
AcDbMText
 10
284.427
 20
12.4765
 30
0.0
 40
2.19456
 41
25.14600000000002
 71
     5
 72
     1
  1
1 de 1
  7
ONSHAPE-STANDARD-FIELDS
1001
ACAD
1000
ACAD_MTEXT_DEFINED_HEIGHT_BEGIN
1070
    46
1040
4.952999999999999
1000
ACAD_MTEXT_DEFINED_HEIGHT_END
  0
MTEXT
  5
22B
102
{ACAD_XDICTIONARY
360
22C
102
}
330
1F
100
AcDbEntity
  8
ANNOTATION_TEXT
 62
     7
 60
     1
100
AcDbMText
 10
159.194944
 20
104.9449367088608
 30
0.0
 40
3.5
 41
0.0
 71
     2
 72
     1
  1

  7
ONSHAPE-STANDARD-VIEW-LABE
1001
ACAD
1000
ACAD_MTEXT_DEFINED_HEIGHT_BEGIN
1070
    46
1040
3.5
1000
ACAD_MTEXT_DEFINED_HEIGHT_END
  0
LINE
  5
235
330
1F
100
AcDbEntity
  8
CENTERMARKS
  6
CONTINUOUS
100
AcDbLine
 10
142.519944
 20
149.3949367088608
 30
0.0
 11
142.869944
 21
149.3949367088608
 31
0.0
  0
LINE
  5
236
330
1F
100
AcDbEntity
  8
CENTERMARKS
  6
CONTINUOUS
100
AcDbLine
 10
142.694944
 20
149.2199367088608
 30
0.0
 11
142.694944
 21
149.5699367088608
 31
0.0
  0
LINE
  5
237
330
1F
100
AcDbEntity
  8
CENTERMARKS
  6
CENTER
100
AcDbLine
 10
142.344944
 20
149.3949367088608
 30
0.0
 11
141.844944
 21
149.3949367088608
 31
0.0
  0
LINE
  5
238
330
1F
100
AcDbEntity
  8
CENTERMARKS
  6
CENTER
100
AcDbLine
 10
143.044944
 20
149.3949367088608
 30
0.0
 11
143.544944
 21
149.3949367088608
 31
0.0
  0
LINE
  5
239
330
1F
100
AcDbEntity
  8
CENTERMARKS
  6
CENTER
100
AcDbLine
 10
142.694944
 20
149.7449367088608
 30
0.0
 11
142.694944
 21
150.2449367088608
 31
0.0
  0
LINE
  5
23A
330
1F
100
AcDbEntity
  8
CENTERMARKS
  6
CENTER
100
AcDbLine
 10
142.694944
 20
149.0449367088607
 30
0.0
 11
142.694944
 21
148.5449367088607
 31
0.0
  0
LINE
  5
23D
330
1F
100
AcDbEntity
  8
CENTERMARKS
  6
CONTINUOUS
100
AcDbLine
 10
192.769944
 20
149.3949367088608
 30
0.0
 11
193.119944
 21
149.3949367088608
 31
0.0
  0
LINE
  5
23E
330
1F
100
AcDbEntity
  8
CENTERMARKS
  6
CONTINUOUS
100
AcDbLine
 10
192.944944
 20
149.2199367088608
 30
0.0
 11
192.944944
 21
149.5699367088608
 31
0.0
  0
LINE
  5
23F
330
1F
100
AcDbEntity
  8
CENTERMARKS
  6
CENTER
100
AcDbLine
 10
192.594944
 20
149.3949367088608
 30
0.0
 11
192.094944
 21
149.3949367088608
 31
0.0
  0
LINE
  5
240
330
1F
100
AcDbEntity
  8
CENTERMARKS
  6
CENTER
100
AcDbLine
 10
193.294944
 20
149.3949367088608
 30
0.0
 11
193.794944
 21
149.3949367088608
 31
0.0
  0
LINE
  5
241
330
1F
100
AcDbEntity
  8
CENTERMARKS
  6
CENTER
100
AcDbLine
 10
192.944944
 20
149.7449367088608
 30
0.0
 11
192.944944
 21
150.2449367088608
 31
0.0
  0
LINE
  5
242
330
1F
100
AcDbEntity
  8
CENTERMARKS
  6
CENTER
100
AcDbLine
 10
192.944944
 20
149.0449367088607
 30
0.0
 11
192.944944
 21
148.5449367088607
 31
0.0
  0
LINE
  5
245
330
1F
100
AcDbEntity
  8
CENTERMARKS
  6
CONTINUOUS
100
AcDbLine
 10
192.769944
 20
139.3949367088608
 30
0.0
 11
193.119944
 21
139.3949367088608
 31
0.0
  0
LINE
  5
246
330
1F
100
AcDbEntity
  8
CENTERMARKS
  6
CONTINUOUS
100
AcDbLine
 10
192.944944
 20
139.2199367088608
 30
0.0
 11
192.944944
 21
139.5699367088608
 31
0.0
  0
LINE
  5
247
330
1F
100
AcDbEntity
  8
CENTERMARKS
  6
CENTER
100
AcDbLine
 10
192.594944
 20
139.3949367088608
 30
0.0
 11
192.094944
 21
139.3949367088608
 31
0.0
  0
LINE
  5
248
330
1F
100
AcDbEntity
  8
CENTERMARKS
  6
CENTER
100
AcDbLine
 10
193.294944
 20
139.3949367088608
 30
0.0
 11
193.794944
 21
139.3949367088608
 31
0.0
  0
LINE
  5
249
330
1F
100
AcDbEntity
  8
CENTERMARKS
  6
CENTER
100
AcDbLine
 10
192.944944
 20
139.7449367088608
 30
0.0
 11
192.944944
 21
140.2449367088608
 31
0.0
  0
LINE
  5
24A
330
1F
100
AcDbEntity
  8
CENTERMARKS
  6
CENTER
100
AcDbLine
 10
192.944944
 20
139.0449367088607
 30
0.0
 11
192.944944
 21
138.5449367088607
 31
0.0
  0
LINE
  5
24D
330
1F
100
AcDbEntity
  8
CENTERMARKS
  6
CONTINUOUS
100
AcDbLine
 10
192.769944
 20
125.1449367088608
 30
0.0
 11
193.119944
 21
125.1449367088608
 31
0.0
  0
LINE
  5
24E
330
1F
100
AcDbEntity
  8
CENTERMARKS
  6
CONTINUOUS
100
AcDbLine
 10
192.944944
 20
124.9699367088608
 30
0.0
 11
192.944944
 21
125.3199367088608
 31
0.0
  0
LINE
  5
24F
330
1F
100
AcDbEntity
  8
CENTERMARKS
  6
CENTER
100
AcDbLine
 10
192.594944
 20
125.1449367088608
 30
0.0
 11
192.094944
 21
125.1449367088608
 31
0.0
  0
LINE
  5
250
330
1F
100
AcDbEntity
  8
CENTERMARKS
  6
CENTER
100
AcDbLine
 10
193.294944
 20
125.1449367088608
 30
0.0
 11
193.794944
 21
125.1449367088608
 31
0.0
  0
LINE
  5
251
330
1F
100
AcDbEntity
  8
CENTERMARKS
  6
CENTER
100
AcDbLine
 10
192.944944
 20
125.4949367088608
 30
0.0
 11
192.944944
 21
125.9949367088608
 31
0.0
  0
LINE
  5
252
330
1F
100
AcDbEntity
  8
CENTERMARKS
  6
CENTER
100
AcDbLine
 10
192.944944
 20
124.7949367088608
 30
0.0
 11
192.944944
 21
124.2949367088608
 31
0.0
  0
LINE
  5
255
330
1F
100
AcDbEntity
  8
CENTERMARKS
  6
CONTINUOUS
100
AcDbLine
 10
192.769944
 20
110.8949367088608
 30
0.0
 11
193.119944
 21
110.8949367088608
 31
0.0
  0
LINE
  5
256
330
1F
100
AcDbEntity
  8
CENTERMARKS
  6
CONTINUOUS
100
AcDbLine
 10
192.944944
 20
110.7199367088608
 30
0.0
 11
192.944944
 21
111.0699367088608
 31
0.0
  0
LINE
  5
257
330
1F
100
AcDbEntity
  8
CENTERMARKS
  6
CENTER
100
AcDbLine
 10
192.594944
 20
110.8949367088608
 30
0.0
 11
192.094944
 21
110.8949367088608
 31
0.0
  0
LINE
  5
258
330
1F
100
AcDbEntity
  8
CENTERMARKS
  6
CENTER
100
AcDbLine
 10
193.294944
 20
110.8949367088608
 30
0.0
 11
193.794944
 21
110.8949367088608
 31
0.0
  0
LINE
  5
259
330
1F
100
AcDbEntity
  8
CENTERMARKS
  6
CENTER
100
AcDbLine
 10
192.944944
 20
111.2449367088608
 30
0.0
 11
192.944944
 21
111.7449367088608
 31
0.0
  0
LINE
  5
25A
330
1F
100
AcDbEntity
  8
CENTERMARKS
  6
CENTER
100
AcDbLine
 10
192.944944
 20
110.5449367088608
 30
0.0
 11
192.944944
 21
110.0449367088608
 31
0.0
  0
LINE
  5
25D
330
1F
100
AcDbEntity
  8
CENTERMARKS
  6
CONTINUOUS
100
AcDbLine
 10
125.269944
 20
110.8949367088608
 30
0.0
 11
125.619944
 21
110.8949367088608
 31
0.0
  0
LINE
  5
25E
330
1F
100
AcDbEntity
  8
CENTERMARKS
  6
CONTINUOUS
100
AcDbLine
 10
125.444944
 20
110.7199367088608
 30
0.0
 11
125.444944
 21
111.0699367088608
 31
0.0
  0
LINE
  5
25F
330
1F
100
AcDbEntity
  8
CENTERMARKS
  6
CENTER
100
AcDbLine
 10
125.094944
 20
110.8949367088608
 30
0.0
 11
124.594944
 21
110.8949367088608
 31
0.0
  0
LINE
  5
260
330
1F
100
AcDbEntity
  8
CENTERMARKS
  6
CENTER
100
AcDbLine
 10
125.794944
 20
110.8949367088608
 30
0.0
 11
126.294944
 21
110.8949367088608
 31
0.0
  0
LINE
  5
261
330
1F
100
AcDbEntity
  8
CENTERMARKS
  6
CENTER
100
AcDbLine
 10
125.444944
 20
111.2449367088608
 30
0.0
 11
125.444944
 21
111.7449367088608
 31
0.0
  0
LINE
  5
262
330
1F
100
AcDbEntity
  8
CENTERMARKS
  6
CENTER
100
AcDbLine
 10
125.444944
 20
110.5449367088608
 30
0.0
 11
125.444944
 21
110.0449367088608
 31
0.0
  0
LINE
  5
265
330
1F
100
AcDbEntity
  8
CENTERMARKS
  6
CONTINUOUS
100
AcDbLine
 10
125.269944
 20
125.1449367088608
 30
0.0
 11
125.619944
 21
125.1449367088608
 31
0.0
  0
LINE
  5
266
330
1F
100
AcDbEntity
  8
CENTERMARKS
  6
CONTINUOUS
100
AcDbLine
 10
125.444944
 20
124.9699367088608
 30
0.0
 11
125.444944
 21
125.3199367088608
 31
0.0
  0
LINE
  5
267
330
1F
100
AcDbEntity
  8
CENTERMARKS
  6
CENTER
100
AcDbLine
 10
125.094944
 20
125.1449367088608
 30
0.0
 11
124.594944
 21
125.1449367088608
 31
0.0
  0
LINE
  5
268
330
1F
100
AcDbEntity
  8
CENTERMARKS
  6
CENTER
100
AcDbLine
 10
125.794944
 20
125.1449367088608
 30
0.0
 11
126.294944
 21
125.1449367088608
 31
0.0
  0
LINE
  5
269
330
1F
100
AcDbEntity
  8
CENTERMARKS
  6
CENTER
100
AcDbLine
 10
125.444944
 20
125.4949367088608
 30
0.0
 11
125.444944
 21
125.9949367088608
 31
0.0
  0
LINE
  5
26A
330
1F
100
AcDbEntity
  8
CENTERMARKS
  6
CENTER
100
AcDbLine
 10
125.444944
 20
124.7949367088608
 30
0.0
 11
125.444944
 21
124.2949367088608
 31
0.0
  0
LINE
  5
26D
330
1F
100
AcDbEntity
  8
CENTERMARKS
  6
CONTINUOUS
100
AcDbLine
 10
125.269944
 20
139.3949367088608
 30
0.0
 11
125.619944
 21
139.3949367088608
 31
0.0
  0
LINE
  5
26E
330
1F
100
AcDbEntity
  8
CENTERMARKS
  6
CONTINUOUS
100
AcDbLine
 10
125.444944
 20
139.2199367088608
 30
0.0
 11
125.444944
 21
139.5699367088608
 31
0.0
  0
LINE
  5
26F
330
1F
100
AcDbEntity
  8
CENTERMARKS
  6
CENTER
100
AcDbLine
 10
125.094944
 20
139.3949367088608
 30
0.0
 11
124.594944
 21
139.3949367088608
 31
0.0
  0
LINE
  5
270
330
1F
100
AcDbEntity
  8
CENTERMARKS
  6
CENTER
100
AcDbLine
 10
125.794944
 20
139.3949367088608
 30
0.0
 11
126.294944
 21
139.3949367088608
 31
0.0
  0
LINE
  5
271
330
1F
100
AcDbEntity
  8
CENTERMARKS
  6
CENTER
100
AcDbLine
 10
125.444944
 20
139.7449367088608
 30
0.0
 11
125.444944
 21
140.2449367088608
 31
0.0
  0
LINE
  5
272
330
1F
100
AcDbEntity
  8
CENTERMARKS
  6
CENTER
100
AcDbLine
 10
125.444944
 20
139.0449367088607
 30
0.0
 11
125.444944
 21
138.5449367088607
 31
0.0
  0
LINE
  5
275
330
1F
100
AcDbEntity
  8
CENTERMARKS
  6
CONTINUOUS
100
AcDbLine
 10
125.269944
 20
149.3949367088608
 30
0.0
 11
125.619944
 21
149.3949367088608
 31
0.0
  0
LINE
  5
276
330
1F
100
AcDbEntity
  8
CENTERMARKS
  6
CONTINUOUS
100
AcDbLine
 10
125.444944
 20
149.2199367088608
 30
0.0
 11
125.444944
 21
149.5699367088608
 31
0.0
  0
LINE
  5
277
330
1F
100
AcDbEntity
  8
CENTERMARKS
  6
CENTER
100
AcDbLine
 10
125.094944
 20
149.3949367088608
 30
0.0
 11
124.594944
 21
149.3949367088608
 31
0.0
  0
LINE
  5
278
330
1F
100
AcDbEntity
  8
CENTERMARKS
  6
CENTER
100
AcDbLine
 10
125.794944
 20
149.3949367088608
 30
0.0
 11
126.294944
 21
149.3949367088608
 31
0.0
  0
LINE
  5
279
330
1F
100
AcDbEntity
  8
CENTERMARKS
  6
CENTER
100
AcDbLine
 10
125.444944
 20
149.7449367088608
 30
0.0
 11
125.444944
 21
150.2449367088608
 31
0.0
  0
LINE
  5
27A
330
1F
100
AcDbEntity
  8
CENTERMARKS
  6
CENTER
100
AcDbLine
 10
125.444944
 20
149.0449367088607
 30
0.0
 11
125.444944
 21
148.5449367088607
 31
0.0
  0
LINE
  5
27D
330
1F
100
AcDbEntity
  8
CENTERMARKS
  6
CONTINUOUS
100
AcDbLine
 10
159.019944
 20
149.3949367088608
 30
0.0
 11
159.369944
 21
149.3949367088608
 31
0.0
  0
LINE
  5
27E
330
1F
100
AcDbEntity
  8
CENTERMARKS
  6
CONTINUOUS
100
AcDbLine
 10
159.194944
 20
149.2199367088608
 30
0.0
 11
159.194944
 21
149.5699367088608
 31
0.0
  0
LINE
  5
27F
330
1F
100
AcDbEntity
  8
CENTERMARKS
  6
CENTER
100
AcDbLine
 10
158.844944
 20
149.3949367088608
 30
0.0
 11
158.344944
 21
149.3949367088608
 31
0.0
  0
LINE
  5
280
330
1F
100
AcDbEntity
  8
CENTERMARKS
  6
CENTER
100
AcDbLine
 10
159.544944
 20
149.3949367088608
 30
0.0
 11
160.044944
 21
149.3949367088608
 31
0.0
  0
LINE
  5
281
330
1F
100
AcDbEntity
  8
CENTERMARKS
  6
CENTER
100
AcDbLine
 10
159.194944
 20
149.7449367088608
 30
0.0
 11
159.194944
 21
150.2449367088608
 31
0.0
  0
LINE
  5
282
330
1F
100
AcDbEntity
  8
CENTERMARKS
  6
CENTER
100
AcDbLine
 10
159.194944
 20
149.0449367088607
 30
0.0
 11
159.194944
 21
148.5449367088607
 31
0.0
  0
LINE
  5
285
330
1F
100
AcDbEntity
  8
CENTERMARKS
  6
CONTINUOUS
100
AcDbLine
 10
175.519944
 20
149.3949367088608
 30
0.0
 11
175.869944
 21
149.3949367088608
 31
0.0
  0
LINE
  5
286
330
1F
100
AcDbEntity
  8
CENTERMARKS
  6
CONTINUOUS
100
AcDbLine
 10
175.694944
 20
149.2199367088608
 30
0.0
 11
175.694944
 21
149.5699367088608
 31
0.0
  0
LINE
  5
287
330
1F
100
AcDbEntity
  8
CENTERMARKS
  6
CENTER
100
AcDbLine
 10
175.344944
 20
149.3949367088608
 30
0.0
 11
174.844944
 21
149.3949367088608
 31
0.0
  0
LINE
  5
288
330
1F
100
AcDbEntity
  8
CENTERMARKS
  6
CENTER
100
AcDbLine
 10
176.044944
 20
149.3949367088608
 30
0.0
 11
176.544944
 21
149.3949367088608
 31
0.0
  0
LINE
  5
289
330
1F
100
AcDbEntity
  8
CENTERMARKS
  6
CENTER
100
AcDbLine
 10
175.694944
 20
149.7449367088608
 30
0.0
 11
175.694944
 21
150.2449367088608
 31
0.0
  0
LINE
  5
28A
330
1F
100
AcDbEntity
  8
CENTERMARKS
  6
CENTER
100
AcDbLine
 10
175.694944
 20
149.0449367088607
 30
0.0
 11
175.694944
 21
148.5449367088607
 31
0.0
  0
LINE
  5
28D
330
1F
100
AcDbEntity
  8
CENTERMARKS
  6
CONTINUOUS
100
AcDbLine
 10
142.519944
 20
139.3949367088608
 30
0.0
 11
142.869944
 21
139.3949367088608
 31
0.0
  0
LINE
  5
28E
330
1F
100
AcDbEntity
  8
CENTERMARKS
  6
CONTINUOUS
100
AcDbLine
 10
142.694944
 20
139.2199367088608
 30
0.0
 11
142.694944
 21
139.5699367088608
 31
0.0
  0
LINE
  5
28F
330
1F
100
AcDbEntity
  8
CENTERMARKS
  6
CENTER
100
AcDbLine
 10
142.344944
 20
139.3949367088608
 30
0.0
 11
141.844944
 21
139.3949367088608
 31
0.0
  0
LINE
  5
290
330
1F
100
AcDbEntity
  8
CENTERMARKS
  6
CENTER
100
AcDbLine
 10
143.044944
 20
139.3949367088608
 30
0.0
 11
143.544944
 21
139.3949367088608
 31
0.0
  0
LINE
  5
291
330
1F
100
AcDbEntity
  8
CENTERMARKS
  6
CENTER
100
AcDbLine
 10
142.694944
 20
139.7449367088608
 30
0.0
 11
142.694944
 21
140.2449367088608
 31
0.0
  0
LINE
  5
292
330
1F
100
AcDbEntity
  8
CENTERMARKS
  6
CENTER
100
AcDbLine
 10
142.694944
 20
139.0449367088607
 30
0.0
 11
142.694944
 21
138.5449367088607
 31
0.0
  0
LINE
  5
295
330
1F
100
AcDbEntity
  8
CENTERMARKS
  6
CONTINUOUS
100
AcDbLine
 10
159.019944
 20
139.3949367088608
 30
0.0
 11
159.369944
 21
139.3949367088608
 31
0.0
  0
LINE
  5
296
330
1F
100
AcDbEntity
  8
CENTERMARKS
  6
CONTINUOUS
100
AcDbLine
 10
159.194944
 20
139.2199367088608
 30
0.0
 11
159.194944
 21
139.5699367088608
 31
0.0
  0
LINE
  5
297
330
1F
100
AcDbEntity
  8
CENTERMARKS
  6
CENTER
100
AcDbLine
 10
158.844944
 20
139.3949367088608
 30
0.0
 11
158.344944
 21
139.3949367088608
 31
0.0
  0
LINE
  5
298
330
1F
100
AcDbEntity
  8
CENTERMARKS
  6
CENTER
100
AcDbLine
 10
159.544944
 20
139.3949367088608
 30
0.0
 11
160.044944
 21
139.3949367088608
 31
0.0
  0
LINE
  5
299
330
1F
100
AcDbEntity
  8
CENTERMARKS
  6
CENTER
100
AcDbLine
 10
159.194944
 20
139.7449367088608
 30
0.0
 11
159.194944
 21
140.2449367088608
 31
0.0
  0
LINE
  5
29A
330
1F
100
AcDbEntity
  8
CENTERMARKS
  6
CENTER
100
AcDbLine
 10
159.194944
 20
139.0449367088607
 30
0.0
 11
159.194944
 21
138.5449367088607
 31
0.0
  0
LINE
  5
29D
330
1F
100
AcDbEntity
  8
CENTERMARKS
  6
CONTINUOUS
100
AcDbLine
 10
175.519944
 20
110.8949367088608
 30
0.0
 11
175.869944
 21
110.8949367088608
 31
0.0
  0
LINE
  5
29E
330
1F
100
AcDbEntity
  8
CENTERMARKS
  6
CONTINUOUS
100
AcDbLine
 10
175.694944
 20
110.7199367088608
 30
0.0
 11
175.694944
 21
111.0699367088608
 31
0.0
  0
LINE
  5
29F
330
1F
100
AcDbEntity
  8
CENTERMARKS
  6
CENTER
100
AcDbLine
 10
175.344944
 20
110.8949367088608
 30
0.0
 11
174.844944
 21
110.8949367088608
 31
0.0
  0
LINE
  5
2A0
330
1F
100
AcDbEntity
  8
CENTERMARKS
  6
CENTER
100
AcDbLine
 10
176.044944
 20
110.8949367088608
 30
0.0
 11
176.544944
 21
110.8949367088608
 31
0.0
  0
LINE
  5
2A1
330
1F
100
AcDbEntity
  8
CENTERMARKS
  6
CENTER
100
AcDbLine
 10
175.694944
 20
111.2449367088608
 30
0.0
 11
175.694944
 21
111.7449367088608
 31
0.0
  0
LINE
  5
2A2
330
1F
100
AcDbEntity
  8
CENTERMARKS
  6
CENTER
100
AcDbLine
 10
175.694944
 20
110.5449367088608
 30
0.0
 11
175.694944
 21
110.0449367088608
 31
0.0
  0
LINE
  5
2A5
330
1F
100
AcDbEntity
  8
CENTERMARKS
  6
CONTINUOUS
100
AcDbLine
 10
159.019944
 20
110.8949367088608
 30
0.0
 11
159.369944
 21
110.8949367088608
 31
0.0
  0
LINE
  5
2A6
330
1F
100
AcDbEntity
  8
CENTERMARKS
  6
CONTINUOUS
100
AcDbLine
 10
159.194944
 20
110.7199367088608
 30
0.0
 11
159.194944
 21
111.0699367088608
 31
0.0
  0
LINE
  5
2A7
330
1F
100
AcDbEntity
  8
CENTERMARKS
  6
CENTER
100
AcDbLine
 10
158.844944
 20
110.8949367088608
 30
0.0
 11
158.344944
 21
110.8949367088608
 31
0.0
  0
LINE
  5
2A8
330
1F
100
AcDbEntity
  8
CENTERMARKS
  6
CENTER
100
AcDbLine
 10
159.544944
 20
110.8949367088608
 30
0.0
 11
160.044944
 21
110.8949367088608
 31
0.0
  0
LINE
  5
2A9
330
1F
100
AcDbEntity
  8
CENTERMARKS
  6
CENTER
100
AcDbLine
 10
159.194944
 20
111.2449367088608
 30
0.0
 11
159.194944
 21
111.7449367088608
 31
0.0
  0
LINE
  5
2AA
330
1F
100
AcDbEntity
  8
CENTERMARKS
  6
CENTER
100
AcDbLine
 10
159.194944
 20
110.5449367088608
 30
0.0
 11
159.194944
 21
110.0449367088608
 31
0.0
  0
LINE
  5
2AD
330
1F
100
AcDbEntity
  8
CENTERMARKS
  6
CONTINUOUS
100
AcDbLine
 10
142.519944
 20
110.8949367088608
 30
0.0
 11
142.869944
 21
110.8949367088608
 31
0.0
  0
LINE
  5
2AE
330
1F
100
AcDbEntity
  8
CENTERMARKS
  6
CONTINUOUS
100
AcDbLine
 10
142.694944
 20
110.7199367088608
 30
0.0
 11
142.694944
 21
111.0699367088608
 31
0.0
  0
LINE
  5
2AF
330
1F
100
AcDbEntity
  8
CENTERMARKS
  6
CENTER
100
AcDbLine
 10
142.344944
 20
110.8949367088608
 30
0.0
 11
141.844944
 21
110.8949367088608
 31
0.0
  0
LINE
  5
2B0
330
1F
100
AcDbEntity
  8
CENTERMARKS
  6
CENTER
100
AcDbLine
 10
143.044944
 20
110.8949367088608
 30
0.0
 11
143.544944
 21
110.8949367088608
 31
0.0
  0
LINE
  5
2B1
330
1F
100
AcDbEntity
  8
CENTERMARKS
  6
CENTER
100
AcDbLine
 10
142.694944
 20
111.2449367088608
 30
0.0
 11
142.694944
 21
111.7449367088608
 31
0.0
  0
LINE
  5
2B2
330
1F
100
AcDbEntity
  8
CENTERMARKS
  6
CENTER
100
AcDbLine
 10
142.694944
 20
110.5449367088608
 30
0.0
 11
142.694944
 21
110.0449367088608
 31
0.0
  0
LINE
  5
2B5
330
1F
100
AcDbEntity
  8
CENTERMARKS
  6
CONTINUOUS
100
AcDbLine
 10
175.519944
 20
139.3949367088608
 30
0.0
 11
175.869944
 21
139.3949367088608
 31
0.0
  0
LINE
  5
2B6
330
1F
100
AcDbEntity
  8
CENTERMARKS
  6
CONTINUOUS
100
AcDbLine
 10
175.694944
 20
139.2199367088608
 30
0.0
 11
175.694944
 21
139.5699367088608
 31
0.0
  0
LINE
  5
2B7
330
1F
100
AcDbEntity
  8
CENTERMARKS
  6
CENTER
100
AcDbLine
 10
175.344944
 20
139.3949367088608
 30
0.0
 11
174.844944
 21
139.3949367088608
 31
0.0
  0
LINE
  5
2B8
330
1F
100
AcDbEntity
  8
CENTERMARKS
  6
CENTER
100
AcDbLine
 10
176.044944
 20
139.3949367088608
 30
0.0
 11
176.544944
 21
139.3949367088608
 31
0.0
  0
LINE
  5
2B9
330
1F
100
AcDbEntity
  8
CENTERMARKS
  6
CENTER
100
AcDbLine
 10
175.694944
 20
139.7449367088608
 30
0.0
 11
175.694944
 21
140.2449367088608
 31
0.0
  0
LINE
  5
2BA
330
1F
100
AcDbEntity
  8
CENTERMARKS
  6
CENTER
100
AcDbLine
 10
175.694944
 20
139.0449367088607
 30
0.0
 11
175.694944
 21
138.5449367088607
 31
0.0
  0
DIMENSION
  5
2BB
102
{ACAD_REACTORS
330
2DF
330
2F2
102
}
102
{ACAD_XDICTIONARY
360
2BC
102
}
330
1F
100
AcDbEntity
  8
ANNOTATION_TEXT
100
AcDbDimension
  2
*D1
 10
125.444944
 20
103.9854712816913
 30
0.0
 11
134.1610543542234
 21
103.9854712816913
 31
0.0
 70
   160
  3
ONSHAPE-ISO-25$0
100
AcDbAlignedDimension
 13
124.694944
 23
110.1449367088608
 33
-0.0000000000000013
 14
125.444944
 24
110.0449367088608
 34
-0.0000000000000011
100
AcDbRotatedDimension
1001
ACAD
1000
DSTYLE
1002
{
1070
     4
1000
[]
1070
   144
1040
2.0
1070
     3
1000

1070
   288
1070
     1
1002
}
1001
ACAD_DIMASSOC_CALC_DIMLFAC
1040
-2.0
1001
ACAD_DIMASSOC_DIMLFAC
1040
-2.0
1001
ACAD_DIMASSOC_OVERRIDDEN_D
1040
0.0
1001
ONSHAPE_DIMENSION_ON_CENTE
1070
     1
1013
0.0
1023
-1.0
1033
0.0
  0
DIMENSION
  5
2DA
102
{ACAD_REACTORS
330
2F2
102
}
102
{ACAD_XDICTIONARY
360
2DB
102
}
330
1F
100
AcDbEntity
  8
ANNOTATION_TEXT
100
AcDbDimension
  2
*D2
 10
142.694944
 20
97.23916705792664
 30
0.0
 11
133.694944
 21
97.23916705792664
 31
0.0
 70
   160
  3
ONSHAPE-ISO-25$0
100
AcDbAlignedDimension
 13
124.694944
 23
110.1449367088608
 33
-0.0000000000000013
 14
142.694944
 24
110.0449367088608
 34
-0.0000000000000011
100
AcDbRotatedDimension
1001
ACAD
1000
DSTYLE
1002
{
1070
     4
1000
[]
1070
   144
1040
2.0
1070
     3
1000

1070
   288
1070
     1
1002
}
1001
ACAD_DIMASSOC_CALC_DIMLFAC
1040
-2.0
1001
ACAD_DIMASSOC_DIMLFAC
1040
-2.0
1001
ACAD_DIMASSOC_OVERRIDDEN_D
1040
0.0
1001
ONSHAPE_DIMENSION_ON_CENTE
1070
     1
1013
0.0
1023
-1.0
1033
0.0
  0
DIMENSION
  5
2ED
102
{ACAD_REACTORS
330
32E
102
}
102
{ACAD_XDICTIONARY
360
2EE
102
}
330
1F
100
AcDbEntity
  8
ANNOTATION_TEXT
100
AcDbDimension
  2
*D3
 10
159.194944
 20
87.86760200649634
 30
0.0
 11
141.944944
 21
87.86760200649634
 31
0.0
 70
   160
  3
ONSHAPE-ISO-25$0
100
AcDbAlignedDimension
 13
124.694944
 23
110.1449367088608
 33
-0.0000000000000013
 14
159.194944
 24
110.0449367088608
 34
-0.0000000000000011
100
AcDbRotatedDimension
1001
ACAD
1000
DSTYLE
1002
{
1070
     4
1000
[]
1070
   144
1040
2.0
1070
     3
1000

1070
   288
1070
     1
1002
}
1001
ACAD_DIMASSOC_CALC_DIMLFAC
1040
-2.0
1001
ACAD_DIMASSOC_DIMLFAC
1040
-2.0
1001
ACAD_DIMASSOC_OVERRIDDEN_D
1040
0.0
1001
ONSHAPE_DIMENSION_ON_CENTE
1070
     1
1013
0.0
1023
-1.0
1033
0.0
  0
DIMENSION
  5
300
102
{ACAD_REACTORS
330
31B
330
32E
102
}
102
{ACAD_XDICTIONARY
360
301
102
}
330
1F
100
AcDbEntity
  8
ANNOTATION_TEXT
100
AcDbDimension
  2
*D4
 10
193.694944
 20
103.9854712816913
 30
0.0
 11
184.2288336457765
 21
103.9854712816913
 31
0.0
 70
   160
  3
ONSHAPE-ISO-25$0
100
AcDbAlignedDimension
 13
192.944944
 23
110.0449367088608
 33
-0.0000000000000011
 14
193.694944
 24
110.1449367088608
 34
-0.0000000000000013
100
AcDbRotatedDimension
1001
ACAD
1000
DSTYLE
1002
{
1070
     4
1000
[]
1070
   144
1040
2.0
1070
     3
1000

1070
   288
1070
     1
1002
}
1001
ACAD_DIMASSOC_CALC_DIMLFAC
1040
-2.0
1001
ACAD_DIMASSOC_DIMLFAC
1040
-2.0
1001
ACAD_DIMASSOC_OVERRIDDEN_D
1040
0.0
1001
ONSHAPE_DIMENSION_ON_CENT0
1070
     1
1013
0.0
1023
-1.0
1033
0.0
  0
DIMENSION
  5
316
102
{ACAD_REACTORS
330
32E
102
}
102
{ACAD_XDICTIONARY
360
317
102
}
330
1F
100
AcDbEntity
  8
ANNOTATION_TEXT
100
AcDbDimension
  2
*D5
 10
193.694944
 20
97.23916705792664
 30
0.0
 11
184.694944
 21
97.23916705792664
 31
0.0
 70
   160
  3
ONSHAPE-ISO-25$0
100
AcDbAlignedDimension
 13
175.694944
 23
110.0449367088608
 33
-0.0000000000000011
 14
193.694944
 24
110.1449367088608
 34
-0.0000000000000013
100
AcDbRotatedDimension
1001
ACAD
1000
DSTYLE
1002
{
1070
     4
1000
[]
1070
   144
1040
2.0
1070
     3
1000

1070
   288
1070
     1
1002
}
1001
ACAD_DIMASSOC_CALC_DIMLFAC
1040
-2.0
1001
ACAD_DIMASSOC_DIMLFAC
1040
-2.0
1001
ACAD_DIMASSOC_OVERRIDDEN_D
1040
0.0
1001
ONSHAPE_DIMENSION_ON_CENT0
1070
     1
1013
0.0
1023
-1.0
1033
0.0
  0
DIMENSION
  5
329
102
{ACAD_REACTORS
102
}
102
{ACAD_XDICTIONARY
360
32A
102
}
330
1F
100
AcDbEntity
  8
ANNOTATION_TEXT
100
AcDbDimension
  2
*D6
 10
193.694944
 20
87.86760200649634
 30
0.0
 11
175.2061308987408
 21
87.86760200649634
 31
0.0
 70
   160
  3
ONSHAPE-ISO-25$0
100
AcDbAlignedDimension
 13
159.194944
 23
110.0449367088608
 33
-0.0000000000000011
 14
193.694944
 24
110.1449367088608
 34
-0.0000000000000013
100
AcDbRotatedDimension
1001
ACAD
1000
DSTYLE
1002
{
1070
     4
1000
[]
1070
   144
1040
2.0
1070
     3
1000

1070
   288
1070
     1
1002
}
1001
ACAD_DIMASSOC_CALC_DIMLFAC
1040
-2.0
1001
ACAD_DIMASSOC_DIMLFAC
1040
-2.0
1001
ACAD_DIMASSOC_OVERRIDDEN_D
1040
0.0
1001
ONSHAPE_DIMENSION_ON_CENT0
1070
     1
1013
0.0
1023
-1.0
1033
0.0
  0
DIMENSION
  5
33C
102
{ACAD_REACTORS
330
356
330
369
102
}
102
{ACAD_XDICTIONARY
360
33D
102
}
330
1F
100
AcDbEntity
  8
ANNOTATION_TEXT
100
AcDbDimension
  2
*D7
 10
200.8618083533346
 20
110.1449367088608
 30
0.0
 11
200.8618083533346
 21
119.6110470630842
 31
0.0
 70
   160
  3
ONSHAPE-ISO-25$0
100
AcDbAlignedDimension
 13
193.794944
 23
110.8949367088608
 33
-0.0000000000000011
 14
193.694944
 24
110.1449367088608
 34
-0.0000000000000013
 50
90.0
100
AcDbRotatedDimension
1001
ACAD
1000
DSTYLE
1002
{
1070
     4
1000
[]
1070
   144
1040
2.0
1070
     3
1000

1070
   288
1070
     1
1002
}
1001
ACAD_DIMASSOC_CALC_DIMLFAC
1040
-2.0
1001
ACAD_DIMASSOC_DIMLFAC
1040
-2.0
1001
ACAD_DIMASSOC_OVERRIDDEN_D
1040
0.0
1001
ONSHAPE_DIMENSION_ON_CENT0
1070
     1
1013
1.0
1023
0.0
1033
0.0
  0
DIMENSION
  5
351
102
{ACAD_REACTORS
330
369
102
}
102
{ACAD_XDICTIONARY
360
352
102
}
330
1F
100
AcDbEntity
  8
ANNOTATION_TEXT
100
AcDbDimension
  2
*D8
 10
210.3412962104461
 20
125.1449367088608
 30
0.0
 11
210.3412962104461
 21
117.6449367088608
 31
0.0
 70
   160
  3
ONSHAPE-ISO-25$0
100
AcDbAlignedDimension
 13
193.694944
 23
110.1449367088608
 33
-0.0000000000000013
 14
193.794944
 24
125.1449367088608
 34
-0.0000000000000002
 50
90.0
100
AcDbRotatedDimension
1001
ACAD
1000
DSTYLE
1002
{
1070
     4
1000
[]
1070
   144
1040
2.0
1070
     3
1000

1070
   288
1070
     1
1002
}
1001
ACAD_DIMASSOC_CALC_DIMLFAC
1040
-2.0
1001
ACAD_DIMASSOC_DIMLFAC
1040
-2.0
1001
ACAD_DIMASSOC_OVERRIDDEN_D
1040
0.0
1001
ONSHAPE_DIMENSION_ON_CENT0
1070
     1
1013
1.0
1023
0.0
1033
0.0
1001
ONSHAPE_DIMENSION_ON_CENTE
1070
     1
1013
1.0
1023
0.0
1033
0.0
  0
DIMENSION
  5
364
102
{ACAD_REACTORS
102
}
102
{ACAD_XDICTIONARY
360
365
102
}
330
1F
100
AcDbEntity
  8
ANNOTATION_TEXT
100
AcDbDimension
  2
*D9
 10
221.2475628437012
 20
139.3949367088608
 30
0.0
 11
221.2475628437012
 21
124.7699367088608
 31
0.0
 70
   160
  3
ONSHAPE-ISO-25$0
100
AcDbAlignedDimension
 13
193.694944
 23
110.1449367088608
 33
-0.0000000000000013
 14
193.794944
 24
139.3949367088608
 34
0.0000000000000007
 50
90.0
100
AcDbRotatedDimension
1001
ACAD
1000
DSTYLE
1002
{
1070
     4
1000
[]
1070
   144
1040
2.0
1070
     3
1000

1070
   288
1070
     1
1002
}
1001
ACAD_DIMASSOC_CALC_DIMLFAC
1040
-2.0
1001
ACAD_DIMASSOC_DIMLFAC
1040
-2.0
1001
ACAD_DIMASSOC_OVERRIDDEN_D
1040
0.0
1001
ONSHAPE_DIMENSION_ON_CENTE
1070
     1
1013
1.0
1023
0.0
1033
0.0
  0
DIMENSION
  5
377
102
{ACAD_REACTORS
102
}
102
{ACAD_XDICTIONARY
360
378
102
}
330
1F
100
AcDbEntity
  8
ANNOTATION_TEXT
100
AcDbDimension
  2
*D10
 10
202.1710566313122
 20
150.1449367088608
 30
0.0
 11
202.1710566313122
 21
158.8610470630842
 31
0.0
 70
   160
  3
ONSHAPE-ISO-25$0
100
AcDbAlignedDimension
 13
193.794944
 23
149.3949367088608
 33
0.0000000000000011
 14
193.694944
 24
150.1449367088608
 34
0.0000000000000013
 50
90.0
100
AcDbRotatedDimension
1001
ACAD
1000
DSTYLE
1002
{
1070
     4
1000
[]
1070
   144
1040
2.0
1070
     3
1000

1070
   288
1070
     1
1002
}
1001
ACAD_DIMASSOC_CALC_DIMLFAC
1040
-2.0
1001
ACAD_DIMASSOC_DIMLFAC
1040
-2.0
1001
ACAD_DIMASSOC_OVERRIDDEN_D
1040
0.0
1001
ONSHAPE_DIMENSION_ON_CENT0
1070
     1
1013
1.0
1023
0.0
1033
0.0
  0
DIMENSION
  5
38C
102
{ACAD_REACTORS
102
}
102
{ACAD_XDICTIONARY
360
38D
102
}
330
1F
100
AcDbEntity
  8
ANNOTATION_TEXT
100
AcDbDimension
  2
*D11
 10
120.0897076857877
 20
139.3949367088608
 30
0.0
 11
120.0897076857877
 21
144.7699367088608
 31
0.0
 70
   160
  3
ONSHAPE-ISO-25$0
100
AcDbAlignedDimension
 13
124.694944
 23
150.1449367088608
 33
0.0000000000000013
 14
124.594944
 24
139.3949367088608
 34
0.0000000000000007
 50
90.0
100
AcDbRotatedDimension
1001
ACAD
1000
DSTYLE
1002
{
1070
     4
1000
[]
1070
   144
1040
2.0
1070
     3
1000

1070
   288
1070
     1
1002
}
1001
ACAD_DIMASSOC_CALC_DIMLFAC
1040
-2.0
1001
ACAD_DIMASSOC_DIMLFAC
1040
-2.0
1001
ACAD_DIMASSOC_OVERRIDDEN_D
1040
0.0
1001
ONSHAPE_DIMENSION_ON_CENTE
1070
     1
1013
-1.0
1023
0.0
1033
0.0
  0
MTEXT
  5
3A3
330
1F
100
AcDbEntity
  8
SKETCHED_GEOMETRY
 62
     7
100
AcDbMText
 10
160.5408683701847
 20
123.3862577791342
 30
0.0
 40
3.5
 41
3.12091280653951
 71
     1
 72
     1
  1
\fNoto Sans|b0|i0|c0|p0;\W1.0000000000;\T1.0000000000;\o\lA
  7
ONSHAPE-STANDARD
  0
ARC
  5
3A4
330
1F
100
AcDbEntity
  8
DETAIL_VIEW_PARENT_BORDER
  6
ONS_PHANTOM
 62
     7
100
AcDbCircle
 10
155.3249185357157
 20
121.6362577791342
 30
0.0
 40
6.77402204155344
100
AcDbArc
 50
43.94504739753604
 51
316.0549526024639
  0
SOLID
  5
3A5
330
1F
100
AcDbEntity
  8
DETAIL_VIEW_PARENT_BORDER
 62
     7
100
AcDbTrace
 10
161.5696562899734
 20
124.2612577791342
 30
0.0
 11
160.5424259680412
 21
126.5782405103634
 31
0.0
 12
159.8464980726119
 22
126.1198424204811
 32
0.0
 13
159.8464980726119
 23
126.1198424204811
 33
0.0
  0
SOLID
  5
3A6
330
1F
100
AcDbEntity
  8
DETAIL_VIEW_PARENT_BORDER
 62
     7
100
AcDbTrace
 10
161.5696562899734
 20
119.0112577791342
 30
0.0
 11
159.8464980726119
 21
117.1526731377872
 31
0.0
 12
160.5424259680412
 22
116.694275047905
 32
0.0
 13
160.5424259680412
 23
116.694275047905
 33
0.0
  0
MTEXT
  5
3A7
102
{ACAD_REACTORS
330
3DE
102
}
102
{ACAD_XDICTIONARY
360
3A8
102
}
330
1F
100
AcDbEntity
  8
ANNOTATION_TEXT
 62
     7
100
AcDbMText
 10
38.60730730429049
 20
41.36121743953918
 30
0.0
 40
3.5
 41
0.0
 71
     2
 72
     1
  1
 A ^J 2:1
  7
ONSHAPE-STANDARD-VIEW-LABE
1001
ACAD
1000
ACAD_MTEXT_DEFINED_HEIGHT_BEGIN
1070
    46
1040
3.5
1000
ACAD_MTEXT_DEFINED_HEIGHT_END
  0
DIMENSION
  5
3AE
102
{ACAD_REACTORS
330
3CB
102
}
102
{ACAD_XDICTIONARY
360
3AF
102
}
330
1F
100
AcDbEntity
  8
ANNOTATION_TEXT
100
AcDbDimension
  2
*D12
 10
98.02314640977238
 20
100.9521042217518
 30
0.0
 11
85.03276535300586
 21
108.4521042217517
 31
0.0
 70
   160
 52
-270.0
  3
ONSHAPE-ISO-25$0
100
AcDbAlignedDimension
 13
55.59692465609311
 23
87.46773257119521
 33
-0.0000000000000009
 14
81.57768676962625
 24
72.46773257119526
 34
-0.0000000000000018
 50
150.0
100
AcDbRotatedDimension
1001
ACAD
1000
DSTYLE
1002
{
1070
     4
1000
[]
1070
   144
1040
0.5
1070
     3
1000

1070
   288
1070
     1
1002
}
1001
ACAD_DIMASSOC_CALC_DIMLFAC
1040
-0.5
1001
ACAD_DIMASSOC_DIMLFAC
1040
-0.5
1001
ACAD_DIMASSOC_OVERRIDDEN_D
1040
0.0
  0
DIMENSION
  5
3C6
102
{ACAD_REACTORS
330
3DE
102
}
102
{ACAD_XDICTIONARY
360
3C7
102
}
330
1F
100
AcDbEntity
  8
ANNOTATION_TEXT
100
AcDbDimension
  2
*D13
 10
107.9092060384679
 20
57.46773257119526
 30
0.0
 11
107.9092060384679
 21
72.46773257119526
 31
0.0
 70
   160
 52
-270.0
  3
ONSHAPE-ISO-25$0
100
AcDbAlignedDimension
 13
72.91743273178187
 23
87.46773257119523
 33
-0.0000000000000009
 14
72.91743273178187
 24
57.46773257119522
 34
-0.0000000000000036
 50
90.00000000000006
100
AcDbRotatedDimension
1001
ACAD
1000
DSTYLE
1002
{
1070
     4
1000
[]
1070
   144
1040
0.5
1070
     3
1000

1070
   288
1070
     1
1002
}
1001
ACAD_DIMASSOC_CALC_DIMLFAC
1040
-0.5
1001
ACAD_DIMASSOC_DIMLFAC
1040
-0.5
1001
ACAD_DIMASSOC_OVERRIDDEN_D
1040
0.0
  0
DIMENSION
  5
3D9
102
{ACAD_REACTORS
102
}
102
{ACAD_XDICTIONARY
360
3DA
102
}
330
1F
100
AcDbEntity
  8
ANNOTATION_TEXT
100
AcDbDimension
  2
*D14
 10
71.57530464694227
 20
29.79236660440241
 30
0.0
 11
84.56568570370894
 21
37.29236660440243
 31
0.0
 70
   160
  3
ONSHAPE-ISO-25$0
100
AcDbAlignedDimension
 13
81.57768676962625
 23
72.46773257119526
 33
-0.0000000000000018
 14
55.5969246560931
 24
57.4677325711952
 34
-0.0000000000000036
 50
29.99999999999991
100
AcDbRotatedDimension
1001
ACAD
1000
DSTYLE
1002
{
1070
     4
1000
[]
1070
   144
1040
0.5
1070
     3
1000

1070
   288
1070
     1
1002
}
1001
ACAD_DIMASSOC_CALC_DIMLFAC
1040
-0.5
1001
ACAD_DIMASSOC_DIMLFAC
1040
-0.5
1001
ACAD_DIMASSOC_OVERRIDDEN_D
1040
0.0
  0
DIMENSION
  5
3EC
102
{ACAD_REACTORS
102
}
102
{ACAD_XDICTIONARY
360
3ED
102
}
330
1F
100
AcDbEntity
  8
ANNOTATION_TEXT
100
AcDbDimension
  2
*D15
 10
27.24925947373786
 20
94.5673289429857
 30
0.0
 11
46.58009211441709
 21
105.7279903717415
 31
0.0
 70
   160
  3
ONSHAPE-ISO-25$0
100
AcDbAlignedDimension
 13
46.93667061824872
 23
72.46773257119524
 33
-0.0000000000000027
 14
41.74051819554204
 24
69.46773257119526
 34
-0.0000000000000027
 50
30.00000000000004
100
AcDbRotatedDimension
1001
ACAD
1000
DSTYLE
1002
{
1070
     4
1000
[]
1070
   144
1040
0.5
1070
     3
1000

1070
   288
1070
     1
1002
}
1001
ACAD_DIMASSOC_CALC_DIMLFAC
1040
-0.5
1001
ACAD_DIMASSOC_DIMLFAC
1040
-0.5
1001
ACAD_DIMASSOC_OVERRIDDEN_D
1040
0.0
  0
ENDSEC
  0
SECTION
  2
OBJECTS
  0
DICTIONARY
  5
C
330
0
100
AcDbDictionary
  3
ACAD_FIELDLIST
350
231
  3
ACAD_GROUP
350
D
  3
ACAD_LAYOUT
350
1A
  3
ACAD_MATERIAL
350
43
  3
ACAD_MLEADERSTYLE
350
6B
  3
ACAD_MLINESTYLE
350
17
  3
ACAD_PLOTSETTINGS
350
19
  3
ACAD_SCALELIST
350
47
  3
ACAD_VISUALSTYLE
350
2A
  3
ACDBHEADERROUNDTRIPXREC
350
45E
  3
ACDBVARIABLEDICTIONARY
350
6E
  3
ONSHAPE_DATA
350
401
  0
DICTIONARY
  5
489
330
8
100
AcDbDictionary
280
     1
  3
ACAD_XREC_ROUNDTRIP
360
48A
  0
DICTIONARY
  5
1C4
330
1C3
100
AcDbDictionary
280
     1
  0
DICTIONARY
  5
1CB
330
1CA
100
AcDbDictionary
280
     1
  0
DICTIONARY
  5
1D5
330
1D4
100
AcDbDictionary
280
     1
  0
DICTIONARY
  5
1DB
330
1DA
100
AcDbDictionary
280
     1
  0
DICTIONARY
  5
1F5
330
1F4
100
AcDbDictionary
280
     1
  0
DICTIONARY
  5
1FB
330
1FA
100
AcDbDictionary
280
     1
  0
DICTIONARY
  5
201
330
200
100
AcDbDictionary
280
     1
  0
DICTIONARY
  5
208
330
207
100
AcDbDictionary
280
     1
  0
DICTIONARY
  5
20F
330
20E
100
AcDbDictionary
280
     1
  0
DICTIONARY
  5
216
330
215
100
AcDbDictionary
280
     1
  0
DICTIONARY
  5
21D
330
21C
100
AcDbDictionary
280
     1
  0
DICTIONARY
  5
226
330
225
100
AcDbDictionary
280
     1
  0
DICTIONARY
  5
22C
330
22B
100
AcDbDictionary
280
     1
  3
ONSHAPE_VIEW_ID
360
22D
  0
DICTIONARY
  5
2BC
330
2BB
100
AcDbDictionary
280
     1
  3
ACAD_BREAKDATA
360
2C0
  3
OS_DIM_DISPLAY_FLAG_DATA
360
2BD
  0
DICTIONARY
  5
2DB
330
2DA
100
AcDbDictionary
280
     1
  3
ACAD_BREAKDATA
360
2DF
  3
OS_DIM_DISPLAY_FLAG_DATA
360
2DC
  0
DICTIONARY
  5
2EE
330
2ED
100
AcDbDictionary
280
     1
  3
ACAD_BREAKDATA
360
2F2
  3
OS_DIM_DISPLAY_FLAG_DATA
360
2EF
  0
DICTIONARY
  5
301
330
300
100
AcDbDictionary
280
     1
  3
ACAD_BREAKDATA
360
305
  3
OS_DIM_DISPLAY_FLAG_DATA
360
302
  0
DICTIONARY
  5
317
330
316
100
AcDbDictionary
280
     1
  3
ACAD_BREAKDATA
360
31B
  3
OS_DIM_DISPLAY_FLAG_DATA
360
318
  0
DICTIONARY
  5
32A
330
329
100
AcDbDictionary
280
     1
  3
ACAD_BREAKDATA
360
32E
  3
OS_DIM_DISPLAY_FLAG_DATA
360
32B
  0
DICTIONARY
  5
33D
330
33C
100
AcDbDictionary
280
     1
  3
ACAD_BREAKDATA
360
341
  3
OS_DIM_DISPLAY_FLAG_DATA
360
33E
  0
DICTIONARY
  5
352
330
351
100
AcDbDictionary
280
     1
  3
ACAD_BREAKDATA
360
356
  3
OS_DIM_DISPLAY_FLAG_DATA
360
353
  0
DICTIONARY
  5
365
330
364
100
AcDbDictionary
280
     1
  3
ACAD_BREAKDATA
360
369
  3
OS_DIM_DISPLAY_FLAG_DATA
360
366
  0
DICTIONARY
  5
378
330
377
100
AcDbDictionary
280
     1
  3
ACAD_BREAKDATA
360
37C
  3
OS_DIM_DISPLAY_FLAG_DATA
360
379
  0
DICTIONARY
  5
38D
330
38C
100
AcDbDictionary
280
     1
  3
ACAD_BREAKDATA
360
391
  3
OS_DIM_DISPLAY_FLAG_DATA
360
38E
  0
DICTIONARY
  5
3A8
330
3A7
100
AcDbDictionary
280
     1
  3
ONSHAPE_VIEW_ID
360
3A9
  0
DICTIONARY
  5
3AF
330
3AE
100
AcDbDictionary
280
     1
  3
ACAD_BREAKDATA
360
3B3
  3
OS_DIM_DISPLAY_FLAG_DATA
360
3B0
  0
DICTIONARY
  5
3C7
330
3C6
100
AcDbDictionary
280
     1
  3
ACAD_BREAKDATA
360
3CB
  3
OS_DIM_DISPLAY_FLAG_DATA
360
3C8
  0
DICTIONARY
  5
3DA
330
3D9
100
AcDbDictionary
280
     1
  3
ACAD_BREAKDATA
360
3DE
  3
OS_DIM_DISPLAY_FLAG_DATA
360
3DB
  0
DICTIONARY
  5
3ED
330
3EC
100
AcDbDictionary
280
     1
  3
ACAD_BREAKDATA
360
3F1
  3
OS_DIM_DISPLAY_FLAG_DATA
360
3EE
  0
ACAD_PROXY_OBJECT
  5
231
102
{ACAD_REACTORS
330
C
102
}
330
C
100
AcDbProxyObject
 90
      499
 91
      509
 93
       11
310
4600
330
1C7
330
1C8
330
1CE
330
1CF
330
1D8
330
1D9
330
1DE
330
1DF
330
1F8
330
1F9
330
1FE
330
1FF
330
204
330
205
330
20B
330
20C
330
212
330
213
330
219
330
21A
330
220
330
221
330
229
330
22A
 94
        0
  0
DICTIONARY
  5
D
102
{ACAD_REACTORS
330
C
102
}
330
C
100
AcDbDictionary
  0
DICTIONARY
  5
1A
102
{ACAD_REACTORS
330
C
102
}
330
C
100
AcDbDictionary
  0
DICTIONARY
  5
43
102
{ACAD_REACTORS
330
C
102
}
330
C
100
AcDbDictionary
  3
BYBLOCK
350
45
  3
BYLAYER
350
44
  3
GLOBAL
350
46
  0
DICTIONARY
  5
6B
102
{ACAD_REACTORS
330
C
102
}
330
C
100
AcDbDictionary
  3
STANDARD
350
6C
  0
DICTIONARY
  5
17
102
{ACAD_REACTORS
330
C
102
}
330
C
100
AcDbDictionary
  3
STANDARD
350
18
  0
DICTIONARY
  5
19
102
{ACAD_REACTORS
330
C
102
}
330
C
100
AcDbDictionary
  0
DICTIONARY
  5
47
102
{ACAD_REACTORS
330
C
102
}
330
C
100
AcDbDictionary
  3
A0
350
48
  3
A1
350
49
  3
A2
350
4A
  3
A3
350
4B
  3
A4
350
4C
  3
A5
350
4D
  3
A6
350
4E
  3
A7
350
4F
  3
A8
350
50
  3
A9
350
51
  3
B0
350
52
  3
B1
350
53
  3
B2
350
54
  3
B3
350
55
  3
B4
350
56
  3
B5
350
57
  3
B6
350
58
  3
B7
350
59
  3
B8
350
5A
  3
B9
350
5B
  3
C0
350
5C
  3
C1
350
5D
  3
C2
350
5E
  3
C3
350
5F
  3
C4
350
60
  3
C5
350
61
  3
C6
350
62
  3
C7
350
63
  3
C8
350
64
  3
C9
350
65
  3
D0
350
66
  3
D1
350
67
  3
D2
350
68
  0
DICTIONARY
  5
2A
102
{ACAD_REACTORS
330
C
102
}
330
C
100
AcDbDictionary
  3
2DWIREFRAME
350
2F
  3
BASIC
350
32
  3
BRIGHTEN
350
36
  3
COLORCHANGE
350
3A
  3
CONCEPTUAL
350
34
  3
DIM
350
35
  3
EDGECOLOROFF
350
3D
  3
FACEPATTERN
350
39
  3
FLAT
350
2B
  3
FLATWITHEDGES
350
2C
  3
GOURAUD
350
2D
  3
GOURAUDWITHEDGES
350
2E
  3
HIDDEN
350
31
  3
JITTEROFF
350
3B
  3
LINEPATTERN
350
38
  3
OVERHANGOFF
350
3C
  3
REALISTIC
350
33
  3
SHADED
350
42
  3
SHADED_WITH_EDGES
350
41
  3
SHADES_OF_GRAY
350
3E
  3
SKETCHY
350
3F
  3
THICKEN
350
37
  3
WIREFRAME
350
30
  3
X-RAY
350
40
  0
DICTIONARY
  5
45E
102
{ACAD_REACTORS
330
C
102
}
330
C
100
AcDbDictionary
  3
CEPSNID
350
468
  3
CEPSNTYPE
350
467
  3
DIMSTYLEDATA
350
47E
  3
FINGERPRINTGUID
350
469
  3
HYPERLINKBASE
350
461
  3
INSUNITS
350
466
  3
LAYOUTDICT
350
463
  3
LWETCUNION
350
465
  3
PLOTSETDICT
350
464
  3
PSVPSCALE
350
46B
  3
PUCSBASE
350
46E
  3
PUCSORGBACK
350
474
  3
PUCSORGBOTTOM
350
470
  3
PUCSORGFRONT
350
473
  3
PUCSORGLEFT
350
471
  3
PUCSORGRIGHT
350
472
  3
PUCSORGTOP
350
46F
  3
PUCSORTHOREF
350
46C
  3
PUCSORTHOVIEW
350
46D
  3
STYLESHEET
350
462
  3
TSTACKALIGN
350
45F
  3
TSTACKSIZE
350
460
  3
UCSBASE
350
477
  3
UCSORGBACK
350
47D
  3
UCSORGBOTTOM
350
479
  3
UCSORGFRONT
350
47C
  3
UCSORGLEFT
350
47A
  3
UCSORGRIGHT
350
47B
  3
UCSORGTOP
350
478
  3
UCSORTHOREF
350
475
  3
UCSORTHOVIEW
350
476
  3
VERSIONGUID
350
46A
  0
DICTIONARY
  5
6E
102
{ACAD_REACTORS
330
C
102
}
330
C
100
AcDbDictionary
  3
CANNOSCALE
350
48B
  3
CENTEREXE
350
485
  3
CENTERLTYPEFILE
350
486
  3
CMLEADERSTYLE
350
480
  3
CTABLESTYLE
350
47F
  3
DIMASSOC
350
487
  3
HIDETEXT
350
488
  3
MSLTSCALE
350
48C
  3
OLEFRAME
350
6F
  3
PSOLHEIGHT
350
482
  3
PSOLWIDTH
350
481
  0
DICTIONARY
  5
401
102
{ACAD_REACTORS
330
C
102
}
330
C
100
AcDbDictionary
280
     1
  3
DIM_UNITS
360
402
  3
ONSHAPE_ANG_TOL_PRECISION
360
405
  3
ONSHAPE_BREAK_DIMENSION_DEFAULT
360
40A
  3
ONSHAPE_DIMENSION_TEXT_HOR
360
409
  3
ONSHAPE_JOGDIMENSION_LOCK_
360
407
  3
ONSHAPE_SHOWDIMENSIONSLINE
360
408
  3
ONSHAPE_UNDERLINEOVERRIDEN
360
406
  3
ONSHAPE_VSHARP_EXTENSION
360
404
  3
ONSHAPE_WELD_STANDARD
360
403
  0
XRECORD
  5
48A
102
{ACAD_REACTORS
330
489
102
}
330
489
100
AcDbXrecord
102
VTR_0.000_0.000_1.000_1.000_VISUALSTYLE
340
2F
102
VTR_0.000_0.000_1.000_1.000_GRIDDISPLAY
 70
     3
102
VTR_0.000_0.000_1.000_1.000_GRIDMAJOR
 70
     5
102
VTR_0.000_0.000_1.000_1.000_DEFAULTLIGHTING
280
     1
102
VTR_0.000_0.000_1.000_1.000_DEFAULTLIGHTINGTYPE
 70
     1
102
VTR_0.000_0.000_1.000_1.000_BRIGHTNESS
141
0.0
102
VTR_0.000_0.000_1.000_1.000_CONTRAST
142
0.0
  0
XRECORD
  5
22D
102
{ACAD_REACTORS
330
22C
102
}
330
22C
100
AcDbXrecord
330
0
  0
BREAKDATA
  5
2C0
102
{ACAD_REACTORS
330
2BC
102
}
330
2BC
100
AcDbBreakData
 70
     0
330
2BB
 90
        0
  0
XRECORD
  5
2BD
102
{ACAD_REACTORS
330
2BC
102
}
330
2BC
100
AcDbXrecord
 90
        1
 90
        0
  0
BREAKDATA
  5
2DF
102
{ACAD_REACTORS
330
2DB
102
}
330
2DB
100
AcDbBreakData
 70
     0
330
2DA
 90
        1
100
AcDbBreakPointRef
 71
     0
 72
     0
 91
       -1
 10
0.0
 20
0.0
 30
0.0
 11
0.0
 21
0.0
 31
0.0
331
2BB
 73
     2
 92
        0
  0
XRECORD
  5
2DC
102
{ACAD_REACTORS
330
2DB
102
}
330
2DB
100
AcDbXrecord
 90
        1
 90
        0
  0
BREAKDATA
  5
2F2
102
{ACAD_REACTORS
330
2EE
102
}
330
2EE
100
AcDbBreakData
 70
     0
330
2ED
 90
        2
100
AcDbBreakPointRef
 71
     0
 72
     0
 91
       -1
 10
0.0
 20
0.0
 30
0.0
 11
0.0
 21
0.0
 31
0.0
331
2BB
 73
     2
 92
        0
100
AcDbBreakPointRef
 71
     0
 72
     0
 91
       -1
 10
0.0
 20
0.0
 30
0.0
 11
0.0
 21
0.0
 31
0.0
331
2DA
 73
     2
 92
        0
  0
XRECORD
  5
2EF
102
{ACAD_REACTORS
330
2EE
102
}
330
2EE
100
AcDbXrecord
 90
        1
 90
        0
  0
BREAKDATA
  5
305
102
{ACAD_REACTORS
330
301
102
}
330
301
100
AcDbBreakData
 70
     0
330
300
 90
        0
  0
XRECORD
  5
302
102
{ACAD_REACTORS
330
301
102
}
330
301
100
AcDbXrecord
 90
        1
 90
        0
  0
BREAKDATA
  5
31B
102
{ACAD_REACTORS
330
317
102
}
330
317
100
AcDbBreakData
 70
     0
330
316
 90
        1
100
AcDbBreakPointRef
 71
     0
 72
     0
 91
       -1
 10
0.0
 20
0.0
 30
0.0
 11
0.0
 21
0.0
 31
0.0
331
300
 73
     2
 92
        0
  0
XRECORD
  5
318
102
{ACAD_REACTORS
330
317
102
}
330
317
100
AcDbXrecord
 90
        1
 90
        0
  0
BREAKDATA
  5
32E
102
{ACAD_REACTORS
330
32A
102
}
330
32A
100
AcDbBreakData
 70
     0
330
329
 90
        3
100
AcDbBreakPointRef
 71
     0
 72
     0
 91
       -1
 10
0.0
 20
0.0
 30
0.0
 11
0.0
 21
0.0
 31
0.0
331
2ED
 73
     2
 92
        0
100
AcDbBreakPointRef
 71
     0
 72
     0
 91
       -1
 10
0.0
 20
0.0
 30
0.0
 11
0.0
 21
0.0
 31
0.0
331
300
 73
     2
 92
        0
100
AcDbBreakPointRef
 71
     0
 72
     0
 91
       -1
 10
0.0
 20
0.0
 30
0.0
 11
0.0
 21
0.0
 31
0.0
331
316
 73
     2
 92
        0
  0
XRECORD
  5
32B
102
{ACAD_REACTORS
330
32A
102
}
330
32A
100
AcDbXrecord
 90
        1
 90
        0
  0
BREAKDATA
  5
341
102
{ACAD_REACTORS
330
33D
102
}
330
33D
100
AcDbBreakData
 70
     0
330
33C
 90
        0
  0
XRECORD
  5
33E
102
{ACAD_REACTORS
330
33D
102
}
330
33D
100
AcDbXrecord
 90
        1
 90
        0
  0
BREAKDATA
  5
356
102
{ACAD_REACTORS
330
352
102
}
330
352
100
AcDbBreakData
 70
     0
330
351
 90
        1
100
AcDbBreakPointRef
 71
     0
 72
     0
 91
       -1
 10
0.0
 20
0.0
 30
0.0
 11
0.0
 21
0.0
 31
0.0
331
33C
 73
     2
 92
        0
  0
XRECORD
  5
353
102
{ACAD_REACTORS
330
352
102
}
330
352
100
AcDbXrecord
 90
        1
 90
        0
  0
BREAKDATA
  5
369
102
{ACAD_REACTORS
330
365
102
}
330
365
100
AcDbBreakData
 70
     0
330
364
 90
        2
100
AcDbBreakPointRef
 71
     0
 72
     0
 91
       -1
 10
0.0
 20
0.0
 30
0.0
 11
0.0
 21
0.0
 31
0.0
331
33C
 73
     2
 92
        0
100
AcDbBreakPointRef
 71
     0
 72
     0
 91
       -1
 10
0.0
 20
0.0
 30
0.0
 11
0.0
 21
0.0
 31
0.0
331
351
 73
     2
 92
        0
  0
XRECORD
  5
366
102
{ACAD_REACTORS
330
365
102
}
330
365
100
AcDbXrecord
 90
        1
 90
        0
  0
BREAKDATA
  5
37C
102
{ACAD_REACTORS
330
378
102
}
330
378
100
AcDbBreakData
 70
     0
330
377
 90
        0
  0
XRECORD
  5
379
102
{ACAD_REACTORS
330
378
102
}
330
378
100
AcDbXrecord
 90
        1
 90
        0
  0
BREAKDATA
  5
391
102
{ACAD_REACTORS
330
38D
102
}
330
38D
100
AcDbBreakData
 70
     0
330
38C
 90
        0
  0
XRECORD
  5
38E
102
{ACAD_REACTORS
330
38D
102
}
330
38D
100
AcDbXrecord
 90
        1
 90
        0
  0
XRECORD
  5
3A9
102
{ACAD_REACTORS
330
3A8
102
}
330
3A8
100
AcDbXrecord
330
0
  0
BREAKDATA
  5
3B3
102
{ACAD_REACTORS
330
3AF
102
}
330
3AF
100
AcDbBreakData
 70
     0
330
3AE
 90
        0
  0
XRECORD
  5
3B0
102
{ACAD_REACTORS
330
3AF
102
}
330
3AF
100
AcDbXrecord
 90
        1
 90
        0
  0
BREAKDATA
  5
3CB
102
{ACAD_REACTORS
330
3C7
102
}
330
3C7
100
AcDbBreakData
 70
     0
330
3C6
 90
        1
100
AcDbBreakPointRef
 71
     0
 72
     0
 91
       -1
 10
0.0
 20
0.0
 30
0.0
 11
0.0
 21
0.0
 31
0.0
331
3AE
 73
     2
 92
        0
  0
XRECORD
  5
3C8
102
{ACAD_REACTORS
330
3C7
102
}
330
3C7
100
AcDbXrecord
 90
        1
 90
        0
  0
BREAKDATA
  5
3DE
102
{ACAD_REACTORS
330
3DA
102
}
330
3DA
100
AcDbBreakData
 70
     0
330
3D9
 90
        2
100
AcDbBreakPointRef
 71
     0
 72
     0
 91
       -1
 10
0.0
 20
0.0
 30
0.0
 11
0.0
 21
0.0
 31
0.0
331
3C6
 73
     2
 92
        0
100
AcDbBreakPointRef
 71
     0
 72
     0
 91
       -1
 10
0.0
 20
0.0
 30
0.0
 11
0.0
 21
0.0
 31
0.0
331
3A7
 73
     2
 92
        0
  0
XRECORD
  5
3DB
102
{ACAD_REACTORS
330
3DA
102
}
330
3DA
100
AcDbXrecord
 90
        1
 90
        0
  0
BREAKDATA
  5
3F1
102
{ACAD_REACTORS
330
3ED
102
}
330
3ED
100
AcDbBreakData
 70
     0
330
3EC
 90
        0
  0
XRECORD
  5
3EE
102
{ACAD_REACTORS
330
3ED
102
}
330
3ED
100
AcDbXrecord
 90
        1
 90
        0
  0
MATERIAL
  5
45
102
{ACAD_REACTORS
330
43
102
}
102
{ACAD_XDICTIONARY
360
48F
102
}
330
43
100
AcDbMaterial
  1
BYBLOCK
  0
MATERIAL
  5
44
102
{ACAD_REACTORS
330
43
102
}
102
{ACAD_XDICTIONARY
360
48D
102
}
330
43
100
AcDbMaterial
  1
BYLAYER
  0
MATERIAL
  5
46
102
{ACAD_REACTORS
330
43
102
}
102
{ACAD_XDICTIONARY
360
491
102
}
330
43
100
AcDbMaterial
  1
GLOBAL
  0
ACAD_PROXY_OBJECT
  5
6C
102
{ACAD_REACTORS
330
6B
102
}
330
6B
100
AcDbProxyObject
 90
      499
 91
      505
 93
      610
310
40901902A4063FBFFFFFE0000000000000020400000000000020404214DD185B99185C990000000000000104090140501A00000000000004100000000000000041025764000000000000039000
340
14
340
0
340
11
340
0
 94
        0
1001
ACAD_MLEADERVER
1070
     2
  0
MLINESTYLE
  5
18
102
{ACAD_REACTORS
330
17
102
}
330
17
100
AcDbMlineStyle
  2
Standard
 70
     0
  3

 62
   256
 51
90.0
 52
90.0
 71
     2
 49
0.5
 62
   256
  6
BYLAYER
 49
-0.5
 62
   256
  6
BYLAYER
  0
ACAD_PROXY_OBJECT
  5
48
102
{ACAD_REACTORS
330
47
102
}
330
47
100
AcDbProxyObject
 90
      499
 91
      503
 93
       41
310
903313A31580
  0
ACAD_PROXY_OBJECT
  5
49
102
{ACAD_REACTORS
330
47
102
}
330
47
100
AcDbProxyObject
 90
      499
 91
      503
 93
      105
310
903313A324000000000000004000
  0
ACAD_PROXY_OBJECT
  5
4A
102
{ACAD_REACTORS
330
47
102
}
330
47
100
AcDbProxyObject
 90
      499
 91
      503
 93
      105
310
903313A344000000000000104000
  0
ACAD_PROXY_OBJECT
  5
4B
102
{ACAD_REACTORS
330
47
102
}
330
47
100
AcDbProxyObject
 90
      499
 91
      503
 93
      105
310
903313A354000000000000144000
  0
ACAD_PROXY_OBJECT
  5
4C
102
{ACAD_REACTORS
330
47
102
}
330
47
100
AcDbProxyObject
 90
      499
 91
      503
 93
      105
310
903313A384000000000000204000
  0
ACAD_PROXY_OBJECT
  5
4D
102
{ACAD_REACTORS
330
47
102
}
330
47
100
AcDbProxyObject
 90
      499
 91
      503
 93
      113
310
904313A31304000000000000244000
  0
ACAD_PROXY_OBJECT
  5
4E
102
{ACAD_REACTORS
330
47
102
}
330
47
100
AcDbProxyObject
 90
      499
 91
      503
 93
      113
310
904313A31364000000000000304000
  0
ACAD_PROXY_OBJECT
  5
4F
102
{ACAD_REACTORS
330
47
102
}
330
47
100
AcDbProxyObject
 90
      499
 91
      503
 93
      113
310
904313A32304000000000000344000
  0
ACAD_PROXY_OBJECT
  5
50
102
{ACAD_REACTORS
330
47
102
}
330
47
100
AcDbProxyObject
 90
      499
 91
      503
 93
      113
310
904313A333040000000000003E4000
  0
ACAD_PROXY_OBJECT
  5
51
102
{ACAD_REACTORS
330
47
102
}
330
47
100
AcDbProxyObject
 90
      499
 91
      503
 93
      113
310
904313A34304000000000000444000
  0
ACAD_PROXY_OBJECT
  5
52
102
{ACAD_REACTORS
330
47
102
}
330
47
100
AcDbProxyObject
 90
      499
 91
      503
 93
      113
310
904313A35304000000000000494000
  0
ACAD_PROXY_OBJECT
  5
53
102
{ACAD_REACTORS
330
47
102
}
330
47
100
AcDbProxyObject
 90
      499
 91
      503
 93
      121
310
905313A3130304000000000000594000
  0
ACAD_PROXY_OBJECT
  5
54
102
{ACAD_REACTORS
330
47
102
}
330
47
100
AcDbProxyObject
 90
      499
 91
      503
 93
      105
310
903323A310000000000000010100
  0
ACAD_PROXY_OBJECT
  5
55
102
{ACAD_REACTORS
330
47
102
}
330
47
100
AcDbProxyObject
 90
      499
 91
      503
 93
      105
310
903343A310000000000000410100
  0
ACAD_PROXY_OBJECT
  5
56
102
{ACAD_REACTORS
330
47
102
}
330
47
100
AcDbProxyObject
 90
      499
 91
      503
 93
      105
310
903383A310000000000000810100
  0
ACAD_PROXY_OBJECT
  5
57
102
{ACAD_REACTORS
330
47
102
}
330
47
100
AcDbProxyObject
 90
      499
 91
      503
 93
      113
310
90431303A310000000000000910100
  0
ACAD_PROXY_OBJECT
  5
58
102
{ACAD_REACTORS
330
47
102
}
330
47
100
AcDbProxyObject
 90
      499
 91
      503
 93
      121
310
9053130303A310000000000001650100
  0
ACAD_PROXY_OBJECT
  5
59
102
{ACAD_REACTORS
330
47
102
}
330
47
100
AcDbProxyObject
 90
      499
 91
      503
 93
      257
310
90E312F31323822203D2031272D3022000000000000200FC000000000000284000
  0
ACAD_PROXY_OBJECT
  5
5A
102
{ACAD_REACTORS
330
47
102
}
330
47
100
AcDbProxyObject
 90
      499
 91
      503
 93
      249
310
90D312F363422203D2031272D3022000000000000240FC000000000000284000
  0
ACAD_PROXY_OBJECT
  5
5B
102
{ACAD_REACTORS
330
47
102
}
330
47
100
AcDbProxyObject
 90
      499
 91
      503
 93
      249
310
90D312F333222203D2031272D3022000000000000280FC000000000000284000
  0
ACAD_PROXY_OBJECT
  5
5C
102
{ACAD_REACTORS
330
47
102
}
330
47
100
AcDbProxyObject
 90
      499
 91
      503
 93
      249
310
90D312F313622203D2031272D30220000000000002C0FC000000000000284000
  0
ACAD_PROXY_OBJECT
  5
5D
102
{ACAD_REACTORS
330
47
102
}
330
47
100
AcDbProxyObject
 90
      499
 91
      503
 93
      249
310
90D332F333222203D2031272D30220000000000002E0FC000000000000284000
  0
ACAD_PROXY_OBJECT
  5
5E
102
{ACAD_REACTORS
330
47
102
}
330
47
100
AcDbProxyObject
 90
      499
 91
      503
 93
      241
310
90C312F3822203D2031272D3022000000000000300FC000000000000284000
  0
ACAD_PROXY_OBJECT
  5
5F
102
{ACAD_REACTORS
330
47
102
}
330
47
100
AcDbProxyObject
 90
      499
 91
      503
 93
      249
310
90D332F313622203D2031272D3022000000000000320FC000000000000284000
  0
ACAD_PROXY_OBJECT
  5
60
102
{ACAD_REACTORS
330
47
102
}
330
47
100
AcDbProxyObject
 90
      499
 91
      503
 93
      241
310
90C312F3422203D2031272D3022000000000000340FC000000000000284000
  0
ACAD_PROXY_OBJECT
  5
61
102
{ACAD_REACTORS
330
47
102
}
330
47
100
AcDbProxyObject
 90
      499
 91
      503
 93
      241
310
90C332F3822203D2031272D3022000000000000360FC000000000000284000
  0
ACAD_PROXY_OBJECT
  5
62
102
{ACAD_REACTORS
330
47
102
}
330
47
100
AcDbProxyObject
 90
      499
 91
      503
 93
      241
310
90C312F3222203D2031272D3022000000000000380FC000000000000284000
  0
ACAD_PROXY_OBJECT
  5
63
102
{ACAD_REACTORS
330
47
102
}
330
47
100
AcDbProxyObject
 90
      499
 91
      503
 93
      241
310
90C332F3422203D2031272D30220000000000003A0FC000000000000284000
  0
ACAD_PROXY_OBJECT
  5
64
102
{ACAD_REACTORS
330
47
102
}
330
47
100
AcDbProxyObject
 90
      499
 91
      503
 93
      161
310
90A3122203D2031272D30224000000000000284000
  0
ACAD_PROXY_OBJECT
  5
65
102
{ACAD_REACTORS
330
47
102
}
330
47
100
AcDbProxyObject
 90
      499
 91
      503
 93
      257
310
90E312D312F3222203D2031272D30220000000000003E0FC000000000000284000
  0
ACAD_PROXY_OBJECT
  5
66
102
{ACAD_REACTORS
330
47
102
}
330
47
100
AcDbProxyObject
 90
      499
 91
      503
 93
      225
310
90A3322203D2031272D302200000000000002100000000000000284000
  0
ACAD_PROXY_OBJECT
  5
67
102
{ACAD_REACTORS
330
47
102
}
330
47
100
AcDbProxyObject
 90
      499
 91
      503
 93
      225
310
90A3622203D2031272D302200000000000006100000000000000284000
  0
ACAD_PROXY_OBJECT
  5
68
102
{ACAD_REACTORS
330
47
102
}
330
47
100
AcDbProxyObject
 90
      499
 91
      503
 93
      249
310
90D31272D3022203D2031272D30220000000000000A100000000000000284000
  0
ACAD_PROXY_OBJECT
  5
2F
102
{ACAD_REACTORS
330
2A
102
}
330
2A
100
AcDbProxyObject
 90
      499
 91
      501
 93
      436
310
42CC9915DA5C99599C985B595049028333333333333E33F0000000000000F90107901411070040501600405405064090741402480A0340
1001
ACAD
1000
AcDbSavedByObjectVersion
1070
     0
  0
ACAD_PROXY_OBJECT
  5
32
102
{ACAD_REACTORS
330
2A
102
}
330
2A
100
AcDbProxyObject
 90
      499
 91
      501
 93
      388
310
4150985CDA58D07406404333333333333E33F0000000000000F90107A41107004050150841D405064090741402480A0350
1001
ACAD
1000
AcDbSavedByObjectVersion
1070
     0
  0
ACAD_PROXY_OBJECT
  5
36
102
{ACAD_REACTORS
330
2A
102
}
330
2A
100
AcDbProxyObject
 90
      499
 91
      501
 93
      428
310
42109C9A59DA1D195B90C409028333333333333E33F0000000000000F9010790141107004050150841D405064090741402480A029950
1001
ACAD
1000
AcDbSavedByObjectVersion
1070
     0
  0
ACAD_PROXY_OBJECT
  5
3A
102
{ACAD_REACTORS
330
2A
102
}
330
2A
100
AcDbProxyObject
 90
      499
 91
      501
 93
      452
310
42D0DBDB1BDC90DA185B99D95104090240C333333333333E33F0000000000000F90108901411070040501508421405064090741402480A0350
1001
ACAD
1000
AcDbSavedByObjectVersion
1070
     0
  0
ACAD_PROXY_OBJECT
  5
34
102
{ACAD_REACTORS
330
2A
102
}
330
2A
100
AcDbProxyObject
 90
      499
 91
      501
 93
      500
310
4290DBDB98D95C1D1D585B10940D028333333333333E33F0000000000000F90107902409070040501000000000018199010841D405064090740C02480A0340
1001
ACAD
1000
AcDbSavedByObjectVersion
1070
     0
  0
ACAD_PROXY_OBJECT
  5
35
102
{ACAD_REACTORS
330
2A
102
}
330
2A
100
AcDbProxyObject
 90
      499
 91
      501
 93
      412
310
40D11A5B50B409028333333333333E33F0000000000000F9010790141107004050150841D405064090741402480A02677FFFFFD0
1001
ACAD
1000
AcDbSavedByObjectVersion
1070
     0
  0
ACAD_PROXY_OBJECT
  5
3D
102
{ACAD_REACTORS
330
2A
102
}
330
2A
100
AcDbProxyObject
 90
      499
 91
      501
 93
      452
310
43115919D950DBDB1BDC93D999916409028333333333333E33F0000000000000F9010790141107004050150841D405064090741402480A0350
1001
ACAD
1000
AcDbSavedByObjectVersion
1070
     0
  0
ACAD_PROXY_OBJECT
  5
39
102
{ACAD_REACTORS
330
2A
102
}
330
2A
100
AcDbProxyObject
 90
      499
 91
      501
 93
      444
310
42D19858D95C185D1D195C9B90F409028333333333333E33F0000000000000F9010790141107004050150841D405064090741402480A0350
1001
ACAD
1000
AcDbSavedByObjectVersion
1070
     0
  0
ACAD_PROXY_OBJECT
  5
2B
102
{ACAD_REACTORS
330
2A
102
}
330
2A
100
AcDbProxyObject
 90
      499
 91
      501
 93
      380
310
41119B185D240901404333333333333E33F0000000000000F9010740A907004050150841D405064090741402480A1B50
1001
ACAD
1000
AcDbSavedByObjectVersion
1070
     0
  0
ACAD_PROXY_OBJECT
  5
2C
102
{ACAD_REACTORS
330
2A
102
}
330
2A
100
AcDbProxyObject
 90
      499
 91
      501
 93
      468
310
43519B185D15DA5D1A115919D95CD0140901404333333333333E33F0000000000000F90107409019070040501600405405064090741402480A1B50
1001
ACAD
1000
AcDbSavedByObjectVersion
1070
     0
  0
ACAD_PROXY_OBJECT
  5
2D
102
{ACAD_REACTORS
330
2A
102
}
330
2A
100
AcDbProxyObject
 90
      499
 91
      501
 93
      404
310
41D1DBDD5C985D5910240902404333333333333E33F0000000000000F9010740A9070040501641D405064090741402480A1B50
1001
ACAD
1000
AcDbSavedByObjectVersion
1070
     0
  0
ACAD_PROXY_OBJECT
  5
2E
102
{ACAD_REACTORS
330
2A
102
}
330
2A
100
AcDbProxyObject
 90
      499
 91
      501
 93
      492
310
4411DBDD5C985D5915DA5D1A115919D95CD0340902404333333333333E33F0000000000000F90107409019070040501600405405064090741402480A1B50
1001
ACAD
1000
AcDbSavedByObjectVersion
1070
     0
  0
ACAD_PROXY_OBJECT
  5
31
102
{ACAD_REACTORS
330
2A
102
}
330
2A
100
AcDbProxyObject
 90
      499
 91
      501
 93
      476
310
41921A5919195B90640502408333333333333E33F0000000000000F901079024090700405020000000000001110200405405064090740C02480A0340
1001
ACAD
1000
AcDbSavedByObjectVersion
1070
     0
  0
ACAD_PROXY_OBJECT
  5
3B
102
{ACAD_REACTORS
330
2A
102
}
330
2A
100
AcDbProxyObject
 90
      499
 91
      501
 93
      428
310
42529A5D1D195C93D999914409028333333333333E33F0000000000000F9010790141107004050150A41D405064090741402480A0350
1001
ACAD
1000
AcDbSavedByObjectVersion
1070
     0
  0
ACAD_PROXY_OBJECT
  5
38
102
{ACAD_REACTORS
330
2A
102
}
330
2A
100
AcDbProxyObject
 90
      499
 91
      501
 93
      444
310
42D31A5B995C185D1D195C9B90E409028333333333333E33F0000000000000F9010790141107004050750841D405064090741402483A0350
1001
ACAD
1000
AcDbSavedByObjectVersion
1070
     0
  0
ACAD_PROXY_OBJECT
  5
3C
102
{ACAD_REACTORS
330
2A
102
}
330
2A
100
AcDbProxyObject
 90
      499
 91
      501
 93
      444
310
42D3DD995C9A185B99D3D999915409028333333333333E33F0000000000000F9010790141107004050150941D405064090741402480A0350
1001
ACAD
1000
AcDbSavedByObjectVersion
1070
     0
  0
ACAD_PROXY_OBJECT
  5
33
102
{ACAD_REACTORS
330
2A
102
}
330
2A
100
AcDbProxyObject
 90
      499
 91
      501
 93
      428
310
425499585B1A5CDD1A58D08409038333333333333E33F0000000000000F9010740A907004050150800405405064090740C02480A1B40
1001
ACAD
1000
AcDbSavedByObjectVersion
1070
     0
  0
ACAD_PROXY_OBJECT
  5
42
102
{ACAD_REACTORS
330
2A
102
}
330
2A
100
AcDbProxyObject
 90
      499
 91
      501
 93
      420
310
4194DA1859195911B40902404333333333333E33F0000000000000F9010740A41107004050150800405405064090840C02480A0B40
1001
ACAD
1000
AcDbSavedByObjectVersion
1070
     0
  0
ACAD_PROXY_OBJECT
  5
41
102
{ACAD_REACTORS
330
2A
102
}
330
2A
100
AcDbProxyObject
 90
      499
 91
      501
 93
      516
310
4454DA18591959081DDA5D1A08195919D95CD1A40902404333333333333E33F0000000000000F901074090142907004050250800405405064090740C02480A0B40
1001
ACAD
1000
AcDbSavedByObjectVersion
1070
     0
  0
ACAD_PROXY_OBJECT
  5
3E
102
{ACAD_REACTORS
330
2A
102
}
330
2A
100
AcDbProxyObject
 90
      499
 91
      501
 93
      532
310
4394DA1859195CC81BD98811DC985E5174090240C333333333333E33F0000000000000F901079024090741D01000000000000111010841D405064090740C02480A0340
1001
ACAD
1000
AcDbSavedByObjectVersion
1070
     0
  0
ACAD_PROXY_OBJECT
  5
3F
102
{ACAD_REACTORS
330
2A
102
}
330
2A
100
AcDbProxyObject
 90
      499
 91
      501
 93
      476
310
41D4DAD95D18DA1E51840502408333333333333E33F0000000000000F901079024090741D01000000000000111010B41D405064090741802480A0340
1001
ACAD
1000
AcDbSavedByObjectVersion
1070
     0
  0
ACAD_PROXY_OBJECT
  5
37
102
{ACAD_REACTORS
330
2A
102
}
330
2A
100
AcDbProxyObject
 90
      499
 91
      501
 93
      412
310
41D51A1A58DAD95B90D409028333333333333E33F0000000000000F9010790141107004050150C41D405064090741402480A0350
1001
ACAD
1000
AcDbSavedByObjectVersion
1070
     0
  0
ACAD_PROXY_OBJECT
  5
30
102
{ACAD_REACTORS
330
2A
102
}
330
2A
100
AcDbProxyObject
 90
      499
 91
      501
 93
      420
310
4255DA5C99599C985B595059028333333333333E33F0000000000000F90107901411070040501600405405064090740C02480A0340
1001
ACAD
1000
AcDbSavedByObjectVersion
1070
     0
  0
ACAD_PROXY_OBJECT
  5
40
102
{ACAD_REACTORS
330
2A
102
}
330
2A
100
AcDbProxyObject
 90
      499
 91
      501
 93
      404
310
41560B54985E51940902404000000000000E03F0000000000000F9010740501907004050150841D405064090740C02480A1B40
1001
ACAD
1000
AcDbSavedByObjectVersion
1070
     0
  0
XRECORD
  5
468
102
{ACAD_REACTORS
330
45E
102
}
330
45E
100
AcDbXrecord
340
0
  0
XRECORD
  5
467
102
{ACAD_REACTORS
330
45E
102
}
330
45E
100
AcDbXrecord
 90
        0
  0
XRECORD
  5
47E
102
{ACAD_REACTORS
330
45E
102
}
330
45E
100
AcDbXrecord
1000
DSTYLE
1002
{
1070
   179
 70
     1
1070
   143
 40
0.03937
1070
   285
 70
     8
1070
   176
 70
     7
1070
   177
 70
     7
1070
   178
 70
     7
1070
   278
 70
    46
1070
   144
 40
2.0
1070
   371
 70
    13
1070
   372
 70
    13
1070
   340
340
73
1070
   140
 40
3.5
1070
   288
 70
     1
1002
}
  0
XRECORD
  5
469
102
{ACAD_REACTORS
330
45E
102
}
330
45E
100
AcDbXrecord
  1
{7063f2e6-7176-3864-b775-37377873e2b5}
  0
XRECORD
  5
461
102
{ACAD_REACTORS
330
45E
102
}
330
45E
100
AcDbXrecord
  1

  0
XRECORD
  5
466
102
{ACAD_REACTORS
330
45E
102
}
330
45E
100
AcDbXrecord
 90
        4
  0
XRECORD
  5
463
102
{ACAD_REACTORS
330
45E
102
}
330
45E
100
AcDbXrecord
340
1A
  0
XRECORD
  5
465
102
{ACAD_REACTORS
330
45E
102
}
330
45E
100
AcDbXrecord
 90
    10269
  0
XRECORD
  5
464
102
{ACAD_REACTORS
330
45E
102
}
330
45E
100
AcDbXrecord
340
19
  0
XRECORD
  5
46B
102
{ACAD_REACTORS
330
45E
102
}
330
45E
100
AcDbXrecord
 40
0.0
  0
XRECORD
  5
46E
102
{ACAD_REACTORS
330
45E
102
}
330
45E
100
AcDbXrecord
340
0
  0
XRECORD
  5
474
102
{ACAD_REACTORS
330
45E
102
}
330
45E
100
AcDbXrecord
 10
0.0
 20
0.0
 30
0.0
  0
XRECORD
  5
470
102
{ACAD_REACTORS
330
45E
102
}
330
45E
100
AcDbXrecord
 10
0.0
 20
0.0
 30
0.0
  0
XRECORD
  5
473
102
{ACAD_REACTORS
330
45E
102
}
330
45E
100
AcDbXrecord
 10
0.0
 20
0.0
 30
0.0
  0
XRECORD
  5
471
102
{ACAD_REACTORS
330
45E
102
}
330
45E
100
AcDbXrecord
 10
0.0
 20
0.0
 30
0.0
  0
XRECORD
  5
472
102
{ACAD_REACTORS
330
45E
102
}
330
45E
100
AcDbXrecord
 10
0.0
 20
0.0
 30
0.0
  0
XRECORD
  5
46F
102
{ACAD_REACTORS
330
45E
102
}
330
45E
100
AcDbXrecord
 10
0.0
 20
0.0
 30
0.0
  0
XRECORD
  5
46C
102
{ACAD_REACTORS
330
45E
102
}
330
45E
100
AcDbXrecord
340
0
  0
XRECORD
  5
46D
102
{ACAD_REACTORS
330
45E
102
}
330
45E
100
AcDbXrecord
 70
     0
  0
XRECORD
  5
462
102
{ACAD_REACTORS
330
45E
102
}
330
45E
100
AcDbXrecord
  1

  0
XRECORD
  5
45F
102
{ACAD_REACTORS
330
45E
102
}
330
45E
100
AcDbXrecord
 90
        1
  0
XRECORD
  5
460
102
{ACAD_REACTORS
330
45E
102
}
330
45E
100
AcDbXrecord
 90
       70
  0
XRECORD
  5
477
102
{ACAD_REACTORS
330
45E
102
}
330
45E
100
AcDbXrecord
340
0
  0
XRECORD
  5
47D
102
{ACAD_REACTORS
330
45E
102
}
330
45E
100
AcDbXrecord
 10
0.0
 20
0.0
 30
0.0
  0
XRECORD
  5
479
102
{ACAD_REACTORS
330
45E
102
}
330
45E
100
AcDbXrecord
 10
0.0
 20
0.0
 30
0.0
  0
XRECORD
  5
47C
102
{ACAD_REACTORS
330
45E
102
}
330
45E
100
AcDbXrecord
 10
0.0
 20
0.0
 30
0.0
  0
XRECORD
  5
47A
102
{ACAD_REACTORS
330
45E
102
}
330
45E
100
AcDbXrecord
 10
0.0
 20
0.0
 30
0.0
  0
XRECORD
  5
47B
102
{ACAD_REACTORS
330
45E
102
}
330
45E
100
AcDbXrecord
 10
0.0
 20
0.0
 30
0.0
  0
XRECORD
  5
478
102
{ACAD_REACTORS
330
45E
102
}
330
45E
100
AcDbXrecord
 10
0.0
 20
0.0
 30
0.0
  0
XRECORD
  5
475
102
{ACAD_REACTORS
330
45E
102
}
330
45E
100
AcDbXrecord
340
0
  0
XRECORD
  5
476
102
{ACAD_REACTORS
330
45E
102
}
330
45E
100
AcDbXrecord
 70
     0
  0
XRECORD
  5
46A
102
{ACAD_REACTORS
330
45E
102
}
330
45E
100
AcDbXrecord
  1
{FAEB1C32-E019-11D5-929B-00C0DF256EC4}
  0
DICTIONARYVAR
  5
48B
102
{ACAD_REACTORS
330
6E
102
}
330
6E
100
DictionaryVariables
280
     0
  1
1:1
  0
DICTIONARYVAR
  5
485
102
{ACAD_REACTORS
330
6E
102
}
330
6E
100
DictionaryVariables
280
     0
  1
3.500000
  0
DICTIONARYVAR
  5
486
102
{ACAD_REACTORS
330
6E
102
}
330
6E
100
DictionaryVariables
280
     0
  1
MM.LIN
  0
DICTIONARYVAR
  5
480
102
{ACAD_REACTORS
330
6E
102
}
330
6E
100
DictionaryVariables
280
     0
  1
Standard
  0
DICTIONARYVAR
  5
47F
102
{ACAD_REACTORS
330
6E
102
}
330
6E
100
DictionaryVariables
280
     0
  1
Onshape-Standard
  0
DICTIONARYVAR
  5
487
102
{ACAD_REACTORS
330
6E
102
}
330
6E
100
DictionaryVariables
280
     0
  1
2
  0
DICTIONARYVAR
  5
488
102
{ACAD_REACTORS
330
6E
102
}
330
6E
100
DictionaryVariables
280
     0
  1
1
  0
DICTIONARYVAR
  5
48C
102
{ACAD_REACTORS
330
6E
102
}
330
6E
100
DictionaryVariables
280
     0
  1
1
  0
DICTIONARYVAR
  5
6F
102
{ACAD_REACTORS
330
6E
102
}
330
6E
100
DictionaryVariables
280
     0
  1
0
  0
DICTIONARYVAR
  5
482
102
{ACAD_REACTORS
330
6E
102
}
330
6E
100
DictionaryVariables
280
     0
  1
80.000000
  0
DICTIONARYVAR
  5
481
102
{ACAD_REACTORS
330
6E
102
}
330
6E
100
DictionaryVariables
280
     0
  1
5.000000
  0
XRECORD
  5
402
102
{ACAD_REACTORS
330
401
102
}
330
401
100
AcDbXrecord
 70
     4
  0
XRECORD
  5
405
102
{ACAD_REACTORS
330
401
102
}
330
401
100
AcDbXrecord
 90
        0
  0
ACAD_PROXY_OBJECT
  5
40A
102
{ACAD_REACTORS
330
401
102
}
330
401
100
AcDbProxyObject
 90
      499
 91
      512
 93
       34
310
40C8804040
  0
XRECORD
  5
409
102
{ACAD_REACTORS
330
401
102
}
330
401
100
AcDbXrecord
 90
        5
  0
XRECORD
  5
407
102
{ACAD_REACTORS
330
401
102
}
330
401
100
AcDbXrecord
 90
        0
  0
ACAD_PROXY_OBJECT
  5
408
102
{ACAD_REACTORS
330
401
102
}
330
401
100
AcDbProxyObject
 90
      499
 91
      512
 93
       34
310
40C8804040
  0
ACAD_PROXY_OBJECT
  5
406
102
{ACAD_REACTORS
330
401
102
}
330
401
100
AcDbProxyObject
 90
      499
 91
      512
 93
       34
310
40C8804040
  0
XRECORD
  5
404
102
{ACAD_REACTORS
330
401
102
}
330
401
100
AcDbXrecord
 90
        0
  0
XRECORD
  5
403
102
{ACAD_REACTORS
330
401
102
}
330
401
100
AcDbXrecord
 90
        1
  0
DICTIONARY
  5
48F
330
45
100
AcDbDictionary
280
     1
  3
ACAD_XREC_ROUNDTRIP
360
490
  0
DICTIONARY
  5
48D
330
44
100
AcDbDictionary
280
     1
  3
ACAD_XREC_ROUNDTRIP
360
48E
  0
DICTIONARY
  5
491
330
46
100
AcDbDictionary
280
     1
  3
ACAD_XREC_ROUNDTRIP
360
492
  0
XRECORD
  5
490
102
{ACAD_REACTORS
330
48F
102
}
330
48F
100
AcDbXrecord
102
MATERIAL
148
0.0
149
0.0
149
0.0
 93
        0
 94
      127
282
     0
 72
     1
 77
     1
171
     1
175
     1
179
     1
273
     0
  0
XRECORD
  5
48E
102
{ACAD_REACTORS
330
48D
102
}
330
48D
100
AcDbXrecord
102
MATERIAL
148
0.0
149
0.0
149
0.0
 93
        0
 94
      127
282
     0
 72
     1
 77
     1
171
     1
175
     1
179
     1
273
     0
  0
XRECORD
  5
492
102
{ACAD_REACTORS
330
491
102
}
330
491
100
AcDbXrecord
102
MATERIAL
148
0.0
149
0.0
149
0.0
 93
        0
 94
      127
282
     0
 72
     1
 77
     1
171
     1
175
     1
179
     1
273
     0
  0
ENDSEC
  0
EOF
