  0
SECTION
  2
HEADER
  9
$ACADVER
  1
AC1014
  9
$ACADMAINTVER
 70
     9
  9
$DWGCODEPAGE
  3
ANSI_1252
  9
$INSBASE
 10
0.0
 20
0.0
 30
0.0
  9
$EXTMIN
 10
20.0
 20
10.0
 30
-0.0000000000000001
  9
$EXTMAX
 10
297.384048
 20
200.0
 30
0.0000000000000001
  9
$LIMMIN
 10
0.0
 20
0.0
  9
$LIMMAX
 10
420.0
 20
297.0
  9
$ORTHOMODE
 70
     0
  9
$REGENMODE
 70
     1
  9
$FILLMODE
 70
     1
  9
$QTEXTMODE
 70
     0
  9
$MIRRTEXT
 70
     1
  9
$DRAGMODE
 70
     2
  9
$LTSCALE
 40
12.7
  9
$OSMODE
 70
    23
  9
$ATTMODE
 70
     1
  9
$TEXTSIZE
 40
3.5
  9
$TRACEWID
 40
1.0
  9
$TEXTSTYLE
  7
ONSHAPE-STANDARD
  9
$CLAYER
  8
0
  9
$CELTYPE
  6
BYLAYER
  9
$CECOLOR
 62
   256
  9
$CELTSCALE
 40
1.0
  9
$DELOBJ
 70
     1
  9
$DISPSILH
 70
     0
  9
$DIMSCALE
 40
1.0
  9
$DIMASZ
 40
2.5
  9
$DIMEXO
 40
0.625
  9
$DIMDLI
 40
3.75
  9
$DIMRND
 40
0.0
  9
$DIMDLE
 40
0.0
  9
$DIMEXE
 40
1.25
  9
$DIMTP
 40
0.0
  9
$DIMTM
 40
0.0
  9
$DIMTXT
 40
3.5
  9
$DIMCEN
 40
2.5
  9
$DIMTSZ
 40
0.0
  9
$DIMTOL
 70
     0
  9
$DIMLIM
 70
     0
  9
$DIMTIH
 70
     0
  9
$DIMTOH
 70
     0
  9
$DIMSE1
 70
     0
  9
$DIMSE2
 70
     0
  9
$DIMTAD
 70
     1
  9
$DIMZIN
 70
     8
  9
$DIMBLK
  1

  9
$DIMASO
 70
     1
  9
$DIMSHO
 70
     1
  9
$DIMPOST
  1

  9
$DIMAPOST
  1

  9
$DIMALT
 70
     0
  9
$DIMALTD
 70
     3
  9
$DIMALTF
 40
0.03937
  9
$DIMLFAC
 40
2.0
  9
$DIMTOFL
 70
     1
  9
$DIMTVP
 40
0.0
  9
$DIMTIX
 70
     0
  9
$DIMSOXD
 70
     0
  9
$DIMSAH
 70
     0
  9
$DIMBLK1
  1

  9
$DIMBLK2
  1

  9
$DIMSTYLE
  2
ONSHAPE-ISO-25
  9
$DIMCLRD
 70
     7
  9
$DIMCLRE
 70
     7
  9
$DIMCLRT
 70
     7
  9
$DIMTFAC
 40
1.0
  9
$DIMGAP
 40
0.625
  9
$DIMJUST
 70
     0
  9
$DIMSD1
 70
     0
  9
$DIMSD2
 70
     0
  9
$DIMTOLJ
 70
     0
  9
$DIMTZIN
 70
     8
  9
$DIMALTZ
 70
     8
  9
$DIMALTTZ
 70
     0
  9
$DIMFIT
 70
     3
  9
$DIMUPT
 70
     1
  9
$DIMUNIT
 70
     2
  9
$DIMDEC
 70
     2
  9
$DIMTDEC
 70
     2
  9
$DIMALTU
 70
     2
  9
$DIMALTTD
 70
     3
  9
$DIMTXSTY
  7
ONSHAPE-STANDARD-DIMENSION
  9
$DIMAUNIT
 70
     0
  9
$LUNITS
 70
     2
  9
$LUPREC
 70
     4
  9
$SKETCHINC
 40
1.0
  9
$FILLETRAD
 40
10.0
  9
$AUNITS
 70
     0
  9
$AUPREC
 70
     0
  9
$MENU
  1
.
  9
$ELEVATION
 40
0.0
  9
$PELEVATION
 40
0.0
  9
$THICKNESS
 40
0.0
  9
$LIMCHECK
 70
     0
  9
$CHAMFERA
 40
0.0
  9
$CHAMFERB
 40
0.0
  9
$CHAMFERC
 40
0.0
  9
$CHAMFERD
 40
0.0
  9
$SKPOLY
 70
     0
  9
$TDCREATE
 40
2460738.093434305
  9
$TDUPDATE
 40
2460738.093434826
  9
$TDINDWG
 40
0.0
  9
$TDUSRTIMER
 40
0.0
  9
$USRTIMER
 70
     1
  9
$ANGBASE
 50
0.0
  9
$ANGDIR
 70
     0
  9
$PDMODE
 70
    33
  9
$PDSIZE
 40
1.0
  9
$PLINEWID
 40
0.0
  9
$COORDS
 70
     1
  9
$SPLFRAME
 70
     0
  9
$SPLINETYPE
 70
     6
  9
$SPLINESEGS
 70
     8
  9
$ATTDIA
 70
     0
  9
$ATTREQ
 70
     1
  9
$HANDLING
 70
     1
  9
$HANDSEED
  5
293
  9
$SURFTAB1
 70
     6
  9
$SURFTAB2
 70
     6
  9
$SURFTYPE
 70
     6
  9
$SURFU
 70
     6
  9
$SURFV
 70
     6
  9
$UCSNAME
  2

  9
$UCSORG
 10
0.0
 20
0.0
 30
0.0
  9
$UCSXDIR
 10
1.0
 20
0.0
 30
0.0
  9
$UCSYDIR
 10
0.0
 20
1.0
 30
0.0
  9
$PUCSNAME
  2

  9
$PUCSORG
 10
0.0
 20
0.0
 30
0.0
  9
$PUCSXDIR
 10
1.0
 20
0.0
 30
0.0
  9
$PUCSYDIR
 10
0.0
 20
1.0
 30
0.0
  9
$USERI1
 70
     0
  9
$USERI2
 70
     0
  9
$USERI3
 70
     0
  9
$USERI4
 70
     0
  9
$USERI5
 70
     0
  9
$USERR1
 40
0.0
  9
$USERR2
 40
0.0
  9
$USERR3
 40
0.0
  9
$USERR4
 40
0.0
  9
$USERR5
 40
0.0
  9
$WORLDVIEW
 70
     1
  9
$SHADEDGE
 70
     3
  9
$SHADEDIF
 70
    70
  9
$TILEMODE
 70
     1
  9
$MAXACTVP
 70
    64
  9
$PINSBASE
 10
0.0
 20
0.0
 30
0.0
  9
$PLIMCHECK
 70
     0
  9
$PEXTMIN
 10
1.000000000000000E+20
 20
1.000000000000000E+20
 30
1.000000000000000E+20
  9
$PEXTMAX
 10
-1.000000000000000E+20
 20
-1.000000000000000E+20
 30
-1.000000000000000E+20
  9
$PLIMMIN
 10
0.0
 20
0.0
  9
$PLIMMAX
 10
420.0
 20
297.0
  9
$UNITMODE
 70
     0
  9
$VISRETAIN
 70
     1
  9
$PLINEGEN
 70
     0
  9
$PSLTSCALE
 70
     1
  9
$TREEDEPTH
 70
  3020
  9
$PICKSTYLE
 70
     1
  9
$CMLSTYLE
  2
STANDARD
  9
$CMLJUST
 70
     0
  9
$CMLSCALE
 40
20.0
  9
$PROXYGRAPHICS
 70
     1
  9
$MEASUREMENT
 70
     1
  0
ENDSEC
  0
SECTION
  2
CLASSES
  0
CLASS
  1
ACDBDICTIONARYWDFLT
  2
AcDbDictionaryWithDefault
  3
ObjectDBX Classes
 90
        0
280
     0
281
     0
  0
CLASS
  1
VISUALSTYLE
  2
AcDbVisualStyle
  3
ObjectDBX Classes
 90
     4095
280
     0
281
     0
  0
CLASS
  1
MATERIAL
  2
AcDbMaterial
  3
ObjectDBX Classes
 90
     1153
280
     0
281
     0
  0
CLASS
  1
SCALE
  2
AcDbScale
  3
ObjectDBX Classes
 90
     1153
280
     0
281
     0
  0
CLASS
  1
TABLESTYLE
  2
AcDbTableStyle
  3
ObjectDBX Classes
 90
     4095
280
     0
281
     0
  0
CLASS
  1
MLEADERSTYLE
  2
AcDbMLeaderStyle
  3
ACDB_MLEADERSTYLE_CLASS
 90
     4095
280
     0
281
     0
  0
CLASS
  1
SUN
  2
AcDbSun
  3
SCENEOE
 90
     1153
280
     0
281
     0
  0
CLASS
  1
DICTIONARYVAR
  2
AcDbDictionaryVar
  3
ObjectDBX Classes
 90
        0
280
     0
281
     0
  0
CLASS
  1
FIELD
  2
AcDbField
  3
ObjectDBX Classes
 90
     1152
280
     0
281
     0
  0
CLASS
  1
FIELDLIST
  2
AcDbFieldList
  3
ObjectDBX Classes
 90
     1152
280
     0
281
     0
  0
CLASS
  1
DIMASSOC
  2
AcDbDimAssoc
  3
"AcDbDimAssoc|Product Desc:     AcDim ARX App For Dimension|Company:          Autodesk, Inc.|WEB Address:      www.autodesk.com"
 90
        0
280
     0
281
     0
  0
CLASS
  1
BREAKDATA
  2
AcDbBreakData
  3
ObjectDBX Classes
 90
     1024
280
     0
281
     0
  0
CLASS
  1
XRECORD
  2
AcDbXrecord
  3
ObjectDBX Classes
 90
        0
280
     0
281
     0
  0
CLASS
  1
LWPOLYLINE
  2
AcDbPolyline
  3
ObjectDBX Classes
 90
        0
280
     0
281
     1
  0
CLASS
  1
HATCH
  2
AcDbHatch
  3
ObjectDBX Classes
 90
        0
280
     0
281
     1
  0
CLASS
  1
ACDBPLACEHOLDER
  2
AcDbPlaceHolder
  3
ObjectDBX Classes
 90
        0
280
     0
281
     0
  0
CLASS
  1
LAYOUT
  2
AcDbLayout
  3
ObjectDBX Classes
 90
        0
280
     0
281
     0
  0
ENDSEC
  0
SECTION
  2
TABLES
  0
TABLE
  2
VPORT
  5
8
102
{ACAD_XDICTIONARY
360
288
102
}
330
0
100
AcDbSymbolTable
 70
     1
  0
VPORT
  5
29
330
8
100
AcDbSymbolTableRecord
100
AcDbViewportTableRecord
  2
*ACTIVE
 70
     0
 10
0.0
 20
0.0
 11
1.0
 21
1.0
 12
159.194944
 22
105.0
 13
0.0
 23
0.0
 14
10.0
 24
10.0
 15
10.0
 25
10.0
 16
0.0
 26
0.0
 36
1.0
 17
0.0
 27
0.0
 37
0.0
 40
193.8
 41
1.465209936842105
 42
50.0
 43
0.0
 44
0.0
 50
0.0
 51
0.0
 71
     0
 72
   100
 73
     1
 74
     3
 75
     0
 76
     0
 77
     0
 78
     0
  0
ENDTAB
  0
TABLE
  2
LTYPE
  5
5
330
0
100
AcDbSymbolTable
 70
     2
  0
LTYPE
  5
14
330
5
100
AcDbSymbolTableRecord
100
AcDbLinetypeTableRecord
  2
BYBLOCK
 70
     0
  3

 72
    65
 73
     0
 40
0.0
  0
LTYPE
  5
15
330
5
100
AcDbSymbolTableRecord
100
AcDbLinetypeTableRecord
  2
BYLAYER
 70
     0
  3

 72
    65
 73
     0
 40
0.0
  0
LTYPE
  5
16
330
5
100
AcDbSymbolTableRecord
100
AcDbLinetypeTableRecord
  2
CONTINUOUS
 70
     0
  3
Solid line
 72
    65
 73
     0
 40
0.0
  0
LTYPE
  5
12E
330
5
100
AcDbSymbolTableRecord
100
AcDbLinetypeTableRecord
  2
CENTER
 70
     0
  3
Center line ____ _ ____ _ ____ _
 72
    65
 73
     4
 40
0.7874015748031495
 49
0.4921259842519685
 74
     0
 49
-0.0984251968503937
 74
     0
 49
0.0984251968503937
 74
     0
 49
-0.0984251968503937
 74
     0
  0
ENDTAB
  0
TABLE
  2
LAYER
  5
2
330
0
100
AcDbSymbolTable
 70
     8
  0
LAYER
  5
10
330
2
100
AcDbSymbolTableRecord
100
AcDbLayerTableRecord
  2
0
 70
     0
 62
     7
  6
CONTINUOUS
  0
LAYER
  5
70
330
2
100
AcDbSymbolTableRecord
100
AcDbLayerTableRecord
  2
DEFPOINTS
 70
     0
 62
     7
  6
CONTINUOUS
  0
LAYER
  5
74
330
2
100
AcDbSymbolTableRecord
100
AcDbLayerTableRecord
  2
VISIBLE
 70
     0
 62
     7
  6
CONTINUOUS
  0
LAYER
  5
87
330
2
100
AcDbSymbolTableRecord
100
AcDbLayerTableRecord
  2
BORDER_FRAME
 70
     0
 62
     7
  6
CONTINUOUS
  0
LAYER
  5
8D
330
2
100
AcDbSymbolTableRecord
100
AcDbLayerTableRecord
  2
TITLE_BLOCK
 70
     0
 62
     7
  6
CONTINUOUS
  0
LAYER
  5
128
330
2
100
AcDbSymbolTableRecord
100
AcDbLayerTableRecord
  2
ANNOTATION_TEXT
 70
     0
 62
     7
  6
CONTINUOUS
  0
LAYER
  5
12D
330
2
100
AcDbSymbolTableRecord
100
AcDbLayerTableRecord
  2
CENTERMARKS
 70
     0
 62
     7
  6
CONTINUOUS
  0
LAYER
  5
1FE
330
2
100
AcDbSymbolTableRecord
100
AcDbLayerTableRecord
  2
CENTERLINES
 70
     0
 62
     7
  6
CENTER
  0
ENDTAB
  0
TABLE
  2
STYLE
  5
3
330
0
100
AcDbSymbolTable
 70
    36
  0
STYLE
  5
11
330
3
100
AcDbSymbolTableRecord
100
AcDbTextStyleTableRecord
  2
STANDARD
 70
     0
 40
0.0
 41
1.0
 50
0.0
 71
     0
 42
3.5
  3
txt
  4

  0
STYLE
  5
71
330
3
100
AcDbSymbolTableRecord
100
AcDbTextStyleTableRecord
  2
ONSHAPE-STANDARD
 70
     0
 40
0.0
 41
1.0
 50
0.0
 71
     0
 42
3.5
  3
NotoSans-Regular.ttf
  4

1001
ACAD
1000
Noto Sans
1071
        0
  0
STYLE
  5
73
330
3
100
AcDbSymbolTableRecord
100
AcDbTextStyleTableRecord
  2
ONSHAPE-STANDARD-DIMENSION
 70
     0
 40
0.0
 41
1.0
 50
0.0
 71
     0
 42
3.5
  3

  4

1001
ACAD
1000
Noto Sans
1071
        0
  0
STYLE
  5
C3
330
3
100
AcDbSymbolTableRecord
100
AcDbTextStyleTableRecord
  2
ONSHAPE-STANDARD-FIELDS
 70
     0
 40
0.0
 41
1.0
 50
0.0
 71
     0
 42
3.5
  3

  4

1001
ACAD
1000
Noto Sans
1071
        0
  0
STYLE
  5
12A
330
3
100
AcDbSymbolTableRecord
100
AcDbTextStyleTableRecord
  2
ONSHAPE-STANDARD-VIEW-LABE
 70
     0
 40
3.5
 41
1.0
 50
0.0
 71
     0
 42
3.5
  3
NotoSans-Regular.ttf
  4

1001
ACAD
1000
Noto Sans
1071
        0
  0
STYLE
  5
20D
330
3
100
AcDbSymbolTableRecord
100
AcDbTextStyleTableRecord
  2
ONSHAPE-STANDARD-BOLD
 70
     0
 40
0.0
 41
1.0
 50
0.0
 71
     0
 42
3.5
  3
NotoSans-Bold.ttf
  4

1001
ACAD
1000
Noto Sans
1071
 33554432
  0
STYLE
  5
20F
330
3
100
AcDbSymbolTableRecord
100
AcDbTextStyleTableRecord
  2
ONSHAPE-STANDARD-TCFIELDS
 70
     0
 40
0.0
 41
1.0
 50
0.0
 71
     0
 42
3.5
  3
NotoSansTC-Regular.otf
  4

1001
ACAD
1000
Noto Sans TC
1071
        0
  0
STYLE
  5
210
330
3
100
AcDbSymbolTableRecord
100
AcDbTextStyleTableRecord
  2
ONSHAPE-STANDARD-SCFIELDS
 70
     0
 40
0.0
 41
1.0
 50
0.0
 71
     0
 42
3.5
  3
NotoSansSC-Regular.otf
  4

1001
ACAD
1000
Noto Sans SC
1071
        0
  0
STYLE
  5
211
330
3
100
AcDbSymbolTableRecord
100
AcDbTextStyleTableRecord
  2
ONSHAPE-STANDARD-KOREANFIE
 70
     0
 40
0.0
 41
1.0
 50
0.0
 71
     0
 42
3.5
  3
NotoSansKR-Regular.otf
  4

1001
ACAD
1000
Noto Sans KR
1071
        0
  0
STYLE
  5
212
330
3
100
AcDbSymbolTableRecord
100
AcDbTextStyleTableRecord
  2
ONSHAPE-STANDARD-JAPANESEF
 70
     0
 40
0.0
 41
1.0
 50
0.0
 71
     0
 42
3.5
  3
NotoSansJP-Regular.otf
  4

1001
ACAD
1000
Noto Sans JP
1071
        0
  0
STYLE
  5
213
330
3
100
AcDbSymbolTableRecord
100
AcDbTextStyleTableRecord
  2
TTFSTYLE
 70
     0
 40
0.0
 41
1.0
 50
0.0
 71
     0
 42
3.5
  3
Verdana.ttf
  4

1001
ACAD
1000
Verdana
1071
       34
  0
STYLE
  5
214
330
3
100
AcDbSymbolTableRecord
100
AcDbTextStyleTableRecord
  2
ONSHAPE-STANDARD-GTOLERANC
 70
     0
 40
0.0
 41
1.0
 50
0.0
 71
     0
 42
3.5
  3

  4

1001
ACAD
1000
Noto Sans
1071
        0
  0
STYLE
  5
215
330
3
100
AcDbSymbolTableRecord
100
AcDbTextStyleTableRecord
  2
ONSHAPE-STANDARD-TABLE-DAT
 70
     0
 40
0.0
 41
1.0
 50
0.0
 71
     0
 42
3.5
  3
NotoSans-Regular.ttf
  4

1001
ACAD
1000
Noto Sans
1071
        0
  0
STYLE
  5
216
330
3
100
AcDbSymbolTableRecord
100
AcDbTextStyleTableRecord
  2
ONSHAPE-STANDARD-TABLE-TIT
 70
     0
 40
0.0
 41
1.0
 50
0.0
 71
     0
 42
3.5
  3
NotoSans-Bold.ttf
  4

1001
ACAD
1000
Noto Sans
1071
 33554432
  0
STYLE
  5
217
330
3
100
AcDbSymbolTableRecord
100
AcDbTextStyleTableRecord
  2
ONSHAPE-STANDARD-TABLE-HEA
 70
     0
 40
0.0
 41
1.0
 50
0.0
 71
     0
 42
3.5
  3
NotoSans-Bold.ttf
  4

1001
ACAD
1000
Noto Sans
1071
 33554432
  0
STYLE
  5
218
330
3
100
AcDbSymbolTableRecord
100
AcDbTextStyleTableRecord
  2
ONSHAPE-STANDARD-BOMTABLE-
 70
     0
 40
0.0
 41
1.0
 50
0.0
 71
     0
 42
3.5
  3
NotoSans-Regular.ttf
  4

1001
ACAD
1000
Noto Sans
1071
        0
  0
STYLE
  5
219
330
3
100
AcDbSymbolTableRecord
100
AcDbTextStyleTableRecord
  2
ONSHAPE-STANDARD-BOMTABLE0
 70
     0
 40
0.0
 41
1.0
 50
0.0
 71
     0
 42
3.5
  3
NotoSans-Bold.ttf
  4

1001
ACAD
1000
Noto Sans
1071
 33554432
  0
STYLE
  5
21A
330
3
100
AcDbSymbolTableRecord
100
AcDbTextStyleTableRecord
  2
ONSHAPE-STANDARD-BOMTABLE1
 70
     0
 40
0.0
 41
1.0
 50
0.0
 71
     0
 42
3.5
  3
NotoSans-Bold.ttf
  4

1001
ACAD
1000
Noto Sans
1071
 33554432
  0
STYLE
  5
21B
330
3
100
AcDbSymbolTableRecord
100
AcDbTextStyleTableRecord
  2
ONSHAPE-STANDARD-NOTESTYLE
 70
     0
 40
3.5
 41
1.0
 50
0.0
 71
     0
 42
3.5
  3
Noto Sans
  4

1001
ACAD
1000
Noto Sans
1071
        0
  0
STYLE
  5
21C
330
3
100
AcDbSymbolTableRecord
100
AcDbTextStyleTableRecord
  2
ONSHAPE-STANDARD-DATUM-DIM
 70
     0
 40
3.5
 41
1.0
 50
0.0
 71
     0
 42
3.5
  3
Noto Sans
  4

1001
ACAD
1000
Noto Sans
1071
        0
  0
STYLE
  5
21D
330
3
100
AcDbSymbolTableRecord
100
AcDbTextStyleTableRecord
  2
ONSHAPE-DETAIL-VIEW-LEADER
 70
     0
 40
3.5
 41
1.0
 50
0.0
 71
     0
 42
3.5
  3
Noto Sans
  4

1001
ACAD
1000
Noto Sans
1071
        0
  0
STYLE
  5
21E
330
3
100
AcDbSymbolTableRecord
100
AcDbTextStyleTableRecord
  2
ONSHAPE-STANDARD-HOLE-CALL
 70
     0
 40
3.5
 41
1.0
 50
0.0
 71
     0
 42
3.5
  3
Noto Sans
  4

1001
ACAD
1000
Noto Sans
1071
        0
  0
STYLE
  5
21F
330
3
100
AcDbSymbolTableRecord
100
AcDbTextStyleTableRecord
  2
ONSHAPE-STANDARD-HOLETABLE
 70
     0
 40
0.0
 41
1.0
 50
0.0
 71
     0
 42
3.5
  3
NotoSans-Regular.ttf
  4

1001
ACAD
1000
Noto Sans
1071
        0
  0
STYLE
  5
220
330
3
100
AcDbSymbolTableRecord
100
AcDbTextStyleTableRecord
  2
ONSHAPE-STANDARD-HOLETABL0
 70
     0
 40
0.0
 41
1.0
 50
0.0
 71
     0
 42
3.5
  3
NotoSans-Bold.ttf
  4

1001
ACAD
1000
Noto Sans
1071
 33554432
  0
STYLE
  5
221
330
3
100
AcDbSymbolTableRecord
100
AcDbTextStyleTableRecord
  2
ONSHAPE-STANDARD-HOLETABL1
 70
     0
 40
0.0
 41
1.0
 50
0.0
 71
     0
 42
3.5
  3
NotoSans-Bold.ttf
  4

1001
ACAD
1000
Noto Sans
1071
 33554432
  0
STYLE
  5
222
330
3
100
AcDbSymbolTableRecord
100
AcDbTextStyleTableRecord
  2
ONSHAPE-STANDARD-HOLE-TAG
 70
     0
 40
3.5
 41
1.0
 50
0.0
 71
     0
 42
3.5
  3
Noto Sans
  4

1001
ACAD
1000
Noto Sans
1071
        0
  0
STYLE
  5
223
330
3
100
AcDbSymbolTableRecord
100
AcDbTextStyleTableRecord
  2
ONSHAPE-STANDARD-REVISIONT
 70
     0
 40
0.0
 41
1.0
 50
0.0
 71
     0
 42
3.5
  3
NotoSans-Regular.ttf
  4

1001
ACAD
1000
Noto Sans
1071
        0
  0
STYLE
  5
224
330
3
100
AcDbSymbolTableRecord
100
AcDbTextStyleTableRecord
  2
ONSHAPE-STANDARD-REVISION0
 70
     0
 40
0.0
 41
1.0
 50
0.0
 71
     0
 42
3.5
  3
NotoSans-Bold.ttf
  4

1001
ACAD
1000
Noto Sans
1071
 33554432
  0
STYLE
  5
225
330
3
100
AcDbSymbolTableRecord
100
AcDbTextStyleTableRecord
  2
ONSHAPE-STANDARD-REVISION1
 70
     0
 40
0.0
 41
1.0
 50
0.0
 71
     0
 42
3.5
  3
NotoSans-Bold.ttf
  4

1001
ACAD
1000
Noto Sans
1071
 33554432
  0
STYLE
  5
226
330
3
100
AcDbSymbolTableRecord
100
AcDbTextStyleTableRecord
  2
ONSHAPE-STANDARD-REVISION-
 70
     0
 40
3.5
 41
1.0
 50
0.0
 71
     0
 42
3.5
  3
Noto Sans
  4

1001
ACAD
1000
Noto Sans
1071
        0
  0
STYLE
  5
227
330
3
100
AcDbSymbolTableRecord
100
AcDbTextStyleTableRecord
  2
ONSHAPE-STANDARD-CUTLISTTA
 70
     0
 40
0.0
 41
1.0
 50
0.0
 71
     0
 42
3.5
  3
NotoSans-Regular.ttf
  4

1001
ACAD
1000
Noto Sans
1071
        0
  0
STYLE
  5
228
330
3
100
AcDbSymbolTableRecord
100
AcDbTextStyleTableRecord
  2
ONSHAPE-STANDARD-CUTLISTT0
 70
     0
 40
0.0
 41
1.0
 50
0.0
 71
     0
 42
3.5
  3
NotoSans-Bold.ttf
  4

1001
ACAD
1000
Noto Sans
1071
 33554432
  0
STYLE
  5
229
330
3
100
AcDbSymbolTableRecord
100
AcDbTextStyleTableRecord
  2
ONSHAPE-STANDARD-CUTLISTT1
 70
     0
 40
0.0
 41
1.0
 50
0.0
 71
     0
 42
3.5
  3
NotoSans-Bold.ttf
  4

1001
ACAD
1000
Noto Sans
1071
 33554432
  0
STYLE
  5
22A
330
3
100
AcDbSymbolTableRecord
100
AcDbTextStyleTableRecord
  2
ONSHAPE-STANDARD-CUSTOMTAB
 70
     0
 40
0.0
 41
1.0
 50
0.0
 71
     0
 42
3.5
  3
NotoSans-Regular.ttf
  4

1001
ACAD
1000
Noto Sans
1071
        0
  0
STYLE
  5
22B
330
3
100
AcDbSymbolTableRecord
100
AcDbTextStyleTableRecord
  2
ONSHAPE-STANDARD-CUSTOMTA0
 70
     0
 40
0.0
 41
1.0
 50
0.0
 71
     0
 42
3.5
  3
NotoSans-Bold.ttf
  4

1001
ACAD
1000
Noto Sans
1071
 33554432
  0
STYLE
  5
22C
330
3
100
AcDbSymbolTableRecord
100
AcDbTextStyleTableRecord
  2
ONSHAPE-STANDARD-CUSTOMTA1
 70
     0
 40
0.0
 41
1.0
 50
0.0
 71
     0
 42
3.5
  3
NotoSans-Bold.ttf
  4

1001
ACAD
1000
Noto Sans
1071
 33554432
  0
ENDTAB
  0
TABLE
  2
VIEW
  5
6
330
0
100
AcDbSymbolTable
 70
     0
  0
ENDTAB
  0
TABLE
  2
UCS
  5
7
330
0
100
AcDbSymbolTable
 70
     0
  0
ENDTAB
  0
TABLE
  2
APPID
  5
9
330
0
100
AcDbSymbolTable
 70
    10
  0
APPID
  5
12
330
9
100
AcDbSymbolTableRecord
100
AcDbRegAppTableRecord
  2
ACAD
 70
     0
  0
APPID
  5
12C
330
9
100
AcDbSymbolTableRecord
100
AcDbRegAppTableRecord
  2
ONSHAPE_NOTES_ANNOTATION_D
 70
     0
  0
APPID
  5
179
330
9
100
AcDbSymbolTableRecord
100
AcDbRegAppTableRecord
  2
ACAD_DIMASSOC_CALC_DIMLFAC
 70
     0
  0
APPID
  5
17A
330
9
100
AcDbSymbolTableRecord
100
AcDbRegAppTableRecord
  2
ACAD_DIMASSOC_DIMLFAC
 70
     0
  0
APPID
  5
17B
330
9
100
AcDbSymbolTableRecord
100
AcDbRegAppTableRecord
  2
ACAD_DIMASSOC_OVERRIDDEN_D
 70
     0
  0
APPID
  5
17C
330
9
100
AcDbSymbolTableRecord
100
AcDbRegAppTableRecord
  2
ONSHAPE_DIMENSION_ON_CENTE
 70
     0
  0
APPID
  5
16F
330
9
100
AcDbSymbolTableRecord
100
AcDbRegAppTableRecord
  2
INDEX
 70
     0
  0
APPID
  5
18F
330
9
100
AcDbSymbolTableRecord
100
AcDbRegAppTableRecord
  2
ONSHAPE_DIMENSION_ON_CENT0
 70
     0
  0
APPID
  5
1FD
330
9
100
AcDbSymbolTableRecord
100
AcDbRegAppTableRecord
  2
ACAD_DSTYLE_DIMRADIAL_EXTE
 70
     0
  0
APPID
  5
292
330
9
100
AcDbSymbolTableRecord
100
AcDbRegAppTableRecord
  2
ACAD_MLEADERVER
 70
     0
  0
ENDTAB
  0
TABLE
  2
DIMSTYLE
  5
A
330
0
100
AcDbSymbolTable
 70
    22
  0
DIMSTYLE
105
27
330
A
100
AcDbSymbolTableRecord
100
AcDbDimStyleTableRecord
  2
ISO-25
 70
     0
  3

  4

  5

  6

  7

 40
1.0
 41
2.5
 42
0.625
 43
3.75
 44
1.25
 45
0.0
 46
0.0
 47
0.0
 48
0.0
140
2.5
141
2.5
142
0.0
143
0.03937007874016
144
1.0
145
0.0
146
1.0
147
0.625
 71
     0
 72
     0
 73
     0
 74
     0
 75
     0
 76
     0
 77
     1
 78
     8
170
     0
171
     3
172
     1
173
     0
174
     0
175
     0
176
     0
177
     0
178
     0
270
     2
271
     2
272
     2
273
     2
274
     3
340
11
275
     0
280
     0
281
     0
282
     0
283
     0
284
     8
285
     0
286
     0
287
     3
288
     0
  0
DIMSTYLE
105
72
330
A
100
AcDbSymbolTableRecord
100
AcDbDimStyleTableRecord
  2
ONSHAPE-ISO-25
 70
     0
  3

  4

  5

  6

  7

 40
1.0
 41
2.5
 42
0.625
 43
3.75
 44
1.25
 45
0.0
 46
0.0
 47
0.0
 48
0.0
140
3.5
141
2.5
142
0.0
143
0.03937
144
1.0
145
0.0
146
1.0
147
0.625
 71
     0
 72
     0
 73
     0
 74
     0
 75
     0
 76
     0
 77
     1
 78
     8
170
     0
171
     3
172
     1
173
     0
174
     0
175
     0
176
     7
177
     7
178
     7
179
     1
270
     2
271
     2
272
     2
273
     2
274
     3
340
73
275
     0
280
     0
281
     0
282
     0
283
     0
284
     8
285
     8
286
     0
287
     3
288
     1
  0
DIMSTYLE
105
16A
102
{ACAD_REACTORS
330
164
330
17D
330
190
330
1A2
330
1B4
330
1C7
330
1D9
102
}
330
A
100
AcDbSymbolTableRecord
100
AcDbDimStyleTableRecord
  2
ONSHAPE-ISO-25$0
 70
     0
  3

  4

  5

  6

  7

 40
1.0
 41
2.5
 42
0.625
 43
3.75
 44
1.25
 45
0.0
 46
0.0
 47
0.0
 48
0.0
140
3.5
141
2.5
142
0.0
143
0.03937
144
1.0
145
0.0
146
1.0
147
0.625
 71
     0
 72
     0
 73
     0
 74
     0
 75
     0
 76
     0
 77
     1
 78
     8
170
     0
171
     3
172
     1
173
     0
174
     0
175
     0
176
     7
177
     7
178
     7
179
     1
270
     2
271
     2
272
     2
273
     2
274
     3
340
73
275
     0
280
     0
281
     0
282
     0
283
     0
284
     8
285
     8
286
     0
287
     3
288
     1
  0
DIMSTYLE
105
1F0
102
{ACAD_REACTORS
330
1EB
102
}
330
A
100
AcDbSymbolTableRecord
100
AcDbDimStyleTableRecord
  2
ONSHAPE-ISO-25$3
 70
     0
  3

  4

  5

  6

  7

 40
1.0
 41
2.5
 42
0.625
 43
3.75
 44
1.25
 45
0.0
 46
0.0
 47
0.0
 48
0.0
140
3.5
141
0.0
142
0.0
143
0.03937
144
1.0
145
0.0
146
1.0
147
0.625
 71
     0
 72
     0
 73
     0
 74
     0
 75
     0
 76
     0
 77
     1
 78
     8
170
     0
171
     3
172
     1
173
     0
174
     0
175
     0
176
     7
177
     7
178
     7
179
     1
270
     2
271
     2
272
     2
273
     2
274
     3
340
73
275
     0
280
     0
281
     0
282
     0
283
     0
284
     8
285
     8
286
     0
287
     3
288
     1
  0
DIMSTYLE
105
22F
330
A
100
AcDbSymbolTableRecord
100
AcDbDimStyleTableRecord
  2
ISO
 70
     0
  3

  4
"
  5

  6

  7

 40
1.0
 41
3.5
 42
1.0
 43
10.0
 44
1.0
 45
0.0
 46
0.0
 47
0.1
 48
0.1
140
3.5
141
0.0
142
0.0
143
0.03937
144
1.0
145
0.0
146
0.71
147
1.5
 71
     0
 72
     0
 73
     0
 74
     0
 75
     0
 76
     0
 77
     1
 78
     8
170
     0
171
     3
172
     1
173
     0
174
     0
175
     0
176
     7
177
     7
178
     7
270
     2
271
     2
272
     3
273
     2
274
     3
340
11
275
     0
280
     0
281
     0
282
     0
283
     0
284
     8
285
     8
286
     0
287
     3
288
     1
  0
DIMSTYLE
105
230
330
A
100
AcDbSymbolTableRecord
100
AcDbDimStyleTableRecord
  2
ISO$3
 70
     0
  3

  4
"
  5

  6

  7

 40
1.0
 41
3.5
 42
1.0
 43
10.0
 44
1.0
 45
0.0
 46
0.0
 47
0.1
 48
0.1
140
3.5
141
0.0
142
0.0
143
0.03937
144
1.0
145
0.0
146
0.71
147
1.5
 71
     0
 72
     0
 73
     0
 74
     1
 75
     0
 76
     0
 77
     1
 78
     8
170
     0
171
     3
172
     0
173
     0
174
     0
175
     0
176
     7
177
     7
178
     7
270
     2
271
     2
272
     3
273
     2
274
     3
340
11
275
     0
280
     0
281
     0
282
     0
283
     0
284
     8
285
     8
286
     0
288
     1
  0
DIMSTYLE
105
231
330
A
100
AcDbSymbolTableRecord
100
AcDbDimStyleTableRecord
  2
ISO$4
 70
     0
  3

  4
"
  5

  6

  7

 40
1.0
 41
3.5
 42
1.0
 43
10.0
 44
1.0
 45
0.0
 46
0.0
 47
0.1
 48
0.1
140
3.5
141
0.0
142
0.0
143
0.03937
144
1.0
145
0.0
146
0.71
147
1.5
 71
     0
 72
     0
 73
     0
 74
     0
 75
     0
 76
     0
 77
     1
 78
     8
170
     0
171
     3
172
     1
173
     0
174
     0
175
     0
176
     7
177
     7
178
     7
270
     2
271
     2
272
     3
273
     2
274
     3
340
11
275
     0
280
     0
281
     0
282
     0
283
     0
284
     8
285
     8
286
     0
287
     3
288
     1
  0
DIMSTYLE
105
232
330
A
100
AcDbSymbolTableRecord
100
AcDbDimStyleTableRecord
  2
ISO$6
 70
     0
  3

  4
"
  5

  6

  7

 40
1.0
 41
0.5
 42
1.0
 43
10.0
 44
1.0
 45
0.0
 46
0.0
 47
0.1
 48
0.1
140
3.5
141
0.0
142
0.0
143
0.03937
144
1.0
145
0.0
146
0.71
147
1.5
 71
     0
 72
     0
 73
     0
 74
     0
 75
     0
 76
     0
 77
     0
 78
     8
170
     0
171
     3
172
     1
173
     0
174
     0
175
     0
176
     7
177
     7
178
     7
270
     2
271
     2
272
     3
273
     2
274
     3
340
11
275
     0
280
     0
281
     0
282
     0
283
     0
284
     8
285
     8
286
     0
287
     3
288
     1
  0
DIMSTYLE
105
233
330
A
100
AcDbSymbolTableRecord
100
AcDbDimStyleTableRecord
  2
ISO$7
 70
     0
  3

  4
"
  5

  6

  7

 40
1.0
 41
3.5
 42
1.0
 43
10.0
 44
1.0
 45
0.0
 46
0.0
 47
0.1
 48
0.1
140
3.5
141
0.0
142
0.0
143
0.03937
144
1.0
145
0.0
146
0.71
147
1.5
 71
     0
 72
     0
 73
     0
 74
     0
 75
     0
 76
     0
 77
     1
 78
     8
170
     0
171
     3
172
     1
173
     0
174
     0
175
     0
176
     7
177
     7
178
     7
270
     2
271
     2
272
     3
273
     2
274
     3
340
11
275
     0
280
     0
281
     0
282
     0
283
     0
284
     8
285
     8
286
     0
287
     3
288
     1
  0
DIMSTYLE
105
234
330
A
100
AcDbSymbolTableRecord
100
AcDbDimStyleTableRecord
  2
ISO$SF
 70
     0
  3

  4
"
  5

  6

  7

 40
1.0
 41
3.5
 42
1.0
 43
10.0
 44
1.0
 45
0.0
 46
0.0
 47
0.1
 48
0.1
140
3.5
141
0.0
142
0.0
143
0.03937
144
1.0
145
0.0
146
0.71
147
1.5
 71
     0
 72
     0
 73
     0
 74
     0
 75
     1
 76
     1
 77
     1
 78
     8
170
     0
171
     3
172
     1
173
     0
174
     0
175
     0
176
     7
177
     7
178
     7
270
     2
271
     2
272
     3
273
     2
274
     3
340
11
275
     0
280
     0
281
     0
282
     0
283
     0
284
     8
285
     8
286
     0
287
     3
288
     1
  0
DIMSTYLE
105
235
330
A
100
AcDbSymbolTableRecord
100
AcDbDimStyleTableRecord
  2
ISO$SH
 70
     0
  3

  4
"
  5

  6

  7

 40
1.0
 41
3.5
 42
1.0
 43
10.0
 44
1.0
 45
0.0
 46
0.0
 47
0.1
 48
0.1
140
3.5
141
0.0
142
0.0
143
0.03937
144
2.0
145
0.0
146
0.71
147
1.5
 71
     0
 72
     0
 73
     0
 74
     0
 75
     1
 76
     1
 77
     1
 78
     8
170
     0
171
     3
172
     1
173
     1
174
     0
175
     0
176
     7
177
     7
178
     7
270
     2
271
     2
272
     3
273
     2
274
     3
340
11
275
     0
280
     0
281
     0
282
     0
283
     0
284
     8
285
     8
286
     0
287
     3
288
     1
  0
DIMSTYLE
105
237
330
A
100
AcDbSymbolTableRecord
100
AcDbDimStyleTableRecord
  2
ONSHAPE-ISO-25$2
 70
     0
  3

  4

  5

  6

  7

 40
1.0
 41
2.5
 42
0.625
 43
3.75
 44
1.25
 45
0.0
 46
0.0
 47
0.0
 48
0.0
140
3.5
141
2.5
142
0.0
143
0.03937
144
1.0
145
0.0
146
1.0
147
0.625
 71
     0
 72
     0
 73
     0
 74
     0
 75
     0
 76
     0
 77
     1
 78
     8
170
     0
171
     3
172
     1
173
     0
174
     0
175
     0
176
     7
177
     7
178
     7
179
     1
270
     2
271
     2
272
     2
273
     2
274
     3
340
73
275
     0
280
     0
281
     0
282
     0
283
     0
284
     8
285
     8
286
     0
287
     3
288
     1
  0
DIMSTYLE
105
238
330
A
100
AcDbSymbolTableRecord
100
AcDbDimStyleTableRecord
  2
ONSHAPE-ISO-25$4
 70
     0
  3

  4

  5

  6

  7

 40
1.0
 41
2.5
 42
0.625
 43
3.75
 44
1.25
 45
0.0
 46
0.0
 47
0.0
 48
0.0
140
3.5
141
0.0
142
0.0
143
0.03937
144
1.0
145
0.0
146
1.0
147
0.625
 71
     0
 72
     0
 73
     0
 74
     0
 75
     0
 76
     0
 77
     1
 78
     8
170
     0
171
     3
172
     1
173
     0
174
     0
175
     0
176
     7
177
     7
178
     7
179
     1
270
     2
271
     2
272
     2
273
     2
274
     3
340
73
275
     0
280
     0
281
     0
282
     0
283
     0
284
     8
285
     8
286
     0
287
     3
288
     1
  0
DIMSTYLE
105
239
330
A
100
AcDbSymbolTableRecord
100
AcDbDimStyleTableRecord
  2
ONSHAPE-ISO-25$6
 70
     0
  3

  4

  5

  6

  7

 40
1.0
 41
0.5
 42
0.625
 43
3.75
 44
1.25
 45
0.0
 46
0.0
 47
0.0
 48
0.0
140
3.5
141
2.5
142
0.0
143
0.03937
144
1.0
145
0.0
146
1.0
147
0.625
 71
     0
 72
     0
 73
     0
 74
     0
 75
     0
 76
     0
 77
     1
 78
     8
170
     0
171
     3
172
     1
173
     0
174
     0
175
     0
176
     7
177
     7
178
     7
179
     1
270
     2
271
     2
272
     2
273
     2
274
     3
340
73
275
     0
280
     0
281
     0
282
     0
283
     0
284
     8
285
     8
286
     0
287
     3
288
     1
  0
DIMSTYLE
105
23A
330
A
100
AcDbSymbolTableRecord
100
AcDbDimStyleTableRecord
  2
ONSHAPE-ISO-25$7
 70
     0
  3

  4

  5

  6

  7

 40
1.0
 41
2.5
 42
0.625
 43
3.75
 44
1.25
 45
0.0
 46
0.0
 47
0.0
 48
0.0
140
3.5
141
2.5
142
0.0
143
0.03937
144
1.0
145
0.0
146
1.0
147
0.625
 71
     0
 72
     0
 73
     0
 74
     0
 75
     0
 76
     0
 77
     1
 78
     8
170
     0
171
     3
172
     1
173
     0
174
     0
175
     0
176
     7
177
     7
178
     7
179
     1
270
     2
271
     2
272
     2
273
     2
274
     3
340
73
275
     0
280
     0
281
     0
282
     0
283
     0
284
     8
285
     8
286
     0
287
     3
288
     1
  0
DIMSTYLE
105
23B
330
A
100
AcDbSymbolTableRecord
100
AcDbDimStyleTableRecord
  2
ONSHAPE-STANDARD-GTOLERANC
 70
     0
  3

  4

  5

  6

  7

 40
1.0
 41
2.5
 42
0.625
 43
3.75
 44
1.25
 45
0.0
 46
0.0
 47
0.0
 48
0.0
140
3.5
141
2.5
142
0.0
143
0.03937
144
1.0
145
0.0
146
1.0
147
0.625
 71
     0
 72
     0
 73
     0
 74
     0
 75
     0
 76
     0
 77
     1
 78
     8
170
     0
171
     3
172
     1
173
     0
174
     0
175
     0
176
     7
177
     7
178
     7
179
     1
270
     2
271
     2
272
     2
273
     2
274
     3
340
214
275
     0
280
     0
281
     0
282
     0
283
     0
284
     8
285
     8
286
     0
287
     3
288
     1
  0
DIMSTYLE
105
23D
330
A
100
AcDbSymbolTableRecord
100
AcDbDimStyleTableRecord
  2
ONSHAPE-ORDINATESTYLE
 70
     0
  3

  4

  5

  6

  7

 40
1.0
 41
2.5
 42
0.625
 43
3.75
 44
1.25
 45
0.0
 46
0.0
 47
0.0
 48
0.0
140
3.5
141
2.5
142
0.0
143
0.03937
144
1.0
145
0.0
146
1.0
147
0.625
 71
     0
 72
     0
 73
     0
 74
     0
 75
     0
 76
     0
 77
     1
 78
     8
170
     0
171
     3
172
     1
173
     0
174
     0
175
     0
176
     7
177
     7
178
     7
179
     1
270
     2
271
     2
272
     2
273
     2
274
     3
340
73
275
     0
280
     0
281
     0
282
     0
283
     0
284
     8
285
     8
286
     0
287
     3
288
     1
  0
DIMSTYLE
105
23E
330
A
100
AcDbSymbolTableRecord
100
AcDbDimStyleTableRecord
  2
ONSHAPE-CHAMFERDIMSTYLE
 70
     0
  3

  4

  5

  6

  7

 40
1.0
 41
2.5
 42
0.625
 43
3.75
 44
1.25
 45
0.0
 46
0.0
 47
0.0
 48
0.0
140
3.5
141
2.5
142
0.0
143
0.03937
144
1.0
145
0.0
146
1.0
147
0.625
 71
     0
 72
     0
 73
     0
 74
     0
 75
     0
 76
     0
 77
     1
 78
     8
170
     0
171
     3
172
     1
173
     0
174
     0
175
     0
176
     7
177
     7
178
     7
179
     1
270
     2
271
     2
272
     2
273
     2
274
     3
340
73
275
     0
280
     0
281
     0
282
     0
283
     0
284
     8
285
     8
286
     0
287
     3
288
     1
  0
DIMSTYLE
105
23F
330
A
100
AcDbSymbolTableRecord
100
AcDbDimStyleTableRecord
  2
ONSHAPE-SKETCHDRIVENDIMSTY
 70
     0
  3

  4

  5

  6

  7

 40
1.0
 41
2.5
 42
0.625
 43
3.75
 44
1.25
 45
0.0
 46
0.0
 47
0.0
 48
0.0
140
3.5
141
2.5
142
0.0
143
0.03937
144
1.0
145
0.0
146
1.0
147
0.625
 71
     0
 72
     0
 73
     0
 74
     0
 75
     0
 76
     0
 77
     1
 78
     8
170
     0
171
     3
172
     1
173
     0
174
     0
175
     0
176
   251
177
   251
178
   251
179
     1
270
     2
271
     2
272
     2
273
     2
274
     3
340
73
275
     0
280
     0
281
     0
282
     0
283
     0
284
     8
285
     8
286
     0
287
     3
288
     1
  0
DIMSTYLE
105
240
330
A
100
AcDbSymbolTableRecord
100
AcDbDimStyleTableRecord
  2
ONSHAPE-SKETCHDRIVENDIMST0
 70
     0
  3

  4

  5

  6

  7

 40
1.0
 41
2.5
 42
0.625
 43
3.75
 44
1.25
 45
0.0
 46
0.0
 47
0.0
 48
0.0
140
3.5
141
2.5
142
0.0
143
0.03937
144
1.0
145
0.0
146
1.0
147
0.625
 71
     0
 72
     0
 73
     0
 74
     0
 75
     0
 76
     0
 77
     1
 78
     8
170
     0
171
     3
172
     1
173
     0
174
     0
175
     0
176
   251
177
   251
178
   251
179
     1
270
     2
271
     2
272
     2
273
     2
274
     3
340
73
275
     0
280
     0
281
     0
282
     0
283
     0
284
     8
285
     8
286
     0
287
     3
288
     1
  0
DIMSTYLE
105
241
330
A
100
AcDbSymbolTableRecord
100
AcDbDimStyleTableRecord
  2
ONSHAPE-SKETCHDRIVENDIMST1
 70
     0
  3

  4

  5

  6

  7

 40
1.0
 41
2.5
 42
0.625
 43
3.75
 44
1.25
 45
0.0
 46
0.0
 47
0.0
 48
0.0
140
3.5
141
0.0
142
0.0
143
0.03937
144
1.0
145
0.0
146
1.0
147
0.625
 71
     0
 72
     0
 73
     0
 74
     0
 75
     0
 76
     0
 77
     1
 78
     8
170
     0
171
     3
172
     1
173
     0
174
     0
175
     0
176
   251
177
   251
178
   251
179
     1
270
     2
271
     2
272
     2
273
     2
274
     3
340
73
275
     0
280
     0
281
     0
282
     0
283
     0
284
     8
285
     8
286
     0
287
     3
288
     1
  0
DIMSTYLE
105
242
330
A
100
AcDbSymbolTableRecord
100
AcDbDimStyleTableRecord
  2
ONSHAPE-SKETCHDRIVENDIMST2
 70
     0
  3

  4

  5

  6

  7

 40
1.0
 41
2.5
 42
0.625
 43
3.75
 44
1.25
 45
0.0
 46
0.0
 47
0.0
 48
0.0
140
3.5
141
0.0
142
0.0
143
0.03937
144
1.0
145
0.0
146
1.0
147
0.625
 71
     0
 72
     0
 73
     0
 74
     0
 75
     0
 76
     0
 77
     1
 78
     8
170
     0
171
     3
172
     1
173
     0
174
     0
175
     0
176
   251
177
   251
178
   251
179
     1
270
     2
271
     2
272
     2
273
     2
274
     3
340
73
275
     0
280
     0
281
     0
282
     0
283
     0
284
     8
285
     8
286
     0
287
     3
288
     1
  0
ENDTAB
  0
TABLE
  2
BLOCK_RECORD
  5
1
330
0
100
AcDbSymbolTable
 70
     8
  0
BLOCK_RECORD
  5
1F
330
1
100
AcDbSymbolTableRecord
100
AcDbBlockTableRecord
  2
*MODEL_SPACE
  0
BLOCK_RECORD
  5
1B
330
1
100
AcDbSymbolTableRecord
100
AcDbBlockTableRecord
  2
*PAPER_SPACE
  0
BLOCK_RECORD
  5
16C
330
1
100
AcDbSymbolTableRecord
100
AcDbBlockTableRecord
  2
*D1
  0
BLOCK_RECORD
  5
183
330
1
100
AcDbSymbolTableRecord
100
AcDbBlockTableRecord
  2
*D2
  0
BLOCK_RECORD
  5
196
330
1
100
AcDbSymbolTableRecord
100
AcDbBlockTableRecord
  2
*D3
  0
BLOCK_RECORD
  5
1A8
330
1
100
AcDbSymbolTableRecord
100
AcDbBlockTableRecord
  2
*D4
  0
BLOCK_RECORD
  5
1BA
330
1
100
AcDbSymbolTableRecord
100
AcDbBlockTableRecord
  2
*D5
  0
BLOCK_RECORD
  5
1CD
330
1
100
AcDbSymbolTableRecord
100
AcDbBlockTableRecord
  2
*D6
  0
BLOCK_RECORD
  5
1DF
330
1
100
AcDbSymbolTableRecord
100
AcDbBlockTableRecord
  2
*D7
  0
BLOCK_RECORD
  5
1F1
330
1
100
AcDbSymbolTableRecord
100
AcDbBlockTableRecord
  2
*D8
  0
ENDTAB
  0
ENDSEC
  0
SECTION
  2
BLOCKS
  0
BLOCK
  5
20
330
1F
100
AcDbEntity
  8
0
100
AcDbBlockBegin
  2
*MODEL_SPACE
 70
     0
 10
0.0
 20
0.0
 30
0.0
  3
*MODEL_SPACE
  1

  0
ENDBLK
  5
21
330
1F
100
AcDbEntity
  8
0
100
AcDbBlockEnd
  0
BLOCK
  5
1C
330
1B
100
AcDbEntity
 67
     1
  8
0
100
AcDbBlockBegin
  2
*PAPER_SPACE
 70
     0
 10
0.0
 20
0.0
 30
0.0
  3
*PAPER_SPACE
  1

  0
ENDBLK
  5
1D
330
1B
100
AcDbEntity
 67
     1
  8
0
100
AcDbBlockEnd
  0
BLOCK
  5
16D
330
16C
100
AcDbEntity
  8
0
100
AcDbBlockBegin
  2
*D1
 70
     1
 10
0.0
 20
0.0
 30
0.0
  3
*D1
  1

  0
LINE
  5
16E
330
16C
100
AcDbEntity
  8
ANNOTATION_TEXT
 62
     7
100
AcDbLine
 10
124.0484250126582
 20
167.9556962025316
 30
0.0
 11
124.0484250126582
 21
170.7173260021791
 31
0.0
1001
INDEX
1070
     0
  0
LINE
  5
170
330
16C
100
AcDbEntity
  8
ANNOTATION_TEXT
 62
     7
100
AcDbLine
 10
134.0484250126582
 20
159.2306962025316
 30
0.0
 11
134.0484250126582
 21
170.7173260021791
 31
0.0
1001
INDEX
1070
     1
  0
LINE
  5
171
330
16C
100
AcDbEntity
  8
ANNOTATION_TEXT
 62
     7
100
AcDbLine
 10
126.5484250126582
 20
169.4673260021791
 30
0.0
 11
131.5484250126582
 21
169.4673260021791
 31
0.0
  0
SOLID
  5
172
330
16C
100
AcDbEntity
  8
ANNOTATION_TEXT
 62
     7
100
AcDbTrace
 10
126.5484250126582
 20
169.8839926688457
 30
0.0
 11
126.5484250126582
 21
169.0506593355124
 31
0.0
 12
124.0484250126582
 22
169.4673260021791
 32
0.0
 13
124.0484250126582
 23
169.4673260021791
 33
0.0
  0
SOLID
  5
173
330
16C
100
AcDbEntity
  8
ANNOTATION_TEXT
 62
     7
100
AcDbTrace
 10
131.5484250126582
 20
169.0506593355124
 30
0.0
 11
131.5484250126582
 21
169.8839926688457
 31
0.0
 12
134.0484250126582
 22
169.4673260021791
 32
0.0
 13
134.0484250126582
 23
169.4673260021791
 33
0.0
  0
MTEXT
  5
174
330
16C
100
AcDbEntity
  8
ANNOTATION_TEXT
 62
     7
100
AcDbMText
 10
129.0484250126582
 20
171.8864336316069
 30
0.0
 40
3.5
 41
0.0
 71
     5
 72
     1
  1
20
  7
ONSHAPE-STANDARD-DIMENSION
  0
POINT
  5
175
330
16C
100
AcDbEntity
  8
DEFPOINTS
 62
     0
100
AcDbPoint
 10
124.0484250126582
 20
167.3306962025316
 30
0.0
  0
POINT
  5
176
330
16C
100
AcDbEntity
  8
DEFPOINTS
 62
     0
100
AcDbPoint
 10
134.0484250126582
 20
158.6056962025316
 30
0.0
  0
POINT
  5
177
330
16C
100
AcDbEntity
  8
DEFPOINTS
 62
     0
100
AcDbPoint
 10
134.0484250126582
 20
169.4673260021791
 30
0.0
  0
ENDBLK
  5
178
330
16C
100
AcDbEntity
  8
0
100
AcDbBlockEnd
  0
BLOCK
  5
184
330
183
100
AcDbEntity
  8
0
100
AcDbBlockBegin
  2
*D2
 70
     1
 10
0.0
 20
0.0
 30
0.0
  3
*D2
  1

  0
LINE
  5
185
330
183
100
AcDbEntity
  8
ANNOTATION_TEXT
 62
     7
100
AcDbLine
 10
124.0484250126582
 20
167.9556962025316
 30
0.0
 11
124.0484250126582
 21
177.9562207714267
 31
0.0
1001
INDEX
1070
     0
  0
LINE
  5
186
330
183
100
AcDbEntity
  8
ANNOTATION_TEXT
 62
     7
100
AcDbLine
 10
157.0484250126582
 20
161.7306962025316
 30
0.0
 11
157.0484250126582
 21
177.9562207714267
 31
0.0
1001
INDEX
1070
     1
  0
LINE
  5
187
330
183
100
AcDbEntity
  8
ANNOTATION_TEXT
 62
     7
100
AcDbLine
 10
126.5484250126582
 20
176.7062207714267
 30
0.0
 11
154.5484250126582
 21
176.7062207714267
 31
0.0
  0
SOLID
  5
188
330
183
100
AcDbEntity
  8
ANNOTATION_TEXT
 62
     7
100
AcDbTrace
 10
126.5484250126582
 20
177.1228874380934
 30
0.0
 11
126.5484250126582
 21
176.28955410476
 31
0.0
 12
124.0484250126582
 22
176.7062207714267
 32
0.0
 13
124.0484250126582
 23
176.7062207714267
 33
0.0
  0
SOLID
  5
189
330
183
100
AcDbEntity
  8
ANNOTATION_TEXT
 62
     7
100
AcDbTrace
 10
154.5484250126582
 20
176.28955410476
 30
0.0
 11
154.5484250126582
 21
177.1228874380934
 31
0.0
 12
157.0484250126582
 22
176.7062207714267
 32
0.0
 13
157.0484250126582
 23
176.7062207714267
 33
0.0
  0
MTEXT
  5
18A
330
183
100
AcDbEntity
  8
ANNOTATION_TEXT
 62
     7
100
AcDbMText
 10
141.7675679019539
 20
179.1229442046692
 30
0.0
 40
3.5
 41
0.0
 71
     5
 72
     1
  1
66
  7
ONSHAPE-STANDARD-DIMENSION
  0
POINT
  5
18B
330
183
100
AcDbEntity
  8
DEFPOINTS
 62
     0
100
AcDbPoint
 10
124.0484250126582
 20
167.3306962025316
 30
0.0
  0
POINT
  5
18C
330
183
100
AcDbEntity
  8
DEFPOINTS
 62
     0
100
AcDbPoint
 10
157.0484250126582
 20
161.1056962025316
 30
0.0
  0
POINT
  5
18D
330
183
100
AcDbEntity
  8
DEFPOINTS
 62
     0
100
AcDbPoint
 10
157.0484250126582
 20
176.7062207714267
 30
0.0
  0
ENDBLK
  5
18E
330
183
100
AcDbEntity
  8
0
100
AcDbBlockEnd
  0
BLOCK
  5
197
330
196
100
AcDbEntity
  8
0
100
AcDbBlockBegin
  2
*D3
 70
     1
 10
0.0
 20
0.0
 30
0.0
  3
*D3
  1

  0
LINE
  5
198
330
196
100
AcDbEntity
  8
ANNOTATION_TEXT
 62
     7
100
AcDbLine
 10
180.0484250126582
 20
159.2306962025316
 30
0.0
 11
180.0484250126582
 21
170.7173260021791
 31
0.0
1001
INDEX
1070
     0
  0
LINE
  5
199
330
196
100
AcDbEntity
  8
ANNOTATION_TEXT
 62
     7
100
AcDbLine
 10
190.0484250126582
 20
167.9556962025316
 30
0.0
 11
190.0484250126582
 21
170.7173260021791
 31
0.0
1001
INDEX
1070
     1
  0
LINE
  5
19A
330
196
100
AcDbEntity
  8
ANNOTATION_TEXT
 62
     7
100
AcDbLine
 10
182.5484250126582
 20
169.4673260021791
 30
0.0
 11
187.5484250126582
 21
169.4673260021791
 31
0.0
  0
SOLID
  5
19B
330
196
100
AcDbEntity
  8
ANNOTATION_TEXT
 62
     7
100
AcDbTrace
 10
182.5484250126582
 20
169.8839926688457
 30
0.0
 11
182.5484250126582
 21
169.0506593355124
 31
0.0
 12
180.0484250126582
 22
169.4673260021791
 32
0.0
 13
180.0484250126582
 23
169.4673260021791
 33
0.0
  0
SOLID
  5
19C
330
196
100
AcDbEntity
  8
ANNOTATION_TEXT
 62
     7
100
AcDbTrace
 10
187.5484250126582
 20
169.0506593355124
 30
0.0
 11
187.5484250126582
 21
169.8839926688457
 31
0.0
 12
190.0484250126582
 22
169.4673260021791
 32
0.0
 13
190.0484250126582
 23
169.4673260021791
 33
0.0
  0
MTEXT
  5
19D
330
196
100
AcDbEntity
  8
ANNOTATION_TEXT
 62
     7
100
AcDbMText
 10
185.0484250126582
 20
171.8864336316069
 30
0.0
 40
3.5
 41
0.0
 71
     5
 72
     1
  1
20
  7
ONSHAPE-STANDARD-DIMENSION
  0
POINT
  5
19E
330
196
100
AcDbEntity
  8
DEFPOINTS
 62
     0
100
AcDbPoint
 10
180.0484250126582
 20
158.6056962025316
 30
0.0
  0
POINT
  5
19F
330
196
100
AcDbEntity
  8
DEFPOINTS
 62
     0
100
AcDbPoint
 10
190.0484250126582
 20
167.3306962025316
 30
0.0
  0
POINT
  5
1A0
330
196
100
AcDbEntity
  8
DEFPOINTS
 62
     0
100
AcDbPoint
 10
190.0484250126582
 20
169.4673260021791
 30
0.0
  0
ENDBLK
  5
1A1
330
196
100
AcDbEntity
  8
0
100
AcDbBlockEnd
  0
BLOCK
  5
1A9
330
1A8
100
AcDbEntity
  8
0
100
AcDbBlockBegin
  2
*D4
 70
     1
 10
0.0
 20
0.0
 30
0.0
  3
*D4
  1

  0
LINE
  5
1AA
330
1A8
100
AcDbEntity
  8
ANNOTATION_TEXT
 62
     7
100
AcDbLine
 10
132.1484250126582
 20
157.3306962025316
 30
0.0
 11
118.726036151175
 21
157.3306962025316
 31
0.0
1001
INDEX
1070
     0
  0
LINE
  5
1AB
330
1A8
100
AcDbEntity
  8
ANNOTATION_TEXT
 62
     7
100
AcDbLine
 10
123.4234250126582
 20
167.3306962025316
 30
0.0
 11
118.726036151175
 21
167.3306962025316
 31
0.0
1001
INDEX
1070
     1
  0
LINE
  5
1AC
330
1A8
100
AcDbEntity
  8
ANNOTATION_TEXT
 62
     7
100
AcDbLine
 10
119.976036151175
 20
159.8306962025316
 30
0.0
 11
119.976036151175
 21
164.8306962025316
 31
0.0
  0
SOLID
  5
1AD
330
1A8
100
AcDbEntity
  8
ANNOTATION_TEXT
 62
     7
100
AcDbTrace
 10
119.5593694845083
 20
159.8306962025316
 30
0.0
 11
120.3927028178417
 21
159.8306962025316
 31
0.0
 12
119.976036151175
 22
157.3306962025316
 32
0.0
 13
119.976036151175
 23
157.3306962025316
 33
0.0
  0
SOLID
  5
1AE
330
1A8
100
AcDbEntity
  8
ANNOTATION_TEXT
 62
     7
100
AcDbTrace
 10
120.3927028178417
 20
164.8306962025316
 30
0.0
 11
119.5593694845083
 21
164.8306962025316
 31
0.0
 12
119.976036151175
 22
167.3306962025316
 32
0.0
 13
119.976036151175
 23
167.3306962025316
 33
0.0
  0
MTEXT
  5
1AF
330
1A8
100
AcDbEntity
  8
ANNOTATION_TEXT
 62
     7
100
AcDbMText
 10
117.5569285217472
 20
162.3306962025316
 30
0.0
 40
3.5
 41
0.0
 71
     5
 72
     1
  1
20
  7
ONSHAPE-STANDARD-DIMENSION
 11
0.0
 21
1.0
 31
0.0
  0
POINT
  5
1B0
330
1A8
100
AcDbEntity
  8
DEFPOINTS
 62
     0
100
AcDbPoint
 10
132.7734250126582
 20
157.3306962025316
 30
0.0
  0
POINT
  5
1B1
330
1A8
100
AcDbEntity
  8
DEFPOINTS
 62
     0
100
AcDbPoint
 10
124.0484250126582
 20
167.3306962025316
 30
0.0
  0
POINT
  5
1B2
330
1A8
100
AcDbEntity
  8
DEFPOINTS
 62
     0
100
AcDbPoint
 10
119.976036151175
 20
167.3306962025316
 30
0.0
  0
ENDBLK
  5
1B3
330
1A8
100
AcDbEntity
  8
0
100
AcDbBlockEnd
  0
BLOCK
  5
1BB
330
1BA
100
AcDbEntity
  8
0
100
AcDbBlockBegin
  2
*D5
 70
     1
 10
0.0
 20
0.0
 30
0.0
  3
*D5
  1

  0
LINE
  5
1BC
330
1BA
100
AcDbEntity
  8
ANNOTATION_TEXT
 62
     7
100
AcDbLine
 10
158.9484250126582
 20
159.8306962025316
 30
0.0
 11
178.1734250126582
 21
159.8306962025316
 31
0.0
1001
INDEX
1070
     0
  0
LINE
  5
1BD
330
1BA
100
AcDbEntity
  8
ANNOTATION_TEXT
 62
     7
100
AcDbLine
 10
181.9234250126582
 20
159.8306962025316
 30
0.0
 11
206.1154359564482
 21
159.8306962025316
 31
0.0
1001
INDEX
1070
     0
  0
LINE
  5
1BE
330
1BA
100
AcDbEntity
  8
ANNOTATION_TEXT
 62
     7
100
AcDbLine
 10
190.6734250126582
 20
167.3306962025316
 30
0.0
 11
206.1154359564482
 21
167.3306962025316
 31
0.0
1001
INDEX
1070
     1
  0
LINE
  5
1BF
330
1BA
100
AcDbEntity
  8
ANNOTATION_TEXT
 62
     7
100
AcDbLine
 10
204.8654359564482
 20
162.3306962025316
 30
0.0
 11
204.8654359564482
 21
164.8306962025316
 31
0.0
  0
SOLID
  5
1C0
330
1BA
100
AcDbEntity
  8
ANNOTATION_TEXT
 62
     7
100
AcDbTrace
 10
204.4487692897815
 20
162.3306962025316
 30
0.0
 11
205.2821026231148
 21
162.3306962025316
 31
0.0
 12
204.8654359564482
 22
159.8306962025316
 32
0.0
 13
204.8654359564482
 23
159.8306962025316
 33
0.0
  0
SOLID
  5
1C1
330
1BA
100
AcDbEntity
  8
ANNOTATION_TEXT
 62
     7
100
AcDbTrace
 10
205.2821026231148
 20
164.8306962025316
 30
0.0
 11
204.4487692897815
 21
164.8306962025316
 31
0.0
 12
204.8654359564482
 22
167.3306962025316
 32
0.0
 13
204.8654359564482
 23
167.3306962025316
 33
0.0
  0
MTEXT
  5
1C2
330
1BA
100
AcDbEntity
  8
ANNOTATION_TEXT
 62
     7
100
AcDbMText
 10
202.4665939945953
 20
163.5806962025316
 30
0.0
 40
3.5
 41
0.0
 71
     5
 72
     1
  1
15
  7
ONSHAPE-STANDARD-DIMENSION
 11
0.0
 21
1.0
 31
0.0
  0
POINT
  5
1C3
330
1BA
100
AcDbEntity
  8
DEFPOINTS
 62
     0
100
AcDbPoint
 10
158.3234250126582
 20
159.8306962025316
 30
0.0
  0
POINT
  5
1C4
330
1BA
100
AcDbEntity
  8
DEFPOINTS
 62
     0
100
AcDbPoint
 10
190.0484250126582
 20
167.3306962025316
 30
0.0
  0
POINT
  5
1C5
330
1BA
100
AcDbEntity
  8
DEFPOINTS
 62
     0
100
AcDbPoint
 10
204.8654359564482
 20
167.3306962025316
 30
0.0
  0
ENDBLK
  5
1C6
330
1BA
100
AcDbEntity
  8
0
100
AcDbBlockEnd
  0
BLOCK
  5
1CE
330
1CD
100
AcDbEntity
  8
0
100
AcDbBlockBegin
  2
*D6
 70
     1
 10
0.0
 20
0.0
 30
0.0
  3
*D6
  1

  0
LINE
  5
1CF
330
1CD
100
AcDbEntity
  8
ANNOTATION_TEXT
 62
     7
100
AcDbLine
 10
190.6734250126582
 20
167.3306962025316
 30
0.0
 11
221.9880860476659
 21
167.3306962025316
 31
0.0
1001
INDEX
1070
     0
  0
LINE
  5
1D0
330
1CD
100
AcDbEntity
  8
ANNOTATION_TEXT
 62
     7
100
AcDbLine
 10
190.6734250126582
 20
119.3306962025316
 30
0.0
 11
221.9880860476659
 21
119.3306962025316
 31
0.0
1001
INDEX
1070
     1
  0
LINE
  5
1D1
330
1CD
100
AcDbEntity
  8
ANNOTATION_TEXT
 62
     7
100
AcDbLine
 10
220.7380860476659
 20
164.8306962025316
 30
0.0
 11
220.7380860476659
 21
121.8306962025316
 31
0.0
  0
SOLID
  5
1D2
330
1CD
100
AcDbEntity
  8
ANNOTATION_TEXT
 62
     7
100
AcDbTrace
 10
221.1547527143325
 20
164.8306962025316
 30
0.0
 11
220.3214193809992
 21
164.8306962025316
 31
0.0
 12
220.7380860476659
 22
167.3306962025316
 32
0.0
 13
220.7380860476659
 23
167.3306962025316
 33
0.0
  0
SOLID
  5
1D3
330
1CD
100
AcDbEntity
  8
ANNOTATION_TEXT
 62
     7
100
AcDbTrace
 10
220.3214193809992
 20
121.8306962025316
 30
0.0
 11
221.1547527143325
 21
121.8306962025316
 31
0.0
 12
220.7380860476659
 22
119.3306962025316
 32
0.0
 13
220.7380860476659
 23
119.3306962025316
 33
0.0
  0
MTEXT
  5
1D4
330
1CD
100
AcDbEntity
  8
ANNOTATION_TEXT
 62
     7
100
AcDbMText
 10
218.3213626144234
 20
143.3306962025316
 30
0.0
 40
3.5
 41
0.0
 71
     5
 72
     1
  1
96
  7
ONSHAPE-STANDARD-DIMENSION
 11
0.0
 21
1.0
 31
0.0
  0
POINT
  5
1D5
330
1CD
100
AcDbEntity
  8
DEFPOINTS
 62
     0
100
AcDbPoint
 10
190.0484250126582
 20
167.3306962025316
 30
0.0
  0
POINT
  5
1D6
330
1CD
100
AcDbEntity
  8
DEFPOINTS
 62
     0
100
AcDbPoint
 10
190.0484250126582
 20
119.3306962025316
 30
0.0
  0
POINT
  5
1D7
330
1CD
100
AcDbEntity
  8
DEFPOINTS
 62
     0
100
AcDbPoint
 10
220.7380860476659
 20
119.3306962025316
 30
0.0
  0
ENDBLK
  5
1D8
330
1CD
100
AcDbEntity
  8
0
100
AcDbBlockEnd
  0
BLOCK
  5
1E0
330
1DF
100
AcDbEntity
  8
0
100
AcDbBlockBegin
  2
*D7
 70
     1
 10
0.0
 20
0.0
 30
0.0
  3
*D7
  1

  0
LINE
  5
1E1
330
1DF
100
AcDbEntity
  8
ANNOTATION_TEXT
 62
     7
100
AcDbLine
 10
124.0484250126582
 20
118.7056962025316
 30
0.0
 11
124.0484250126582
 21
99.2036925398102
 31
0.0
1001
INDEX
1070
     0
  0
LINE
  5
1E2
330
1DF
100
AcDbEntity
  8
ANNOTATION_TEXT
 62
     7
100
AcDbLine
 10
190.0484250126582
 20
118.7056962025316
 30
0.0
 11
190.0484250126582
 21
99.2036925398102
 31
0.0
1001
INDEX
1070
     1
  0
LINE
  5
1E3
330
1DF
100
AcDbEntity
  8
ANNOTATION_TEXT
 62
     7
100
AcDbLine
 10
126.5484250126582
 20
100.4536925398102
 30
0.0
 11
187.5484250126582
 21
100.4536925398102
 31
0.0
  0
SOLID
  5
1E4
330
1DF
100
AcDbEntity
  8
ANNOTATION_TEXT
 62
     7
100
AcDbTrace
 10
126.5484250126582
 20
100.8703592064769
 30
0.0
 11
126.5484250126582
 21
100.0370258731435
 31
0.0
 12
124.0484250126582
 22
100.4536925398102
 32
0.0
 13
124.0484250126582
 23
100.4536925398102
 33
0.0
  0
SOLID
  5
1E5
330
1DF
100
AcDbEntity
  8
ANNOTATION_TEXT
 62
     7
100
AcDbTrace
 10
187.5484250126582
 20
100.0370258731435
 30
0.0
 11
187.5484250126582
 21
100.8703592064769
 31
0.0
 12
190.0484250126582
 22
100.4536925398102
 32
0.0
 13
190.0484250126582
 23
100.4536925398102
 33
0.0
  0
MTEXT
  5
1E6
330
1DF
100
AcDbEntity
  8
ANNOTATION_TEXT
 62
     7
100
AcDbMText
 10
157.0484250126582
 20
102.8704159730527
 30
0.0
 40
3.5
 41
0.0
 71
     5
 72
     1
  1
132
  7
ONSHAPE-STANDARD-DIMENSION
  0
POINT
  5
1E7
330
1DF
100
AcDbEntity
  8
DEFPOINTS
 62
     0
100
AcDbPoint
 10
124.0484250126582
 20
119.3306962025316
 30
0.0
  0
POINT
  5
1E8
330
1DF
100
AcDbEntity
  8
DEFPOINTS
 62
     0
100
AcDbPoint
 10
190.0484250126582
 20
119.3306962025316
 30
0.0
  0
POINT
  5
1E9
330
1DF
100
AcDbEntity
  8
DEFPOINTS
 62
     0
100
AcDbPoint
 10
190.0484250126582
 20
100.4536925398102
 30
0.0
  0
ENDBLK
  5
1EA
330
1DF
100
AcDbEntity
  8
0
100
AcDbBlockEnd
  0
BLOCK
  5
1F2
330
1F1
100
AcDbEntity
  8
0
100
AcDbBlockBegin
  2
*D8
 70
     1
 10
0.0
 20
0.0
 30
0.0
  3
*D8
  1

  0
LINE
  5
1F3
330
1F1
100
AcDbEntity
  8
ANNOTATION_TEXT
 62
     7
100
AcDbLine
 10
182.0924075384469
 20
126.8039125880782
 30
0.0
 11
188.8692043247032
 21
118.4263952355825
 31
0.0
  0
LINE
  5
1F4
330
1F1
100
AcDbEntity
  8
ANNOTATION_TEXT
 62
     7
100
AcDbLine
 10
191.2276457006132
 20
115.5108756804439
 30
0.0
 11
203.8315044985948
 21
99.92990887284577
 31
0.0
  0
LINE
  5
1F5
330
1F1
100
AcDbEntity
  8
ANNOTATION_TEXT
 62
     7
100
AcDbLine
 10
178.0044424868695
 20
131.8574798169851
 30
0.0
 11
176.4321482362628
 21
133.8011595204108
 31
0.0
  0
MTEXT
  5
1F6
330
1F1
100
AcDbEntity
  8
ANNOTATION_TEXT
 62
     7
100
AcDbMText
 10
203.5103519746132
 20
104.3363918218111
 30
0.0
 40
3.5
 41
0.0
 71
     5
 72
     1
  1
%%c3
  7
ONSHAPE-STANDARD-DIMENSION
 11
0.6289177002426825
 21
-0.7774718813702881
 31
0.0
  0
LINE
  5
1F7
330
1F1
100
AcDbEntity
  8
ANNOTATION_TEXT
 62
     7
100
AcDbLine
 10
179.5767367374762
 20
129.9138001135593
 30
0.0
 11
180.5201132878402
 21
128.7475922915039
 31
0.0
  0
SOLID
  5
1F8
330
1F1
100
AcDbEntity
  8
ANNOTATION_TEXT
 62
     7
100
AcDbTrace
 10
177.6804958696319
 20
131.5954307752173
 30
0.0
 11
178.3283891041071
 21
132.1195288587529
 31
0.0
 12
179.5767367374762
 22
129.9138001135593
 32
0.0
 13
179.5767367374762
 23
129.9138001135593
 33
0.0
  0
SOLID
  5
1F9
330
1F1
100
AcDbEntity
  8
ANNOTATION_TEXT
 62
     7
100
AcDbTrace
 10
182.4163541556846
 20
127.065961629846
 30
0.0
 11
181.7684609212093
 21
126.5418635463104
 31
0.0
 12
180.5201132878402
 22
128.7475922915039
 32
0.0
 13
180.5201132878402
 23
128.7475922915039
 33
0.0
  0
POINT
  5
1FA
330
1F1
100
AcDbEntity
  8
DEFPOINTS
 62
     0
100
AcDbPoint
 10
180.5201132878402
 20
128.7475922915039
 30
0.0
  0
POINT
  5
1FB
330
1F1
100
AcDbEntity
  8
DEFPOINTS
 62
     0
100
AcDbPoint
 10
179.5767367374762
 20
129.9138001135593
 30
0.0
  0
ENDBLK
  5
1FC
330
1F1
100
AcDbEntity
  8
0
100
AcDbBlockEnd
  0
ENDSEC
  0
SECTION
  2
ENTITIES
  0
LINE
  5
76
330
1F
100
AcDbEntity
  8
VISIBLE
100
AcDbLine
 10
124.0484250126582
 20
70.79240506329114
 30
0.0
 11
124.0484250126582
 21
69.29240506329114
 31
0.0
  0
LINE
  5
77
330
1F
100
AcDbEntity
  8
VISIBLE
100
AcDbLine
 10
190.0484250126582
 20
70.79240506329114
 30
0.0
 11
124.0484250126582
 21
70.79240506329114
 31
0.0
  0
LINE
  5
78
330
1F
100
AcDbEntity
  8
VISIBLE
100
AcDbLine
 10
190.0484250126582
 20
69.29240506329114
 30
0.0
 11
124.0484250126582
 21
69.29240506329114
 31
0.0
  0
LINE
  5
79
330
1F
100
AcDbEntity
  8
VISIBLE
100
AcDbLine
 10
190.0484250126582
 20
70.79240506329114
 30
0.0
 11
190.0484250126582
 21
69.29240506329114
 31
0.0
  0
CIRCLE
  5
7C
330
1F
100
AcDbEntity
  8
VISIBLE
100
AcDbCircle
 10
134.0484250126582
 20
157.3306962025316
 30
0.0
 40
0.7500000000000007
  0
CIRCLE
  5
7D
330
1F
100
AcDbEntity
  8
VISIBLE
100
AcDbCircle
 10
157.0484250126582
 20
159.8306962025316
 30
0.0
 40
0.7500000000000007
  0
CIRCLE
  5
7E
330
1F
100
AcDbEntity
  8
VISIBLE
100
AcDbCircle
 10
180.0484250126582
 20
157.3306962025316
 30
0.0
 40
0.7500000000000007
  0
CIRCLE
  5
7F
330
1F
100
AcDbEntity
  8
VISIBLE
100
AcDbCircle
 10
180.0484250126582
 20
129.3306962025316
 30
0.0
 40
0.7500000000000007
  0
CIRCLE
  5
80
330
1F
100
AcDbEntity
  8
VISIBLE
100
AcDbCircle
 10
157.0484250126582
 20
126.8306962025316
 30
0.0
 40
0.7500000000000007
  0
CIRCLE
  5
81
330
1F
100
AcDbEntity
  8
VISIBLE
100
AcDbCircle
 10
134.0484250126582
 20
129.3306962025316
 30
0.0
 40
0.7500000000000007
  0
LINE
  5
82
330
1F
100
AcDbEntity
  8
VISIBLE
100
AcDbLine
 10
190.0484250126582
 20
119.3306962025316
 30
0.0
 11
124.0484250126582
 21
119.3306962025316
 31
0.0
  0
LINE
  5
83
330
1F
100
AcDbEntity
  8
VISIBLE
100
AcDbLine
 10
124.0484250126582
 20
167.3306962025316
 30
0.0
 11
124.0484250126582
 21
119.3306962025316
 31
0.0
  0
LINE
  5
84
330
1F
100
AcDbEntity
  8
VISIBLE
100
AcDbLine
 10
190.0484250126582
 20
167.3306962025316
 30
0.0
 11
124.0484250126582
 21
167.3306962025316
 31
0.0
  0
LINE
  5
85
330
1F
100
AcDbEntity
  8
VISIBLE
100
AcDbLine
 10
190.0484250126582
 20
167.3306962025316
 30
0.0
 11
190.0484250126582
 21
119.3306962025316
 31
0.0
  0
LINE
  5
86
330
1F
100
AcDbEntity
  8
BORDER_FRAME
100
AcDbLine
 10
20.0
 20
10.0
 30
0.0
 11
20.0
 21
200.0
 31
0.0
  0
LINE
  5
89
330
1F
100
AcDbEntity
  8
BORDER_FRAME
100
AcDbLine
 10
20.0
 20
200.0
 30
0.0
 11
297.0
 21
200.0
 31
0.0
  0
LINE
  5
8A
330
1F
100
AcDbEntity
  8
BORDER_FRAME
100
AcDbLine
 10
297.0
 20
200.0
 30
0.0
 11
297.0
 21
10.0
 31
0.0
  0
LINE
  5
8B
330
1F
100
AcDbEntity
  8
BORDER_FRAME
100
AcDbLine
 10
297.0
 20
10.0
 30
0.0
 11
20.0
 21
10.0
 31
0.0
  0
LINE
  5
8C
330
1F
100
AcDbEntity
  8
TITLE_BLOCK
100
AcDbLine
 10
135.075
 20
10.0
 30
0.0
 11
135.075
 21
48.09999999999999
 31
0.0
  0
LINE
  5
8E
330
1F
100
AcDbEntity
  8
TITLE_BLOCK
100
AcDbLine
 10
135.075
 20
10.0
 30
0.0
 11
165.555
 21
10.0
 31
0.0
  0
LINE
  5
8F
330
1F
100
AcDbEntity
  8
TITLE_BLOCK
100
AcDbLine
 10
135.075
 20
17.62
 30
0.0
 11
165.555
 21
17.62
 31
0.0
  0
LINE
  5
90
330
1F
100
AcDbEntity
  8
TITLE_BLOCK
100
AcDbLine
 10
135.075
 20
20.668
 30
0.0
 11
165.555
 21
20.668
 31
0.0
  0
LINE
  5
91
330
1F
100
AcDbEntity
  8
TITLE_BLOCK
100
AcDbLine
 10
135.075
 20
25.8496
 30
0.0
 11
165.555
 21
25.8496
 31
0.0
  0
LINE
  5
92
330
1F
100
AcDbEntity
  8
TITLE_BLOCK
100
AcDbLine
 10
135.075
 20
30.2692
 30
0.0
 11
165.555
 21
30.2692
 31
0.0
  0
LINE
  5
93
330
1F
100
AcDbEntity
  8
TITLE_BLOCK
100
AcDbLine
 10
135.075
 20
48.09999999999999
 30
0.0
 11
165.555
 21
48.09999999999999
 31
0.0
  0
MTEXT
  5
94
330
1F
100
AcDbEntity
  8
TITLE_BLOCK
100
AcDbMText
 10
135.644976
 20
47.167312
 30
0.0
 40
1.03632
 41
29.87039999999999
 71
     1
 72
     1
  1
A MENOS QUE SE INDIQUE LO CONTRARIO, LAS COTAS ESTN EN MILMETROS
  7
ONSHAPE-STANDARD
  0
MTEXT
  5
96
330
1F
100
AcDbEntity
  8
TITLE_BLOCK
100
AcDbMText
 10
150.918504
 20
42.540448
 30
0.0
 40
1.09728
 41
14.93519999999998
 71
     1
 72
     1
  1
^JANGULAR =  ^J
  7
ONSHAPE-STANDARD
  0
MTEXT
  5
97
330
1F
100
AcDbEntity
  8
TITLE_BLOCK
100
AcDbMText
 10
135.74556
 20
35.11552
 30
0.0
 40
1.2192
 41
14.93520000000001
 71
     1
 72
     1
  1
ACABADO SUPERFICIAL
  7
ONSHAPE-STANDARD
  0
LINE
  5
98
330
1F
100
AcDbEntity
  8
TITLE_BLOCK
100
AcDbLine
 10
148.791
 20
33.3172
 30
0.0
 11
149.553
 21
31.99737728463252
 31
0.0
  0
LINE
  5
99
330
1F
100
AcDbEntity
  8
TITLE_BLOCK
100
AcDbLine
 10
149.553
 20
31.99737728463252
 30
0.0
 11
151.1532
 21
34.76900498690424
 31
0.0
  0
LINE
  5
9A
330
1F
100
AcDbEntity
  8
TITLE_BLOCK
100
AcDbLine
 10
151.1532
 20
34.76900498690424
 30
0.0
 11
152.8296
 21
34.76900498690424
 31
0.0
  0
MTEXT
  5
9B
330
1F
100
AcDbEntity
  8
TITLE_BLOCK
100
AcDbMText
 10
150.315
 20
28.842736
 30
0.0
 40
1.58496
 41
29.87039999999999
 71
     2
 72
     1
  1
NO ESCALAR DIBUJO
  7
ONSHAPE-STANDARD
  0
MTEXT
  5
9C
330
1F
100
AcDbEntity
  8
TITLE_BLOCK
100
AcDbMText
 10
150.315
 20
24.75232
 30
0.0
 40
1.2192
 41
29.87039999999999
 71
     2
 72
     1
  1
INTERRUMPIR TODAS LAS ARISTAS VIVAS Y ELIMINAR REBABAS
  7
ONSHAPE-STANDARD
  0
CIRCLE
  5
9D
330
1F
100
AcDbEntity
  8
TITLE_BLOCK
100
AcDbCircle
 10
146.886
 20
13.77952
 30
0.0
 40
1.3716
  0
CIRCLE
  5
9E
330
1F
100
AcDbEntity
  8
TITLE_BLOCK
100
AcDbCircle
 10
146.886
 20
13.77952
 30
0.0
 40
2.743199999999999
  0
LINE
  5
9F
330
1F
100
AcDbEntity
  8
TITLE_BLOCK
100
AcDbLine
 10
147.5718
 20
13.77952
 30
0.0
 11
146.2002
 21
13.77952
 31
0.0
  0
LINE
  5
A0
330
1F
100
AcDbEntity
  8
TITLE_BLOCK
100
AcDbLine
 10
146.886
 20
14.46532
 30
0.0
 11
146.886
 21
13.09372
 31
0.0
  0
LINE
  5
A1
330
1F
100
AcDbEntity
  8
TITLE_BLOCK
100
AcDbLine
 10
148.2576
 20
13.77952
 30
0.0
 11
150.315
 21
13.77952
 31
0.0
  0
LINE
  5
A2
330
1F
100
AcDbEntity
  8
TITLE_BLOCK
100
AcDbLine
 10
146.886
 20
15.15112
 30
0.0
 11
146.886
 21
17.20852
 31
0.0
  0
LINE
  5
A3
330
1F
100
AcDbEntity
  8
TITLE_BLOCK
100
AcDbLine
 10
145.5144
 20
13.77952
 30
0.0
 11
143.457
 21
13.77952
 31
0.0
  0
LINE
  5
A4
330
1F
100
AcDbEntity
  8
TITLE_BLOCK
100
AcDbLine
 10
146.886
 20
12.40792
 30
0.0
 11
146.886
 21
10.35052
 31
0.0
  0
LINE
  5
A5
330
1F
100
AcDbEntity
  8
TITLE_BLOCK
100
AcDbLine
 10
156.4872
 20
11.03632
 30
0.0
 11
156.4872
 21
16.52272
 31
0.0
  0
LINE
  5
A6
330
1F
100
AcDbEntity
  8
TITLE_BLOCK
100
AcDbLine
 10
156.4872
 20
16.52272
 30
0.0
 11
151.0008
 21
15.15112
 31
0.0
  0
LINE
  5
A7
330
1F
100
AcDbEntity
  8
TITLE_BLOCK
100
AcDbLine
 10
151.0008
 20
15.15112
 30
0.0
 11
151.0008
 21
12.40792
 31
0.0
  0
LINE
  5
A8
330
1F
100
AcDbEntity
  8
TITLE_BLOCK
100
AcDbLine
 10
151.0008
 20
12.40792
 30
0.0
 11
156.4872
 21
11.03632
 31
0.0
  0
LINE
  5
A9
330
1F
100
AcDbEntity
  8
TITLE_BLOCK
100
AcDbLine
 10
154.4298
 20
13.77952
 30
0.0
 11
156.8301
 21
13.77952
 31
0.0
  0
LINE
  5
AA
330
1F
100
AcDbEntity
  8
TITLE_BLOCK
100
AcDbLine
 10
154.01832
 20
13.77952
 30
0.0
 11
153.46968
 21
13.77952
 31
0.0
  0
LINE
  5
AB
330
1F
100
AcDbEntity
  8
TITLE_BLOCK
100
AcDbLine
 10
153.0582
 20
13.77952
 30
0.0
 11
150.6579
 21
13.77952
 31
0.0
  0
MTEXT
  5
AC
330
1F
100
AcDbEntity
  8
TITLE_BLOCK
100
AcDbMText
 10
150.315
 20
19.93648
 30
0.0
 40
1.2192
 41
29.87039999999999
 71
     2
 72
     1
  1
PROYECCIN DE TERCER NGULO
  7
ONSHAPE-STANDARD
  0
LINE
  5
AD
330
1F
100
AcDbEntity
  8
TITLE_BLOCK
100
AcDbLine
 10
165.555
 20
10.0
 30
0.0
 11
165.555
 21
48.09999999999999
 31
0.0
  0
LINE
  5
AE
330
1F
100
AcDbEntity
  8
TITLE_BLOCK
100
AcDbLine
 10
178.89
 20
20.668
 30
0.0
 11
178.89
 21
48.09999999999999
 31
0.0
  0
LINE
  5
AF
330
1F
100
AcDbEntity
  8
TITLE_BLOCK
100
AcDbLine
 10
194.13
 20
20.668
 30
0.0
 11
194.13
 21
48.09999999999999
 31
0.0
  0
LINE
  5
B0
330
1F
100
AcDbEntity
  8
TITLE_BLOCK
100
AcDbLine
 10
192.225
 20
10.0
 30
0.0
 11
192.225
 21
20.668
 31
0.0
  0
MTEXT
  5
B1
330
1F
100
AcDbEntity
  8
TITLE_BLOCK
100
AcDbMText
 10
201.75
 20
47.00272
 30
0.0
 40
1.2192
 41
14.93520000000001
 71
     2
 72
     1
  1
FIRMA
  7
ONSHAPE-STANDARD
  0
LINE
  5
B2
330
1F
100
AcDbEntity
  8
TITLE_BLOCK
100
AcDbLine
 10
209.37
 20
20.668
 30
0.0
 11
209.37
 21
48.09999999999999
 31
0.0
  0
LINE
  5
B3
330
1F
100
AcDbEntity
  8
TITLE_BLOCK
100
AcDbLine
 10
165.555
 20
48.09999999999999
 30
0.0
 11
218.895
 21
48.09999999999999
 31
0.0
  0
LINE
  5
B4
330
1F
100
AcDbEntity
  8
TITLE_BLOCK
100
AcDbLine
 10
165.555
 20
43.528
 30
0.0
 11
218.895
 21
43.528
 31
0.0
  0
LINE
  5
B5
330
1F
100
AcDbEntity
  8
TITLE_BLOCK
100
AcDbLine
 10
165.555
 20
38.956
 30
0.0
 11
218.895
 21
38.956
 31
0.0
  0
LINE
  5
B6
330
1F
100
AcDbEntity
  8
TITLE_BLOCK
100
AcDbLine
 10
165.555
 20
34.384
 30
0.0
 11
218.895
 21
34.384
 31
0.0
  0
LINE
  5
B7
330
1F
100
AcDbEntity
  8
TITLE_BLOCK
100
AcDbLine
 10
165.555
 20
29.812
 30
0.0
 11
218.895
 21
29.812
 31
0.0
  0
LINE
  5
B8
330
1F
100
AcDbEntity
  8
TITLE_BLOCK
100
AcDbLine
 10
165.555
 20
25.24
 30
0.0
 11
218.895
 21
25.24
 31
0.0
  0
LINE
  5
B9
330
1F
100
AcDbEntity
  8
TITLE_BLOCK
100
AcDbLine
 10
165.555
 20
20.668
 30
0.0
 11
218.895
 21
20.668
 31
0.0
  0
MTEXT
  5
BA
330
1F
100
AcDbEntity
  8
TITLE_BLOCK
100
AcDbMText
 10
179.56056
 20
47.00272
 30
0.0
 40
1.2192
 41
14.93519999999998
 71
     1
 72
     1
  1
NOMBRE
  7
ONSHAPE-STANDARD
  0
MTEXT
  5
BB
330
1F
100
AcDbEntity
  8
TITLE_BLOCK
100
AcDbMText
 10
214.1325
 20
47.00272
 30
0.0
 40
1.2192
 41
9.334500000000006
 71
     2
 72
     1
  1
FECHA
  7
ONSHAPE-STANDARD
  0
MTEXT
  5
BC
330
1F
100
AcDbEntity
  8
TITLE_BLOCK
100
AcDbMText
 10
166.158504
 20
42.540448
 30
0.0
 40
1.09728
 41
13.06830000000001
 71
     1
 72
     1
  1
DIBUJADO POR
  7
ONSHAPE-STANDARD
  0
MTEXT
  5
BD
102
{ACAD_XDICTIONARY
360
BE
102
}
330
1F
100
AcDbEntity
  8
TITLE_BLOCK
100
AcDbMText
 10
186.51
 20
41.242
 30
0.0
 40
1.024128
 41
15.23999999999998
 71
     5
 72
     1
  1
SEBASTIN GALINDO
  7
ONSHAPE-STANDARD-FIELDS
1001
ACAD
1000
ACAD_MTEXT_DEFINED_HEIGHT_BEGIN
1070
    46
1040
4.572000000000003
1000
ACAD_MTEXT_DEFINED_HEIGHT_END
  0
MTEXT
  5
C4
102
{ACAD_XDICTIONARY
360
C5
102
}
330
1F
100
AcDbEntity
  8
TITLE_BLOCK
100
AcDbMText
 10
214.1325
 20
41.242
 30
0.0
 40
1.024128
 41
9.525000000000006
 71
     5
 72
     1
  1
2025-03-03
  7
ONSHAPE-STANDARD-FIELDS
1001
ACAD
1000
ACAD_MTEXT_DEFINED_HEIGHT_BEGIN
1070
    46
1040
4.572000000000003
1000
ACAD_MTEXT_DEFINED_HEIGHT_END
  0
MTEXT
  5
CA
330
1F
100
AcDbEntity
  8
TITLE_BLOCK
100
AcDbMText
 10
166.158504
 20
37.968448
 30
0.0
 40
1.09728
 41
13.06830000000001
 71
     1
 72
     1
  1
COMPROBADO POR
  7
ONSHAPE-STANDARD
  0
MTEXT
  5
CB
330
1F
100
AcDbEntity
  8
TITLE_BLOCK
100
AcDbMText
 10
186.51
 20
36.67
 30
0.0
 40
1.024128
 41
15.23999999999998
 71
     5
 72
     1
  1
 
  7
ONSHAPE-STANDARD-FIELDS
1001
ACAD
1000
ACAD_MTEXT_DEFINED_HEIGHT_BEGIN
1070
    46
1040
4.571999999999996
1000
ACAD_MTEXT_DEFINED_HEIGHT_END
  0
MTEXT
  5
CC
330
1F
100
AcDbEntity
  8
TITLE_BLOCK
100
AcDbMText
 10
214.1325
 20
36.67
 30
0.0
 40
1.024128
 41
9.525000000000006
 71
     5
 72
     1
  1
 
  7
ONSHAPE-STANDARD-FIELDS
1001
ACAD
1000
ACAD_MTEXT_DEFINED_HEIGHT_BEGIN
1070
    46
1040
4.571999999999996
1000
ACAD_MTEXT_DEFINED_HEIGHT_END
  0
MTEXT
  5
CD
330
1F
100
AcDbEntity
  8
TITLE_BLOCK
100
AcDbMText
 10
166.158504
 20
33.396448
 30
0.0
 40
1.09728
 41
13.06830000000001
 71
     1
 72
     1
  1
APROBADO POR
  7
ONSHAPE-STANDARD
  0
MTEXT
  5
CE
102
{ACAD_XDICTIONARY
360
CF
102
}
330
1F
100
AcDbEntity
  8
TITLE_BLOCK
100
AcDbMText
 10
186.51
 20
32.098
 30
0.0
 40
1.024128
 41
15.23999999999998
 71
     5
 72
     1
  1
----
  7
ONSHAPE-STANDARD-FIELDS
1001
ACAD
1000
ACAD_MTEXT_DEFINED_HEIGHT_BEGIN
1070
    46
1040
4.572000000000003
1000
ACAD_MTEXT_DEFINED_HEIGHT_END
  0
MTEXT
  5
D4
102
{ACAD_XDICTIONARY
360
D5
102
}
330
1F
100
AcDbEntity
  8
TITLE_BLOCK
100
AcDbMText
 10
214.1325
 20
32.098
 30
0.0
 40
1.024128
 41
9.525000000000006
 71
     5
 72
     1
  1
----
  7
ONSHAPE-STANDARD-FIELDS
1001
ACAD
1000
ACAD_MTEXT_DEFINED_HEIGHT_BEGIN
1070
    46
1040
4.572000000000003
1000
ACAD_MTEXT_DEFINED_HEIGHT_END
  0
MTEXT
  5
DA
330
1F
100
AcDbEntity
  8
TITLE_BLOCK
100
AcDbMText
 10
172.2225
 20
27.526
 30
0.0
 40
1.8288
 41
13.33500000000001
 71
     5
 72
     1
  1
 
  7
ONSHAPE-STANDARD-FIELDS
1001
ACAD
1000
ACAD_MTEXT_DEFINED_HEIGHT_BEGIN
1070
    46
1040
4.571999999999999
1000
ACAD_MTEXT_DEFINED_HEIGHT_END
  0
MTEXT
  5
DB
330
1F
100
AcDbEntity
  8
TITLE_BLOCK
100
AcDbMText
 10
186.51
 20
27.526
 30
0.0
 40
1.024128
 41
15.23999999999998
 71
     5
 72
     1
  1
 
  7
ONSHAPE-STANDARD-FIELDS
1001
ACAD
1000
ACAD_MTEXT_DEFINED_HEIGHT_BEGIN
1070
    46
1040
4.571999999999999
1000
ACAD_MTEXT_DEFINED_HEIGHT_END
  0
MTEXT
  5
DC
330
1F
100
AcDbEntity
  8
TITLE_BLOCK
100
AcDbMText
 10
214.1325
 20
27.526
 30
0.0
 40
1.024128
 41
9.525000000000006
 71
     5
 72
     1
  1
 
  7
ONSHAPE-STANDARD-FIELDS
1001
ACAD
1000
ACAD_MTEXT_DEFINED_HEIGHT_BEGIN
1070
    46
1040
4.571999999999999
1000
ACAD_MTEXT_DEFINED_HEIGHT_END
  0
MTEXT
  5
DD
330
1F
100
AcDbEntity
  8
TITLE_BLOCK
100
AcDbMText
 10
172.2225
 20
22.954
 30
0.0
 40
1.8288
 41
13.33500000000001
 71
     5
 72
     1
  1
 
  7
ONSHAPE-STANDARD-FIELDS
1001
ACAD
1000
ACAD_MTEXT_DEFINED_HEIGHT_BEGIN
1070
    46
1040
4.571999999999999
1000
ACAD_MTEXT_DEFINED_HEIGHT_END
  0
MTEXT
  5
DE
330
1F
100
AcDbEntity
  8
TITLE_BLOCK
100
AcDbMText
 10
186.51
 20
22.954
 30
0.0
 40
1.024128
 41
15.23999999999998
 71
     5
 72
     1
  1
 
  7
ONSHAPE-STANDARD-FIELDS
1001
ACAD
1000
ACAD_MTEXT_DEFINED_HEIGHT_BEGIN
1070
    46
1040
4.571999999999999
1000
ACAD_MTEXT_DEFINED_HEIGHT_END
  0
MTEXT
  5
DF
330
1F
100
AcDbEntity
  8
TITLE_BLOCK
100
AcDbMText
 10
214.1325
 20
22.954
 30
0.0
 40
1.024128
 41
9.525000000000006
 71
     5
 72
     1
  1
 
  7
ONSHAPE-STANDARD-FIELDS
1001
ACAD
1000
ACAD_MTEXT_DEFINED_HEIGHT_BEGIN
1070
    46
1040
4.571999999999999
1000
ACAD_MTEXT_DEFINED_HEIGHT_END
  0
MTEXT
  5
E0
330
1F
100
AcDbEntity
  8
TITLE_BLOCK
100
AcDbMText
 10
166.22556
 20
19.57072
 30
0.0
 40
1.2192
 41
26.13660000000002
 71
     1
 72
     1
  1
MATERIAL
  7
ONSHAPE-STANDARD
  0
MTEXT
  5
E1
330
1F
100
AcDbEntity
  8
TITLE_BLOCK
100
AcDbMText
 10
178.89
 20
15.334
 30
0.0
 40
1.8288
 41
26.67000000000002
 71
     5
 72
     1
  1
 
  7
ONSHAPE-STANDARD-FIELDS
1001
ACAD
1000
ACAD_MTEXT_DEFINED_HEIGHT_BEGIN
1070
    46
1040
10.668
1000
ACAD_MTEXT_DEFINED_HEIGHT_END
  0
MTEXT
  5
E2
330
1F
100
AcDbEntity
  8
TITLE_BLOCK
100
AcDbMText
 10
192.89556
 20
19.57072
 30
0.0
 40
1.2192
 41
26.13659999999999
 71
     1
 72
     1
  1
ACABADO
  7
ONSHAPE-STANDARD
  0
MTEXT
  5
E3
330
1F
100
AcDbEntity
  8
TITLE_BLOCK
100
AcDbMText
 10
205.56
 20
15.334
 30
0.0
 40
1.8288
 41
26.66999999999999
 71
     5
 72
     1
  1
 
  7
ONSHAPE-STANDARD-FIELDS
1001
ACAD
1000
ACAD_MTEXT_DEFINED_HEIGHT_BEGIN
1070
    46
1040
10.668
1000
ACAD_MTEXT_DEFINED_HEIGHT_END
  0
LINE
  5
E4
330
1F
100
AcDbEntity
  8
TITLE_BLOCK
100
AcDbLine
 10
218.895
 20
10.0
 30
0.0
 11
218.895
 21
48.09999999999999
 31
0.0
  0
LINE
  5
E5
330
1F
100
AcDbEntity
  8
TITLE_BLOCK
100
AcDbLine
 10
228.42
 20
14.953
 30
0.0
 11
228.42
 21
22.573
 31
0.0
  0
LINE
  5
E6
330
1F
100
AcDbEntity
  8
TITLE_BLOCK
100
AcDbLine
 10
235.659
 20
10.0
 30
0.0
 11
235.659
 21
14.953
 31
0.0
  0
LINE
  5
E7
330
1F
100
AcDbEntity
  8
TITLE_BLOCK
100
AcDbLine
 10
270.33
 20
10.0
 30
0.0
 11
270.33
 21
14.953
 31
0.0
  0
LINE
  5
E8
330
1F
100
AcDbEntity
  8
TITLE_BLOCK
100
AcDbLine
 10
289.38
 20
14.953
 30
0.0
 11
289.38
 21
22.573
 31
0.0
  0
LINE
  5
E9
330
1F
100
AcDbEntity
  8
TITLE_BLOCK
100
AcDbLine
 10
218.895
 20
14.953
 30
0.0
 11
297.0
 21
14.953
 31
0.0
  0
LINE
  5
EA
330
1F
100
AcDbEntity
  8
TITLE_BLOCK
100
AcDbLine
 10
218.895
 20
22.573
 30
0.0
 11
297.0
 21
22.573
 31
0.0
  0
LINE
  5
EB
330
1F
100
AcDbEntity
  8
TITLE_BLOCK
100
AcDbLine
 10
218.895
 20
38.575
 30
0.0
 11
297.0
 21
38.575
 31
0.0
  0
LINE
  5
EC
330
1F
100
AcDbEntity
  8
TITLE_BLOCK
100
AcDbLine
 10
218.895
 20
48.09999999999999
 30
0.0
 11
297.0
 21
48.09999999999999
 31
0.0
  0
MTEXT
  5
ED
330
1F
100
AcDbEntity
  8
TITLE_BLOCK
100
AcDbMText
 10
219.56556
 20
37.47772
 30
0.0
 40
1.2192
 41
9.334500000000006
 71
     1
 72
     1
  1
TTULO
  7
ONSHAPE-STANDARD
  0
MTEXT
  5
EE
102
{ACAD_XDICTIONARY
360
EF
102
}
330
1F
100
AcDbEntity
  8
TITLE_BLOCK
100
AcDbMText
 10
257.9475
 20
35.52699999999999
 30
0.0
 40
2.92608
 41
70.48499999999999
 71
     5
 72
     1
  1
----
  7
ONSHAPE-STANDARD-FIELDS
1001
ACAD
1000
ACAD_MTEXT_DEFINED_HEIGHT_BEGIN
1070
    46
1040
4.800599999999998
1000
ACAD_MTEXT_DEFINED_HEIGHT_END
  0
MTEXT
  5
F4
102
{ACAD_XDICTIONARY
360
F5
102
}
330
1F
100
AcDbEntity
  8
TITLE_BLOCK
100
AcDbMText
 10
257.9475
 20
30.7264
 30
0.0
 40
2.92608
 41
70.48499999999999
 71
     5
 72
     1
  1
----
  7
ONSHAPE-STANDARD-FIELDS
1001
ACAD
1000
ACAD_MTEXT_DEFINED_HEIGHT_BEGIN
1070
    46
1040
4.800599999999998
1000
ACAD_MTEXT_DEFINED_HEIGHT_END
  0
MTEXT
  5
FA
102
{ACAD_XDICTIONARY
360
FB
102
}
330
1F
100
AcDbEntity
  8
TITLE_BLOCK
100
AcDbMText
 10
257.9475
 20
25.9258
 30
0.0
 40
2.92608
 41
70.48499999999999
 71
     5
 72
     1
  1
----
  7
ONSHAPE-STANDARD-FIELDS
1001
ACAD
1000
ACAD_MTEXT_DEFINED_HEIGHT_BEGIN
1070
    46
1040
4.800599999999998
1000
ACAD_MTEXT_DEFINED_HEIGHT_END
  0
MTEXT
  5
100
330
1F
100
AcDbEntity
  8
TITLE_BLOCK
100
AcDbMText
 10
219.431448
 20
21.695176
 30
0.0
 40
0.9753599999999999
 41
9.334500000000006
 71
     1
 72
     1
  1
TAMAO
  7
ONSHAPE-STANDARD
  0
MTEXT
  5
101
102
{ACAD_XDICTIONARY
360
102
102
}
330
1F
100
AcDbEntity
  8
TITLE_BLOCK
100
AcDbMText
 10
223.6575
 20
18.763
 30
0.0
 40
3.6576
 41
9.525000000000006
 71
     5
 72
     1
  1
A4
  7
ONSHAPE-STANDARD-FIELDS
1001
ACAD
1000
ACAD_MTEXT_DEFINED_HEIGHT_BEGIN
1070
    46
1040
7.620000000000001
1000
ACAD_MTEXT_DEFINED_HEIGHT_END
  0
MTEXT
  5
107
330
1F
100
AcDbEntity
  8
TITLE_BLOCK
100
AcDbMText
 10
228.956448
 20
21.695176
 30
0.0
 40
0.9753599999999999
 41
59.74079999999998
 71
     1
 72
     1
  1
NMERO DE DIBUJO
  7
ONSHAPE-STANDARD
  0
MTEXT
  5
108
102
{ACAD_XDICTIONARY
360
109
102
}
330
1F
100
AcDbEntity
  8
TITLE_BLOCK
100
AcDbMText
 10
258.9
 20
18.763
 30
0.0
 40
3.6576
 41
60.95999999999998
 71
     5
 72
     1
  1
----
  7
ONSHAPE-STANDARD-FIELDS
1001
ACAD
1000
ACAD_MTEXT_DEFINED_HEIGHT_BEGIN
1070
    46
1040
7.620000000000001
1000
ACAD_MTEXT_DEFINED_HEIGHT_END
  0
MTEXT
  5
10E
330
1F
100
AcDbEntity
  8
TITLE_BLOCK
100
AcDbMText
 10
289.916448
 20
21.695176
 30
0.0
 40
0.9753599999999999
 41
7.467600000000004
 71
     1
 72
     1
  1
REVISIN
  7
ONSHAPE-STANDARD
  0
MTEXT
  5
10F
102
{ACAD_XDICTIONARY
360
110
102
}
330
1F
100
AcDbEntity
  8
TITLE_BLOCK
100
AcDbMText
 10
293.571
 20
18.763
 30
0.0
 40
3.6576
 41
6.858000000000004
 71
     5
 72
     1
  1
-
  7
ONSHAPE-STANDARD-FIELDS
1001
ACAD
1000
ACAD_MTEXT_DEFINED_HEIGHT_BEGIN
1070
    46
1040
7.620000000000001
1000
ACAD_MTEXT_DEFINED_HEIGHT_END
  0
MTEXT
  5
115
330
1F
100
AcDbEntity
  8
TITLE_BLOCK
100
AcDbMText
 10
219.431448
 20
14.075176
 30
0.0
 40
0.9753599999999999
 41
16.42871999999998
 71
     1
 72
     1
  1
ESCALA
  7
ONSHAPE-STANDARD
  0
MTEXT
  5
116
102
{ACAD_XDICTIONARY
360
117
102
}
330
1F
100
AcDbEntity
  8
TITLE_BLOCK
100
AcDbMText
 10
228.039
 20
12.4765
 30
0.0
 40
2.19456
 41
15.23999999999998
 71
     5
 72
     1
  1
1:2
  7
ONSHAPE-STANDARD-FIELDS
1001
ACAD
1000
ACAD_MTEXT_DEFINED_HEIGHT_BEGIN
1070
    46
1040
4.952999999999999
1000
ACAD_MTEXT_DEFINED_HEIGHT_END
  0
MTEXT
  5
11C
330
1F
100
AcDbEntity
  8
TITLE_BLOCK
100
AcDbMText
 10
236.195448
 20
14.075176
 30
0.0
 40
0.9753599999999999
 41
33.97757999999999
 71
     1
 72
     1
  1
PESO
  7
ONSHAPE-STANDARD
  0
MTEXT
  5
11D
330
1F
100
AcDbEntity
  8
TITLE_BLOCK
100
AcDbMText
 10
252.9945
 20
12.4765
 30
0.0
 40
2.19456
 41
34.67099999999999
 71
     5
 72
     1
  1
 
  7
ONSHAPE-STANDARD-FIELDS
1001
ACAD
1000
ACAD_MTEXT_DEFINED_HEIGHT_BEGIN
1070
    46
1040
4.952999999999999
1000
ACAD_MTEXT_DEFINED_HEIGHT_END
  0
MTEXT
  5
11E
330
1F
100
AcDbEntity
  8
TITLE_BLOCK
100
AcDbMText
 10
270.866448
 20
14.075176
 30
0.0
 40
0.9753599999999999
 41
26.13660000000002
 71
     1
 72
     1
  1
HOJA
  7
ONSHAPE-STANDARD
  0
MTEXT
  5
11F
102
{ACAD_XDICTIONARY
360
120
102
}
330
1F
100
AcDbEntity
  8
TITLE_BLOCK
100
AcDbMText
 10
284.427
 20
12.4765
 30
0.0
 40
2.19456
 41
25.14600000000002
 71
     5
 72
     1
  1
1 de 1
  7
ONSHAPE-STANDARD-FIELDS
1001
ACAD
1000
ACAD_MTEXT_DEFINED_HEIGHT_BEGIN
1070
    46
1040
4.952999999999999
1000
ACAD_MTEXT_DEFINED_HEIGHT_END
  0
MTEXT
  5
125
102
{ACAD_XDICTIONARY
360
126
102
}
330
1F
100
AcDbEntity
  8
ANNOTATION_TEXT
 62
     7
 60
     1
100
AcDbMText
 10
157.0484250126582
 20
59.89240506329114
 30
0.0
 40
3.5
 41
0.0
 71
     2
 72
     1
  1

  7
ONSHAPE-STANDARD-VIEW-LABE
1001
ACAD
1000
ACAD_MTEXT_DEFINED_HEIGHT_BEGIN
1070
    46
1040
3.5
1000
ACAD_MTEXT_DEFINED_HEIGHT_END
  0
LINE
  5
12F
330
1F
100
AcDbEntity
  8
CENTERMARKS
  6
CONTINUOUS
100
AcDbLine
 10
133.7859250126582
 20
157.3306962025316
 30
0.0
 11
134.3109250126582
 21
157.3306962025316
 31
0.0
  0
LINE
  5
130
330
1F
100
AcDbEntity
  8
CENTERMARKS
  6
CONTINUOUS
100
AcDbLine
 10
134.0484250126582
 20
157.0681962025317
 30
0.0000000000000001
 11
134.0484250126582
 21
157.5931962025316
 31
-0.0000000000000001
  0
LINE
  5
131
330
1F
100
AcDbEntity
  8
CENTERMARKS
  6
CENTER
100
AcDbLine
 10
133.5234250126582
 20
157.3306962025316
 30
0.0
 11
132.7734250126582
 21
157.3306962025316
 31
0.0
  0
LINE
  5
132
330
1F
100
AcDbEntity
  8
CENTERMARKS
  6
CENTER
100
AcDbLine
 10
134.5734250126582
 20
157.3306962025316
 30
0.0
 11
135.3234250126582
 21
157.3306962025316
 31
0.0
  0
LINE
  5
133
330
1F
100
AcDbEntity
  8
CENTERMARKS
  6
CENTER
100
AcDbLine
 10
134.0484250126582
 20
157.8556962025316
 30
0.0000000000000001
 11
134.0484250126582
 21
158.6056962025316
 31
-0.0000000000000001
  0
LINE
  5
134
330
1F
100
AcDbEntity
  8
CENTERMARKS
  6
CENTER
100
AcDbLine
 10
134.0484250126582
 20
156.8056962025317
 30
-0.0000000000000001
 11
134.0484250126582
 21
156.0556962025317
 31
0.0000000000000001
  0
LINE
  5
137
330
1F
100
AcDbEntity
  8
CENTERMARKS
  6
CONTINUOUS
100
AcDbLine
 10
156.7859250126582
 20
159.8306962025316
 30
0.0
 11
157.3109250126582
 21
159.8306962025316
 31
0.0
  0
LINE
  5
138
330
1F
100
AcDbEntity
  8
CENTERMARKS
  6
CONTINUOUS
100
AcDbLine
 10
157.0484250126582
 20
159.5681962025317
 30
0.0000000000000001
 11
157.0484250126582
 21
160.0931962025316
 31
-0.0000000000000001
  0
LINE
  5
139
330
1F
100
AcDbEntity
  8
CENTERMARKS
  6
CENTER
100
AcDbLine
 10
156.5234250126582
 20
159.8306962025316
 30
0.0
 11
155.7734250126582
 21
159.8306962025316
 31
0.0
  0
LINE
  5
13A
330
1F
100
AcDbEntity
  8
CENTERMARKS
  6
CENTER
100
AcDbLine
 10
157.5734250126582
 20
159.8306962025316
 30
0.0
 11
158.3234250126582
 21
159.8306962025316
 31
0.0
  0
LINE
  5
13B
330
1F
100
AcDbEntity
  8
CENTERMARKS
  6
CENTER
100
AcDbLine
 10
157.0484250126582
 20
160.3556962025316
 30
0.0000000000000001
 11
157.0484250126582
 21
161.1056962025316
 31
-0.0000000000000001
  0
LINE
  5
13C
330
1F
100
AcDbEntity
  8
CENTERMARKS
  6
CENTER
100
AcDbLine
 10
157.0484250126582
 20
159.3056962025317
 30
-0.0000000000000001
 11
157.0484250126582
 21
158.5556962025317
 31
0.0000000000000001
  0
LINE
  5
13F
330
1F
100
AcDbEntity
  8
CENTERMARKS
  6
CONTINUOUS
100
AcDbLine
 10
179.7859250126582
 20
157.3306962025316
 30
0.0
 11
180.3109250126582
 21
157.3306962025316
 31
0.0
  0
LINE
  5
140
330
1F
100
AcDbEntity
  8
CENTERMARKS
  6
CONTINUOUS
100
AcDbLine
 10
180.0484250126582
 20
157.0681962025317
 30
0.0000000000000001
 11
180.0484250126582
 21
157.5931962025316
 31
-0.0000000000000001
  0
LINE
  5
141
330
1F
100
AcDbEntity
  8
CENTERMARKS
  6
CENTER
100
AcDbLine
 10
179.5234250126582
 20
157.3306962025316
 30
0.0
 11
178.7734250126582
 21
157.3306962025316
 31
0.0
  0
LINE
  5
142
330
1F
100
AcDbEntity
  8
CENTERMARKS
  6
CENTER
100
AcDbLine
 10
180.5734250126582
 20
157.3306962025316
 30
0.0
 11
181.3234250126582
 21
157.3306962025316
 31
0.0
  0
LINE
  5
143
330
1F
100
AcDbEntity
  8
CENTERMARKS
  6
CENTER
100
AcDbLine
 10
180.0484250126582
 20
157.8556962025316
 30
0.0000000000000001
 11
180.0484250126582
 21
158.6056962025316
 31
-0.0000000000000001
  0
LINE
  5
144
330
1F
100
AcDbEntity
  8
CENTERMARKS
  6
CENTER
100
AcDbLine
 10
180.0484250126582
 20
156.8056962025317
 30
-0.0000000000000001
 11
180.0484250126582
 21
156.0556962025317
 31
0.0000000000000001
  0
LINE
  5
147
330
1F
100
AcDbEntity
  8
CENTERMARKS
  6
CONTINUOUS
100
AcDbLine
 10
179.7859250126582
 20
129.3306962025316
 30
0.0
 11
180.3109250126582
 21
129.3306962025316
 31
0.0
  0
LINE
  5
148
330
1F
100
AcDbEntity
  8
CENTERMARKS
  6
CONTINUOUS
100
AcDbLine
 10
180.0484250126582
 20
129.0681962025317
 30
0.0000000000000001
 11
180.0484250126582
 21
129.5931962025316
 31
-0.0000000000000001
  0
LINE
  5
149
330
1F
100
AcDbEntity
  8
CENTERMARKS
  6
CENTER
100
AcDbLine
 10
179.5234250126582
 20
129.3306962025316
 30
0.0
 11
178.7734250126582
 21
129.3306962025316
 31
0.0
  0
LINE
  5
14A
330
1F
100
AcDbEntity
  8
CENTERMARKS
  6
CENTER
100
AcDbLine
 10
180.5734250126582
 20
129.3306962025316
 30
0.0
 11
181.3234250126582
 21
129.3306962025316
 31
0.0
  0
LINE
  5
14B
330
1F
100
AcDbEntity
  8
CENTERMARKS
  6
CENTER
100
AcDbLine
 10
180.0484250126582
 20
129.8556962025316
 30
0.0000000000000001
 11
180.0484250126582
 21
130.6056962025316
 31
-0.0000000000000001
  0
LINE
  5
14C
330
1F
100
AcDbEntity
  8
CENTERMARKS
  6
CENTER
100
AcDbLine
 10
180.0484250126582
 20
128.8056962025317
 30
-0.0000000000000001
 11
180.0484250126582
 21
128.0556962025317
 31
0.0000000000000001
  0
LINE
  5
14F
330
1F
100
AcDbEntity
  8
CENTERMARKS
  6
CONTINUOUS
100
AcDbLine
 10
156.7859250126582
 20
126.8306962025316
 30
0.0
 11
157.3109250126582
 21
126.8306962025316
 31
0.0
  0
LINE
  5
150
330
1F
100
AcDbEntity
  8
CENTERMARKS
  6
CONTINUOUS
100
AcDbLine
 10
157.0484250126582
 20
126.5681962025316
 30
0.0000000000000001
 11
157.0484250126582
 21
127.0931962025316
 31
-0.0000000000000001
  0
LINE
  5
151
330
1F
100
AcDbEntity
  8
CENTERMARKS
  6
CENTER
100
AcDbLine
 10
156.5234250126582
 20
126.8306962025316
 30
0.0
 11
155.7734250126582
 21
126.8306962025316
 31
0.0
  0
LINE
  5
152
330
1F
100
AcDbEntity
  8
CENTERMARKS
  6
CENTER
100
AcDbLine
 10
157.5734250126582
 20
126.8306962025316
 30
0.0
 11
158.3234250126582
 21
126.8306962025316
 31
0.0
  0
LINE
  5
153
330
1F
100
AcDbEntity
  8
CENTERMARKS
  6
CENTER
100
AcDbLine
 10
157.0484250126582
 20
127.3556962025316
 30
0.0000000000000001
 11
157.0484250126582
 21
128.1056962025316
 31
-0.0000000000000001
  0
LINE
  5
154
330
1F
100
AcDbEntity
  8
CENTERMARKS
  6
CENTER
100
AcDbLine
 10
157.0484250126582
 20
126.3056962025316
 30
-0.0000000000000001
 11
157.0484250126582
 21
125.5556962025316
 31
0.0000000000000001
  0
LINE
  5
157
330
1F
100
AcDbEntity
  8
CENTERMARKS
  6
CONTINUOUS
100
AcDbLine
 10
133.7859250126582
 20
129.3306962025316
 30
0.0
 11
134.3109250126582
 21
129.3306962025316
 31
0.0
  0
LINE
  5
158
330
1F
100
AcDbEntity
  8
CENTERMARKS
  6
CONTINUOUS
100
AcDbLine
 10
134.0484250126582
 20
129.0681962025317
 30
0.0000000000000001
 11
134.0484250126582
 21
129.5931962025316
 31
-0.0000000000000001
  0
LINE
  5
159
330
1F
100
AcDbEntity
  8
CENTERMARKS
  6
CENTER
100
AcDbLine
 10
133.5234250126582
 20
129.3306962025316
 30
0.0
 11
132.7734250126582
 21
129.3306962025316
 31
0.0
  0
LINE
  5
15A
330
1F
100
AcDbEntity
  8
CENTERMARKS
  6
CENTER
100
AcDbLine
 10
134.5734250126582
 20
129.3306962025316
 30
0.0
 11
135.3234250126582
 21
129.3306962025316
 31
0.0
  0
LINE
  5
15B
330
1F
100
AcDbEntity
  8
CENTERMARKS
  6
CENTER
100
AcDbLine
 10
134.0484250126582
 20
129.8556962025316
 30
0.0000000000000001
 11
134.0484250126582
 21
130.6056962025316
 31
-0.0000000000000001
  0
LINE
  5
15C
330
1F
100
AcDbEntity
  8
CENTERMARKS
  6
CENTER
100
AcDbLine
 10
134.0484250126582
 20
128.8056962025317
 30
-0.0000000000000001
 11
134.0484250126582
 21
128.0556962025317
 31
0.0000000000000001
  0
MTEXT
  5
15D
102
{ACAD_XDICTIONARY
360
15E
102
}
330
1F
100
AcDbEntity
  8
ANNOTATION_TEXT
 62
     7
 60
     1
100
AcDbMText
 10
157.0484250126582
 20
114.2806962025316
 30
0.0
 40
3.5
 41
0.0
 71
     2
 72
     1
  1

  7
ONSHAPE-STANDARD-VIEW-LABE
1001
ACAD
1000
ACAD_MTEXT_DEFINED_HEIGHT_BEGIN
1070
    46
1040
3.5
1000
ACAD_MTEXT_DEFINED_HEIGHT_END
  0
DIMENSION
  5
164
102
{ACAD_REACTORS
330
182
102
}
102
{ACAD_XDICTIONARY
360
165
102
}
330
1F
100
AcDbEntity
  8
ANNOTATION_TEXT
100
AcDbDimension
  2
*D1
 10
134.0484250126582
 20
169.4673260021791
 30
0.0
 11
129.0484250126582
 21
169.4673260021791
 31
0.0
 70
   160
  3
ONSHAPE-ISO-25$0
100
AcDbAlignedDimension
 13
124.0484250126582
 23
167.3306962025316
 33
0.7500000000000118
 14
134.0484250126582
 24
158.6056962025316
 34
0.7500000000000093
100
AcDbRotatedDimension
1001
ACAD
1000
DSTYLE
1002
{
1070
     4
1000
[]
1070
   144
1040
2.0
1070
     3
1000

1070
   288
1070
     1
1002
}
1001
ACAD_DIMASSOC_CALC_DIMLFAC
1040
-2.0
1001
ACAD_DIMASSOC_DIMLFAC
1040
-2.0
1001
ACAD_DIMASSOC_OVERRIDDEN_D
1040
0.0
1001
ONSHAPE_DIMENSION_ON_CENTE
1070
     1
1013
0.0
1023
1.0
1033
0.0
  0
DIMENSION
  5
17D
102
{ACAD_REACTORS
102
}
102
{ACAD_XDICTIONARY
360
17E
102
}
330
1F
100
AcDbEntity
  8
ANNOTATION_TEXT
100
AcDbDimension
  2
*D2
 10
157.0484250126582
 20
176.7062207714267
 30
0.0
 11
141.7675679019539
 21
176.7062207714267
 31
0.0
 70
   160
  3
ONSHAPE-ISO-25$0
100
AcDbAlignedDimension
 13
124.0484250126582
 23
167.3306962025316
 33
0.7500000000000118
 14
157.0484250126582
 24
161.1056962025316
 34
0.75000000000001
100
AcDbRotatedDimension
1001
ACAD
1000
DSTYLE
1002
{
1070
     4
1000
[]
1070
   144
1040
2.0
1070
     3
1000

1070
   288
1070
     1
1002
}
1001
ACAD_DIMASSOC_CALC_DIMLFAC
1040
-2.0
1001
ACAD_DIMASSOC_DIMLFAC
1040
-2.0
1001
ACAD_DIMASSOC_OVERRIDDEN_D
1040
0.0
1001
ONSHAPE_DIMENSION_ON_CENT0
1070
     1
1013
0.0
1023
1.0
1033
0.0
1001
ONSHAPE_DIMENSION_ON_CENTE
1070
     1
1013
0.0
1023
1.0
1033
0.0
  0
DIMENSION
  5
190
102
{ACAD_REACTORS
330
1B9
102
}
102
{ACAD_XDICTIONARY
360
191
102
}
330
1F
100
AcDbEntity
  8
ANNOTATION_TEXT
100
AcDbDimension
  2
*D3
 10
190.0484250126582
 20
169.4673260021791
 30
0.0
 11
185.0484250126582
 21
169.4673260021791
 31
0.0
 70
   160
  3
ONSHAPE-ISO-25$0
100
AcDbAlignedDimension
 13
180.0484250126582
 23
158.6056962025316
 33
0.7500000000000093
 14
190.0484250126582
 24
167.3306962025316
 34
0.7500000000000118
100
AcDbRotatedDimension
1001
ACAD
1000
DSTYLE
1002
{
1070
     4
1000
[]
1070
   144
1040
2.0
1070
     3
1000

1070
   288
1070
     1
1002
}
1001
ACAD_DIMASSOC_CALC_DIMLFAC
1040
-2.0
1001
ACAD_DIMASSOC_DIMLFAC
1040
-2.0
1001
ACAD_DIMASSOC_OVERRIDDEN_D
1040
0.0
1001
ONSHAPE_DIMENSION_ON_CENT0
1070
     1
1013
0.0
1023
1.0
1033
0.0
  0
DIMENSION
  5
1A2
102
{ACAD_REACTORS
102
}
102
{ACAD_XDICTIONARY
360
1A3
102
}
330
1F
100
AcDbEntity
  8
ANNOTATION_TEXT
100
AcDbDimension
  2
*D4
 10
119.976036151175
 20
167.3306962025316
 30
0.0
 11
119.976036151175
 21
162.3306962025316
 31
0.0
 70
   160
  3
ONSHAPE-ISO-25$0
100
AcDbAlignedDimension
 13
132.7734250126582
 23
157.3306962025316
 33
0.7500000000000093
 14
124.0484250126582
 24
167.3306962025316
 34
0.7500000000000118
 50
90.0
100
AcDbRotatedDimension
1001
ACAD
1000
DSTYLE
1002
{
1070
     4
1000
[]
1070
   144
1040
2.0
1070
     3
1000

1070
   288
1070
     1
1002
}
1001
ACAD_DIMASSOC_CALC_DIMLFAC
1040
-2.0
1001
ACAD_DIMASSOC_DIMLFAC
1040
-2.0
1001
ACAD_DIMASSOC_OVERRIDDEN_D
1040
0.0
1001
ONSHAPE_DIMENSION_ON_CENT0
1070
     1
1013
-1.0
1023
0.0
1033
0.0
  0
DIMENSION
  5
1B4
102
{ACAD_REACTORS
330
1CC
102
}
102
{ACAD_XDICTIONARY
360
1B5
102
}
330
1F
100
AcDbEntity
  8
ANNOTATION_TEXT
100
AcDbDimension
  2
*D5
 10
204.8654359564482
 20
167.3306962025316
 30
0.0
 11
204.8654359564482
 21
163.5806962025316
 31
0.0
 70
   160
  3
ONSHAPE-ISO-25$0
100
AcDbAlignedDimension
 13
158.3234250126582
 23
159.8306962025316
 33
0.75000000000001
 14
190.0484250126582
 24
167.3306962025316
 34
0.7500000000000118
 50
90.0
100
AcDbRotatedDimension
1001
ACAD
1000
DSTYLE
1002
{
1070
     4
1000
[]
1070
   144
1040
2.0
1070
     3
1000

1070
   288
1070
     1
1002
}
1001
ACAD_DIMASSOC_CALC_DIMLFAC
1040
-2.0
1001
ACAD_DIMASSOC_DIMLFAC
1040
-2.0
1001
ACAD_DIMASSOC_OVERRIDDEN_D
1040
0.0
1001
ONSHAPE_DIMENSION_ON_CENT0
1070
     1
1013
1.0
1023
0.0
1033
0.0
  0
DIMENSION
  5
1C7
102
{ACAD_REACTORS
330
1EF
102
}
102
{ACAD_XDICTIONARY
360
1C8
102
}
330
1F
100
AcDbEntity
  8
ANNOTATION_TEXT
100
AcDbDimension
  2
*D6
 10
220.7380860476659
 20
119.3306962025316
 30
0.0
 11
220.7380860476659
 21
143.3306962025316
 31
0.0
 70
   160
  3
ONSHAPE-ISO-25$0
100
AcDbAlignedDimension
 13
190.0484250126582
 23
167.3306962025316
 33
0.7500000000000118
 14
190.0484250126582
 24
119.3306962025316
 34
0.75
 50
90.0
100
AcDbRotatedDimension
1001
ACAD
1000
DSTYLE
1002
{
1070
     4
1000
[]
1070
   144
1040
2.0
1070
     3
1000

1070
   288
1070
     1
1002
}
1001
ACAD_DIMASSOC_CALC_DIMLFAC
1040
-2.0
1001
ACAD_DIMASSOC_DIMLFAC
1040
-2.0
1001
ACAD_DIMASSOC_OVERRIDDEN_D
1040
0.0
  0
DIMENSION
  5
1D9
102
{ACAD_REACTORS
330
1EF
102
}
102
{ACAD_XDICTIONARY
360
1DA
102
}
330
1F
100
AcDbEntity
  8
ANNOTATION_TEXT
100
AcDbDimension
  2
*D7
 10
190.0484250126582
 20
100.4536925398102
 30
0.0
 11
157.0484250126582
 21
100.4536925398102
 31
0.0
 70
   160
  3
ONSHAPE-ISO-25$0
100
AcDbAlignedDimension
 13
124.0484250126582
 23
119.3306962025316
 33
0.7500000000000002
 14
190.0484250126582
 24
119.3306962025316
 34
0.7500000000000002
100
AcDbRotatedDimension
1001
ACAD
1000
DSTYLE
1002
{
1070
     4
1000
[]
1070
   144
1040
2.0
1070
     3
1000

1070
   288
1070
     1
1002
}
1001
ACAD_DIMASSOC_CALC_DIMLFAC
1040
-2.0
1001
ACAD_DIMASSOC_DIMLFAC
1040
-2.0
1001
ACAD_DIMASSOC_OVERRIDDEN_D
1040
0.0
  0
DIMENSION
  5
1EB
102
{ACAD_REACTORS
102
}
102
{ACAD_XDICTIONARY
360
1EC
102
}
330
1F
100
AcDbEntity
  8
ANNOTATION_TEXT
100
AcDbDimension
  2
*D8
 10
179.5767367374762
 20
129.9138001135593
 30
0.7500000000000026
 11
201.5498570584944
 21
102.7504952980555
 31
0.0
 70
   163
  3
ONSHAPE-ISO-25$3
100
AcDbDiametricDimension
 15
180.5201132878402
 25
128.7475922915039
 35
0.7500000000000023
 40
0.0
1001
ACAD
1000
DSTYLE
1002
{
1070
   287
1070
     3
1070
     4
1000
[]
1070
   144
1040
2.0
1070
   289
1070
     3
1070
   279
1070
     0
1070
   172
1070
     1
1070
     3
1000
%%c<>
1002
}
1001
ACAD_DSTYLE_DIMRADIAL_EXTE
1070
   387
1070
     1
1070
   388
1040
0.0
1070
   390
1040
6.283185307179586
1001
ACAD_DIMASSOC_CALC_DIMLFAC
1040
-2.0
1001
ACAD_DIMASSOC_DIMLFAC
1040
-2.0
1001
ACAD_DIMASSOC_OVERRIDDEN_D
1040
0.0
  0
LINE
  5
200
330
1F
100
AcDbEntity
  8
CENTERLINES
100
AcDbLine
 10
192.5484250126582
 20
143.3306962025316
 30
0.0
 11
121.5484250126582
 21
143.3306962025316
 31
0.0
  0
ENDSEC
  0
SECTION
  2
OBJECTS
  0
DICTIONARY
  5
C
330
0
100
AcDbDictionary
  3
ACAD_FIELDLIST
350
12B
  3
ACAD_GROUP
350
D
  3
ACAD_LAYOUT
350
1A
  3
ACAD_MATERIAL
350
43
  3
ACAD_MLEADERSTYLE
350
6B
  3
ACAD_MLINESTYLE
350
17
  3
ACAD_PLOTSETTINGS
350
19
  3
ACAD_SCALELIST
350
47
  3
ACAD_VISUALSTYLE
350
2A
  3
ACDBHEADERROUNDTRIPXREC
350
25D
  3
ACDBVARIABLEDICTIONARY
350
6E
  3
ONSHAPE_DATA
350
201
  0
DICTIONARY
  5
288
330
8
100
AcDbDictionary
280
     1
  3
ACAD_XREC_ROUNDTRIP
360
289
  0
DICTIONARY
  5
BE
330
BD
100
AcDbDictionary
280
     1
  0
DICTIONARY
  5
C5
330
C4
100
AcDbDictionary
280
     1
  0
DICTIONARY
  5
CF
330
CE
100
AcDbDictionary
280
     1
  0
DICTIONARY
  5
D5
330
D4
100
AcDbDictionary
280
     1
  0
DICTIONARY
  5
EF
330
EE
100
AcDbDictionary
280
     1
  0
DICTIONARY
  5
F5
330
F4
100
AcDbDictionary
280
     1
  0
DICTIONARY
  5
FB
330
FA
100
AcDbDictionary
280
     1
  0
DICTIONARY
  5
102
330
101
100
AcDbDictionary
280
     1
  0
DICTIONARY
  5
109
330
108
100
AcDbDictionary
280
     1
  0
DICTIONARY
  5
110
330
10F
100
AcDbDictionary
280
     1
  0
DICTIONARY
  5
117
330
116
100
AcDbDictionary
280
     1
  0
DICTIONARY
  5
120
330
11F
100
AcDbDictionary
280
     1
  0
DICTIONARY
  5
126
330
125
100
AcDbDictionary
280
     1
  3
ONSHAPE_VIEW_ID
360
127
  0
DICTIONARY
  5
15E
330
15D
100
AcDbDictionary
280
     1
  3
ONSHAPE_VIEW_ID
360
15F
  0
DICTIONARY
  5
165
330
164
100
AcDbDictionary
280
     1
  3
ACAD_BREAKDATA
360
169
  3
OS_DIM_DISPLAY_FLAG_DATA
360
166
  0
DICTIONARY
  5
17E
330
17D
100
AcDbDictionary
280
     1
  3
ACAD_BREAKDATA
360
182
  3
OS_DIM_DISPLAY_FLAG_DATA
360
17F
  0
DICTIONARY
  5
191
330
190
100
AcDbDictionary
280
     1
  3
ACAD_BREAKDATA
360
195
  3
OS_DIM_DISPLAY_FLAG_DATA
360
192
  0
DICTIONARY
  5
1A3
330
1A2
100
AcDbDictionary
280
     1
  3
ACAD_BREAKDATA
360
1A7
  3
OS_DIM_DISPLAY_FLAG_DATA
360
1A4
  0
DICTIONARY
  5
1B5
330
1B4
100
AcDbDictionary
280
     1
  3
ACAD_BREAKDATA
360
1B9
  3
OS_DIM_DISPLAY_FLAG_DATA
360
1B6
  0
DICTIONARY
  5
1C8
330
1C7
100
AcDbDictionary
280
     1
  3
ACAD_BREAKDATA
360
1CC
  3
OS_DIM_DISPLAY_FLAG_DATA
360
1C9
  0
DICTIONARY
  5
1DA
330
1D9
100
AcDbDictionary
280
     1
  3
ACAD_BREAKDATA
360
1DE
  3
OS_DIM_DISPLAY_FLAG_DATA
360
1DB
  0
DICTIONARY
  5
1EC
330
1EB
100
AcDbDictionary
280
     1
  3
ACAD_BREAKDATA
360
1EF
  3
OS_DIM_DISPLAY_FLAG_DATA
360
1ED
  0
ACAD_PROXY_OBJECT
  5
12B
102
{ACAD_REACTORS
330
C
102
}
330
C
100
AcDbProxyObject
 90
      499
 91
      509
 93
       11
310
4600
330
C1
330
C2
330
C8
330
C9
330
D2
330
D3
330
D8
330
D9
330
F2
330
F3
330
F8
330
F9
330
FE
330
FF
330
105
330
106
330
10C
330
10D
330
113
330
114
330
11A
330
11B
330
123
330
124
 94
        0
  0
DICTIONARY
  5
D
102
{ACAD_REACTORS
330
C
102
}
330
C
100
AcDbDictionary
  0
DICTIONARY
  5
1A
102
{ACAD_REACTORS
330
C
102
}
330
C
100
AcDbDictionary
  0
DICTIONARY
  5
43
102
{ACAD_REACTORS
330
C
102
}
330
C
100
AcDbDictionary
  3
BYBLOCK
350
45
  3
BYLAYER
350
44
  3
GLOBAL
350
46
  0
DICTIONARY
  5
6B
102
{ACAD_REACTORS
330
C
102
}
330
C
100
AcDbDictionary
  3
STANDARD
350
6C
  0
DICTIONARY
  5
17
102
{ACAD_REACTORS
330
C
102
}
330
C
100
AcDbDictionary
  3
STANDARD
350
18
  0
DICTIONARY
  5
19
102
{ACAD_REACTORS
330
C
102
}
330
C
100
AcDbDictionary
  0
DICTIONARY
  5
47
102
{ACAD_REACTORS
330
C
102
}
330
C
100
AcDbDictionary
  3
A0
350
48
  3
A1
350
49
  3
A2
350
4A
  3
A3
350
4B
  3
A4
350
4C
  3
A5
350
4D
  3
A6
350
4E
  3
A7
350
4F
  3
A8
350
50
  3
A9
350
51
  3
B0
350
52
  3
B1
350
53
  3
B2
350
54
  3
B3
350
55
  3
B4
350
56
  3
B5
350
57
  3
B6
350
58
  3
B7
350
59
  3
B8
350
5A
  3
B9
350
5B
  3
C0
350
5C
  3
C1
350
5D
  3
C2
350
5E
  3
C3
350
5F
  3
C4
350
60
  3
C5
350
61
  3
C6
350
62
  3
C7
350
63
  3
C8
350
64
  3
C9
350
65
  3
D0
350
66
  3
D1
350
67
  3
D2
350
68
  0
DICTIONARY
  5
2A
102
{ACAD_REACTORS
330
C
102
}
330
C
100
AcDbDictionary
  3
2DWIREFRAME
350
2F
  3
BASIC
350
32
  3
BRIGHTEN
350
36
  3
COLORCHANGE
350
3A
  3
CONCEPTUAL
350
34
  3
DIM
350
35
  3
EDGECOLOROFF
350
3D
  3
FACEPATTERN
350
39
  3
FLAT
350
2B
  3
FLATWITHEDGES
350
2C
  3
GOURAUD
350
2D
  3
GOURAUDWITHEDGES
350
2E
  3
HIDDEN
350
31
  3
JITTEROFF
350
3B
  3
LINEPATTERN
350
38
  3
OVERHANGOFF
350
3C
  3
REALISTIC
350
33
  3
SHADED
350
42
  3
SHADED_WITH_EDGES
350
41
  3
SHADES_OF_GRAY
350
3E
  3
SKETCHY
350
3F
  3
THICKEN
350
37
  3
WIREFRAME
350
30
  3
X-RAY
350
40
  0
DICTIONARY
  5
25D
102
{ACAD_REACTORS
330
C
102
}
330
C
100
AcDbDictionary
  3
CEPSNID
350
267
  3
CEPSNTYPE
350
266
  3
DIMSTYLEDATA
350
27D
  3
FINGERPRINTGUID
350
268
  3
HYPERLINKBASE
350
260
  3
INSUNITS
350
265
  3
LAYOUTDICT
350
262
  3
LWETCUNION
350
264
  3
PLOTSETDICT
350
263
  3
PSVPSCALE
350
26A
  3
PUCSBASE
350
26D
  3
PUCSORGBACK
350
273
  3
PUCSORGBOTTOM
350
26F
  3
PUCSORGFRONT
350
272
  3
PUCSORGLEFT
350
270
  3
PUCSORGRIGHT
350
271
  3
PUCSORGTOP
350
26E
  3
PUCSORTHOREF
350
26B
  3
PUCSORTHOVIEW
350
26C
  3
STYLESHEET
350
261
  3
TSTACKALIGN
350
25E
  3
TSTACKSIZE
350
25F
  3
UCSBASE
350
276
  3
UCSORGBACK
350
27C
  3
UCSORGBOTTOM
350
278
  3
UCSORGFRONT
350
27B
  3
UCSORGLEFT
350
279
  3
UCSORGRIGHT
350
27A
  3
UCSORGTOP
350
277
  3
UCSORTHOREF
350
274
  3
UCSORTHOVIEW
350
275
  3
VERSIONGUID
350
269
  0
DICTIONARY
  5
6E
102
{ACAD_REACTORS
330
C
102
}
330
C
100
AcDbDictionary
  3
CANNOSCALE
350
28A
  3
CENTEREXE
350
284
  3
CENTERLTYPEFILE
350
285
  3
CMLEADERSTYLE
350
27F
  3
CTABLESTYLE
350
27E
  3
DIMASSOC
350
286
  3
HIDETEXT
350
287
  3
MSLTSCALE
350
28B
  3
OLEFRAME
350
6F
  3
PSOLHEIGHT
350
281
  3
PSOLWIDTH
350
280
  0
DICTIONARY
  5
201
102
{ACAD_REACTORS
330
C
102
}
330
C
100
AcDbDictionary
280
     1
  3
DIM_UNITS
360
202
  3
ONSHAPE_ANG_TOL_PRECISION
360
205
  3
ONSHAPE_BREAK_DIMENSION_DEFAULT
360
20A
  3
ONSHAPE_DIMENSION_TEXT_HOR
360
209
  3
ONSHAPE_JOGDIMENSION_LOCK_
360
207
  3
ONSHAPE_SHOWDIMENSIONSLINE
360
208
  3
ONSHAPE_UNDERLINEOVERRIDEN
360
206
  3
ONSHAPE_VSHARP_EXTENSION
360
204
  3
ONSHAPE_WELD_STANDARD
360
203
  0
XRECORD
  5
289
102
{ACAD_REACTORS
330
288
102
}
330
288
100
AcDbXrecord
102
VTR_0.000_0.000_1.000_1.000_VISUALSTYLE
340
2F
102
VTR_0.000_0.000_1.000_1.000_GRIDDISPLAY
 70
     3
102
VTR_0.000_0.000_1.000_1.000_GRIDMAJOR
 70
     5
102
VTR_0.000_0.000_1.000_1.000_DEFAULTLIGHTING
280
     1
102
VTR_0.000_0.000_1.000_1.000_DEFAULTLIGHTINGTYPE
 70
     1
102
VTR_0.000_0.000_1.000_1.000_BRIGHTNESS
141
0.0
102
VTR_0.000_0.000_1.000_1.000_CONTRAST
142
0.0
  0
XRECORD
  5
127
102
{ACAD_REACTORS
330
126
102
}
330
126
100
AcDbXrecord
330
0
  0
XRECORD
  5
15F
102
{ACAD_REACTORS
330
15E
102
}
330
15E
100
AcDbXrecord
330
0
  0
BREAKDATA
  5
169
102
{ACAD_REACTORS
330
165
102
}
330
165
100
AcDbBreakData
 70
     0
330
164
 90
        0
  0
XRECORD
  5
166
102
{ACAD_REACTORS
330
165
102
}
330
165
100
AcDbXrecord
 90
        1
 90
        0
  0
BREAKDATA
  5
182
102
{ACAD_REACTORS
330
17E
102
}
330
17E
100
AcDbBreakData
 70
     0
330
17D
 90
        1
100
AcDbBreakPointRef
 71
     0
 72
     0
 91
       -1
 10
0.0
 20
0.0
 30
0.0
 11
0.0
 21
0.0
 31
0.0
331
164
 73
     2
 92
        0
  0
XRECORD
  5
17F
102
{ACAD_REACTORS
330
17E
102
}
330
17E
100
AcDbXrecord
 90
        1
 90
        0
  0
BREAKDATA
  5
195
102
{ACAD_REACTORS
330
191
102
}
330
191
100
AcDbBreakData
 70
     0
330
190
 90
        0
  0
XRECORD
  5
192
102
{ACAD_REACTORS
330
191
102
}
330
191
100
AcDbXrecord
 90
        1
 90
        0
  0
BREAKDATA
  5
1A7
102
{ACAD_REACTORS
330
1A3
102
}
330
1A3
100
AcDbBreakData
 70
     0
330
1A2
 90
        0
  0
XRECORD
  5
1A4
102
{ACAD_REACTORS
330
1A3
102
}
330
1A3
100
AcDbXrecord
 90
        1
 90
        0
  0
BREAKDATA
  5
1B9
102
{ACAD_REACTORS
330
1B5
102
}
330
1B5
100
AcDbBreakData
 70
     0
330
1B4
 90
        1
100
AcDbBreakPointRef
 71
     0
 72
     0
 91
       -1
 10
0.0
 20
0.0
 30
0.0
 11
0.0
 21
0.0
 31
0.0
331
190
 73
     2
 92
        0
  0
XRECORD
  5
1B6
102
{ACAD_REACTORS
330
1B5
102
}
330
1B5
100
AcDbXrecord
 90
        1
 90
        0
  0
BREAKDATA
  5
1CC
102
{ACAD_REACTORS
330
1C8
102
}
330
1C8
100
AcDbBreakData
 70
     0
330
1C7
 90
        1
100
AcDbBreakPointRef
 71
     0
 72
     0
 91
       -1
 10
0.0
 20
0.0
 30
0.0
 11
0.0
 21
0.0
 31
0.0
331
1B4
 73
     2
 92
        0
  0
XRECORD
  5
1C9
102
{ACAD_REACTORS
330
1C8
102
}
330
1C8
100
AcDbXrecord
 90
        1
 90
        0
  0
BREAKDATA
  5
1DE
102
{ACAD_REACTORS
330
1DA
102
}
330
1DA
100
AcDbBreakData
 70
     0
330
1D9
 90
        0
  0
XRECORD
  5
1DB
102
{ACAD_REACTORS
330
1DA
102
}
330
1DA
100
AcDbXrecord
 90
        1
 90
        0
  0
BREAKDATA
  5
1EF
102
{ACAD_REACTORS
330
1EC
102
}
330
1EC
100
AcDbBreakData
 70
     0
330
1EB
 90
        2
100
AcDbBreakPointRef
 71
     0
 72
     0
 91
       -1
 10
0.0
 20
0.0
 30
0.0
 11
0.0
 21
0.0
 31
0.0
331
1C7
 73
     2
 92
        0
100
AcDbBreakPointRef
 71
     0
 72
     0
 91
       -1
 10
0.0
 20
0.0
 30
0.0
 11
0.0
 21
0.0
 31
0.0
331
1D9
 73
     2
 92
        0
  0
XRECORD
  5
1ED
102
{ACAD_REACTORS
330
1EC
102
}
330
1EC
100
AcDbXrecord
 90
        1
 90
        0
  0
MATERIAL
  5
45
102
{ACAD_REACTORS
330
43
102
}
102
{ACAD_XDICTIONARY
360
28E
102
}
330
43
100
AcDbMaterial
  1
BYBLOCK
  0
MATERIAL
  5
44
102
{ACAD_REACTORS
330
43
102
}
102
{ACAD_XDICTIONARY
360
28C
102
}
330
43
100
AcDbMaterial
  1
BYLAYER
  0
MATERIAL
  5
46
102
{ACAD_REACTORS
330
43
102
}
102
{ACAD_XDICTIONARY
360
290
102
}
330
43
100
AcDbMaterial
  1
GLOBAL
  0
ACAD_PROXY_OBJECT
  5
6C
102
{ACAD_REACTORS
330
6B
102
}
330
6B
100
AcDbProxyObject
 90
      499
 91
      505
 93
      610
310
40901902A4063FBFFFFFE0000000000000020400000000000020404214DD185B99185C990000000000000104090140501A00000000000004100000000000000041025764000000000000039000
340
14
340
0
340
11
340
0
 94
        0
1001
ACAD_MLEADERVER
1070
     2
  0
MLINESTYLE
  5
18
102
{ACAD_REACTORS
330
17
102
}
330
17
100
AcDbMlineStyle
  2
Standard
 70
     0
  3

 62
   256
 51
90.0
 52
90.0
 71
     2
 49
0.5
 62
   256
  6
BYLAYER
 49
-0.5
 62
   256
  6
BYLAYER
  0
ACAD_PROXY_OBJECT
  5
48
102
{ACAD_REACTORS
330
47
102
}
330
47
100
AcDbProxyObject
 90
      499
 91
      503
 93
       41
310
903313A31580
  0
ACAD_PROXY_OBJECT
  5
49
102
{ACAD_REACTORS
330
47
102
}
330
47
100
AcDbProxyObject
 90
      499
 91
      503
 93
      105
310
903313A324000000000000004000
  0
ACAD_PROXY_OBJECT
  5
4A
102
{ACAD_REACTORS
330
47
102
}
330
47
100
AcDbProxyObject
 90
      499
 91
      503
 93
      105
310
903313A344000000000000104000
  0
ACAD_PROXY_OBJECT
  5
4B
102
{ACAD_REACTORS
330
47
102
}
330
47
100
AcDbProxyObject
 90
      499
 91
      503
 93
      105
310
903313A354000000000000144000
  0
ACAD_PROXY_OBJECT
  5
4C
102
{ACAD_REACTORS
330
47
102
}
330
47
100
AcDbProxyObject
 90
      499
 91
      503
 93
      105
310
903313A384000000000000204000
  0
ACAD_PROXY_OBJECT
  5
4D
102
{ACAD_REACTORS
330
47
102
}
330
47
100
AcDbProxyObject
 90
      499
 91
      503
 93
      113
310
904313A31304000000000000244000
  0
ACAD_PROXY_OBJECT
  5
4E
102
{ACAD_REACTORS
330
47
102
}
330
47
100
AcDbProxyObject
 90
      499
 91
      503
 93
      113
310
904313A31364000000000000304000
  0
ACAD_PROXY_OBJECT
  5
4F
102
{ACAD_REACTORS
330
47
102
}
330
47
100
AcDbProxyObject
 90
      499
 91
      503
 93
      113
310
904313A32304000000000000344000
  0
ACAD_PROXY_OBJECT
  5
50
102
{ACAD_REACTORS
330
47
102
}
330
47
100
AcDbProxyObject
 90
      499
 91
      503
 93
      113
310
904313A333040000000000003E4000
  0
ACAD_PROXY_OBJECT
  5
51
102
{ACAD_REACTORS
330
47
102
}
330
47
100
AcDbProxyObject
 90
      499
 91
      503
 93
      113
310
904313A34304000000000000444000
  0
ACAD_PROXY_OBJECT
  5
52
102
{ACAD_REACTORS
330
47
102
}
330
47
100
AcDbProxyObject
 90
      499
 91
      503
 93
      113
310
904313A35304000000000000494000
  0
ACAD_PROXY_OBJECT
  5
53
102
{ACAD_REACTORS
330
47
102
}
330
47
100
AcDbProxyObject
 90
      499
 91
      503
 93
      121
310
905313A3130304000000000000594000
  0
ACAD_PROXY_OBJECT
  5
54
102
{ACAD_REACTORS
330
47
102
}
330
47
100
AcDbProxyObject
 90
      499
 91
      503
 93
      105
310
903323A310000000000000010100
  0
ACAD_PROXY_OBJECT
  5
55
102
{ACAD_REACTORS
330
47
102
}
330
47
100
AcDbProxyObject
 90
      499
 91
      503
 93
      105
310
903343A310000000000000410100
  0
ACAD_PROXY_OBJECT
  5
56
102
{ACAD_REACTORS
330
47
102
}
330
47
100
AcDbProxyObject
 90
      499
 91
      503
 93
      105
310
903383A310000000000000810100
  0
ACAD_PROXY_OBJECT
  5
57
102
{ACAD_REACTORS
330
47
102
}
330
47
100
AcDbProxyObject
 90
      499
 91
      503
 93
      113
310
90431303A310000000000000910100
  0
ACAD_PROXY_OBJECT
  5
58
102
{ACAD_REACTORS
330
47
102
}
330
47
100
AcDbProxyObject
 90
      499
 91
      503
 93
      121
310
9053130303A310000000000001650100
  0
ACAD_PROXY_OBJECT
  5
59
102
{ACAD_REACTORS
330
47
102
}
330
47
100
AcDbProxyObject
 90
      499
 91
      503
 93
      257
310
90E312F31323822203D2031272D3022000000000000200FC000000000000284000
  0
ACAD_PROXY_OBJECT
  5
5A
102
{ACAD_REACTORS
330
47
102
}
330
47
100
AcDbProxyObject
 90
      499
 91
      503
 93
      249
310
90D312F363422203D2031272D3022000000000000240FC000000000000284000
  0
ACAD_PROXY_OBJECT
  5
5B
102
{ACAD_REACTORS
330
47
102
}
330
47
100
AcDbProxyObject
 90
      499
 91
      503
 93
      249
310
90D312F333222203D2031272D3022000000000000280FC000000000000284000
  0
ACAD_PROXY_OBJECT
  5
5C
102
{ACAD_REACTORS
330
47
102
}
330
47
100
AcDbProxyObject
 90
      499
 91
      503
 93
      249
310
90D312F313622203D2031272D30220000000000002C0FC000000000000284000
  0
ACAD_PROXY_OBJECT
  5
5D
102
{ACAD_REACTORS
330
47
102
}
330
47
100
AcDbProxyObject
 90
      499
 91
      503
 93
      249
310
90D332F333222203D2031272D30220000000000002E0FC000000000000284000
  0
ACAD_PROXY_OBJECT
  5
5E
102
{ACAD_REACTORS
330
47
102
}
330
47
100
AcDbProxyObject
 90
      499
 91
      503
 93
      241
310
90C312F3822203D2031272D3022000000000000300FC000000000000284000
  0
ACAD_PROXY_OBJECT
  5
5F
102
{ACAD_REACTORS
330
47
102
}
330
47
100
AcDbProxyObject
 90
      499
 91
      503
 93
      249
310
90D332F313622203D2031272D3022000000000000320FC000000000000284000
  0
ACAD_PROXY_OBJECT
  5
60
102
{ACAD_REACTORS
330
47
102
}
330
47
100
AcDbProxyObject
 90
      499
 91
      503
 93
      241
310
90C312F3422203D2031272D3022000000000000340FC000000000000284000
  0
ACAD_PROXY_OBJECT
  5
61
102
{ACAD_REACTORS
330
47
102
}
330
47
100
AcDbProxyObject
 90
      499
 91
      503
 93
      241
310
90C332F3822203D2031272D3022000000000000360FC000000000000284000
  0
ACAD_PROXY_OBJECT
  5
62
102
{ACAD_REACTORS
330
47
102
}
330
47
100
AcDbProxyObject
 90
      499
 91
      503
 93
      241
310
90C312F3222203D2031272D3022000000000000380FC000000000000284000
  0
ACAD_PROXY_OBJECT
  5
63
102
{ACAD_REACTORS
330
47
102
}
330
47
100
AcDbProxyObject
 90
      499
 91
      503
 93
      241
310
90C332F3422203D2031272D30220000000000003A0FC000000000000284000
  0
ACAD_PROXY_OBJECT
  5
64
102
{ACAD_REACTORS
330
47
102
}
330
47
100
AcDbProxyObject
 90
      499
 91
      503
 93
      161
310
90A3122203D2031272D30224000000000000284000
  0
ACAD_PROXY_OBJECT
  5
65
102
{ACAD_REACTORS
330
47
102
}
330
47
100
AcDbProxyObject
 90
      499
 91
      503
 93
      257
310
90E312D312F3222203D2031272D30220000000000003E0FC000000000000284000
  0
ACAD_PROXY_OBJECT
  5
66
102
{ACAD_REACTORS
330
47
102
}
330
47
100
AcDbProxyObject
 90
      499
 91
      503
 93
      225
310
90A3322203D2031272D302200000000000002100000000000000284000
  0
ACAD_PROXY_OBJECT
  5
67
102
{ACAD_REACTORS
330
47
102
}
330
47
100
AcDbProxyObject
 90
      499
 91
      503
 93
      225
310
90A3622203D2031272D302200000000000006100000000000000284000
  0
ACAD_PROXY_OBJECT
  5
68
102
{ACAD_REACTORS
330
47
102
}
330
47
100
AcDbProxyObject
 90
      499
 91
      503
 93
      249
310
90D31272D3022203D2031272D30220000000000000A100000000000000284000
  0
ACAD_PROXY_OBJECT
  5
2F
102
{ACAD_REACTORS
330
2A
102
}
330
2A
100
AcDbProxyObject
 90
      499
 91
      501
 93
      436
310
42CC9915DA5C99599C985B595049028333333333333E33F0000000000000F90107901411070040501600405405064090741402480A0340
1001
ACAD
1000
AcDbSavedByObjectVersion
1070
     0
  0
ACAD_PROXY_OBJECT
  5
32
102
{ACAD_REACTORS
330
2A
102
}
330
2A
100
AcDbProxyObject
 90
      499
 91
      501
 93
      388
310
4150985CDA58D07406404333333333333E33F0000000000000F90107A41107004050150841D405064090741402480A0350
1001
ACAD
1000
AcDbSavedByObjectVersion
1070
     0
  0
ACAD_PROXY_OBJECT
  5
36
102
{ACAD_REACTORS
330
2A
102
}
330
2A
100
AcDbProxyObject
 90
      499
 91
      501
 93
      428
310
42109C9A59DA1D195B90C409028333333333333E33F0000000000000F9010790141107004050150841D405064090741402480A029950
1001
ACAD
1000
AcDbSavedByObjectVersion
1070
     0
  0
ACAD_PROXY_OBJECT
  5
3A
102
{ACAD_REACTORS
330
2A
102
}
330
2A
100
AcDbProxyObject
 90
      499
 91
      501
 93
      452
310
42D0DBDB1BDC90DA185B99D95104090240C333333333333E33F0000000000000F90108901411070040501508421405064090741402480A0350
1001
ACAD
1000
AcDbSavedByObjectVersion
1070
     0
  0
ACAD_PROXY_OBJECT
  5
34
102
{ACAD_REACTORS
330
2A
102
}
330
2A
100
AcDbProxyObject
 90
      499
 91
      501
 93
      500
310
4290DBDB98D95C1D1D585B10940D028333333333333E33F0000000000000F90107902409070040501000000000018199010841D405064090740C02480A0340
1001
ACAD
1000
AcDbSavedByObjectVersion
1070
     0
  0
ACAD_PROXY_OBJECT
  5
35
102
{ACAD_REACTORS
330
2A
102
}
330
2A
100
AcDbProxyObject
 90
      499
 91
      501
 93
      412
310
40D11A5B50B409028333333333333E33F0000000000000F9010790141107004050150841D405064090741402480A02677FFFFFD0
1001
ACAD
1000
AcDbSavedByObjectVersion
1070
     0
  0
ACAD_PROXY_OBJECT
  5
3D
102
{ACAD_REACTORS
330
2A
102
}
330
2A
100
AcDbProxyObject
 90
      499
 91
      501
 93
      452
310
43115919D950DBDB1BDC93D999916409028333333333333E33F0000000000000F9010790141107004050150841D405064090741402480A0350
1001
ACAD
1000
AcDbSavedByObjectVersion
1070
     0
  0
ACAD_PROXY_OBJECT
  5
39
102
{ACAD_REACTORS
330
2A
102
}
330
2A
100
AcDbProxyObject
 90
      499
 91
      501
 93
      444
310
42D19858D95C185D1D195C9B90F409028333333333333E33F0000000000000F9010790141107004050150841D405064090741402480A0350
1001
ACAD
1000
AcDbSavedByObjectVersion
1070
     0
  0
ACAD_PROXY_OBJECT
  5
2B
102
{ACAD_REACTORS
330
2A
102
}
330
2A
100
AcDbProxyObject
 90
      499
 91
      501
 93
      380
310
41119B185D240901404333333333333E33F0000000000000F9010740A907004050150841D405064090741402480A1B50
1001
ACAD
1000
AcDbSavedByObjectVersion
1070
     0
  0
ACAD_PROXY_OBJECT
  5
2C
102
{ACAD_REACTORS
330
2A
102
}
330
2A
100
AcDbProxyObject
 90
      499
 91
      501
 93
      468
310
43519B185D15DA5D1A115919D95CD0140901404333333333333E33F0000000000000F90107409019070040501600405405064090741402480A1B50
1001
ACAD
1000
AcDbSavedByObjectVersion
1070
     0
  0
ACAD_PROXY_OBJECT
  5
2D
102
{ACAD_REACTORS
330
2A
102
}
330
2A
100
AcDbProxyObject
 90
      499
 91
      501
 93
      404
310
41D1DBDD5C985D5910240902404333333333333E33F0000000000000F9010740A9070040501641D405064090741402480A1B50
1001
ACAD
1000
AcDbSavedByObjectVersion
1070
     0
  0
ACAD_PROXY_OBJECT
  5
2E
102
{ACAD_REACTORS
330
2A
102
}
330
2A
100
AcDbProxyObject
 90
      499
 91
      501
 93
      492
310
4411DBDD5C985D5915DA5D1A115919D95CD0340902404333333333333E33F0000000000000F90107409019070040501600405405064090741402480A1B50
1001
ACAD
1000
AcDbSavedByObjectVersion
1070
     0
  0
ACAD_PROXY_OBJECT
  5
31
102
{ACAD_REACTORS
330
2A
102
}
330
2A
100
AcDbProxyObject
 90
      499
 91
      501
 93
      476
310
41921A5919195B90640502408333333333333E33F0000000000000F901079024090700405020000000000001110200405405064090740C02480A0340
1001
ACAD
1000
AcDbSavedByObjectVersion
1070
     0
  0
ACAD_PROXY_OBJECT
  5
3B
102
{ACAD_REACTORS
330
2A
102
}
330
2A
100
AcDbProxyObject
 90
      499
 91
      501
 93
      428
310
42529A5D1D195C93D999914409028333333333333E33F0000000000000F9010790141107004050150A41D405064090741402480A0350
1001
ACAD
1000
AcDbSavedByObjectVersion
1070
     0
  0
ACAD_PROXY_OBJECT
  5
38
102
{ACAD_REACTORS
330
2A
102
}
330
2A
100
AcDbProxyObject
 90
      499
 91
      501
 93
      444
310
42D31A5B995C185D1D195C9B90E409028333333333333E33F0000000000000F9010790141107004050750841D405064090741402483A0350
1001
ACAD
1000
AcDbSavedByObjectVersion
1070
     0
  0
ACAD_PROXY_OBJECT
  5
3C
102
{ACAD_REACTORS
330
2A
102
}
330
2A
100
AcDbProxyObject
 90
      499
 91
      501
 93
      444
310
42D3DD995C9A185B99D3D999915409028333333333333E33F0000000000000F9010790141107004050150941D405064090741402480A0350
1001
ACAD
1000
AcDbSavedByObjectVersion
1070
     0
  0
ACAD_PROXY_OBJECT
  5
33
102
{ACAD_REACTORS
330
2A
102
}
330
2A
100
AcDbProxyObject
 90
      499
 91
      501
 93
      428
310
425499585B1A5CDD1A58D08409038333333333333E33F0000000000000F9010740A907004050150800405405064090740C02480A1B40
1001
ACAD
1000
AcDbSavedByObjectVersion
1070
     0
  0
ACAD_PROXY_OBJECT
  5
42
102
{ACAD_REACTORS
330
2A
102
}
330
2A
100
AcDbProxyObject
 90
      499
 91
      501
 93
      420
310
4194DA1859195911B40902404333333333333E33F0000000000000F9010740A41107004050150800405405064090840C02480A0B40
1001
ACAD
1000
AcDbSavedByObjectVersion
1070
     0
  0
ACAD_PROXY_OBJECT
  5
41
102
{ACAD_REACTORS
330
2A
102
}
330
2A
100
AcDbProxyObject
 90
      499
 91
      501
 93
      516
310
4454DA18591959081DDA5D1A08195919D95CD1A40902404333333333333E33F0000000000000F901074090142907004050250800405405064090740C02480A0B40
1001
ACAD
1000
AcDbSavedByObjectVersion
1070
     0
  0
ACAD_PROXY_OBJECT
  5
3E
102
{ACAD_REACTORS
330
2A
102
}
330
2A
100
AcDbProxyObject
 90
      499
 91
      501
 93
      532
310
4394DA1859195CC81BD98811DC985E5174090240C333333333333E33F0000000000000F901079024090741D01000000000000111010841D405064090740C02480A0340
1001
ACAD
1000
AcDbSavedByObjectVersion
1070
     0
  0
ACAD_PROXY_OBJECT
  5
3F
102
{ACAD_REACTORS
330
2A
102
}
330
2A
100
AcDbProxyObject
 90
      499
 91
      501
 93
      476
310
41D4DAD95D18DA1E51840502408333333333333E33F0000000000000F901079024090741D01000000000000111010B41D405064090741802480A0340
1001
ACAD
1000
AcDbSavedByObjectVersion
1070
     0
  0
ACAD_PROXY_OBJECT
  5
37
102
{ACAD_REACTORS
330
2A
102
}
330
2A
100
AcDbProxyObject
 90
      499
 91
      501
 93
      412
310
41D51A1A58DAD95B90D409028333333333333E33F0000000000000F9010790141107004050150C41D405064090741402480A0350
1001
ACAD
1000
AcDbSavedByObjectVersion
1070
     0
  0
ACAD_PROXY_OBJECT
  5
30
102
{ACAD_REACTORS
330
2A
102
}
330
2A
100
AcDbProxyObject
 90
      499
 91
      501
 93
      420
310
4255DA5C99599C985B595059028333333333333E33F0000000000000F90107901411070040501600405405064090740C02480A0340
1001
ACAD
1000
AcDbSavedByObjectVersion
1070
     0
  0
ACAD_PROXY_OBJECT
  5
40
102
{ACAD_REACTORS
330
2A
102
}
330
2A
100
AcDbProxyObject
 90
      499
 91
      501
 93
      404
310
41560B54985E51940902404000000000000E03F0000000000000F9010740501907004050150841D405064090740C02480A1B40
1001
ACAD
1000
AcDbSavedByObjectVersion
1070
     0
  0
XRECORD
  5
267
102
{ACAD_REACTORS
330
25D
102
}
330
25D
100
AcDbXrecord
340
0
  0
XRECORD
  5
266
102
{ACAD_REACTORS
330
25D
102
}
330
25D
100
AcDbXrecord
 90
        0
  0
XRECORD
  5
27D
102
{ACAD_REACTORS
330
25D
102
}
330
25D
100
AcDbXrecord
1000
DSTYLE
1002
{
1070
   179
 70
     1
1070
   143
 40
0.03937
1070
   285
 70
     8
1070
   176
 70
     7
1070
   177
 70
     7
1070
   178
 70
     7
1070
   278
 70
    46
1070
   144
 40
2.0
1070
   371
 70
    13
1070
   372
 70
    13
1070
   340
340
73
1070
   140
 40
3.5
1070
   288
 70
     1
1002
}
  0
XRECORD
  5
268
102
{ACAD_REACTORS
330
25D
102
}
330
25D
100
AcDbXrecord
  1
{b0787438-7372-3661-b5f3-727573636130}
  0
XRECORD
  5
260
102
{ACAD_REACTORS
330
25D
102
}
330
25D
100
AcDbXrecord
  1

  0
XRECORD
  5
265
102
{ACAD_REACTORS
330
25D
102
}
330
25D
100
AcDbXrecord
 90
        4
  0
XRECORD
  5
262
102
{ACAD_REACTORS
330
25D
102
}
330
25D
100
AcDbXrecord
340
1A
  0
XRECORD
  5
264
102
{ACAD_REACTORS
330
25D
102
}
330
25D
100
AcDbXrecord
 90
    10269
  0
XRECORD
  5
263
102
{ACAD_REACTORS
330
25D
102
}
330
25D
100
AcDbXrecord
340
19
  0
XRECORD
  5
26A
102
{ACAD_REACTORS
330
25D
102
}
330
25D
100
AcDbXrecord
 40
0.0
  0
XRECORD
  5
26D
102
{ACAD_REACTORS
330
25D
102
}
330
25D
100
AcDbXrecord
340
0
  0
XRECORD
  5
273
102
{ACAD_REACTORS
330
25D
102
}
330
25D
100
AcDbXrecord
 10
0.0
 20
0.0
 30
0.0
  0
XRECORD
  5
26F
102
{ACAD_REACTORS
330
25D
102
}
330
25D
100
AcDbXrecord
 10
0.0
 20
0.0
 30
0.0
  0
XRECORD
  5
272
102
{ACAD_REACTORS
330
25D
102
}
330
25D
100
AcDbXrecord
 10
0.0
 20
0.0
 30
0.0
  0
XRECORD
  5
270
102
{ACAD_REACTORS
330
25D
102
}
330
25D
100
AcDbXrecord
 10
0.0
 20
0.0
 30
0.0
  0
XRECORD
  5
271
102
{ACAD_REACTORS
330
25D
102
}
330
25D
100
AcDbXrecord
 10
0.0
 20
0.0
 30
0.0
  0
XRECORD
  5
26E
102
{ACAD_REACTORS
330
25D
102
}
330
25D
100
AcDbXrecord
 10
0.0
 20
0.0
 30
0.0
  0
XRECORD
  5
26B
102
{ACAD_REACTORS
330
25D
102
}
330
25D
100
AcDbXrecord
340
0
  0
XRECORD
  5
26C
102
{ACAD_REACTORS
330
25D
102
}
330
25D
100
AcDbXrecord
 70
     0
  0
XRECORD
  5
261
102
{ACAD_REACTORS
330
25D
102
}
330
25D
100
AcDbXrecord
  1

  0
XRECORD
  5
25E
102
{ACAD_REACTORS
330
25D
102
}
330
25D
100
AcDbXrecord
 90
        1
  0
XRECORD
  5
25F
102
{ACAD_REACTORS
330
25D
102
}
330
25D
100
AcDbXrecord
 90
       70
  0
XRECORD
  5
276
102
{ACAD_REACTORS
330
25D
102
}
330
25D
100
AcDbXrecord
340
0
  0
XRECORD
  5
27C
102
{ACAD_REACTORS
330
25D
102
}
330
25D
100
AcDbXrecord
 10
0.0
 20
0.0
 30
0.0
  0
XRECORD
  5
278
102
{ACAD_REACTORS
330
25D
102
}
330
25D
100
AcDbXrecord
 10
0.0
 20
0.0
 30
0.0
  0
XRECORD
  5
27B
102
{ACAD_REACTORS
330
25D
102
}
330
25D
100
AcDbXrecord
 10
0.0
 20
0.0
 30
0.0
  0
XRECORD
  5
279
102
{ACAD_REACTORS
330
25D
102
}
330
25D
100
AcDbXrecord
 10
0.0
 20
0.0
 30
0.0
  0
XRECORD
  5
27A
102
{ACAD_REACTORS
330
25D
102
}
330
25D
100
AcDbXrecord
 10
0.0
 20
0.0
 30
0.0
  0
XRECORD
  5
277
102
{ACAD_REACTORS
330
25D
102
}
330
25D
100
AcDbXrecord
 10
0.0
 20
0.0
 30
0.0
  0
XRECORD
  5
274
102
{ACAD_REACTORS
330
25D
102
}
330
25D
100
AcDbXrecord
340
0
  0
XRECORD
  5
275
102
{ACAD_REACTORS
330
25D
102
}
330
25D
100
AcDbXrecord
 70
     0
  0
XRECORD
  5
269
102
{ACAD_REACTORS
330
25D
102
}
330
25D
100
AcDbXrecord
  1
{FAEB1C32-E019-11D5-929B-00C0DF256EC4}
  0
DICTIONARYVAR
  5
28A
102
{ACAD_REACTORS
330
6E
102
}
330
6E
100
DictionaryVariables
280
     0
  1
1:1
  0
DICTIONARYVAR
  5
284
102
{ACAD_REACTORS
330
6E
102
}
330
6E
100
DictionaryVariables
280
     0
  1
3.500000
  0
DICTIONARYVAR
  5
285
102
{ACAD_REACTORS
330
6E
102
}
330
6E
100
DictionaryVariables
280
     0
  1
MM.LIN
  0
DICTIONARYVAR
  5
27F
102
{ACAD_REACTORS
330
6E
102
}
330
6E
100
DictionaryVariables
280
     0
  1
Standard
  0
DICTIONARYVAR
  5
27E
102
{ACAD_REACTORS
330
6E
102
}
330
6E
100
DictionaryVariables
280
     0
  1
Onshape-Standard
  0
DICTIONARYVAR
  5
286
102
{ACAD_REACTORS
330
6E
102
}
330
6E
100
DictionaryVariables
280
     0
  1
2
  0
DICTIONARYVAR
  5
287
102
{ACAD_REACTORS
330
6E
102
}
330
6E
100
DictionaryVariables
280
     0
  1
1
  0
DICTIONARYVAR
  5
28B
102
{ACAD_REACTORS
330
6E
102
}
330
6E
100
DictionaryVariables
280
     0
  1
1
  0
DICTIONARYVAR
  5
6F
102
{ACAD_REACTORS
330
6E
102
}
330
6E
100
DictionaryVariables
280
     0
  1
0
  0
DICTIONARYVAR
  5
281
102
{ACAD_REACTORS
330
6E
102
}
330
6E
100
DictionaryVariables
280
     0
  1
80.000000
  0
DICTIONARYVAR
  5
280
102
{ACAD_REACTORS
330
6E
102
}
330
6E
100
DictionaryVariables
280
     0
  1
5.000000
  0
XRECORD
  5
202
102
{ACAD_REACTORS
330
201
102
}
330
201
100
AcDbXrecord
 70
     4
  0
XRECORD
  5
205
102
{ACAD_REACTORS
330
201
102
}
330
201
100
AcDbXrecord
 90
        0
  0
ACAD_PROXY_OBJECT
  5
20A
102
{ACAD_REACTORS
330
201
102
}
330
201
100
AcDbProxyObject
 90
      499
 91
      512
 93
       34
310
40C8804040
  0
XRECORD
  5
209
102
{ACAD_REACTORS
330
201
102
}
330
201
100
AcDbXrecord
 90
        5
  0
XRECORD
  5
207
102
{ACAD_REACTORS
330
201
102
}
330
201
100
AcDbXrecord
 90
        0
  0
ACAD_PROXY_OBJECT
  5
208
102
{ACAD_REACTORS
330
201
102
}
330
201
100
AcDbProxyObject
 90
      499
 91
      512
 93
       34
310
40C8804040
  0
ACAD_PROXY_OBJECT
  5
206
102
{ACAD_REACTORS
330
201
102
}
330
201
100
AcDbProxyObject
 90
      499
 91
      512
 93
       34
310
40C8804040
  0
XRECORD
  5
204
102
{ACAD_REACTORS
330
201
102
}
330
201
100
AcDbXrecord
 90
        0
  0
XRECORD
  5
203
102
{ACAD_REACTORS
330
201
102
}
330
201
100
AcDbXrecord
 90
        1
  0
DICTIONARY
  5
28E
330
45
100
AcDbDictionary
280
     1
  3
ACAD_XREC_ROUNDTRIP
360
28F
  0
DICTIONARY
  5
28C
330
44
100
AcDbDictionary
280
     1
  3
ACAD_XREC_ROUNDTRIP
360
28D
  0
DICTIONARY
  5
290
330
46
100
AcDbDictionary
280
     1
  3
ACAD_XREC_ROUNDTRIP
360
291
  0
XRECORD
  5
28F
102
{ACAD_REACTORS
330
28E
102
}
330
28E
100
AcDbXrecord
102
MATERIAL
148
0.0
149
0.0
149
0.0
 93
        0
 94
      127
282
     0
 72
     1
 77
     1
171
     1
175
     1
179
     1
273
     0
  0
XRECORD
  5
28D
102
{ACAD_REACTORS
330
28C
102
}
330
28C
100
AcDbXrecord
102
MATERIAL
148
0.0
149
0.0
149
0.0
 93
        0
 94
      127
282
     0
 72
     1
 77
     1
171
     1
175
     1
179
     1
273
     0
  0
XRECORD
  5
291
102
{ACAD_REACTORS
330
290
102
}
330
290
100
AcDbXrecord
102
MATERIAL
148
0.0
149
0.0
149
0.0
 93
        0
 94
      127
282
     0
 72
     1
 77
     1
171
     1
175
     1
179
     1
273
     0
  0
ENDSEC
  0
EOF
